<svg width="39" height="28" viewBox="0 0 39 28" fill="none" xmlns="http://www.w3.org/2000/svg">
<g clip-path="url(#clip0_450_1047)">
<path d="M22.7402 12.618C22.7402 8.0515 26.3928 4.32618 30.8701 4.32618C31.3414 4.32618 31.8127 4.32618 32.284 4.44635V3.12446C32.284 1.32189 30.8701 0 29.2205 0H3.06344C1.4139 0 0 1.44206 0 3.12446V21.6309C0 23.4335 1.4139 24.7554 3.06344 24.7554H3.18127L12.6073 13.0987C12.9607 12.618 13.7855 12.618 14.139 13.0987L23.4471 24.7554H29.1027C30.8701 24.7554 32.1662 23.3133 32.1662 21.6309V20.7897C31.6949 20.9099 31.2236 20.9099 30.7523 20.9099C26.3928 20.9099 22.7402 17.1845 22.7402 12.618Z" fill="#468432"/>
<path d="M2.00202 26.3161C1.4129 27.0372 1.8842 27.9985 2.82679 27.9985H24.1531C24.9779 27.9985 25.4492 27.0372 24.9779 26.3161L23.564 24.7539H3.29809L2.00202 26.3161Z" fill="#E05263"/>
<path d="M12.7268 13.0988L3.30078 24.7555H23.5666L14.2585 13.0988C13.905 12.6181 13.1981 12.6181 12.7268 13.0988Z" fill="#E48670"/>
<path d="M39.0012 12.617C39.0012 8.53115 36.1734 5.16634 32.2852 4.44531V20.7887C36.1734 20.0676 39.0012 16.7028 39.0012 12.617Z" fill="#E05263"/>
<path d="M30.8682 4.32812C26.3909 4.32812 22.7383 8.05345 22.7383 12.62C22.7383 17.1865 26.3909 20.9118 30.8682 20.9118C31.3395 20.9118 31.8108 20.9118 32.2821 20.7916V4.4483C31.8108 4.4483 31.3395 4.32812 30.8682 4.32812Z" fill="#E48670"/>
</g>
<defs>
<clipPath id="clip0_450_1047">
<rect width="39" height="28" fill="white"/>
</clipPath>
</defs>
</svg>