<svg width="30" height="34" viewBox="0 0 30 34" fill="none" xmlns="http://www.w3.org/2000/svg">
<g clip-path="url(#clip0_450_1032)">
<path d="M14.999 13.1609C18.1641 13.1609 20.9164 14.1206 23.3935 15.7658C24.4944 14.1206 25.0449 12.2012 25.0449 10.1448C25.0449 4.66091 20.5036 0.136719 14.999 0.136719C9.49441 0.136719 4.95312 4.52382 4.95312 10.0077C4.95312 12.0641 5.6412 13.9835 6.6045 15.6287C8.94395 13.9835 11.8339 13.1609 14.999 13.1609Z" fill="#E05263"/>
<path d="M23.3945 15.6289C21.6055 18.3708 18.578 20.016 15 20.016C11.422 20.016 8.3945 18.2337 6.6055 15.6289C2.61468 18.3708 0 22.895 0 27.9676V31.9434C0 33.0402 0.963303 33.9999 2.06422 33.9999H27.7982C28.8991 33.9999 29.8624 33.0402 29.8624 31.9434V27.9676C30 22.895 27.3853 18.3708 23.3945 15.6289Z" fill="#468432"/>
<path d="M15 20.1521C18.4403 20.1521 21.6055 18.3698 23.3945 15.765C21.055 14.1198 18.1651 13.1602 15 13.1602C11.8348 13.1602 9.08253 14.1198 6.60547 15.765C8.39446 18.3698 11.5596 20.1521 15 20.1521Z" fill="#E48670"/>
</g>
<defs>
<clipPath id="clip0_450_1032">
<rect width="30" height="34" fill="white"/>
</clipPath>
</defs>
</svg>