<?xml version="1.0" encoding="utf-8"?>
<!-- Generator: Adobe Illustrator 23.0.5, SVG Export Plug-In . SVG Version: 6.00 Build 0)  -->
<svg version="1.1" id="Layer_1" xmlns="http://www.w3.org/2000/svg" xmlns:xlink="http://www.w3.org/1999/xlink" x="0px" y="0px"
	 width="30px" height="30px" viewBox="0 0 30 30" style="enable-background:new 0 0 30 30;" xml:space="preserve">
<style type="text/css">
	.st0{fill:#141619;}
	.st1{fill:#6FB95D;}
	.st2{fill:#033A4A;}
	.st3{clip-path:url(#SVGID_2_);}
	.st4{fill:#2A4DA1;}
	.st5{fill:#D1A750;}
	.st6{fill:#FFFFFF;}
	.st7{fill:none;}
	.st8{clip-path:url(#SVGID_6_);fill:#6FB95D;}
	.st9{clip-path:url(#SVGID_6_);fill:#033A4A;}
	.st10{fill:#D6D5D5;}
	.st11{clip-path:url(#SVGID_8_);}
	.st12{clip-path:url(#SVGID_12_);fill:#2A4DA1;}
	.st13{clip-path:url(#SVGID_12_);fill:#D1A750;}
	.st14{clip-path:url(#SVGID_12_);fill:#FFFFFF;}
	.st15{fill:#F7F7F7;}
	.st16{fill-rule:evenodd;clip-rule:evenodd;fill:#033A4A;}
	.st17{clip-path:url(#SVGID_16_);}
	.st18{clip-path:url(#SVGID_20_);}
</style>
<g>
	<path class="st0" d="M20.4-81.2H9.6c-4.9,0-8.9,4-8.9,8.9v10.7c0,4.9,4,8.9,8.9,8.9h10.7c4.9,0,8.9-4,8.9-8.9v-10.7
		C29.4-77.2,25.4-81.2,20.4-81.2 M26.7-61.5c0,3.5-2.8,6.3-6.3,6.3H9.6c-3.5,0-6.3-2.8-6.3-6.3v-10.7c0-3.5,2.8-6.3,6.3-6.3h10.7
		c3.5,0,6.3,2.8,6.3,6.3V-61.5z"/>
	<path class="st0" d="M15-74c-4,0-7.1,3.2-7.1,7.1c0,4,3.2,7.1,7.1,7.1c4,0,7.1-3.2,7.1-7.1C22.1-70.8,19-74,15-74 M15-62.4
		c-2.4,0-4.5-2-4.5-4.5c0-2.5,2-4.5,4.5-4.5c2.5,0,4.5,2,4.5,4.5C19.5-64.4,17.5-62.4,15-62.4"/>
	<path class="st0" d="M22.8-75.5c0.5,0,0.9,0.4,0.9,0.9s-0.4,0.9-0.9,0.9c-0.5,0-0.9-0.4-0.9-0.9C21.7-75.1,22.1-75.5,22.8-75.5"/>
</g>
<g>
	<path class="st0" d="M52.4-81H41.8C37-81,33-77,33-72.2v10.6c0,4.9,3.9,8.8,8.8,8.8h10.6c4.9,0,8.8-3.9,8.8-8.8v-10.6
		C61.3-77,57.4-81,52.4-81 M58.6-61.6c0,3.4-2.8,6.2-6.2,6.2H41.8c-3.4,0-6.2-2.8-6.2-6.2v-10.6c0-3.4,2.8-6.2,6.2-6.2h10.6
		c3.4,0,6.2,2.8,6.2,6.2V-61.6z"/>
	<path class="st0" d="M48.5-69.6v-2.1c0-0.6,0.5-1.1,1.1-1.1h1.1v-2.6h-2.1c-1.7,0-3.2,1.4-3.2,3.2v2.7h-2.1v2.7h2.1v8.5h3.2V-67
		h2.1l1.1-2.7L48.5-69.6z"/>
</g>
<g>
	<path class="st1" d="M17.4,136.4c0-0.4,0.2-0.6,0.6-0.6h6.7v2.4H18c-0.4,0-0.6-0.2-0.6-0.6V136.4z M17.4,143.7
		c0-0.4,0.2-0.6,0.6-0.6h6.7v2.4H18c-0.4,0-0.6-0.2-0.6-0.6V143.7z M17.4,129.1c0-0.4,0.2-0.6,0.6-0.6h6.7v2.4H18
		c-0.4,0-0.6-0.2-0.6-0.6V129.1z"/>
	<path class="st2" d="M24.8,128.5H18c-0.4,0-0.6,0.2-0.6,0.6v1.2c0,0.4,0.2,0.6,0.6,0.6h6.7v4.9H18c-0.4,0-0.6,0.2-0.6,0.6v1.2
		c0,0.4,0.2,0.6,0.6,0.6h6.7v4.9H18c-0.4,0-0.6,0.2-0.6,0.6v1.2c0,0.4,0.2,0.6,0.6,0.6h6.7v2.7c0,0.7-0.2,1.2-0.7,1.7
		c-0.5,0.5-1.1,0.7-1.7,0.7H7.7c-0.7,0-1.2-0.2-1.7-0.7c-0.5-0.5-0.7-1.1-0.7-1.7v-23c0-0.7,0.2-1.2,0.7-1.7
		c0.5-0.5,1.1-0.7,1.7-0.7h14.6c0.7,0,1.2,0.2,1.7,0.7c0.5,0.5,0.7,1.1,0.7,1.7V128.5z"/>
</g>
<g>
	<path class="st2" d="M-5.5,130.1v16.5c0,0.9-0.3,1.7-1,2.3c-0.7,0.7-1.4,1-2.3,1h-19.9c-0.9,0-1.7-0.3-2.3-1c-0.7-0.7-1-1.4-1-2.3
		v-16.5c0-0.9,0.3-1.7,1-2.3c0.7-0.7,1.4-1,2.3-1h1.3c-0.9,1.5-1.3,3.2-1.3,5c0,2.7,1,5.1,2.9,7c1.9,1.9,4.3,2.9,7,2.9
		c2.7,0,5.1-1,7-2.9c1.9-1.9,2.9-4.3,2.9-7c0-1.8-0.4-3.4-1.3-5h1.3c0.9,0,1.7,0.3,2.3,1C-5.8,128.5-5.5,129.3-5.5,130.1
		 M-18.7,136.4c-0.4,0-0.7-0.1-1-0.3c-0.3-0.2-0.6-0.4-0.8-0.7c-0.2-0.3-0.3-0.7-0.3-1c0-0.6,0.2-1.1,0.6-1.5
		c0.4-0.4,0.9-0.6,1.5-0.6l1.7-4c0.1-0.3,0.4-0.5,0.8-0.5c0.2,0,0.4,0.1,0.6,0.2c0.2,0.2,0.2,0.4,0.2,0.6c0,0.1,0,0.2-0.1,0.3
		l-1.8,4.1c0.4,0.4,0.6,0.8,0.6,1.4c0,0.6-0.2,1.1-0.6,1.5C-17.6,136.2-18.1,136.4-18.7,136.4"/>
	<path class="st1" d="M-12.9,137.6l-1.2,1.2c-0.8,0.8-2.4,1.2-4.6,1.2c-2.3,0-4.2-0.8-5.8-2.4s-2.4-3.6-2.4-5.8
		c0-2.3,0.8-4.2,2.4-5.8c1.6-1.6,3.6-2.4,5.8-2.4c2.3,0,4.2,0.8,5.8,2.4c1.6,1.6,2.4,3.6,2.4,5.8C-10.4,134.1-11.2,136-12.9,137.6
		 M-18.7,132.2c-0.6,0-1.1,0.2-1.5,0.6c-0.4,0.4-0.6,0.9-0.6,1.5c0,0.6,0.2,1.1,0.6,1.4c0.4,0.4,0.9,0.6,1.5,0.6
		c0.6,0,1.1-0.2,1.5-0.6c0.4-0.4,0.6-0.9,0.6-1.5c0-0.6-0.2-1-0.6-1.4l1.8-4.1c0-0.1,0.1-0.2,0.1-0.3c0-0.1,0-0.3-0.1-0.4
		c-0.1-0.1-0.2-0.2-0.3-0.3c-0.1-0.1-0.3-0.1-0.4-0.1c-0.4,0-0.6,0.2-0.8,0.5L-18.7,132.2z"/>
</g>
<g>
	<defs>
		<rect id="SVGID_1_" x="1.1" y="-33.4" width="27.9" height="17.1"/>
	</defs>
	<clipPath id="SVGID_2_">
		<use xlink:href="#SVGID_1_"  style="overflow:visible;"/>
	</clipPath>
	<g class="st3">
		<defs>
			<rect id="SVGID_3_" x="0.4" y="-33.6" width="29.1" height="17.3"/>
		</defs>
		<clipPath id="SVGID_4_">
			<use xlink:href="#SVGID_3_"  style="overflow:visible;"/>
		</clipPath>
		<g style="clip-path:url(#SVGID_4_);">
			
				<image style="overflow:visible;" width="168" height="100" xlink:href="22CA149A.jpg"  transform="matrix(0.1731 0 0 0.1731 0.4443 -33.5663)">
			</image>
		</g>
	</g>
</g>
<g>
	<rect x="32.7" y="-33.8" class="st4" width="28.8" height="17.6"/>
	<rect x="33.6" y="-34.4" class="st4" width="26.8" height="19.1"/>
	<path class="st5" d="M47.1-21.4c0.1-0.1,0.2-0.3,0.2-0.4c-0.1,0-0.2-0.1-0.3-0.1c0.5,0.1,0.6-0.5,1.1-0.3c0-0.1,0.1-0.1,0.2-0.1
		l0.1,0.2c0.2,0.1,0.1-0.3,0.4-0.2c0.1-0.1,0-0.3,0.1-0.4c0-0.1,0.1-0.2,0.1-0.4c0.1,0.1,0.1,0.2,0.2,0.1c0.1-0.1,0.2-0.2,0.2-0.3
		c0-0.2-0.1-0.4,0.1-0.5v-0.1c0.1-0.1,0.5,0.1,0.5-0.2c0-0.1,0.1,0,0.1-0.1c0.1,0,0.2,0,0.3,0c0.1-0.2-0.1-0.3-0.2-0.5
		c0.1-0.1,0.1-0.3,0-0.4l-0.1,0c0.1,0,0.3,0,0.5-0.1l0.2-0.1c0.1,0.1,0.2,0.1,0.4,0.1c0.1-0.1,0-0.2,0.1-0.3c0.1,0,0.2,0,0.3-0.1
		l0,0c0.1,0.2,0.4,0.1,0.5,0.2c0.2,0,0.2-0.2,0.3-0.3c0-0.3-0.3-0.4-0.2-0.7c-0.1-0.1-0.2-0.3-0.3-0.4c0,0,0-0.1,0-0.1
		c-0.1-0.1,0-0.3-0.2-0.3c0-0.1-0.2-0.1-0.2-0.2c0.1-0.2-0.1-0.3-0.1-0.5c-0.1-0.1-0.3,0.1-0.3-0.1c-0.1,0-0.2,0.1-0.3,0
		c0-0.1,0.1-0.2,0.1-0.3c0.2,0,0.2-0.2,0.3-0.3l0.2-0.2c-0.2-0.1-0.4,0-0.7-0.1c-0.1,0,0,0.1-0.1,0.1c-0.1,0.1-0.2,0.1-0.3,0.1
		c0-0.1-0.2-0.1-0.1-0.2c0,0,0-0.1,0-0.1c-0.2,0-0.1,0.1-0.3,0.1c-0.2-0.1,0-0.3-0.3-0.3c0-0.2-0.4-0.4-0.1-0.6c0,0,0-0.1,0-0.2
		c-0.2-0.1-0.5-0.1-0.7,0c-0.2,0-0.1,0.2-0.1,0.3c-0.1,0.1-0.2,0.2-0.2,0.3c-0.1,0-0.2,0.1-0.3,0.2c-0.3-0.3-0.6-0.5-1-0.5
		c-0.2-0.1-0.3-0.4-0.5-0.3c-0.1-0.2-0.4,0-0.4-0.2c-0.1,0-0.1-0.2-0.1-0.3c0-0.2,0-0.3,0.2-0.5c0.1-0.1-0.1-0.1-0.1-0.3
		c0,0,0-0.1,0-0.1c-0.1,0-0.1-0.1-0.1-0.1c0,0-0.1,0-0.1-0.1c0-0.1-0.2-0.1-0.3-0.2c-0.1,0-0.2,0-0.2,0.1c0-0.1-0.1-0.2-0.2-0.2
		c-0.1,0-0.1,0.1-0.2,0.2c0,0.2-0.1,0.2-0.1,0.4c0.1,0.1,0.3,0.2,0.3,0.4c-0.1,0.2-0.1,0.4-0.2,0.6c-0.1,0.1-0.2,0.2-0.2,0.4
		c0.1,0.1,0,0.3-0.1,0.5c0,0.1-0.1,0.2-0.1,0.4c-0.2,0.1-0.2,0.4-0.5,0.5c-0.2,0-0.2,0.3-0.4,0.2c0,0-0.1,0.1-0.1,0.1
		c-0.1-0.1-0.3,0-0.5,0c-0.1,0.2,0.1,0.5-0.2,0.6v0.1c0,0,0.1,0,0.1,0c0,0.1-0.2,0.2-0.1,0.3c-0.1,0-0.1,0.1-0.1,0.2
		c-0.1,0.3-0.6,0.3-0.7,0.6c0.1,0.1,0.1,0.1,0.1,0.2c-0.1,0.1-0.1,0.2-0.1,0.4c0.1,0,0.1,0.1,0.1,0.2c-0.1,0.1-0.2,0.1-0.3,0.1
		c-0.2,0-0.3,0.2-0.4,0.2c0,0,0,0.1,0,0.1c0.2,0.1,0,0.4,0.2,0.3c0.1,0.1,0.2,0.1,0.3,0.2c0.1,0,0.2,0,0.3,0
		c0.1-0.1,0.2-0.1,0.3-0.2c0.1,0,0.2,0.1,0.3,0c0,0.2,0.1,0.3,0.2,0.4c0,0.1,0.1,0.1,0.2,0.1c0.2,0,0.3,0,0.5,0.1c0.1,0,0.1,0,0.2,0
		c0.1,0,0.2,0,0.3-0.1c0,0.2,0.3,0,0.4,0.3c0.1,0.1-0.2,0.2-0.2,0.3c0,0.1,0.1,0.2,0.1,0.3c0.1,0,0.1,0.1,0.2,0
		c0.2,0.1,0,0.5,0.4,0.4c0,0,0-0.1,0-0.1c0.1,0,0.1,0.1,0.2,0.2c0,0.1,0,0.3,0.1,0.4c0.1,0,0.1,0,0.1,0.1c0,0.1-0.1,0.2-0.1,0.2
		c0,0-0.1,0-0.1,0c0,0.1-0.1,0.2-0.1,0.3c-0.1,0-0.1,0.1-0.1,0.1c0.1,0.1,0,0.3,0.2,0.2c0.1,0.1,0.2,0,0.3,0.1
		c0.2,0.1,0.5,0.1,0.6,0.3c0.1,0,0.1,0.1,0.2,0C47-21.3,47.1-21.3,47.1-21.4"/>
	<polygon class="st6" points="48.6,-18.8 48.3,-18.1 48.1,-18.8 47.2,-18.8 47.9,-19.3 47.7,-20.1 48.3,-19.6 49,-20.1 48.8,-19.3 
		49.4,-18.8 	"/>
	<polygon class="st6" points="51.2,-19.3 51,-18.5 50.7,-19.3 49.9,-19.3 50.5,-19.8 50.3,-20.6 51,-20.1 51.6,-20.6 51.4,-19.8 
		52.1,-19.3 	"/>
	<polygon class="st6" points="53.7,-20.2 53.5,-19.4 53.2,-20.2 52.4,-20.2 53.1,-20.7 52.8,-21.5 53.5,-21 54.1,-21.5 53.9,-20.7 
		54.6,-20.2 	"/>
	<polygon class="st6" points="45.9,-18.8 45.7,-18.1 45.4,-18.8 44.6,-18.8 45.3,-19.3 45,-20.1 45.7,-19.6 46.3,-20.1 46.1,-19.3 
		46.8,-18.8 	"/>
	<polygon class="st6" points="43.3,-19.3 43,-18.5 42.8,-19.3 42,-19.3 42.6,-19.8 42.4,-20.6 43,-20.1 43.7,-20.6 43.5,-19.8 
		44.1,-19.3 	"/>
	<polygon class="st6" points="40.8,-20.2 40.5,-19.4 40.3,-20.2 39.4,-20.2 40.1,-20.7 39.9,-21.5 40.5,-21 41.2,-21.5 41,-20.7 
		41.6,-20.2 	"/>
	<rect x="33.6" y="-33.8" class="st7" width="26.8" height="17.6"/>
</g>
<g>
	<path class="st2" d="M69.6-10.9c-0.4,0-0.7-0.1-1-0.4c-0.3-0.3-0.4-0.6-0.4-1v-5.6c0-0.8,0.3-1.4,0.8-2c0.5-0.5,1.2-0.8,2-0.8h19.6
		c0.8,0,1.4,0.3,2,0.8c0.5,0.5,0.8,1.2,0.8,2v5.6c0,0.4-0.1,0.7-0.4,1c-0.3,0.3-0.6,0.4-1,0.4H69.6z M71-23.5v-4.2
		c0-0.8,0.3-1.4,0.8-2c0.6-0.5,1.2-0.8,2-0.8h5.6v-2c-0.4-0.3-0.8-0.6-1-1C78.2-33.9,78-34.4,78-35c0-0.3,0.1-0.7,0.2-1
		c0.1-0.3,0.3-0.6,0.6-0.9l2-2l2,2c0.3,0.3,0.5,0.6,0.6,0.9c0.1,0.3,0.2,0.7,0.2,1c0,0.6-0.1,1-0.4,1.4c-0.3,0.4-0.6,0.7-1,1v2h5.6
		c0.8,0,1.4,0.3,2,0.8c0.6,0.5,0.8,1.2,0.8,2v4.2H71z"/>
	<path class="st1" d="M71-23.5v-4.2c0-0.8,0.3-1.4,0.8-2c0.6-0.5,1.2-0.8,2-0.8h5.6v-2c-0.4-0.3-0.8-0.6-1-1
		C78.2-33.9,78-34.4,78-35c0-0.3,0.1-0.7,0.2-1c0.1-0.3,0.3-0.6,0.6-0.9l2-2l2,2c0.3,0.3,0.5,0.6,0.6,0.9c0.1,0.3,0.2,0.7,0.2,1
		c0,0.6-0.1,1-0.4,1.4c-0.3,0.4-0.6,0.7-1,1v2h5.6c0.8,0,1.4,0.3,2,0.8c0.6,0.5,0.8,1.2,0.8,2v4.2H71z"/>
</g>
<g>
	<g>
		<defs>
			<rect id="SVGID_5_" x="1" y="42.4" width="28.1" height="25"/>
		</defs>
		<clipPath id="SVGID_6_">
			<use xlink:href="#SVGID_5_"  style="overflow:visible;"/>
		</clipPath>
		<path class="st8" d="M19.7,48.3v0.3h-5.5c-0.2,0-0.4-0.1-0.6-0.2c-0.1-0.1-0.2-0.3-0.2-0.6v-5.5h0.3c0.3,0,0.6,0.1,0.8,0.3
			l4.8,4.8C19.6,47.7,19.7,48,19.7,48.3 M15,59.3l7.9-7.9l3.3,3.3l-7.9,8H15V59.3z M28.7,50.5c0.2,0.3,0.3,0.6,0.3,0.9
			c0,0.3-0.1,0.6-0.3,0.9l-1.4,1.4L24,50.3l1.4-1.4c0.2-0.2,0.5-0.3,0.9-0.3c0.3,0,0.6,0.1,0.9,0.3L28.7,50.5z"/>
		<path class="st9" d="M4.3,61.3c0,0,0,0-0.1,0.1c-0.1,0.1-0.1,0.2-0.1,0.5c0,0.2,0.1,0.4,0.2,0.6c0.1,0.1,0.3,0.2,0.6,0.2h0.6
			c0.5,0,0.9-0.1,1.3-0.4c0.4-0.3,0.6-0.6,0.7-1.1L8,59.7l0.8,2.4c0.1,0.3,0.3,0.5,0.7,0.5c0.4,0,0.6-0.1,0.7-0.4l0.4-0.7
			c0.1-0.2,0.3-0.3,0.5-0.3c0.2,0,0.4,0.1,0.5,0.3c0.4,0.8,1,1.2,1.9,1.2h4.9l1.3-1.3v4.8c0,0.2,0,0.3-0.1,0.5
			c-0.1,0.1-0.1,0.3-0.2,0.4c-0.1,0.1-0.2,0.2-0.4,0.2c-0.1,0.1-0.3,0.1-0.5,0.1H2.1c-0.3,0-0.6-0.1-0.8-0.3C1.1,66.8,1,66.5,1,66.2
			V43.6c0-0.3,0.1-0.6,0.3-0.8c0.2-0.2,0.5-0.3,0.8-0.3h11.3v5.5c0,0.2,0.1,0.4,0.2,0.6c0.1,0.1,0.3,0.2,0.6,0.2h5.5v6L15,59.3v1.8
			h-1.6c-0.2,0-0.4-0.1-0.4-0.3c-0.3-0.6-0.8-1-1.5-1.1c-0.7-0.1-1.3,0-1.7,0.4l-0.7-2c-0.2-0.6-0.6-0.8-1.1-0.8S7,57.5,6.9,58.1
			L6,60.7c-0.1,0.3-0.3,0.4-0.5,0.4H4.9C4.6,61.1,4.4,61.2,4.3,61.3"/>
	</g>
</g>
<g>
	<path class="st1" d="M-18.7,87.3c1.2,0,2.2-0.2,3.2-0.6c1-0.4,1.7-0.9,2.2-1.6l1.4,0.7c-0.2,0.2-0.4,0.4-0.6,0.6
		c-1.7,1.5-3.8,2.3-6.2,2.3c-2.4,0-4.5-0.8-6.2-2.3c-0.2-0.2-0.4-0.4-0.6-0.6l1.5-0.7c0.3,0.4,0.7,0.8,1.2,1.1
		c0.5,0.3,1.1,0.6,1.9,0.8C-20.2,87.2-19.5,87.3-18.7,87.3"/>
	<polygon class="st1" points="-32.2,89.2 -30.8,88.6 -27.6,95.1 -28.9,95.7 	"/>
	<polygon class="st1" points="-6.6,88.6 -5.2,89.2 -8.5,95.7 -9.8,95.1 	"/>
	<path class="st2" d="M-32.9,89.6l0.8-0.4l3.3,6.5l-0.8,0.4c-0.1,0-0.2,0-0.3,0c-0.3,0-0.5-0.1-0.6-0.4l-2.6-5.2
		c-0.1-0.1-0.1-0.2-0.1-0.3C-33.4,89.9-33.2,89.7-32.9,89.6 M-11.9,85.9l5.4,2.7l-3.2,6.5l-0.5-0.2c-0.1-0.1-0.2-0.1-0.3-0.1
		c-0.2,0-0.4,0.1-0.5,0.2c-0.1,0.2-0.2,0.3-0.2,0.5v11.6c0,0.4-0.1,0.7-0.4,1c-0.3,0.3-0.6,0.4-1,0.4h-11.7c-0.4,0-0.7-0.1-1-0.4
		c-0.3-0.3-0.4-0.6-0.4-1V95.5c0-0.2-0.1-0.3-0.2-0.5c-0.1-0.2-0.3-0.2-0.5-0.2c-0.1,0-0.2,0-0.3,0.1l-0.5,0.2l-3.2-6.5l5.4-2.7
		c0.2,0.2,0.4,0.4,0.6,0.6c1.7,1.5,3.8,2.3,6.2,2.3s4.5-0.8,6.2-2.3C-12.3,86.3-12.1,86.1-11.9,85.9 M-4.5,89.6
		c0.3,0.1,0.4,0.3,0.4,0.6c0,0.1,0,0.2-0.1,0.3l-2.6,5.2c-0.1,0.3-0.3,0.4-0.6,0.4c-0.1,0-0.2,0-0.3,0h0l-0.8-0.4l3.3-6.5L-4.5,89.6
		z"/>
</g>
<g>
	<path class="st2" d="M54.4,123.8c-0.2,0-0.4,0.1-0.6,0.2c-0.2,0.2-0.2,0.4-0.2,0.6v0.8h-13v-0.8c0-0.2-0.1-0.4-0.2-0.6
		c-0.2-0.2-0.4-0.2-0.6-0.2c-0.2,0-0.4,0.1-0.6,0.2c-0.2,0.2-0.2,0.4-0.2,0.6v0.8h-1.6c-0.9,0-1.7,0.3-2.3,1c-0.6,0.6-1,1.4-1,2.3
		v17.9c0,0.9,0.3,1.7,1,2.3c0.6,0.6,1.4,1,2.3,1h19.5c0.9,0,1.7-0.3,2.3-1c0.6-0.6,1-1.4,1-2.3v-17.9c0-0.9-0.3-1.7-1-2.3
		c-0.6-0.6-1.4-1-2.3-1h-1.6v-0.8c0-0.2-0.1-0.4-0.2-0.6C54.9,123.9,54.6,123.8,54.4,123.8 M58.5,130.3v16.2c0,0.4-0.2,0.8-0.5,1.1
		c-0.3,0.3-0.7,0.5-1.1,0.5H37.4c-0.4,0-0.8-0.2-1.1-0.5c-0.3-0.3-0.5-0.7-0.5-1.1v-16.2H58.5z"/>
	<rect x="39.5" y="133.5" class="st1" width="3.2" height="3.2"/>
	<rect x="46" y="133.5" class="st1" width="3.3" height="3.2"/>
	<rect x="52.5" y="133.5" class="st1" width="3.2" height="3.2"/>
	<rect x="39.5" y="141.1" class="st1" width="3.2" height="3.3"/>
	<rect x="46" y="141.1" class="st1" width="3.3" height="3.3"/>
	<rect x="52.5" y="141.1" class="st1" width="3.2" height="3.3"/>
</g>
<g>
	<path class="st10" d="M74.8,148.9l-0.5,0.5c-0.3,0.3-0.9,0.5-1.8,0.5c-0.9,0-1.7-0.3-2.3-1c-0.7-0.7-1-1.4-1-2.3v-1.7h6.7v1.7
		C75.8,147.4,75.5,148.2,74.8,148.9 M67.9,131c0.6-2.7,1.5-4.6,2.6-5.9c1.1-1.2,2.4-1.9,3.7-1.9c1.1,0,2,0.4,2.8,1.3
		c0.8,0.9,1.3,2,1.7,3.3c0.4,1.4,0.5,2.8,0.5,4.5c0,1.9-0.6,3.7-1.7,5.4c-0.4,0.7-0.7,1.1-0.9,1.4c-0.2,0.3-0.3,0.8-0.5,1.5
		c-0.2,0.7-0.3,1.6-0.3,2.6h-6.7l-0.8-3c-0.5-1.6-0.7-2.9-0.8-4.2C67.4,134.3,67.5,132.6,67.9,131"/>
	<path class="st2" d="M91.5,149.3l-0.5,0.5c-0.3,0.3-0.9,0.5-1.8,0.5c-0.9,0-1.7-0.3-2.3-1c-0.7-0.7-1-1.4-1-2.3v-1.7h6.7v1.7
		C92.5,147.9,92.1,148.7,91.5,149.3 M82.5,132.8c0-2.5,0.4-4.7,1.3-6.4c0.9-1.8,2.1-2.7,3.7-2.7c1.3,0,2.5,0.6,3.7,1.9
		c1.1,1.2,2,3.2,2.6,5.9c0.3,1.6,0.5,3.2,0.3,5c-0.1,1.2-0.3,2.6-0.8,4.2l-0.8,3h-6.7c0-1-0.1-1.8-0.3-2.6c-0.2-0.7-0.4-1.2-0.5-1.5
		c-0.2-0.3-0.4-0.7-0.9-1.4C83,136.5,82.5,134.7,82.5,132.8"/>
</g>
<g>
	<defs>
		<rect id="SVGID_7_" x="-32.5" y="6.6" width="27.5" height="16.8"/>
	</defs>
	<clipPath id="SVGID_8_">
		<use xlink:href="#SVGID_7_"  style="overflow:visible;"/>
	</clipPath>
	<g class="st11">
		<defs>
			<rect id="SVGID_9_" x="-33" y="6.4" width="28.7" height="17.1"/>
		</defs>
		<clipPath id="SVGID_10_">
			<use xlink:href="#SVGID_9_"  style="overflow:visible;"/>
		</clipPath>
		<g style="clip-path:url(#SVGID_10_);">
			
				<image style="overflow:visible;" width="168" height="100" xlink:href="22CA149E.jpg"  transform="matrix(0.1706 0 0 0.1706 -33.0498 6.4416)">
			</image>
		</g>
	</g>
</g>
<g>
	<rect x="-33.1" y="-33.2" class="st4" width="28.8" height="17.6"/>
	<g>
		<defs>
			<rect id="SVGID_11_" x="-32.2" y="-33.2" width="26.8" height="17.6"/>
		</defs>
		<clipPath id="SVGID_12_">
			<use xlink:href="#SVGID_11_"  style="overflow:visible;"/>
		</clipPath>
		<rect x="-32.2" y="-33.9" class="st12" width="26.8" height="19.1"/>
		<path class="st13" d="M-18.7-20.9c0.1-0.1,0.2-0.3,0.2-0.4c-0.1,0-0.2-0.1-0.3-0.1c0.5,0.1,0.6-0.5,1.1-0.3c0-0.1,0.1-0.1,0.2-0.1
			l0.1,0.2c0.2,0.1,0.1-0.3,0.4-0.2c0.1-0.1,0-0.3,0.1-0.4c0-0.1,0.1-0.2,0.1-0.4c0.1,0.1,0.1,0.2,0.2,0.1c0.1-0.1,0.2-0.2,0.2-0.3
			c0-0.2-0.1-0.4,0.1-0.5v-0.1c0.1-0.1,0.5,0.1,0.5-0.2c0-0.1,0.1,0,0.1-0.1c0.1,0,0.2,0,0.3,0c0.1-0.2-0.1-0.3-0.2-0.5
			c0.1-0.1,0.1-0.3,0-0.4l-0.1,0c0.1,0,0.3,0,0.5-0.1l0.2-0.1c0.1,0.1,0.2,0.1,0.4,0.1c0.1-0.1,0-0.2,0.1-0.3c0.1,0,0.2,0,0.3-0.1
			l0,0c0.1,0.2,0.4,0.1,0.5,0.2c0.2,0,0.2-0.2,0.3-0.3c0-0.3-0.3-0.4-0.2-0.7c-0.1-0.1-0.2-0.3-0.3-0.4c0,0,0-0.1,0-0.1
			c-0.1-0.1,0-0.3-0.2-0.3c0-0.1-0.2-0.1-0.2-0.2c0.2-0.2-0.1-0.3-0.1-0.5c-0.1-0.1-0.3,0.1-0.3-0.1c-0.1,0-0.2,0.1-0.3,0
			c0-0.1,0.1-0.2,0.1-0.3c0.2,0,0.2-0.2,0.3-0.3l0.2-0.2c-0.2-0.1-0.4,0-0.7-0.1c-0.1,0,0,0.1-0.1,0.1c-0.1,0.1-0.2,0.1-0.3,0.1
			c0-0.1-0.1-0.1-0.1-0.2c0,0,0-0.1,0-0.1c-0.2,0-0.1,0.1-0.3,0.1c-0.2-0.1,0-0.3-0.3-0.3c0-0.2-0.4-0.4-0.1-0.6c0,0,0-0.1,0-0.2
			c-0.2-0.1-0.5-0.1-0.7,0c-0.2,0-0.1,0.2-0.1,0.3c-0.1,0.1-0.2,0.2-0.2,0.3c-0.1,0-0.2,0.1-0.3,0.2c-0.3-0.3-0.6-0.5-1-0.5
			c-0.2-0.1-0.3-0.4-0.5-0.3c-0.1-0.2-0.4,0-0.4-0.2c-0.1,0-0.1-0.2-0.1-0.3c0-0.2,0-0.3,0.2-0.5c0.1-0.1-0.1-0.1-0.1-0.3
			c0,0,0-0.1,0-0.1c-0.1,0-0.1-0.1-0.1-0.1c0,0-0.1,0-0.1-0.1c0-0.1-0.2-0.1-0.3-0.2c-0.1,0-0.2,0-0.2,0.1c0-0.1-0.1-0.2-0.2-0.2
			c-0.2,0-0.1,0.1-0.2,0.2c0,0.2-0.1,0.2-0.1,0.4c0.1,0.1,0.3,0.2,0.3,0.4c-0.1,0.2-0.1,0.4-0.2,0.6c-0.1,0.1-0.2,0.2-0.2,0.4
			c0.1,0.1,0,0.3-0.1,0.5c0,0.1-0.1,0.2-0.1,0.4c-0.2,0.1-0.2,0.4-0.5,0.5c-0.2,0-0.2,0.3-0.4,0.2c0,0-0.1,0.1-0.1,0.1
			c-0.1-0.1-0.3,0-0.5,0c-0.1,0.2,0.1,0.5-0.2,0.6v0.1c0,0,0.1,0,0.1,0c0,0.1-0.2,0.2-0.1,0.3c-0.1,0-0.1,0.1-0.1,0.2
			c-0.1,0.3-0.6,0.3-0.7,0.6c0.1,0.1,0.1,0.1,0.1,0.2c-0.1,0.1-0.1,0.2-0.1,0.4c0.1,0,0.1,0.1,0.1,0.2c-0.1,0.1-0.2,0.1-0.3,0.1
			c-0.2,0-0.3,0.2-0.4,0.2c0,0,0,0.1,0,0.1c0.2,0.1,0,0.4,0.2,0.3c0.1,0.1,0.2,0.1,0.3,0.2c0.1,0,0.2,0,0.3,0
			c0.1-0.1,0.2-0.1,0.3-0.2c0.1,0,0.2,0.1,0.3,0c0,0.2,0.1,0.3,0.2,0.4c0,0.1,0.1,0.1,0.2,0.1c0.2,0,0.3,0,0.5,0.1
			c0.1,0,0.1,0,0.2,0c0.1,0,0.2,0,0.3-0.1c0,0.2,0.3,0,0.4,0.3c0.1,0.1-0.2,0.2-0.2,0.3c0,0.1,0.1,0.2,0.1,0.3c0.1,0,0.1,0.1,0.2,0
			c0.2,0.1,0,0.5,0.4,0.4c0,0,0-0.1,0-0.1c0.1,0,0.1,0.1,0.2,0.2c0,0.1,0,0.3,0.1,0.4c0.1,0,0.1,0,0.1,0.1c0,0.1-0.1,0.2-0.1,0.2
			c0,0-0.1,0-0.1,0c0,0.1-0.1,0.2-0.1,0.3c-0.1,0-0.1,0.1-0.1,0.1c0.1,0.1,0,0.3,0.2,0.2c0.1,0.1,0.2,0,0.3,0.1
			c0.2,0.1,0.5,0.1,0.6,0.3c0.1,0,0.1,0.1,0.2,0C-18.9-20.8-18.7-20.7-18.7-20.9"/>
		<polygon class="st14" points="-17.2,-18.3 -17.5,-17.5 -17.7,-18.3 -18.6,-18.3 -17.9,-18.8 -18.2,-19.6 -17.5,-19.1 -16.8,-19.6 
			-17.1,-18.8 -16.4,-18.3 		"/>
		<polygon class="st14" points="-14.6,-18.8 -14.9,-18 -15.1,-18.8 -16,-18.8 -15.3,-19.3 -15.5,-20.1 -14.9,-19.6 -14.2,-20.1 
			-14.4,-19.3 -13.8,-18.8 		"/>
		<polygon class="st14" points="-12.1,-19.7 -12.4,-18.9 -12.6,-19.7 -13.4,-19.7 -12.8,-20.2 -13,-21 -12.4,-20.5 -11.7,-21 
			-11.9,-20.2 -11.3,-19.7 		"/>
		<polygon class="st14" points="-19.9,-18.3 -20.2,-17.5 -20.4,-18.3 -21.2,-18.3 -20.6,-18.8 -20.8,-19.6 -20.2,-19.1 -19.5,-19.6 
			-19.7,-18.8 -19.1,-18.3 		"/>
		<polygon class="st14" points="-22.5,-18.8 -22.8,-18 -23,-18.8 -23.9,-18.8 -23.2,-19.3 -23.5,-20.1 -22.8,-19.6 -22.1,-20.1 
			-22.4,-19.3 -21.7,-18.8 		"/>
		<polygon class="st14" points="-25,-19.7 -25.3,-18.9 -25.5,-19.7 -26.4,-19.7 -25.7,-20.2 -26,-21 -25.3,-20.5 -24.6,-21 
			-24.9,-20.2 -24.2,-19.7 		"/>
	</g>
</g>
<g>
	<path class="st15" d="M-3.9-66.9c0,8.2-6.6,14.8-14.8,14.8s-14.8-6.6-14.8-14.8c0-8.2,6.6-14.8,14.8-14.8S-3.9-75.1-3.9-66.9"/>
	<g>
		<defs>
			<rect id="SVGID_13_" x="-29" y="-78.7" width="20.5" height="23.6"/>
		</defs>
		<clipPath id="SVGID_14_">
			<use xlink:href="#SVGID_13_"  style="overflow:visible;"/>
		</clipPath>
		<g style="clip-path:url(#SVGID_14_);">
			
				<image style="overflow:visible;" width="1779" height="2048" xlink:href="22CA149E.png"  transform="matrix(1.153737e-02 0 0 1.153737e-02 -28.9683 -78.6967)">
			</image>
		</g>
	</g>
</g>
<path class="st2" d="M169.3-67C169.3-67,169.3-67.1,169.3-67c0-0.3,0-0.4,0-0.6c0-7.4-6-13.5-13.5-13.5c-7.4,0-13.5,6-13.5,13.5
	c0,7.4,6,13.5,13.5,13.5c7.1,0,12.8-5.4,13.4-12.4C169.3-66.6,169.3-66.8,169.3-67 M166.1-62.3C166.1-62.3,166.1-62.3,166.1-62.3h-2
	c-0.9,0-1.6,0-2.2,0.1c-0.3,0-0.6,0.1-0.9,0.2l-1.9-2.2c0-0.1,0.1-0.2,0.1-0.3l0.9-2.9l-0.5-0.2l0.5,0.2c0-0.1,0-0.3,0.1-0.4
	l3.3-1.4c0.2,0.2,0.4,0.4,0.6,0.6c0.5,0.4,1,0.8,1.8,1.2l1.4,0.9C167.2-64.9,166.7-63.5,166.1-62.3 M150.8-62
	c-0.3-0.1-0.6-0.1-0.8-0.2c-0.6-0.1-1.3-0.1-2.2-0.1h-2l0,0.5h0v-0.5c-0.1,0-0.2,0-0.2,0c-0.7-1.3-1.1-2.6-1.3-4.1l1.5-1
	c0.7-0.5,1.3-0.9,1.8-1.2c0.2-0.2,0.4-0.4,0.6-0.6l3.2,1.4c0,0.1,0,0.3,0.1,0.4l0.5-0.2l-0.5,0.2l0.9,2.9c0,0.1,0.1,0.2,0.1,0.3
	L150.8-62z M155.2-70.6l-0.7-0.9l-2.3,1.8v0c-0.1,0.1-0.1,0.1-0.2,0.2l-3.2-1.3c0-0.3,0-0.6-0.1-0.9c-0.1-0.6-0.3-1.3-0.5-2.1
	l-0.5-2c0,0,0-0.1,0-0.1c0.9-0.8,1.9-1.6,3-2.1l1.7,1.2c0.7,0.5,1.3,0.9,1.8,1.2c0.2,0.1,0.5,0.3,0.8,0.3v3.4
	c-0.1,0.1-0.3,0.1-0.4,0.2 M164-75.8l-0.5,2c-0.2,0.8-0.4,1.5-0.5,2.1c0,0.3-0.1,0.6,0,0.9l-3.2,1.3c-0.1-0.1-0.1-0.2-0.2-0.2
	l-2.3-1.8c-0.1-0.1-0.3-0.1-0.4-0.2v-3.4c0.3-0.1,0.5-0.2,0.8-0.3c0.5-0.3,1.1-0.7,1.8-1.2v0l0,0l1.7-1.2c0,0,0.1-0.1,0.1-0.1
	C162.1-77.4,163.1-76.7,164-75.8C164-75.8,164-75.8,164-75.8 M152.8-67.8L152.8-67.8l-0.9,0.3L152.8-67.8z M158.8-67.8l0.8,0.3
	L158.8-67.8z M154.1-56.1l-0.7-2.1c-0.3-0.8-0.5-1.5-0.7-2c-0.1-0.2-0.2-0.5-0.4-0.7l1.6-2.1c0.2,0,0.3,0.1,0.5,0.1h2.8v-0.9v0v0.9
	c0.2,0,0.3,0,0.5-0.1l1.8,2.1c-0.1,0.2-0.3,0.4-0.4,0.7c-0.2,0.5-0.5,1.2-0.7,2l-0.7,2c-0.6,0.1-1.3,0.2-1.9,0.2
	C155.2-56,154.7-56,154.1-56.1"/>
<g>
	<path class="st2" d="M195.3-80.7c-0.2,0-0.4,0.1-0.6,0.2c-0.2,0.2-0.2,0.4-0.2,0.6v0.8h-13.1v-0.8c0-0.2-0.1-0.4-0.2-0.6
		s-0.4-0.2-0.6-0.2c-0.2,0-0.4,0.1-0.6,0.2c-0.2,0.2-0.2,0.4-0.2,0.6v0.8h-1.6c-0.9,0-1.7,0.3-2.3,1c-0.6,0.6-1,1.5-1,2.3v18.1
		c0,0.9,0.3,1.7,1,2.3c0.6,0.6,1.5,1,2.3,1h19.7c0.9,0,1.7-0.3,2.3-1c0.6-0.6,1-1.5,1-2.3v-18.1c0-0.9-0.3-1.7-1-2.3
		c-0.6-0.6-1.5-1-2.3-1h-1.6v-0.8c0-0.2-0.1-0.4-0.2-0.6C195.8-80.6,195.6-80.7,195.3-80.7 M199.4-74.2v16.4c0,0.4-0.2,0.9-0.5,1.2
		c-0.3,0.3-0.7,0.5-1.2,0.5h-19.7c-0.4,0-0.9-0.2-1.2-0.5c-0.3-0.3-0.5-0.7-0.5-1.2v-16.4H199.4z"/>
	<rect x="180.3" y="-70.9" class="st1" width="3.3" height="3.3"/>
	<rect x="186.8" y="-70.9" class="st1" width="3.3" height="3.3"/>
	<rect x="193.4" y="-70.9" class="st1" width="3.3" height="3.3"/>
	<rect x="180.3" y="-63.2" class="st1" width="3.3" height="3.3"/>
	<rect x="186.8" y="-63.2" class="st1" width="3.3" height="3.3"/>
	<rect x="193.4" y="-63.2" class="st1" width="3.3" height="3.3"/>
</g>
<g>
	<path class="st2" d="M20.2,3.7c0,0.7-0.3,1.5-0.8,2c-0.5,0.5-1.2,0.8-2,0.8c-0.7,0-1.5-0.3-2-0.8c-0.5-0.5-0.8-1.2-0.8-2
		c0-0.7,0.3-1.5,0.8-2c0.5-0.5,1.2-0.8,2-0.8c0.7,0,1.5,0.3,2,0.8C19.9,2.2,20.2,2.9,20.2,3.7 M23.6,12.3l-3.6-3.6
		c-0.1-0.1-0.2-0.2-0.3-0.2c-0.1-0.1-0.2-0.1-0.4-0.1H6.2c-0.2,0-0.5,0.1-0.7,0.3C5.3,8.8,5.2,9,5.2,9.3c0,0.2,0.1,0.5,0.3,0.7
		c0.2,0.2,0.4,0.3,0.7,0.3h5L5.2,22c0,0.1,0,0.3,0,0.4c0,0.2,0,0.5,0.1,0.7c0.1,0.2,0.4,0.4,0.6,0.4c0.2,0.1,0.5,0,0.7-0.1
		C6.9,23.2,7,23,7.1,22.8L9,19.6h3.7l-3.6,7.9C9,27.7,9,27.8,9,28c0,0.2,0,0.5,0.2,0.7c0.1,0.2,0.4,0.3,0.6,0.4c0.2,0,0.5,0,0.7-0.1
		c0.2-0.1,0.4-0.3,0.4-0.6l8.8-17.5l2.7,2.8c0.2,0.2,0.4,0.2,0.6,0.2c0.2,0,0.5-0.1,0.6-0.3c0.2-0.2,0.3-0.4,0.3-0.6
		C23.9,12.7,23.8,12.4,23.6,12.3"/>
	<path class="st2" d="M21.2,20.3c2,0,3.6,1.6,3.6,3.6c0,2-1.6,3.6-3.6,3.6c-2,0-3.6-1.6-3.6-3.6C17.6,21.9,19.2,20.3,21.2,20.3"/>
</g>
<g>
	<path class="st2" d="M47.1,93.3c-4.2,0-7.5,3.3-7.5,7.4c0,4.1,3.4,7.4,7.5,7.4s7.5-3.3,7.5-7.4C54.6,96.5,51.3,93.3,47.1,93.3
		 M52.5,100.6c0,0.7-0.1,1.4-0.4,2c0,0,0,0,0,0c-0.1,0.1-0.2,0.1-0.2,0.2c-0.1-0.4-0.4-0.9-0.8-1.4c0.1-0.4,0.1-1.8,0-2.2
		c0.3-0.3,0.6-0.7,0.8-0.9c0.1,0,0.1,0.1,0.2,0.1C52.3,99.1,52.5,99.8,52.5,100.6 M42.4,101.5c0.3,0.2,1.1,0.5,1.6,0.6
		c0.1,0.2,0.2,0.6,0.5,1.1c0.2,0.4,0.5,0.7,0.7,0.9c-0.3,0.5-0.4,0.8-0.3,1.1c-0.3,0-0.5-0.1-0.8-0.2c-0.8-0.5-1.5-1.3-1.9-2.2
		C42.2,102.5,42.2,101.9,42.4,101.5 M45.2,95.7c0.1,0.2,0.2,0.5,0.3,0.7c-0.2,0.2-1,1.1-1.3,1.9c-0.4,0.1-1.2,0.2-1.6,0.7
		c-0.2,0-0.3-0.1-0.5-0.1C42.6,97.4,43.7,96.3,45.2,95.7 M51.8,98.2c-0.1,0.2-0.5,0.7-0.8,1c-0.4-0.3-1.5-0.8-1.8-0.9
		c-0.1-0.3-0.3-0.8-0.5-1.2c-0.2-0.3-0.4-0.6-0.6-0.7c0.2-0.2,0.5-0.5,0.8-0.7c1.2,0.4,2.2,1.2,2.8,2.2C51.7,97.9,51.7,98,51.8,98.2
		 M50.5,104.7c-0.3,0.2-1.1,0.6-2,0.5c-0.2-0.2-0.5-0.7-0.7-1c0,0,0-0.1-0.1-0.1c0.6-0.6,1-1.7,1.2-2.1c0.7,0,1.4-0.2,2-0.5
		c0.2,0.2,0.3,0.4,0.5,0.6c0.2,0.3,0.3,0.5,0.3,0.7c-0.2,0.4-0.5,1.1-0.9,1.6C50.7,104.6,50.6,104.6,50.5,104.7 M48.5,97.2
		c0.2,0.4,0.4,0.8,0.5,1.1c-0.1,0.1-0.2,0.3-0.3,0.4c-0.3,0.4-0.7,0.9-1,1.3c-0.4-0.1-1.6-0.3-2.4,0c-0.2-0.3-0.3-0.5-0.5-0.8
		c-0.1-0.2-0.2-0.3-0.3-0.5c-0.1-0.1-0.1-0.2-0.2-0.3c0.1-0.5,0.5-1,0.7-1.3c0.2-0.2,0.3-0.4,0.4-0.5c0.1-0.1,0.1-0.1,0.1-0.1
		c0.8-0.1,1.6-0.1,2.4,0C48.1,96.6,48.3,96.8,48.5,97.2 M45.2,100.1c0.5-0.1,1.1-0.1,1.6-0.1c0.2,0,0.4,0,0.7,0.1c0.1,0,0.2,0,0.2,0
		c0.1,0.2,0.2,0.4,0.4,0.6c0.2,0.3,0.4,0.6,0.7,1c0.1,0.1,0.1,0.2,0.1,0.3c0,0,0,0.1,0,0.1c-0.1,0.4-0.5,1.4-1.1,1.9
		c-0.9,0.1-1.7,0.1-2.3,0c-0.3-0.2-0.5-0.6-0.7-0.9c-0.2-0.3-0.3-0.6-0.4-0.8c0-0.1-0.1-0.2-0.1-0.3c0,0,0,0,0,0
		C44.4,101.3,44.9,100.7,45.2,100.1 M44.6,105.3c0.1,0,0.3,0.1,0.4,0.1c0.1,0.1,0.2,0.2,0.4,0.3C45.1,105.5,44.8,105.4,44.6,105.3
		 M41.7,100.6c0-0.6,0.1-1.1,0.3-1.6c0.2,0,0.3,0.1,0.5,0.1c-0.2,0.5-0.3,1.8-0.1,2.2c-0.2,0.4-0.2,0.8-0.3,1.2
		C41.9,101.9,41.7,101.3,41.7,100.6"/>
	<path class="st2" d="M61.7,105h-2.2V88H35v17h-2.5V85.5h29.3V105z M60,104.5h1.2V86H33v18.5h1.5v-17H60V104.5z"/>
	<polygon class="st2" points="34.9,105 34.6,104.5 38.3,102.2 38.3,90.7 34.6,88 34.9,87.6 38.8,90.5 38.8,102.5 	"/>
	<polygon class="st2" points="59.6,105 55.7,102.5 55.7,90.5 59.6,87.6 59.9,88 56.2,90.7 56.2,102.2 59.9,104.5 	"/>
	<rect x="38.6" y="90.3" class="st2" width="17.4" height="0.5"/>
	<rect x="34.7" y="96.3" class="st2" width="5.6" height="0.5"/>
	<rect x="54.2" y="96.3" class="st2" width="5.6" height="0.5"/>
	<rect x="44" y="90.6" class="st2" width="0.5" height="2.7"/>
	<rect x="50" y="90.6" class="st2" width="0.5" height="2.7"/>
	<rect x="38.6" y="102.1" class="st2" width="0.9" height="0.5"/>
	<rect x="55" y="102.1" class="st2" width="0.9" height="0.5"/>
</g>
<g>
	<path class="st16" d="M-24.9,47.6c0-1.6,0.7-3,1.8-4.1c1.2-1.1,2.7-1.7,4.4-1.7s3.2,0.6,4.4,1.7c1.2,1.1,1.8,2.6,1.8,4.1
		c0,1.6-0.7,3-1.8,4.1c-1.2,1.1-2.7,1.7-4.4,1.7s-3.2-0.6-4.4-1.7C-24.2,50.6-24.9,49.1-24.9,47.6 M-24.9,56.3c-2,0-4,0.8-5.5,2.1
		c-1.4,1.4-2.3,3.2-2.3,5.2c0,1.2,0.5,2.3,1.4,3.1c0.9,0.8,2,1.3,3.3,1.3h18.5c1.2,0,2.4-0.5,3.3-1.3c0.9-0.8,1.4-1.9,1.4-3.1
		c0-1.9-0.8-3.8-2.3-5.2c-1.4-1.4-3.4-2.1-5.5-2.1H-24.9z"/>
</g>
<g>
	<defs>
		<rect id="SVGID_15_" x="111.2" y="-79.4" width="21.9" height="23.6"/>
	</defs>
	<clipPath id="SVGID_16_">
		<use xlink:href="#SVGID_15_"  style="overflow:visible;"/>
	</clipPath>
	<g class="st17">
		<defs>
			<rect id="SVGID_17_" x="111.2" y="-79.4" width="21.9" height="23.6"/>
		</defs>
		<clipPath id="SVGID_18_">
			<use xlink:href="#SVGID_17_"  style="overflow:visible;"/>
		</clipPath>
		<g style="clip-path:url(#SVGID_18_);">
			
				<image style="overflow:visible;" width="950" height="1024" xlink:href="22CA149A.png"  transform="matrix(2.301777e-02 0 0 2.301777e-02 111.1837 -79.3732)">
			</image>
		</g>
	</g>
</g>
<g>
	<defs>
		<rect id="SVGID_19_" x="70.3" y="-79" width="21.1" height="24.3"/>
	</defs>
	<clipPath id="SVGID_20_">
		<use xlink:href="#SVGID_19_"  style="overflow:visible;"/>
	</clipPath>
	<g class="st18">
		<defs>
			<rect id="SVGID_21_" x="70.3" y="-79" width="21.1" height="24.2"/>
		</defs>
		<clipPath id="SVGID_22_">
			<use xlink:href="#SVGID_21_"  style="overflow:visible;"/>
		</clipPath>
		<g style="clip-path:url(#SVGID_22_);">
			
				<image style="overflow:visible;" width="1779" height="2048" xlink:href="22CA1499.png"  transform="matrix(1.184026e-02 0 0 1.184026e-02 70.2916 -79.0069)">
			</image>
		</g>
	</g>
</g>
</svg>
