<?xml version="1.0" encoding="utf-8"?>
<!-- Generator: Adobe Illustrator 23.0.5, SVG Export Plug-In . SVG Version: 6.00 Build 0)  -->
<svg version="1.1" id="Layer_1" xmlns="http://www.w3.org/2000/svg" xmlns:xlink="http://www.w3.org/1999/xlink" x="0px" y="0px"
	 width="30px" height="30px" viewBox="0 0 30 30" style="enable-background:new 0 0 30 30;" xml:space="preserve">
<style type="text/css">
	.st0{fill:#141619;}
	.st1{fill:#6FB95D;}
	.st2{fill:#033A4A;}
	.st3{clip-path:url(#SVGID_2_);}
	.st4{fill:#2A4DA1;}
	.st5{fill:#D1A750;}
	.st6{fill:#FFFFFF;}
	.st7{fill:none;}
	.st8{clip-path:url(#SVGID_6_);fill:#6FB95D;}
	.st9{clip-path:url(#SVGID_6_);fill:#033A4A;}
	.st10{fill:#D6D5D5;}
	.st11{clip-path:url(#SVGID_8_);}
	.st12{clip-path:url(#SVGID_12_);fill:#2A4DA1;}
	.st13{clip-path:url(#SVGID_12_);fill:#D1A750;}
	.st14{clip-path:url(#SVGID_12_);fill:#FFFFFF;}
	.st15{fill:#F7F7F7;}
	.st16{fill-rule:evenodd;clip-rule:evenodd;fill:#033A4A;}
	.st17{clip-path:url(#SVGID_16_);}
	.st18{clip-path:url(#SVGID_20_);}
</style>
<g>
	<path class="st0" d="M-11.8-202.9h-10.7c-4.9,0-8.9,4-8.9,8.9v10.7c0,4.9,4,8.9,8.9,8.9h10.7c4.9,0,8.9-4,8.9-8.9V-194
		C-2.7-198.9-6.7-202.9-11.8-202.9 M-5.5-183.3c0,3.5-2.8,6.3-6.3,6.3h-10.7c-3.5,0-6.3-2.8-6.3-6.3V-194c0-3.5,2.8-6.3,6.3-6.3
		h10.7c3.5,0,6.3,2.8,6.3,6.3V-183.3z"/>
	<path class="st0" d="M-17.1-195.8c-4,0-7.1,3.2-7.1,7.1c0,4,3.2,7.1,7.1,7.1c4,0,7.1-3.2,7.1-7.1C-10-192.5-13.1-195.8-17.1-195.8
		 M-17.1-184.1c-2.4,0-4.5-2-4.5-4.5c0-2.5,2-4.5,4.5-4.5c2.5,0,4.5,2,4.5,4.5C-12.6-186.1-14.6-184.1-17.1-184.1"/>
	<path class="st0" d="M-9.3-197.3c0.5,0,0.9,0.4,0.9,0.9s-0.4,0.9-0.9,0.9c-0.5,0-0.9-0.4-0.9-0.9C-10.4-196.8-10-197.3-9.3-197.3"
		/>
</g>
<g>
	<path class="st0" d="M20.3-202.7H9.7c-4.9,0-8.8,3.9-8.8,8.8v10.6c0,4.9,3.9,8.8,8.8,8.8h10.6c4.9,0,8.8-3.9,8.8-8.8v-10.6
		C29.2-198.8,25.2-202.7,20.3-202.7 M26.5-183.4c0,3.4-2.8,6.2-6.2,6.2H9.7c-3.4,0-6.2-2.8-6.2-6.2v-10.6c0-3.4,2.8-6.2,6.2-6.2
		h10.6c3.4,0,6.2,2.8,6.2,6.2V-183.4z"/>
	<path class="st0" d="M16.4-191.4v-2.1c0-0.6,0.5-1.1,1.1-1.1h1.1v-2.6h-2.1c-1.7,0-3.2,1.4-3.2,3.2v2.7h-2.1v2.7h2.1v8.5h3.2v-8.6
		h2.1l1.1-2.7L16.4-191.4z"/>
</g>
<g>
	<path class="st1" d="M-14.7,14.7c0-0.4,0.2-0.6,0.6-0.6h6.7v2.4h-6.7c-0.4,0-0.6-0.2-0.6-0.6V14.7z M-14.7,22
		c0-0.4,0.2-0.6,0.6-0.6h6.7v2.4h-6.7c-0.4,0-0.6-0.2-0.6-0.6V22z M-14.7,7.3c0-0.4,0.2-0.6,0.6-0.6h6.7v2.4h-6.7
		c-0.4,0-0.6-0.2-0.6-0.6V7.3z"/>
	<path class="st2" d="M-7.4,6.7h-6.7c-0.4,0-0.6,0.2-0.6,0.6v1.2c0,0.4,0.2,0.6,0.6,0.6h6.7V14h-6.7c-0.4,0-0.6,0.2-0.6,0.6v1.2
		c0,0.4,0.2,0.6,0.6,0.6h6.7v4.9h-6.7c-0.4,0-0.6,0.2-0.6,0.6v1.2c0,0.4,0.2,0.6,0.6,0.6h6.7v2.7c0,0.7-0.2,1.2-0.7,1.7
		c-0.5,0.5-1.1,0.7-1.7,0.7h-14.6c-0.7,0-1.2-0.2-1.7-0.7c-0.5-0.5-0.7-1.1-0.7-1.7v-23c0-0.7,0.2-1.2,0.7-1.7
		c0.5-0.5,1.1-0.7,1.7-0.7h14.6c0.7,0,1.2,0.2,1.7,0.7c0.5,0.5,0.7,1.1,0.7,1.7V6.7z"/>
</g>
<g>
	<path class="st2" d="M-37.6,8.4v16.5c0,0.9-0.3,1.7-1,2.3c-0.7,0.7-1.4,1-2.3,1h-19.9c-0.9,0-1.7-0.3-2.3-1c-0.7-0.7-1-1.4-1-2.3
		V8.4c0-0.9,0.3-1.7,1-2.3s1.4-1,2.3-1h1.3c-0.9,1.5-1.3,3.2-1.3,5c0,2.7,1,5.1,2.9,7c1.9,1.9,4.3,2.9,7,2.9c2.7,0,5.1-1,7-2.9
		c1.9-1.9,2.9-4.3,2.9-7c0-1.8-0.4-3.4-1.3-5h1.3c0.9,0,1.7,0.3,2.3,1C-37.9,6.7-37.6,7.5-37.6,8.4 M-50.8,14.6
		c-0.4,0-0.7-0.1-1-0.3c-0.3-0.2-0.6-0.4-0.8-0.7c-0.2-0.3-0.3-0.7-0.3-1c0-0.6,0.2-1.1,0.6-1.5c0.4-0.4,0.9-0.6,1.5-0.6l1.7-4
		c0.1-0.3,0.4-0.5,0.8-0.5c0.2,0,0.4,0.1,0.6,0.2c0.2,0.2,0.2,0.4,0.2,0.6c0,0.1,0,0.2-0.1,0.3l-1.8,4.1c0.4,0.4,0.6,0.8,0.6,1.4
		c0,0.6-0.2,1.1-0.6,1.5C-49.7,14.4-50.2,14.6-50.8,14.6"/>
	<path class="st1" d="M-45,15.9l-1.2,1.2c-0.8,0.8-2.4,1.2-4.6,1.2c-2.3,0-4.2-0.8-5.8-2.4s-2.4-3.6-2.4-5.8c0-2.3,0.8-4.2,2.4-5.8
		s3.6-2.4,5.8-2.4c2.3,0,4.2,0.8,5.8,2.4s2.4,3.6,2.4,5.8C-42.6,12.3-43.4,14.3-45,15.9 M-50.8,10.5c-0.6,0-1.1,0.2-1.5,0.6
		c-0.4,0.4-0.6,0.9-0.6,1.5c0,0.6,0.2,1.1,0.6,1.4c0.4,0.4,0.9,0.6,1.5,0.6c0.6,0,1.1-0.2,1.5-0.6c0.4-0.4,0.6-0.9,0.6-1.5
		c0-0.6-0.2-1-0.6-1.4l1.8-4.1c0-0.1,0.1-0.2,0.1-0.3c0-0.1,0-0.3-0.1-0.4c-0.1-0.1-0.2-0.2-0.3-0.3c-0.1-0.1-0.3-0.1-0.4-0.1
		c-0.4,0-0.6,0.2-0.8,0.5L-50.8,10.5z"/>
</g>
<g>
	<defs>
		<rect id="SVGID_1_" x="-31.1" y="-155.2" width="27.9" height="17.1"/>
	</defs>
	<clipPath id="SVGID_2_">
		<use xlink:href="#SVGID_1_"  style="overflow:visible;"/>
	</clipPath>
	<g class="st3">
		<defs>
			<rect id="SVGID_3_" x="-31.7" y="-155.3" width="29.1" height="17.3"/>
		</defs>
		<clipPath id="SVGID_4_">
			<use xlink:href="#SVGID_3_"  style="overflow:visible;"/>
		</clipPath>
		<g style="clip-path:url(#SVGID_4_);">
			
				<image style="overflow:visible;" width="168" height="100" xlink:href="7C5B4C96.jpg"  transform="matrix(0.1731 0 0 0.1731 -31.6734 -155.331)">
			</image>
		</g>
	</g>
</g>
<g>
	<rect x="0.6" y="-155.5" class="st4" width="28.8" height="17.6"/>
	<rect x="1.5" y="-156.2" class="st4" width="26.8" height="19.1"/>
	<path class="st5" d="M15-143.1c0.1-0.1,0.2-0.3,0.2-0.4c-0.1,0-0.2-0.1-0.3-0.1c0.5,0.1,0.6-0.5,1.1-0.3c0-0.1,0.1-0.1,0.2-0.1
		l0.1,0.2c0.2,0.1,0.1-0.3,0.4-0.2c0.1-0.1,0-0.3,0.1-0.4c0-0.1,0.1-0.2,0.1-0.4c0.1,0.1,0.1,0.2,0.2,0.1c0.1-0.1,0.2-0.2,0.2-0.3
		c0-0.2-0.1-0.4,0.1-0.5v-0.1c0.1-0.1,0.5,0.1,0.5-0.2c0-0.1,0.1,0,0.1-0.1c0.1,0,0.2,0,0.3,0c0.1-0.2-0.1-0.3-0.2-0.5
		c0.1-0.1,0.1-0.3,0-0.4l-0.1,0c0.1,0,0.3,0,0.5-0.1l0.2-0.1c0.1,0.1,0.2,0.1,0.4,0.1c0.1-0.1,0-0.2,0.1-0.3c0.1,0,0.2,0,0.3-0.1
		l0,0c0.1,0.2,0.4,0.1,0.5,0.2c0.2,0,0.2-0.2,0.3-0.3c0-0.3-0.3-0.4-0.2-0.7c-0.1-0.1-0.2-0.3-0.3-0.4c0,0,0-0.1,0-0.1
		c-0.1-0.1,0-0.3-0.2-0.3c0-0.1-0.2-0.1-0.2-0.2c0.1-0.2-0.1-0.3-0.1-0.5c-0.1-0.1-0.3,0.1-0.3-0.1c-0.1,0-0.2,0.1-0.3,0
		c0-0.1,0.1-0.2,0.1-0.3c0.2,0,0.2-0.2,0.3-0.3l0.2-0.2c-0.2-0.1-0.4,0-0.7-0.1c-0.1,0,0,0.1-0.1,0.1c-0.1,0.1-0.2,0.1-0.3,0.1
		c0-0.1-0.2-0.1-0.1-0.2c0,0,0-0.1,0-0.1c-0.2,0-0.1,0.1-0.3,0.1c-0.2-0.1,0-0.3-0.3-0.3c0-0.2-0.4-0.4-0.1-0.6c0,0,0-0.1,0-0.2
		c-0.2-0.1-0.5-0.1-0.7,0c-0.2,0-0.1,0.2-0.1,0.3c-0.1,0.1-0.2,0.2-0.2,0.3c-0.1,0-0.2,0.1-0.3,0.2c-0.3-0.3-0.6-0.5-1-0.5
		c-0.2-0.1-0.3-0.4-0.5-0.3c-0.1-0.2-0.4,0-0.4-0.2c-0.1,0-0.1-0.2-0.1-0.3c0-0.2,0-0.3,0.2-0.5c0.1-0.1-0.1-0.1-0.1-0.3
		c0,0,0-0.1,0-0.1c-0.1,0-0.1-0.1-0.1-0.1c0,0-0.1,0-0.1-0.1c0-0.1-0.2-0.1-0.3-0.2c-0.1,0-0.2,0-0.2,0.1c0-0.1-0.1-0.2-0.2-0.2
		c-0.1,0-0.1,0.1-0.2,0.2c0,0.2-0.1,0.2-0.1,0.4c0.1,0.1,0.3,0.2,0.3,0.4c-0.1,0.2-0.1,0.4-0.2,0.6c-0.1,0.1-0.2,0.2-0.2,0.4
		c0.1,0.1,0,0.3-0.1,0.5c0,0.1-0.1,0.2-0.1,0.4c-0.2,0.1-0.2,0.4-0.5,0.5c-0.2,0-0.2,0.3-0.4,0.2c0,0-0.1,0.1-0.1,0.1
		c-0.1-0.1-0.3,0-0.5,0c-0.1,0.2,0.1,0.5-0.2,0.6v0.1c0,0,0.1,0,0.1,0c0,0.1-0.2,0.2-0.1,0.3c-0.1,0-0.1,0.1-0.1,0.2
		c-0.1,0.3-0.6,0.3-0.7,0.6c0.1,0.1,0.1,0.1,0.1,0.2c-0.1,0.1-0.1,0.2-0.1,0.4c0.1,0,0.1,0.1,0.1,0.2c-0.1,0.1-0.2,0.1-0.3,0.1
		c-0.2,0-0.3,0.2-0.4,0.2c0,0,0,0.1,0,0.1c0.2,0.1,0,0.4,0.2,0.3c0.1,0.1,0.2,0.1,0.3,0.2c0.1,0,0.2,0,0.3,0
		c0.1-0.1,0.2-0.1,0.3-0.2c0.1,0,0.2,0.1,0.3,0c0,0.2,0.1,0.3,0.2,0.4c0,0.1,0.1,0.1,0.2,0.1c0.2,0,0.3,0,0.5,0.1c0.1,0,0.1,0,0.2,0
		c0.1,0,0.2,0,0.3-0.1c0,0.2,0.3,0,0.4,0.3c0.1,0.1-0.2,0.2-0.2,0.3c0,0.1,0.1,0.2,0.1,0.3c0.1,0,0.1,0.1,0.2,0
		c0.2,0.1,0,0.5,0.4,0.4c0,0,0-0.1,0-0.1c0.1,0,0.1,0.1,0.2,0.2c0,0.1,0,0.3,0.1,0.4c0.1,0,0.1,0,0.1,0.1c0,0.1-0.1,0.2-0.1,0.2
		c0,0-0.1,0-0.1,0c0,0.1-0.1,0.2-0.1,0.3c-0.1,0-0.1,0.1-0.1,0.1c0.1,0.1,0,0.3,0.2,0.2c0.1,0.1,0.2,0,0.3,0.1
		c0.2,0.1,0.5,0.1,0.6,0.3c0.1,0,0.1,0.1,0.2,0C14.9-143.1,15-143,15-143.1"/>
	<polygon class="st6" points="16.5,-140.6 16.2,-139.8 16,-140.6 15.1,-140.6 15.8,-141.1 15.5,-141.9 16.2,-141.4 16.9,-141.9 
		16.6,-141.1 17.3,-140.6 	"/>
	<polygon class="st6" points="19.1,-141.1 18.8,-140.3 18.6,-141.1 17.8,-141.1 18.4,-141.6 18.2,-142.4 18.8,-141.9 19.5,-142.4 
		19.3,-141.6 19.9,-141.1 	"/>
	<polygon class="st6" points="21.6,-142 21.4,-141.2 21.1,-142 20.3,-142 20.9,-142.5 20.7,-143.3 21.4,-142.8 22,-143.3 
		21.8,-142.5 22.4,-142 	"/>
	<polygon class="st6" points="13.8,-140.6 13.6,-139.8 13.3,-140.6 12.5,-140.6 13.1,-141.1 12.9,-141.9 13.6,-141.4 14.2,-141.9 
		14,-141.1 14.6,-140.6 	"/>
	<polygon class="st6" points="11.2,-141.1 10.9,-140.3 10.7,-141.1 9.8,-141.1 10.5,-141.6 10.3,-142.4 10.9,-141.9 11.6,-142.4 
		11.3,-141.6 12,-141.1 	"/>
	<polygon class="st6" points="8.7,-142 8.4,-141.2 8.2,-142 7.3,-142 8,-142.5 7.7,-143.3 8.4,-142.8 9.1,-143.3 8.8,-142.5 
		9.5,-142 	"/>
	<rect x="1.5" y="-155.5" class="st7" width="26.8" height="17.6"/>
</g>
<g>
	<path class="st2" d="M37.5-132.6c-0.4,0-0.7-0.1-1-0.4c-0.3-0.3-0.4-0.6-0.4-1v-5.6c0-0.8,0.3-1.4,0.8-2c0.5-0.5,1.2-0.8,2-0.8
		h19.6c0.8,0,1.4,0.3,2,0.8c0.5,0.5,0.8,1.2,0.8,2v5.6c0,0.4-0.1,0.7-0.4,1c-0.3,0.3-0.6,0.4-1,0.4H37.5z M38.9-145.2v-4.2
		c0-0.8,0.3-1.4,0.8-2c0.6-0.5,1.2-0.8,2-0.8h5.6v-2c-0.4-0.3-0.8-0.6-1-1c-0.3-0.4-0.4-0.9-0.4-1.4c0-0.3,0.1-0.7,0.2-1
		c0.1-0.3,0.3-0.6,0.6-0.9l2-2l2,2c0.3,0.3,0.5,0.6,0.6,0.9c0.1,0.3,0.2,0.7,0.2,1c0,0.6-0.1,1-0.4,1.4c-0.3,0.4-0.6,0.7-1,1v2h5.6
		c0.8,0,1.4,0.3,2,0.8c0.6,0.5,0.8,1.2,0.8,2v4.2H38.9z"/>
	<path class="st1" d="M38.9-145.2v-4.2c0-0.8,0.3-1.4,0.8-2c0.6-0.5,1.2-0.8,2-0.8h5.6v-2c-0.4-0.3-0.8-0.6-1-1
		c-0.3-0.4-0.4-0.9-0.4-1.4c0-0.3,0.1-0.7,0.2-1c0.1-0.3,0.3-0.6,0.6-0.9l2-2l2,2c0.3,0.3,0.5,0.6,0.6,0.9c0.1,0.3,0.2,0.7,0.2,1
		c0,0.6-0.1,1-0.4,1.4c-0.3,0.4-0.6,0.7-1,1v2h5.6c0.8,0,1.4,0.3,2,0.8c0.6,0.5,0.8,1.2,0.8,2v4.2H38.9z"/>
</g>
<g>
	<g>
		<defs>
			<rect id="SVGID_5_" x="-31.2" y="-79.4" width="28.1" height="25"/>
		</defs>
		<clipPath id="SVGID_6_">
			<use xlink:href="#SVGID_5_"  style="overflow:visible;"/>
		</clipPath>
		<path class="st8" d="M-12.4-73.4v0.3h-5.5c-0.2,0-0.4-0.1-0.6-0.2c-0.1-0.1-0.2-0.3-0.2-0.6v-5.5h0.3c0.3,0,0.6,0.1,0.8,0.3
			l4.8,4.8C-12.6-74-12.4-73.7-12.4-73.4 M-17.1-62.4l7.9-7.9l3.3,3.3l-7.9,8h-3.4V-62.4z M-3.4-71.2c0.2,0.3,0.3,0.6,0.3,0.9
			c0,0.3-0.1,0.6-0.3,0.9l-1.4,1.4l-3.3-3.3l1.4-1.4c0.2-0.2,0.5-0.3,0.9-0.3c0.3,0,0.6,0.1,0.9,0.3L-3.4-71.2z"/>
		<path class="st9" d="M-27.8-60.4c0,0,0,0-0.1,0.1c-0.1,0.1-0.1,0.2-0.1,0.5c0,0.2,0.1,0.4,0.2,0.6c0.1,0.1,0.3,0.2,0.6,0.2h0.6
			c0.5,0,0.9-0.1,1.3-0.4c0.4-0.3,0.6-0.6,0.7-1.1l0.5-1.5l0.8,2.4c0.1,0.3,0.3,0.5,0.7,0.5c0.4,0,0.6-0.1,0.7-0.4l0.4-0.7
			c0.1-0.2,0.3-0.3,0.5-0.3c0.2,0,0.4,0.1,0.5,0.3c0.4,0.8,1,1.2,1.9,1.2h4.9l1.3-1.3v4.8c0,0.2,0,0.3-0.1,0.5
			c-0.1,0.1-0.1,0.3-0.2,0.4c-0.1,0.1-0.2,0.2-0.4,0.2c-0.1,0.1-0.3,0.1-0.5,0.1H-30c-0.3,0-0.6-0.1-0.8-0.3
			c-0.2-0.2-0.3-0.5-0.3-0.8v-22.6c0-0.3,0.1-0.6,0.3-0.8c0.2-0.2,0.5-0.3,0.8-0.3h11.3v5.5c0,0.2,0.1,0.4,0.2,0.6
			c0.1,0.1,0.3,0.2,0.6,0.2h5.5v6l-4.7,4.6v1.8h-1.6c-0.2,0-0.4-0.1-0.4-0.3c-0.3-0.6-0.8-1-1.5-1.1c-0.7-0.1-1.3,0-1.7,0.4l-0.7-2
			c-0.2-0.6-0.6-0.8-1.1-0.8c-0.6,0-0.9,0.3-1.1,0.8l-0.9,2.6c-0.1,0.3-0.3,0.4-0.5,0.4h-0.6C-27.5-60.6-27.7-60.6-27.8-60.4"/>
	</g>
</g>
<g>
	<path class="st1" d="M-50.8-34.4c1.2,0,2.2-0.2,3.2-0.6c1-0.4,1.7-0.9,2.2-1.6l1.4,0.7c-0.2,0.2-0.4,0.4-0.6,0.6
		c-1.7,1.5-3.8,2.3-6.2,2.3c-2.4,0-4.5-0.8-6.2-2.3c-0.2-0.2-0.4-0.4-0.6-0.6l1.5-0.7c0.3,0.4,0.7,0.8,1.2,1.1
		c0.5,0.3,1.1,0.6,1.9,0.8C-52.3-34.5-51.6-34.4-50.8-34.4"/>
	<polygon class="st1" points="-64.3,-32.6 -63,-33.2 -59.7,-26.7 -61,-26 	"/>
	<polygon class="st1" points="-38.7,-33.2 -37.4,-32.6 -40.7,-26 -41.9,-26.7 	"/>
	<path class="st2" d="M-65.1-32.2l0.8-0.4L-61-26l-0.8,0.4c-0.1,0-0.2,0-0.3,0c-0.3,0-0.5-0.1-0.6-0.4l-2.6-5.2
		c-0.1-0.1-0.1-0.2-0.1-0.3C-65.5-31.8-65.3-32.1-65.1-32.2 M-44-35.9l5.4,2.7l-3.2,6.5l-0.5-0.2c-0.1-0.1-0.2-0.1-0.3-0.1
		c-0.2,0-0.4,0.1-0.5,0.2c-0.1,0.2-0.2,0.3-0.2,0.5v11.6c0,0.4-0.1,0.7-0.4,1c-0.3,0.3-0.6,0.4-1,0.4h-11.7c-0.4,0-0.7-0.1-1-0.4
		c-0.3-0.3-0.4-0.6-0.4-1v-11.6c0-0.2-0.1-0.3-0.2-0.5c-0.1-0.2-0.3-0.2-0.5-0.2c-0.1,0-0.2,0-0.3,0.1l-0.5,0.2l-3.2-6.5l5.4-2.7
		c0.2,0.2,0.4,0.4,0.6,0.6c1.7,1.5,3.8,2.3,6.2,2.3c2.4,0,4.5-0.8,6.2-2.3C-44.4-35.5-44.2-35.7-44-35.9 M-36.6-32.2
		c0.3,0.1,0.4,0.3,0.4,0.6c0,0.1,0,0.2-0.1,0.3l-2.6,5.2c-0.1,0.3-0.3,0.4-0.6,0.4c-0.1,0-0.2,0-0.3,0h0l-0.8-0.4l3.3-6.5
		L-36.6-32.2z"/>
</g>
<g>
	<path class="st2" d="M22.3,2c-0.2,0-0.4,0.1-0.6,0.2c-0.2,0.2-0.2,0.4-0.2,0.6v0.8h-13V2.8c0-0.2-0.1-0.4-0.2-0.6
		C8.1,2.1,7.9,2,7.7,2C7.5,2,7.3,2.1,7.1,2.2C7,2.4,6.9,2.6,6.9,2.8v0.8H5.3C4.4,3.6,3.6,4,3,4.6C2.3,5.2,2,6,2,6.9v17.9
		c0,0.9,0.3,1.7,1,2.3c0.6,0.6,1.4,1,2.3,1h19.5c0.9,0,1.7-0.3,2.3-1c0.6-0.6,1-1.4,1-2.3V6.9c0-0.9-0.3-1.7-1-2.3
		c-0.6-0.6-1.4-1-2.3-1h-1.6V2.8c0-0.2-0.1-0.4-0.2-0.6C22.7,2.1,22.5,2,22.3,2 M26.4,8.5v16.2c0,0.4-0.2,0.8-0.5,1.1
		c-0.3,0.3-0.7,0.5-1.1,0.5H5.3c-0.4,0-0.8-0.2-1.1-0.5s-0.5-0.7-0.5-1.1V8.5H26.4z"/>
	<rect x="7.4" y="11.8" class="st1" width="3.2" height="3.2"/>
	<rect x="13.9" y="11.8" class="st1" width="3.3" height="3.2"/>
	<rect x="20.4" y="11.8" class="st1" width="3.2" height="3.2"/>
	<rect x="7.4" y="19.3" class="st1" width="3.2" height="3.3"/>
	<rect x="13.9" y="19.3" class="st1" width="3.3" height="3.3"/>
	<rect x="20.4" y="19.3" class="st1" width="3.2" height="3.3"/>
</g>
<g>
	<path class="st10" d="M42.7,27.1l-0.5,0.5c-0.3,0.3-0.9,0.5-1.8,0.5c-0.9,0-1.7-0.3-2.3-1c-0.7-0.7-1-1.4-1-2.3v-1.7h6.7v1.7
		C43.7,25.7,43.4,26.4,42.7,27.1 M35.8,9.2c0.6-2.7,1.5-4.6,2.6-5.9c1.1-1.2,2.4-1.9,3.7-1.9c1.1,0,2,0.4,2.8,1.3
		c0.8,0.9,1.3,2,1.7,3.3c0.4,1.4,0.5,2.8,0.5,4.5c0,1.9-0.6,3.7-1.7,5.4c-0.4,0.7-0.7,1.1-0.9,1.4c-0.2,0.3-0.3,0.8-0.5,1.5
		c-0.2,0.7-0.3,1.6-0.3,2.6h-6.7l-0.8-3c-0.5-1.6-0.7-2.9-0.8-4.2C35.3,12.5,35.4,10.8,35.8,9.2"/>
	<path class="st2" d="M59.4,27.5L58.9,28c-0.3,0.3-0.9,0.5-1.8,0.5c-0.9,0-1.7-0.3-2.3-1c-0.7-0.7-1-1.4-1-2.3v-1.7h6.7v1.7
		C60.4,26.1,60,26.9,59.4,27.5 M50.4,11c0-2.5,0.4-4.7,1.3-6.4c0.9-1.8,2.1-2.7,3.7-2.7c1.3,0,2.5,0.6,3.7,1.9
		c1.1,1.2,2,3.2,2.6,5.9c0.3,1.6,0.5,3.2,0.3,5c-0.1,1.2-0.3,2.6-0.8,4.2l-0.8,3h-6.7c0-1-0.1-1.8-0.3-2.6c-0.2-0.7-0.4-1.2-0.5-1.5
		c-0.2-0.3-0.4-0.7-0.9-1.4C50.9,14.8,50.4,12.9,50.4,11"/>
</g>
<g>
	<defs>
		<rect id="SVGID_7_" x="-64.6" y="-115.2" width="27.5" height="16.8"/>
	</defs>
	<clipPath id="SVGID_8_">
		<use xlink:href="#SVGID_7_"  style="overflow:visible;"/>
	</clipPath>
	<g class="st11">
		<defs>
			<rect id="SVGID_9_" x="-65.2" y="-115.3" width="28.7" height="17.1"/>
		</defs>
		<clipPath id="SVGID_10_">
			<use xlink:href="#SVGID_9_"  style="overflow:visible;"/>
		</clipPath>
		<g transform="matrix(1 0 0 1 0 7.629395e-06)" style="clip-path:url(#SVGID_10_);">
			
				<image style="overflow:visible;" width="168" height="100" xlink:href="7C5B4C9A.jpg"  transform="matrix(0.1706 0 0 0.1706 -65.1675 -115.3232)">
			</image>
		</g>
	</g>
</g>
<g>
	<rect x="-65.2" y="-155" class="st4" width="28.8" height="17.6"/>
	<g>
		<defs>
			<rect id="SVGID_11_" x="-64.3" y="-155" width="26.8" height="17.6"/>
		</defs>
		<clipPath id="SVGID_12_">
			<use xlink:href="#SVGID_11_"  style="overflow:visible;"/>
		</clipPath>
		<rect x="-64.3" y="-155.7" class="st12" width="26.8" height="19.1"/>
		<path class="st13" d="M-50.8-142.6c0.1-0.1,0.2-0.3,0.2-0.4c-0.1,0-0.2-0.1-0.3-0.1c0.5,0.1,0.6-0.5,1.1-0.3
			c0-0.1,0.1-0.1,0.2-0.1l0.1,0.2c0.2,0.1,0.1-0.3,0.4-0.2c0.1-0.1,0-0.3,0.1-0.4c0-0.1,0.1-0.2,0.1-0.4c0.1,0.1,0.1,0.2,0.2,0.1
			c0.1-0.1,0.2-0.2,0.2-0.3c0-0.2-0.1-0.4,0.1-0.5v-0.1c0.1-0.1,0.5,0.1,0.5-0.2c0-0.1,0.1,0,0.1-0.1c0.1,0,0.2,0,0.3,0
			c0.1-0.2-0.1-0.3-0.2-0.5c0.1-0.1,0.1-0.3,0-0.4l-0.1,0c0.1,0,0.3,0,0.5-0.1l0.2-0.1c0.1,0.1,0.2,0.1,0.4,0.1
			c0.1-0.1,0-0.2,0.1-0.3c0.1,0,0.2,0,0.3-0.1l0,0c0.1,0.2,0.4,0.1,0.5,0.2c0.2,0,0.2-0.2,0.3-0.3c0-0.3-0.3-0.4-0.2-0.7
			c-0.1-0.1-0.2-0.3-0.3-0.4c0,0,0-0.1,0-0.1c-0.1-0.1,0-0.3-0.2-0.3c0-0.1-0.2-0.1-0.2-0.2c0.2-0.2-0.1-0.3-0.1-0.5
			c-0.1-0.1-0.3,0.1-0.3-0.1c-0.1,0-0.2,0.1-0.3,0c0-0.1,0.1-0.2,0.1-0.3c0.2,0,0.2-0.2,0.3-0.3l0.2-0.2c-0.2-0.1-0.4,0-0.7-0.1
			c-0.1,0,0,0.1-0.1,0.1c-0.1,0.1-0.2,0.1-0.3,0.1c0-0.1-0.1-0.1-0.1-0.2c0,0,0-0.1,0-0.1c-0.2,0-0.1,0.1-0.3,0.1
			c-0.2-0.1,0-0.3-0.3-0.3c0-0.2-0.4-0.4-0.1-0.6c0,0,0-0.1,0-0.2c-0.2-0.1-0.5-0.1-0.7,0c-0.2,0-0.1,0.2-0.1,0.3
			c-0.1,0.1-0.2,0.2-0.2,0.3c-0.1,0-0.2,0.1-0.3,0.2c-0.3-0.3-0.6-0.5-1-0.5c-0.2-0.1-0.3-0.4-0.5-0.3c-0.1-0.2-0.4,0-0.4-0.2
			c-0.1,0-0.1-0.2-0.1-0.3c0-0.2,0-0.3,0.2-0.5c0.1-0.1-0.1-0.1-0.1-0.3c0,0,0-0.1,0-0.1c-0.1,0-0.1-0.1-0.1-0.1c0,0-0.1,0-0.1-0.1
			c0-0.1-0.2-0.1-0.3-0.2c-0.1,0-0.2,0-0.2,0.1c0-0.1-0.1-0.2-0.2-0.2c-0.2,0-0.1,0.1-0.2,0.2c0,0.2-0.1,0.2-0.1,0.4
			c0.1,0.1,0.3,0.2,0.3,0.4c-0.1,0.2-0.1,0.4-0.2,0.6c-0.1,0.1-0.2,0.2-0.2,0.4c0.1,0.1,0,0.3-0.1,0.5c0,0.1-0.1,0.2-0.1,0.4
			c-0.2,0.1-0.2,0.4-0.5,0.5c-0.2,0-0.2,0.3-0.4,0.2c0,0-0.1,0.1-0.1,0.1c-0.1-0.1-0.3,0-0.5,0c-0.1,0.2,0.1,0.5-0.2,0.6v0.1
			c0,0,0.1,0,0.1,0c0,0.1-0.2,0.2-0.1,0.3c-0.1,0-0.1,0.1-0.1,0.2c-0.1,0.3-0.6,0.3-0.7,0.6c0.1,0.1,0.1,0.1,0.1,0.2
			c-0.1,0.1-0.1,0.2-0.1,0.4c0.1,0,0.1,0.1,0.1,0.2c-0.1,0.1-0.2,0.1-0.3,0.1c-0.2,0-0.3,0.2-0.4,0.2c0,0,0,0.1,0,0.1
			c0.2,0.1,0,0.4,0.2,0.3c0.1,0.1,0.2,0.1,0.3,0.2c0.1,0,0.2,0,0.3,0c0.1-0.1,0.2-0.1,0.3-0.2c0.1,0,0.2,0.1,0.3,0
			c0,0.2,0.1,0.3,0.2,0.4c0,0.1,0.1,0.1,0.2,0.1c0.2,0,0.3,0,0.5,0.1c0.1,0,0.1,0,0.2,0c0.1,0,0.2,0,0.3-0.1c0,0.2,0.3,0,0.4,0.3
			c0.1,0.1-0.2,0.2-0.2,0.3c0,0.1,0.1,0.2,0.1,0.3c0.1,0,0.1,0.1,0.2,0c0.2,0.1,0,0.5,0.4,0.4c0,0,0-0.1,0-0.1
			c0.1,0,0.1,0.1,0.2,0.2c0,0.1,0,0.3,0.1,0.4c0.1,0,0.1,0,0.1,0.1c0,0.1-0.1,0.2-0.1,0.2c0,0-0.1,0-0.1,0c0,0.1-0.1,0.2-0.1,0.3
			c-0.1,0-0.1,0.1-0.1,0.1c0.1,0.1,0,0.3,0.2,0.2c0.1,0.1,0.2,0,0.3,0.1c0.2,0.1,0.5,0.1,0.6,0.3c0.1,0,0.1,0.1,0.2,0
			C-51-142.6-50.8-142.5-50.8-142.6"/>
		<polygon class="st14" points="-49.3,-140.1 -49.6,-139.3 -49.9,-140.1 -50.7,-140.1 -50,-140.6 -50.3,-141.4 -49.6,-140.9 
			-48.9,-141.4 -49.2,-140.6 -48.5,-140.1 		"/>
		<polygon class="st14" points="-46.7,-140.5 -47,-139.8 -47.2,-140.5 -48.1,-140.5 -47.4,-141 -47.7,-141.8 -47,-141.3 
			-46.3,-141.8 -46.6,-141 -45.9,-140.5 		"/>
		<polygon class="st14" points="-44.2,-141.5 -44.5,-140.7 -44.7,-141.5 -45.6,-141.5 -44.9,-141.9 -45.1,-142.7 -44.5,-142.2 
			-43.8,-142.7 -44.1,-141.9 -43.4,-141.5 		"/>
		<polygon class="st14" points="-52,-140.1 -52.3,-139.3 -52.5,-140.1 -53.4,-140.1 -52.7,-140.6 -52.9,-141.4 -52.3,-140.9 
			-51.6,-141.4 -51.9,-140.6 -51.2,-140.1 		"/>
		<polygon class="st14" points="-54.6,-140.5 -54.9,-139.8 -55.2,-140.5 -56,-140.5 -55.3,-141 -55.6,-141.8 -54.9,-141.3 
			-54.2,-141.8 -54.5,-141 -53.8,-140.5 		"/>
		<polygon class="st14" points="-57.1,-141.5 -57.4,-140.7 -57.7,-141.5 -58.5,-141.5 -57.8,-141.9 -58.1,-142.7 -57.4,-142.2 
			-56.7,-142.7 -57,-141.9 -56.3,-141.5 		"/>
	</g>
</g>
<g>
	<path class="st15" d="M-36-188.6c0,8.2-6.6,14.8-14.8,14.8s-14.8-6.6-14.8-14.8c0-8.2,6.6-14.8,14.8-14.8S-36-196.8-36-188.6"/>
	<g>
		<defs>
			<rect id="SVGID_13_" x="-61.1" y="-200.5" width="20.5" height="23.6"/>
		</defs>
		<clipPath id="SVGID_14_">
			<use xlink:href="#SVGID_13_"  style="overflow:visible;"/>
		</clipPath>
		<g style="clip-path:url(#SVGID_14_);">
			
				<image style="overflow:visible;" width="1779" height="2048" xlink:href="7C5B4C9A.png"  transform="matrix(1.153737e-02 0 0 1.153737e-02 -61.086 -200.4614)">
			</image>
		</g>
	</g>
</g>
<path class="st2" d="M137.2-188.8C137.2-188.8,137.1-188.8,137.2-188.8c0-0.3,0-0.4,0-0.6c0-7.4-6-13.5-13.5-13.5
	c-7.4,0-13.5,6-13.5,13.5c0,7.4,6,13.5,13.5,13.5c7.1,0,12.8-5.4,13.4-12.4C137.2-188.4,137.2-188.6,137.2-188.8 M134-184
	C134-184,134-184,134-184h-2c-0.9,0-1.6,0-2.2,0.1c-0.3,0-0.6,0.1-0.9,0.2l-1.9-2.2c0-0.1,0.1-0.2,0.1-0.3l0.9-2.9l-0.5-0.2l0.5,0.2
	c0-0.1,0-0.3,0.1-0.4l3.3-1.4c0.2,0.2,0.4,0.4,0.6,0.6c0.5,0.4,1,0.8,1.8,1.2l1.4,0.9C135.1-186.7,134.6-185.3,134-184 M118.7-183.8
	c-0.3-0.1-0.6-0.1-0.8-0.2c-0.6-0.1-1.3-0.1-2.2-0.1h-2l0,0.5h0v-0.5c-0.1,0-0.2,0-0.2,0c-0.7-1.3-1.1-2.6-1.3-4.1l1.5-1
	c0.7-0.5,1.3-0.9,1.8-1.2c0.2-0.2,0.4-0.4,0.6-0.6l3.2,1.4c0,0.1,0,0.3,0.1,0.4l0.5-0.2l-0.5,0.2l0.9,2.9c0,0.1,0.1,0.2,0.1,0.3
	L118.7-183.8z M123.1-192.4l-0.7-0.9l-2.3,1.8v0c-0.1,0.1-0.1,0.1-0.2,0.2l-3.2-1.3c0-0.3,0-0.6-0.1-0.9c-0.1-0.6-0.3-1.3-0.5-2.1
	l-0.5-2c0,0,0-0.1,0-0.1c0.9-0.8,1.9-1.6,3-2.1l1.7,1.2c0.7,0.5,1.3,0.9,1.8,1.2c0.2,0.1,0.5,0.3,0.8,0.3v3.4
	c-0.1,0.1-0.3,0.1-0.4,0.2 M131.8-197.6l-0.5,2c-0.2,0.8-0.4,1.5-0.5,2.1c0,0.3-0.1,0.6,0,0.9l-3.2,1.3c-0.1-0.1-0.1-0.2-0.2-0.2
	l-2.3-1.8c-0.1-0.1-0.3-0.1-0.4-0.2v-3.4c0.3-0.1,0.5-0.2,0.8-0.3c0.5-0.3,1.1-0.7,1.8-1.2v0l0,0l1.7-1.2c0,0,0.1-0.1,0.1-0.1
	C130-199.1,131-198.4,131.8-197.6C131.9-197.6,131.8-197.6,131.8-197.6 M120.7-189.6L120.7-189.6l-0.9,0.3L120.7-189.6z
	 M126.7-189.6l0.8,0.3L126.7-189.6z M122-177.9l-0.7-2.1c-0.3-0.8-0.5-1.5-0.7-2c-0.1-0.2-0.2-0.5-0.4-0.7l1.6-2.1
	c0.2,0,0.3,0.1,0.5,0.1h2.8v-0.9v0v0.9c0.2,0,0.3,0,0.5-0.1l1.8,2.1c-0.1,0.2-0.3,0.4-0.4,0.7c-0.2,0.5-0.5,1.2-0.7,2l-0.7,2
	c-0.6,0.1-1.3,0.2-1.9,0.2C123.1-177.8,122.6-177.8,122-177.9"/>
<g>
	<path class="st2" d="M163.2-202.5c-0.2,0-0.4,0.1-0.6,0.2c-0.2,0.2-0.2,0.4-0.2,0.6v0.8h-13.1v-0.8c0-0.2-0.1-0.4-0.2-0.6
		c-0.2-0.2-0.4-0.2-0.6-0.2c-0.2,0-0.4,0.1-0.6,0.2c-0.2,0.2-0.2,0.4-0.2,0.6v0.8H146c-0.9,0-1.7,0.3-2.3,1c-0.6,0.6-1,1.5-1,2.3
		v18.1c0,0.9,0.3,1.7,1,2.3c0.6,0.6,1.5,1,2.3,1h19.7c0.9,0,1.7-0.3,2.3-1c0.6-0.6,1-1.5,1-2.3v-18.1c0-0.9-0.3-1.7-1-2.3
		c-0.6-0.6-1.5-1-2.3-1H164v-0.8c0-0.2-0.1-0.4-0.2-0.6C163.6-202.4,163.4-202.5,163.2-202.5 M167.3-195.9v16.4
		c0,0.4-0.2,0.9-0.5,1.2c-0.3,0.3-0.7,0.5-1.2,0.5H146c-0.4,0-0.9-0.2-1.2-0.5c-0.3-0.3-0.5-0.7-0.5-1.2v-16.4H167.3z"/>
	<rect x="148.2" y="-192.6" class="st1" width="3.3" height="3.3"/>
	<rect x="154.7" y="-192.6" class="st1" width="3.3" height="3.3"/>
	<rect x="161.3" y="-192.6" class="st1" width="3.3" height="3.3"/>
	<rect x="148.2" y="-185" class="st1" width="3.3" height="3.3"/>
	<rect x="154.7" y="-185" class="st1" width="3.3" height="3.3"/>
	<rect x="161.3" y="-185" class="st1" width="3.3" height="3.3"/>
</g>
<g>
	<path class="st2" d="M-11.9-118.1c0,0.7-0.3,1.5-0.8,2c-0.5,0.5-1.2,0.8-2,0.8c-0.7,0-1.5-0.3-2-0.8c-0.5-0.5-0.8-1.2-0.8-2
		c0-0.7,0.3-1.5,0.8-2c0.5-0.5,1.2-0.8,2-0.8c0.7,0,1.5,0.3,2,0.8C-12.2-119.5-11.9-118.8-11.9-118.1 M-8.5-109.5l-3.6-3.6
		c-0.1-0.1-0.2-0.2-0.3-0.2c-0.1-0.1-0.2-0.1-0.4-0.1H-26c-0.2,0-0.5,0.1-0.7,0.3c-0.2,0.2-0.3,0.4-0.3,0.7c0,0.2,0.1,0.5,0.3,0.7
		c0.2,0.2,0.4,0.3,0.7,0.3h5l-6,11.8c0,0.1,0,0.3,0,0.4c0,0.2,0,0.5,0.1,0.7c0.1,0.2,0.4,0.4,0.6,0.4c0.2,0.1,0.5,0,0.7-0.1
		s0.4-0.3,0.4-0.6l1.9-3.2h3.7l-3.6,7.9c-0.1,0.1-0.1,0.3-0.1,0.5c0,0.2,0,0.5,0.2,0.7c0.1,0.2,0.4,0.3,0.6,0.4c0.2,0,0.5,0,0.7-0.1
		c0.2-0.1,0.4-0.3,0.4-0.6l8.8-17.5l2.7,2.8c0.2,0.2,0.4,0.2,0.6,0.2c0.2,0,0.5-0.1,0.6-0.3c0.2-0.2,0.3-0.4,0.3-0.6
		C-8.3-109.1-8.3-109.3-8.5-109.5"/>
	<path class="st2" d="M-10.9-101.5c2,0,3.6,1.6,3.6,3.6c0,2-1.6,3.6-3.6,3.6c-2,0-3.6-1.6-3.6-3.6C-14.5-99.9-12.9-101.5-10.9-101.5
		"/>
</g>
<g>
	<path class="st2" d="M15-28.5c-4.2,0-7.5,3.3-7.5,7.4c0,4.1,3.4,7.4,7.5,7.4s7.5-3.3,7.5-7.4C22.5-25.2,19.2-28.5,15-28.5
		 M20.4-21.1c0,0.7-0.1,1.4-0.4,2c0,0,0,0,0,0c-0.1,0.1-0.2,0.1-0.2,0.2c-0.1-0.4-0.4-0.9-0.8-1.4c0.1-0.4,0.1-1.8,0-2.2
		c0.3-0.3,0.6-0.7,0.8-0.9c0.1,0,0.1,0.1,0.2,0.1C20.2-22.7,20.4-21.9,20.4-21.1 M10.3-20.3c0.3,0.2,1.1,0.5,1.6,0.6
		c0.1,0.2,0.2,0.6,0.5,1.1c0.2,0.4,0.5,0.7,0.7,0.9c-0.3,0.5-0.4,0.8-0.3,1.1c-0.3,0-0.5-0.1-0.8-0.2c-0.8-0.5-1.5-1.3-1.9-2.2
		C10.1-19.3,10.1-19.8,10.3-20.3 M13-26.1c0.1,0.2,0.2,0.5,0.3,0.7c-0.2,0.2-1,1.1-1.3,1.9c-0.4,0.1-1.2,0.2-1.6,0.7
		c-0.2,0-0.3-0.1-0.5-0.1C10.4-24.3,11.6-25.5,13-26.1 M19.6-23.6c-0.1,0.2-0.5,0.7-0.8,1c-0.4-0.3-1.5-0.8-1.8-0.9
		c-0.1-0.3-0.3-0.8-0.5-1.2c-0.2-0.3-0.4-0.6-0.6-0.7c0.2-0.2,0.5-0.5,0.8-0.7c1.2,0.4,2.2,1.2,2.8,2.2
		C19.6-23.8,19.6-23.7,19.6-23.6 M18.4-17c-0.3,0.2-1.1,0.6-2,0.5c-0.2-0.2-0.5-0.7-0.7-1c0,0,0-0.1-0.1-0.1c0.6-0.6,1-1.7,1.2-2.1
		c0.7,0,1.4-0.2,2-0.5c0.2,0.2,0.3,0.4,0.5,0.6c0.2,0.3,0.3,0.5,0.3,0.7c-0.2,0.4-0.5,1.1-0.9,1.6C18.6-17.2,18.5-17.1,18.4-17
		 M16.4-24.6c0.2,0.4,0.4,0.8,0.5,1.1c-0.1,0.1-0.2,0.3-0.3,0.4c-0.3,0.4-0.7,0.9-1,1.3c-0.4-0.1-1.6-0.3-2.4,0
		c-0.2-0.3-0.3-0.5-0.5-0.8c-0.1-0.2-0.2-0.3-0.3-0.5c-0.1-0.1-0.1-0.2-0.2-0.3c0.1-0.5,0.5-1,0.7-1.3c0.2-0.2,0.3-0.4,0.4-0.5
		c0.1-0.1,0.1-0.1,0.1-0.1c0.8-0.1,1.6-0.1,2.4,0C16-25.2,16.2-24.9,16.4-24.6 M13.1-21.6c0.5-0.1,1.1-0.1,1.6-0.1
		c0.2,0,0.4,0,0.7,0.1c0.1,0,0.2,0,0.2,0c0.1,0.2,0.2,0.4,0.4,0.6c0.2,0.3,0.4,0.6,0.7,1c0.1,0.1,0.1,0.2,0.1,0.3c0,0,0,0.1,0,0.1
		c-0.1,0.4-0.5,1.4-1.1,1.9c-0.9,0.1-1.7,0.1-2.3,0c-0.3-0.2-0.5-0.6-0.7-0.9c-0.2-0.3-0.3-0.6-0.4-0.8c0-0.1-0.1-0.2-0.1-0.3
		c0,0,0,0,0,0C12.3-20.4,12.7-21.1,13.1-21.6 M12.5-16.5c0.1,0,0.3,0.1,0.4,0.1c0.1,0.1,0.2,0.2,0.4,0.3
		C13-16.2,12.7-16.4,12.5-16.5 M9.6-21.1c0-0.6,0.1-1.1,0.3-1.6c0.2,0,0.3,0.1,0.5,0.1c-0.2,0.5-0.3,1.8-0.1,2.2
		C10-20,10-19.6,10-19.3C9.7-19.8,9.6-20.5,9.6-21.1"/>
	<path class="st2" d="M29.6-16.8h-2.2v-17H2.9v17H0.4v-19.5h29.3V-16.8z M27.9-17.3h1.2v-18.5H0.9v18.5h1.5v-17h25.5V-17.3z"/>
	<polygon class="st2" points="2.8,-16.8 2.5,-17.2 6.2,-19.6 6.2,-31.1 2.5,-33.8 2.8,-34.2 6.7,-31.3 6.7,-19.3 	"/>
	<polygon class="st2" points="27.5,-16.8 23.6,-19.3 23.6,-31.3 27.5,-34.2 27.8,-33.8 24.1,-31 24.1,-19.6 27.8,-17.2 	"/>
	<rect x="6.4" y="-31.4" class="st2" width="17.4" height="0.5"/>
	<rect x="2.6" y="-25.5" class="st2" width="5.6" height="0.5"/>
	<rect x="22.1" y="-25.5" class="st2" width="5.6" height="0.5"/>
	<rect x="11.9" y="-31.2" class="st2" width="0.5" height="2.7"/>
	<rect x="17.9" y="-31.2" class="st2" width="0.5" height="2.7"/>
	<rect x="6.4" y="-19.7" class="st2" width="0.9" height="0.5"/>
	<rect x="22.9" y="-19.7" class="st2" width="0.9" height="0.5"/>
</g>
<g>
	<path class="st16" d="M-57-74.2c0-1.6,0.7-3,1.8-4.1c1.2-1.1,2.7-1.7,4.4-1.7c1.6,0,3.2,0.6,4.4,1.7c1.2,1.1,1.8,2.6,1.8,4.1
		c0,1.6-0.7,3-1.8,4.1c-1.2,1.1-2.7,1.7-4.4,1.7c-1.6,0-3.2-0.6-4.4-1.7C-56.3-71.1-57-72.6-57-74.2 M-57-65.4c-2,0-4,0.8-5.5,2.1
		c-1.4,1.4-2.3,3.2-2.3,5.2c0,1.2,0.5,2.3,1.4,3.1c0.9,0.8,2,1.3,3.3,1.3h18.5c1.2,0,2.4-0.5,3.3-1.3c0.9-0.8,1.4-1.9,1.4-3.1
		c0-1.9-0.8-3.8-2.3-5.2c-1.4-1.4-3.4-2.1-5.5-2.1H-57z"/>
</g>
<g>
	<defs>
		<rect id="SVGID_15_" x="79.1" y="-201.1" width="21.9" height="23.6"/>
	</defs>
	<clipPath id="SVGID_16_">
		<use xlink:href="#SVGID_15_"  style="overflow:visible;"/>
	</clipPath>
	<g class="st17">
		<defs>
			<rect id="SVGID_17_" x="79.1" y="-201.1" width="21.9" height="23.6"/>
		</defs>
		<clipPath id="SVGID_18_">
			<use xlink:href="#SVGID_17_"  style="overflow:visible;"/>
		</clipPath>
		<g style="clip-path:url(#SVGID_18_);">
			
				<image style="overflow:visible;" width="950" height="1024" xlink:href="7C5B4C9E.png"  transform="matrix(2.301777e-02 0 0 2.301777e-02 79.066 -201.1379)">
			</image>
		</g>
	</g>
</g>
<g>
	<defs>
		<rect id="SVGID_19_" x="38.2" y="-200.8" width="21.1" height="24.3"/>
	</defs>
	<clipPath id="SVGID_20_">
		<use xlink:href="#SVGID_19_"  style="overflow:visible;"/>
	</clipPath>
	<g class="st18">
		<defs>
			<rect id="SVGID_21_" x="38.2" y="-200.8" width="21.1" height="24.2"/>
		</defs>
		<clipPath id="SVGID_22_">
			<use xlink:href="#SVGID_21_"  style="overflow:visible;"/>
		</clipPath>
		<g style="clip-path:url(#SVGID_22_);">
			
				<image style="overflow:visible;" width="1779" height="2048" xlink:href="7C5B4C9D.png"  transform="matrix(1.184026e-02 0 0 1.184026e-02 38.1739 -200.7716)">
			</image>
		</g>
	</g>
</g>
</svg>
