<?xml version="1.0" encoding="utf-8"?>
<!-- Generator: Adobe Illustrator 23.0.5, SVG Export Plug-In . SVG Version: 6.00 Build 0)  -->
<svg version="1.1" id="Layer_1" xmlns="http://www.w3.org/2000/svg" xmlns:xlink="http://www.w3.org/1999/xlink" x="0px" y="0px"
	 width="30px" height="30px" viewBox="0 0 30 30" style="enable-background:new 0 0 30 30;" xml:space="preserve">
<style type="text/css">
	.st0{fill:#141619;}
	.st1{fill:#6FB95D;}
	.st2{fill:#033A4A;}
	.st3{clip-path:url(#SVGID_2_);}
	.st4{fill:#2A4DA1;}
	.st5{fill:#D1A750;}
	.st6{fill:#FFFFFF;}
	.st7{fill:none;}
	.st8{clip-path:url(#SVGID_6_);fill:#6FB95D;}
	.st9{clip-path:url(#SVGID_6_);fill:#033A4A;}
	.st10{fill:#D6D5D5;}
	.st11{clip-path:url(#SVGID_8_);}
	.st12{clip-path:url(#SVGID_12_);fill:#2A4DA1;}
	.st13{clip-path:url(#SVGID_12_);fill:#D1A750;}
	.st14{clip-path:url(#SVGID_12_);fill:#FFFFFF;}
	.st15{fill:#F7F7F7;}
	.st16{fill-rule:evenodd;clip-rule:evenodd;fill:#033A4A;}
	.st17{clip-path:url(#SVGID_16_);}
	.st18{clip-path:url(#SVGID_20_);}
</style>
<g>
	<path class="st0" d="M-152.6,1.4h-10.7c-4.9,0-8.9,4-8.9,8.9v10.7c0,4.9,4,8.9,8.9,8.9h10.7c4.9,0,8.9-4,8.9-8.9V10.3
		C-143.5,5.4-147.5,1.4-152.6,1.4 M-146.3,21.1c0,3.5-2.8,6.3-6.3,6.3h-10.7c-3.5,0-6.3-2.8-6.3-6.3V10.3c0-3.5,2.8-6.3,6.3-6.3
		h10.7c3.5,0,6.3,2.8,6.3,6.3V21.1z"/>
	<path class="st0" d="M-157.9,8.6c-4,0-7.1,3.2-7.1,7.1c0,4,3.2,7.1,7.1,7.1c4,0,7.1-3.2,7.1-7.1C-150.8,11.8-153.9,8.6-157.9,8.6
		 M-157.9,20.2c-2.4,0-4.5-2-4.5-4.5c0-2.5,2-4.5,4.5-4.5c2.5,0,4.5,2,4.5,4.5C-153.4,18.2-155.4,20.2-157.9,20.2"/>
	<path class="st0" d="M-150.2,7.1c0.5,0,0.9,0.4,0.9,0.9s-0.4,0.9-0.9,0.9c-0.5,0-0.9-0.4-0.9-0.9C-151.2,7.5-150.8,7.1-150.2,7.1"
		/>
</g>
<g>
	<path class="st0" d="M-120.5,1.6h-10.6c-4.9,0-8.8,3.9-8.8,8.8V21c0,4.9,3.9,8.8,8.8,8.8h10.6c4.9,0,8.8-3.9,8.8-8.8V10.4
		C-111.6,5.6-115.6,1.6-120.5,1.6 M-114.3,21c0,3.4-2.8,6.2-6.2,6.2h-10.6c-3.4,0-6.2-2.8-6.2-6.2V10.4c0-3.4,2.8-6.2,6.2-6.2h10.6
		c3.4,0,6.2,2.8,6.2,6.2V21z"/>
	<path class="st0" d="M-124.4,13v-2.1c0-0.6,0.5-1.1,1.1-1.1h1.1V7.2h-2.1c-1.7,0-3.2,1.4-3.2,3.2V13h-2.1v2.7h2.1v8.5h3.2v-8.6h2.1
		l1.1-2.7L-124.4,13z"/>
</g>
<g>
	<path class="st1" d="M-155.5,219c0-0.4,0.2-0.6,0.6-0.6h6.7v2.4h-6.7c-0.4,0-0.6-0.2-0.6-0.6V219z M-155.5,226.3
		c0-0.4,0.2-0.6,0.6-0.6h6.7v2.4h-6.7c-0.4,0-0.6-0.2-0.6-0.6V226.3z M-155.5,211.7c0-0.4,0.2-0.6,0.6-0.6h6.7v2.4h-6.7
		c-0.4,0-0.6-0.2-0.6-0.6V211.7z"/>
	<path class="st2" d="M-148.2,211.1h-6.7c-0.4,0-0.6,0.2-0.6,0.6v1.2c0,0.4,0.2,0.6,0.6,0.6h6.7v4.9h-6.7c-0.4,0-0.6,0.2-0.6,0.6
		v1.2c0,0.4,0.2,0.6,0.6,0.6h6.7v4.9h-6.7c-0.4,0-0.6,0.2-0.6,0.6v1.2c0,0.4,0.2,0.6,0.6,0.6h6.7v2.7c0,0.7-0.2,1.2-0.7,1.7
		c-0.5,0.5-1.1,0.7-1.7,0.7h-14.6c-0.7,0-1.2-0.2-1.7-0.7c-0.5-0.5-0.7-1.1-0.7-1.7v-23c0-0.7,0.2-1.2,0.7-1.7
		c0.5-0.5,1.1-0.7,1.7-0.7h14.6c0.7,0,1.2,0.2,1.7,0.7c0.5,0.5,0.7,1.1,0.7,1.7V211.1z"/>
</g>
<g>
	<path class="st2" d="M-178.4,212.7v16.5c0,0.9-0.3,1.7-1,2.3c-0.7,0.7-1.4,1-2.3,1h-19.9c-0.9,0-1.7-0.3-2.3-1
		c-0.7-0.7-1-1.4-1-2.3v-16.5c0-0.9,0.3-1.7,1-2.3c0.7-0.7,1.4-1,2.3-1h1.3c-0.9,1.5-1.3,3.2-1.3,5c0,2.7,1,5.1,2.9,7
		c1.9,1.9,4.3,2.9,7,2.9c2.7,0,5.1-1,7-2.9c1.9-1.9,2.9-4.3,2.9-7c0-1.8-0.4-3.4-1.3-5h1.3c0.9,0,1.7,0.3,2.3,1
		C-178.7,211.1-178.4,211.8-178.4,212.7 M-191.6,218.9c-0.4,0-0.7-0.1-1-0.3c-0.3-0.2-0.6-0.4-0.8-0.7c-0.2-0.3-0.3-0.7-0.3-1
		c0-0.6,0.2-1.1,0.6-1.5c0.4-0.4,0.9-0.6,1.5-0.6l1.7-4c0.1-0.3,0.4-0.5,0.8-0.5c0.2,0,0.4,0.1,0.6,0.2c0.2,0.2,0.2,0.4,0.2,0.6
		c0,0.1,0,0.2-0.1,0.3l-1.8,4.1c0.4,0.4,0.6,0.8,0.6,1.4c0,0.6-0.2,1.1-0.6,1.5C-190.6,218.7-191.1,218.9-191.6,218.9"/>
	<path class="st1" d="M-185.8,220.2l-1.2,1.2c-0.8,0.8-2.4,1.2-4.6,1.2c-2.3,0-4.2-0.8-5.8-2.4c-1.6-1.6-2.4-3.6-2.4-5.8
		c0-2.3,0.8-4.2,2.4-5.8c1.6-1.6,3.6-2.4,5.8-2.4c2.3,0,4.2,0.8,5.8,2.4c1.6,1.6,2.4,3.6,2.4,5.8
		C-183.4,216.7-184.2,218.6-185.8,220.2 M-191.6,214.8c-0.6,0-1.1,0.2-1.5,0.6c-0.4,0.4-0.6,0.9-0.6,1.5c0,0.6,0.2,1.1,0.6,1.4
		c0.4,0.4,0.9,0.6,1.5,0.6c0.6,0,1.1-0.2,1.5-0.6c0.4-0.4,0.6-0.9,0.6-1.5c0-0.6-0.2-1-0.6-1.4l1.8-4.1c0-0.1,0.1-0.2,0.1-0.3
		c0-0.1,0-0.3-0.1-0.4c-0.1-0.1-0.2-0.2-0.3-0.3c-0.1-0.1-0.3-0.1-0.4-0.1c-0.4,0-0.6,0.2-0.8,0.5L-191.6,214.8z"/>
</g>
<g>
	<defs>
		<rect id="SVGID_1_" x="-171.9" y="49.2" width="27.9" height="17.1"/>
	</defs>
	<clipPath id="SVGID_2_">
		<use xlink:href="#SVGID_1_"  style="overflow:visible;"/>
	</clipPath>
	<g class="st3">
		<defs>
			<rect id="SVGID_3_" x="-172.5" y="49" width="29.1" height="17.3"/>
		</defs>
		<clipPath id="SVGID_4_">
			<use xlink:href="#SVGID_3_"  style="overflow:visible;"/>
		</clipPath>
		<g style="clip-path:url(#SVGID_4_);">
			
				<image style="overflow:visible;" width="168" height="100" xlink:href="E89D5853.jpg"  transform="matrix(0.1731 0 0 0.1731 -172.4969 49.0219)">
			</image>
		</g>
	</g>
</g>
<g>
	<rect x="-140.2" y="48.8" class="st4" width="28.8" height="17.6"/>
	<rect x="-139.3" y="48.1" class="st4" width="26.8" height="19.1"/>
	<path class="st5" d="M-125.8,61.2c0.1-0.1,0.2-0.3,0.2-0.4c-0.1,0-0.2-0.1-0.3-0.1c0.5,0.1,0.6-0.5,1.1-0.3c0-0.1,0.1-0.1,0.2-0.1
		l0.1,0.2c0.2,0.1,0.1-0.3,0.4-0.2c0.1-0.1,0-0.3,0.1-0.4c0-0.1,0.1-0.2,0.1-0.4c0.1,0.1,0.1,0.2,0.2,0.1c0.1-0.1,0.2-0.2,0.2-0.3
		c0-0.2-0.1-0.4,0.1-0.5v-0.1c0.1-0.1,0.5,0.1,0.5-0.2c0-0.1,0.1,0,0.1-0.1c0.1,0,0.2,0,0.3,0c0.1-0.2-0.1-0.3-0.2-0.5
		c0.1-0.1,0.1-0.3,0-0.4l-0.1,0c0.1,0,0.3,0,0.5-0.1l0.2-0.1c0.1,0.1,0.2,0.1,0.4,0.1c0.1-0.1,0-0.2,0.1-0.3c0.1,0,0.2,0,0.3-0.1
		l0,0c0.1,0.2,0.4,0.1,0.5,0.2c0.2,0,0.2-0.2,0.3-0.3c0-0.3-0.3-0.4-0.2-0.7c-0.1-0.1-0.2-0.3-0.3-0.4c0,0,0-0.1,0-0.1
		c-0.1-0.1,0-0.3-0.2-0.3c0-0.1-0.2-0.1-0.2-0.2c0.1-0.2-0.1-0.3-0.1-0.5c-0.1-0.1-0.3,0.1-0.3-0.1c-0.1,0-0.2,0.1-0.3,0
		c0-0.1,0.1-0.2,0.1-0.3c0.2,0,0.2-0.2,0.3-0.3l0.2-0.2c-0.2-0.1-0.4,0-0.7-0.1c-0.1,0,0,0.1-0.1,0.1c-0.1,0.1-0.2,0.1-0.3,0.1
		c0-0.1-0.2-0.1-0.1-0.2c0,0,0-0.1,0-0.1c-0.2,0-0.1,0.1-0.3,0.1c-0.2-0.1,0-0.3-0.3-0.3c0-0.2-0.4-0.4-0.1-0.6c0,0,0-0.1,0-0.2
		c-0.2-0.1-0.5-0.1-0.7,0c-0.2,0-0.1,0.2-0.1,0.3c-0.1,0.1-0.2,0.2-0.2,0.3c-0.1,0-0.2,0.1-0.3,0.2c-0.3-0.3-0.6-0.5-1-0.5
		c-0.2-0.1-0.3-0.4-0.5-0.3c-0.1-0.2-0.4,0-0.4-0.2c-0.1,0-0.1-0.2-0.1-0.3c0-0.2,0-0.3,0.2-0.5c0.1-0.1-0.1-0.1-0.1-0.3
		c0,0,0-0.1,0-0.1c-0.1,0-0.1-0.1-0.1-0.1c0,0-0.1,0-0.1-0.1c0-0.1-0.2-0.1-0.3-0.2c-0.1,0-0.2,0-0.2,0.1c0-0.1-0.1-0.2-0.2-0.2
		c-0.1,0-0.1,0.1-0.2,0.2c0,0.2-0.1,0.2-0.1,0.4c0.1,0.1,0.3,0.2,0.3,0.4c-0.1,0.2-0.1,0.4-0.2,0.6c-0.1,0.1-0.2,0.2-0.2,0.4
		c0.1,0.1,0,0.3-0.1,0.5c0,0.1-0.1,0.2-0.1,0.4c-0.2,0.1-0.2,0.4-0.5,0.5c-0.2,0-0.2,0.3-0.4,0.2c0,0-0.1,0.1-0.1,0.1
		c-0.1-0.1-0.3,0-0.5,0c-0.1,0.2,0.1,0.5-0.2,0.6v0.1c0,0,0.1,0,0.1,0c0,0.1-0.2,0.2-0.1,0.3c-0.1,0-0.1,0.1-0.1,0.2
		c-0.1,0.3-0.6,0.3-0.7,0.6c0.1,0.1,0.1,0.1,0.1,0.2c-0.1,0.1-0.1,0.2-0.1,0.4c0.1,0,0.1,0.1,0.1,0.2c-0.1,0.1-0.2,0.1-0.3,0.1
		c-0.2,0-0.3,0.2-0.4,0.2c0,0,0,0.1,0,0.1c0.2,0.1,0,0.4,0.2,0.3c0.1,0.1,0.2,0.1,0.3,0.2c0.1,0,0.2,0,0.3,0
		c0.1-0.1,0.2-0.1,0.3-0.2c0.1,0,0.2,0.1,0.3,0c0,0.2,0.1,0.3,0.2,0.4c0,0.1,0.1,0.1,0.2,0.1c0.2,0,0.3,0,0.5,0.1c0.1,0,0.1,0,0.2,0
		c0.1,0,0.2,0,0.3-0.1c0,0.2,0.3,0,0.4,0.3c0.1,0.1-0.2,0.2-0.2,0.3c0,0.1,0.1,0.2,0.1,0.3c0.1,0,0.1,0.1,0.2,0
		c0.2,0.1,0,0.5,0.4,0.4c0,0,0-0.1,0-0.1c0.1,0,0.1,0.1,0.2,0.2c0,0.1,0,0.3,0.1,0.4c0.1,0,0.1,0,0.1,0.1c0,0.1-0.1,0.2-0.1,0.2
		c0,0-0.1,0-0.1,0c0,0.1-0.1,0.2-0.1,0.3c-0.1,0-0.1,0.1-0.1,0.1c0.1,0.1,0,0.3,0.2,0.2c0.1,0.1,0.2,0,0.3,0.1
		c0.2,0.1,0.5,0.1,0.6,0.3c0.1,0,0.1,0.1,0.2,0C-126,61.3-125.8,61.3-125.8,61.2"/>
	<polygon class="st6" points="-124.3,63.7 -124.6,64.5 -124.9,63.7 -125.7,63.7 -125,63.2 -125.3,62.5 -124.6,62.9 -123.9,62.5 
		-124.2,63.2 -123.5,63.7 	"/>
	<polygon class="st6" points="-121.7,63.3 -122,64.1 -122.2,63.3 -123.1,63.3 -122.4,62.8 -122.7,62 -122,62.5 -121.3,62 
		-121.6,62.8 -120.9,63.3 	"/>
	<polygon class="st6" points="-119.2,62.4 -119.5,63.2 -119.7,62.4 -120.6,62.4 -119.9,61.9 -120.1,61.1 -119.5,61.6 -118.8,61.1 
		-119.1,61.9 -118.4,62.4 	"/>
	<polygon class="st6" points="-127,63.7 -127.3,64.5 -127.5,63.7 -128.4,63.7 -127.7,63.2 -127.9,62.5 -127.3,62.9 -126.6,62.5 
		-126.9,63.2 -126.2,63.7 	"/>
	<polygon class="st6" points="-129.6,63.3 -129.9,64.1 -130.2,63.3 -131,63.3 -130.3,62.8 -130.6,62 -129.9,62.5 -129.2,62 
		-129.5,62.8 -128.8,63.3 	"/>
	<polygon class="st6" points="-132.1,62.4 -132.4,63.2 -132.7,62.4 -133.5,62.4 -132.8,61.9 -133.1,61.1 -132.4,61.6 -131.7,61.1 
		-132,61.9 -131.3,62.4 	"/>
	<rect x="-139.3" y="48.8" class="st7" width="26.8" height="17.6"/>
</g>
<g>
	<path class="st2" d="M-103.3,71.7c-0.4,0-0.7-0.1-1-0.4c-0.3-0.3-0.4-0.6-0.4-1v-5.6c0-0.8,0.3-1.4,0.8-2c0.5-0.5,1.2-0.8,2-0.8
		h19.6c0.8,0,1.4,0.3,2,0.8c0.5,0.5,0.8,1.2,0.8,2v5.6c0,0.4-0.1,0.7-0.4,1c-0.3,0.3-0.6,0.4-1,0.4H-103.3z M-101.9,59.1v-4.2
		c0-0.8,0.3-1.4,0.8-2c0.6-0.5,1.2-0.8,2-0.8h5.6v-2c-0.4-0.3-0.8-0.6-1-1c-0.3-0.4-0.4-0.9-0.4-1.4c0-0.3,0.1-0.7,0.2-1
		c0.1-0.3,0.3-0.6,0.6-0.9l2-2l2,2c0.3,0.3,0.5,0.6,0.6,0.9c0.1,0.3,0.2,0.7,0.2,1c0,0.6-0.1,1-0.4,1.4c-0.3,0.4-0.6,0.7-1,1v2h5.6
		c0.8,0,1.4,0.3,2,0.8c0.6,0.5,0.8,1.2,0.8,2v4.2H-101.9z"/>
	<path class="st1" d="M-101.9,59.1v-4.2c0-0.8,0.3-1.4,0.8-2c0.6-0.5,1.2-0.8,2-0.8h5.6v-2c-0.4-0.3-0.8-0.6-1-1
		c-0.3-0.4-0.4-0.9-0.4-1.4c0-0.3,0.1-0.7,0.2-1c0.1-0.3,0.3-0.6,0.6-0.9l2-2l2,2c0.3,0.3,0.5,0.6,0.6,0.9c0.1,0.3,0.2,0.7,0.2,1
		c0,0.6-0.1,1-0.4,1.4c-0.3,0.4-0.6,0.7-1,1v2h5.6c0.8,0,1.4,0.3,2,0.8c0.6,0.5,0.8,1.2,0.8,2v4.2H-101.9z"/>
</g>
<g>
	<g>
		<defs>
			<rect id="SVGID_5_" x="-172" y="125" width="28.1" height="25"/>
		</defs>
		<clipPath id="SVGID_6_">
			<use xlink:href="#SVGID_5_"  style="overflow:visible;"/>
		</clipPath>
		<path class="st8" d="M-153.3,130.9v0.3h-5.5c-0.2,0-0.4-0.1-0.6-0.2c-0.1-0.1-0.2-0.3-0.2-0.6V125h0.3c0.3,0,0.6,0.1,0.8,0.3
			l4.8,4.8C-153.4,130.3-153.3,130.6-153.3,130.9 M-157.9,141.9l7.9-7.9l3.3,3.3l-7.9,8h-3.4V141.9z M-144.2,133.1
			c0.2,0.3,0.3,0.6,0.3,0.9c0,0.3-0.1,0.6-0.3,0.9l-1.4,1.4l-3.3-3.3l1.4-1.4c0.2-0.2,0.5-0.3,0.9-0.3c0.3,0,0.6,0.1,0.9,0.3
			L-144.2,133.1z"/>
		<path class="st9" d="M-168.6,143.9c0,0,0,0-0.1,0.1c-0.1,0.1-0.1,0.2-0.1,0.5c0,0.2,0.1,0.4,0.2,0.6c0.1,0.1,0.3,0.2,0.6,0.2h0.6
			c0.5,0,0.9-0.1,1.3-0.4c0.4-0.3,0.6-0.6,0.7-1.1l0.5-1.5l0.8,2.4c0.1,0.3,0.3,0.5,0.7,0.5c0.4,0,0.6-0.1,0.7-0.4l0.4-0.7
			c0.1-0.2,0.3-0.3,0.5-0.3c0.2,0,0.4,0.1,0.5,0.3c0.4,0.8,1,1.2,1.9,1.2h4.9l1.3-1.3v4.8c0,0.2,0,0.3-0.1,0.5
			c-0.1,0.1-0.1,0.3-0.2,0.4c-0.1,0.1-0.2,0.2-0.4,0.2c-0.1,0.1-0.3,0.1-0.5,0.1h-16.4c-0.3,0-0.6-0.1-0.8-0.3
			c-0.2-0.2-0.3-0.5-0.3-0.8v-22.6c0-0.3,0.1-0.6,0.3-0.8c0.2-0.2,0.5-0.3,0.8-0.3h11.3v5.5c0,0.2,0.1,0.4,0.2,0.6
			c0.1,0.1,0.3,0.2,0.6,0.2h5.5v6l-4.7,4.6v1.8h-1.6c-0.2,0-0.4-0.1-0.4-0.3c-0.3-0.6-0.8-1-1.5-1.1c-0.7-0.1-1.3,0-1.7,0.4l-0.7-2
			c-0.2-0.6-0.6-0.8-1.1-0.8c-0.6,0-0.9,0.3-1.1,0.8l-0.9,2.6c-0.1,0.3-0.3,0.4-0.5,0.4h-0.6C-168.3,143.7-168.5,143.8-168.6,143.9"
			/>
	</g>
</g>
<g>
	<path class="st1" d="M-191.6,169.9c1.2,0,2.2-0.2,3.2-0.6c1-0.4,1.7-0.9,2.2-1.6l1.4,0.7c-0.2,0.2-0.4,0.4-0.6,0.6
		c-1.7,1.5-3.8,2.3-6.2,2.3s-4.5-0.8-6.2-2.3c-0.2-0.2-0.4-0.4-0.6-0.6l1.5-0.7c0.3,0.4,0.7,0.8,1.2,1.1c0.5,0.3,1.1,0.6,1.9,0.8
		C-193.1,169.8-192.4,169.9-191.6,169.9"/>
	<polygon class="st1" points="-205.1,171.8 -203.8,171.1 -200.5,177.7 -201.8,178.3 	"/>
	<polygon class="st1" points="-179.5,171.1 -178.2,171.8 -181.5,178.3 -182.8,177.7 	"/>
	<path class="st2" d="M-205.9,172.1l0.8-0.4l3.3,6.5l-0.8,0.4c-0.1,0-0.2,0-0.3,0c-0.3,0-0.5-0.1-0.6-0.4l-2.6-5.2
		c-0.1-0.1-0.1-0.2-0.1-0.3C-206.3,172.5-206.2,172.3-205.9,172.1 M-184.9,168.5l5.4,2.7l-3.2,6.5l-0.5-0.2
		c-0.1-0.1-0.2-0.1-0.3-0.1c-0.2,0-0.4,0.1-0.5,0.2c-0.1,0.2-0.2,0.3-0.2,0.5v11.6c0,0.4-0.1,0.7-0.4,1c-0.3,0.3-0.6,0.4-1,0.4
		h-11.7c-0.4,0-0.7-0.1-1-0.4c-0.3-0.3-0.4-0.6-0.4-1v-11.6c0-0.2-0.1-0.3-0.2-0.5c-0.1-0.2-0.3-0.2-0.5-0.2c-0.1,0-0.2,0-0.3,0.1
		l-0.5,0.2l-3.2-6.5l5.4-2.7c0.2,0.2,0.4,0.4,0.6,0.6c1.7,1.5,3.8,2.3,6.2,2.3c2.4,0,4.5-0.8,6.2-2.3
		C-185.3,168.9-185.1,168.7-184.9,168.5 M-177.4,172.2c0.3,0.1,0.4,0.3,0.4,0.6c0,0.1,0,0.2-0.1,0.3l-2.6,5.2
		c-0.1,0.3-0.3,0.4-0.6,0.4c-0.1,0-0.2,0-0.3,0h0l-0.8-0.4l3.3-6.5L-177.4,172.2z"/>
</g>
<g>
	<path class="st2" d="M-118.5,206.4c-0.2,0-0.4,0.1-0.6,0.2c-0.2,0.2-0.2,0.4-0.2,0.6v0.8h-13v-0.8c0-0.2-0.1-0.4-0.2-0.6
		c-0.2-0.2-0.4-0.2-0.6-0.2c-0.2,0-0.4,0.1-0.6,0.2c-0.2,0.2-0.2,0.4-0.2,0.6v0.8h-1.6c-0.9,0-1.7,0.3-2.3,1c-0.6,0.6-1,1.4-1,2.3
		v17.9c0,0.9,0.3,1.7,1,2.3c0.6,0.6,1.4,1,2.3,1h19.5c0.9,0,1.7-0.3,2.3-1c0.6-0.6,1-1.4,1-2.3v-17.9c0-0.9-0.3-1.7-1-2.3
		c-0.6-0.6-1.4-1-2.3-1h-1.6v-0.8c0-0.2-0.1-0.4-0.2-0.6C-118.1,206.4-118.3,206.4-118.5,206.4 M-114.4,212.9v16.2
		c0,0.4-0.2,0.8-0.5,1.1c-0.3,0.3-0.7,0.5-1.1,0.5h-19.5c-0.4,0-0.8-0.2-1.1-0.5c-0.3-0.3-0.5-0.7-0.5-1.1v-16.2H-114.4z"/>
	<rect x="-133.4" y="216.1" class="st1" width="3.2" height="3.2"/>
	<rect x="-126.9" y="216.1" class="st1" width="3.3" height="3.2"/>
	<rect x="-120.4" y="216.1" class="st1" width="3.2" height="3.2"/>
	<rect x="-133.4" y="223.7" class="st1" width="3.2" height="3.3"/>
	<rect x="-126.9" y="223.7" class="st1" width="3.3" height="3.3"/>
	<rect x="-120.4" y="223.7" class="st1" width="3.2" height="3.3"/>
</g>
<g>
	<path class="st10" d="M-98.1,231.5l-0.5,0.5c-0.3,0.3-0.9,0.5-1.8,0.5c-0.9,0-1.7-0.3-2.3-1c-0.7-0.7-1-1.4-1-2.3v-1.7h6.7v1.7
		C-97.1,230-97.4,230.8-98.1,231.5 M-105.1,213.6c0.6-2.7,1.5-4.6,2.6-5.9c1.1-1.2,2.4-1.9,3.7-1.9c1.1,0,2,0.4,2.8,1.3
		c0.8,0.9,1.3,2,1.7,3.3c0.4,1.4,0.5,2.8,0.5,4.5c0,1.9-0.6,3.7-1.7,5.4c-0.4,0.7-0.7,1.1-0.9,1.4c-0.2,0.3-0.3,0.8-0.5,1.5
		c-0.2,0.7-0.3,1.6-0.3,2.6h-6.7l-0.8-3c-0.5-1.6-0.7-2.9-0.8-4.2C-105.5,216.8-105.4,215.2-105.1,213.6"/>
	<path class="st2" d="M-81.5,231.9l-0.5,0.5c-0.3,0.3-0.9,0.5-1.8,0.5c-0.9,0-1.7-0.3-2.3-1c-0.7-0.7-1-1.4-1-2.3v-1.7h6.7v1.7
		C-80.5,230.5-80.8,231.2-81.5,231.9 M-90.5,215.4c0-2.5,0.4-4.7,1.3-6.4c0.9-1.8,2.1-2.7,3.7-2.7c1.3,0,2.5,0.6,3.7,1.9
		s2,3.2,2.6,5.9c0.3,1.6,0.5,3.2,0.3,5c-0.1,1.2-0.3,2.6-0.8,4.2l-0.8,3h-6.7c0-1-0.1-1.8-0.3-2.6c-0.2-0.7-0.4-1.2-0.5-1.5
		c-0.2-0.3-0.4-0.7-0.9-1.4C-89.9,219.1-90.5,217.3-90.5,215.4"/>
</g>
<g>
	<defs>
		<rect id="SVGID_7_" x="-205.4" y="89.2" width="27.5" height="16.8"/>
	</defs>
	<clipPath id="SVGID_8_">
		<use xlink:href="#SVGID_7_"  style="overflow:visible;"/>
	</clipPath>
	<g class="st11">
		<defs>
			<rect id="SVGID_9_" x="-206" y="89" width="28.7" height="17.1"/>
		</defs>
		<clipPath id="SVGID_10_">
			<use xlink:href="#SVGID_9_"  style="overflow:visible;"/>
		</clipPath>
		<g transform="matrix(1 0 0 1 1.525879e-05 0)" style="clip-path:url(#SVGID_10_);">
			
				<image style="overflow:visible;" width="168" height="100" xlink:href="E89D5851.jpg"  transform="matrix(0.1706 0 0 0.1706 -205.991 89.0298)">
			</image>
		</g>
	</g>
</g>
<g>
	<rect x="-206.1" y="48.9" class="st4" width="28.8" height="17.6"/>
	<g>
		<defs>
			<rect id="SVGID_11_" x="-205.1" y="48.9" width="26.8" height="17.6"/>
		</defs>
		<clipPath id="SVGID_12_">
			<use xlink:href="#SVGID_11_"  style="overflow:visible;"/>
		</clipPath>
		<rect x="-205.1" y="48.2" class="st12" width="26.8" height="19.1"/>
		<path class="st13" d="M-191.6,61.3c0.1-0.1,0.2-0.3,0.2-0.4c-0.1,0-0.2-0.1-0.3-0.1c0.5,0.1,0.6-0.5,1.1-0.3
			c0-0.1,0.1-0.1,0.2-0.1l0.1,0.2c0.2,0.1,0.1-0.3,0.4-0.2c0.1-0.1,0-0.3,0.1-0.4c0-0.1,0.1-0.2,0.1-0.4c0.1,0.1,0.1,0.2,0.2,0.1
			c0.1-0.1,0.2-0.2,0.2-0.3c0-0.2-0.1-0.4,0.1-0.5v-0.1c0.1-0.1,0.5,0.1,0.5-0.2c0-0.1,0.1,0,0.1-0.1c0.1,0,0.2,0,0.3,0
			c0.1-0.2-0.1-0.3-0.2-0.5c0.1-0.1,0.1-0.3,0-0.4l-0.1,0c0.1,0,0.3,0,0.5-0.1l0.2-0.1c0.1,0.1,0.2,0.1,0.4,0.1
			c0.1-0.1,0-0.2,0.1-0.3c0.1,0,0.2,0,0.3-0.1l0,0c0.1,0.2,0.4,0.1,0.5,0.2c0.2,0,0.2-0.2,0.3-0.3c0-0.3-0.3-0.4-0.2-0.7
			c-0.1-0.1-0.2-0.3-0.3-0.4c0,0,0-0.1,0-0.1c-0.1-0.1,0-0.3-0.2-0.3c0-0.1-0.2-0.1-0.2-0.2c0.2-0.2-0.1-0.3-0.1-0.5
			c-0.1-0.1-0.3,0.1-0.3-0.1c-0.1,0-0.2,0.1-0.3,0c0-0.1,0.1-0.2,0.1-0.3c0.2,0,0.2-0.2,0.3-0.3l0.2-0.2c-0.2-0.1-0.4,0-0.7-0.1
			c-0.1,0,0,0.1-0.1,0.1c-0.1,0.1-0.2,0.1-0.3,0.1c0-0.1-0.1-0.1-0.1-0.2c0,0,0-0.1,0-0.1c-0.2,0-0.1,0.1-0.3,0.1
			c-0.2-0.1,0-0.3-0.3-0.3c0-0.2-0.4-0.4-0.1-0.6c0,0,0-0.1,0-0.2c-0.2-0.1-0.5-0.1-0.7,0c-0.2,0-0.1,0.2-0.1,0.3
			c-0.1,0.1-0.2,0.2-0.2,0.3c-0.1,0-0.2,0.1-0.3,0.2c-0.3-0.3-0.6-0.5-1-0.5c-0.2-0.1-0.3-0.4-0.5-0.3c-0.1-0.2-0.4,0-0.4-0.2
			c-0.1,0-0.1-0.2-0.1-0.3c0-0.2,0-0.3,0.2-0.5c0.1-0.1-0.1-0.1-0.1-0.3c0,0,0-0.1,0-0.1c-0.1,0-0.1-0.1-0.1-0.1c0,0-0.1,0-0.1-0.1
			c0-0.1-0.2-0.1-0.3-0.2c-0.1,0-0.2,0-0.2,0.1c0-0.1-0.1-0.2-0.2-0.2c-0.2,0-0.1,0.1-0.2,0.2c0,0.2-0.1,0.2-0.1,0.4
			c0.1,0.1,0.3,0.2,0.3,0.4c-0.1,0.2-0.1,0.4-0.2,0.6c-0.1,0.1-0.2,0.2-0.2,0.4c0.1,0.1,0,0.3-0.1,0.5c0,0.1-0.1,0.2-0.1,0.4
			c-0.2,0.1-0.2,0.4-0.5,0.5c-0.2,0-0.2,0.3-0.4,0.2c0,0-0.1,0.1-0.1,0.1c-0.1-0.1-0.3,0-0.5,0c-0.1,0.2,0.1,0.5-0.2,0.6v0.1
			c0,0,0.1,0,0.1,0c0,0.1-0.2,0.2-0.1,0.3c-0.1,0-0.1,0.1-0.1,0.2c-0.1,0.3-0.6,0.3-0.7,0.6c0.1,0.1,0.1,0.1,0.1,0.2
			c-0.1,0.1-0.1,0.2-0.1,0.4c0.1,0,0.1,0.1,0.1,0.2c-0.1,0.1-0.2,0.1-0.3,0.1c-0.2,0-0.3,0.2-0.4,0.2c0,0,0,0.1,0,0.1
			c0.2,0.1,0,0.4,0.2,0.3c0.1,0.1,0.2,0.1,0.3,0.2c0.1,0,0.2,0,0.3,0c0.1-0.1,0.2-0.1,0.3-0.2c0.1,0,0.2,0.1,0.3,0
			c0,0.2,0.1,0.3,0.2,0.4c0,0.1,0.1,0.1,0.2,0.1c0.2,0,0.3,0,0.5,0.1c0.1,0,0.1,0,0.2,0c0.1,0,0.2,0,0.3-0.1c0,0.2,0.3,0,0.4,0.3
			c0.1,0.1-0.2,0.2-0.2,0.3c0,0.1,0.1,0.2,0.1,0.3c0.1,0,0.1,0.1,0.2,0c0.2,0.1,0,0.5,0.4,0.4c0,0,0-0.1,0-0.1
			c0.1,0,0.1,0.1,0.2,0.2c0,0.1,0,0.3,0.1,0.4c0.1,0,0.1,0,0.1,0.1c0,0.1-0.1,0.2-0.1,0.2c0,0-0.1,0-0.1,0c0,0.1-0.1,0.2-0.1,0.3
			c-0.1,0-0.1,0.1-0.1,0.1c0.1,0.1,0,0.3,0.2,0.2c0.1,0.1,0.2,0,0.3,0.1c0.2,0.1,0.5,0.1,0.6,0.3c0.1,0,0.1,0.1,0.2,0
			C-191.8,61.3-191.6,61.4-191.6,61.3"/>
		<polygon class="st14" points="-190.2,63.8 -190.4,64.6 -190.7,63.8 -191.5,63.8 -190.8,63.3 -191.1,62.5 -190.4,63 -189.8,62.5 
			-190,63.3 -189.3,63.8 		"/>
		<polygon class="st14" points="-187.5,63.3 -187.8,64.1 -188.1,63.3 -188.9,63.3 -188.2,62.8 -188.5,62.1 -187.8,62.5 -187.1,62.1 
			-187.4,62.8 -186.7,63.3 		"/>
		<polygon class="st14" points="-185,62.4 -185.3,63.2 -185.6,62.4 -186.4,62.4 -185.7,61.9 -186,61.1 -185.3,61.6 -184.6,61.1 
			-184.9,61.9 -184.2,62.4 		"/>
		<polygon class="st14" points="-192.8,63.8 -193.1,64.6 -193.4,63.8 -194.2,63.8 -193.5,63.3 -193.8,62.5 -193.1,63 -192.4,62.5 
			-192.7,63.3 -192,63.8 		"/>
		<polygon class="st14" points="-195.5,63.3 -195.7,64.1 -196,63.3 -196.8,63.3 -196.1,62.8 -196.4,62.1 -195.7,62.5 -195,62.1 
			-195.3,62.8 -194.6,63.3 		"/>
		<polygon class="st14" points="-198,62.4 -198.2,63.2 -198.5,62.4 -199.3,62.4 -198.6,61.9 -198.9,61.1 -198.2,61.6 -197.6,61.1 
			-197.8,61.9 -197.1,62.4 		"/>
	</g>
</g>
<g>
	<path class="st15" d="M-176.8,15.7c0,8.2-6.6,14.8-14.8,14.8s-14.8-6.6-14.8-14.8c0-8.2,6.6-14.8,14.8-14.8S-176.8,7.5-176.8,15.7"
		/>
	<g>
		<defs>
			<rect id="SVGID_13_" x="-201.9" y="3.9" width="20.5" height="23.6"/>
		</defs>
		<clipPath id="SVGID_14_">
			<use xlink:href="#SVGID_13_"  style="overflow:visible;"/>
		</clipPath>
		<g style="clip-path:url(#SVGID_14_);">
			
				<image style="overflow:visible;" width="1779" height="2048" xlink:href="E89D5857.png"  transform="matrix(1.153737e-02 0 0 1.153737e-02 -201.9095 3.8915)">
			</image>
		</g>
	</g>
</g>
<path class="st2" d="M-3.7,15.6C-3.7,15.6-3.7,15.5-3.7,15.6c0-0.3,0-0.4,0-0.6c0-7.4-6-13.5-13.5-13.5c-7.4,0-13.5,6-13.5,13.5
	c0,7.4,6,13.5,13.5,13.5c7.1,0,12.8-5.4,13.4-12.4C-3.6,15.9-3.6,15.8-3.7,15.6 M-6.8,20.3C-6.8,20.3-6.8,20.3-6.8,20.3h-2
	c-0.9,0-1.6,0-2.2,0.1c-0.3,0-0.6,0.1-0.9,0.2l-1.9-2.2c0-0.1,0.1-0.2,0.1-0.3l0.9-2.9l-0.5-0.2l0.5,0.2c0-0.1,0-0.3,0.1-0.4
	l3.3-1.4c0.2,0.2,0.4,0.4,0.6,0.6c0.5,0.4,1,0.8,1.8,1.2l1.4,0.9C-5.8,17.7-6.2,19.1-6.8,20.3 M-22.1,20.6c-0.3-0.1-0.6-0.1-0.8-0.2
	c-0.6-0.1-1.3-0.1-2.2-0.1h-2l0,0.5h0v-0.5c-0.1,0-0.2,0-0.2,0c-0.7-1.3-1.1-2.6-1.3-4.1l1.5-1c0.7-0.5,1.3-0.9,1.8-1.2
	c0.2-0.2,0.4-0.4,0.6-0.6l3.2,1.4c0,0.1,0,0.3,0.1,0.4l0.5-0.2l-0.5,0.2l0.9,2.9c0,0.1,0.1,0.2,0.1,0.3L-22.1,20.6z M-17.8,12
	l-0.7-0.9l-2.3,1.8v0c-0.1,0.1-0.1,0.1-0.2,0.2l-3.2-1.3c0-0.3,0-0.6-0.1-0.9c-0.1-0.6-0.3-1.3-0.5-2.1l-0.5-2c0,0,0-0.1,0-0.1
	c0.9-0.8,1.9-1.6,3-2.1l1.7,1.2c0.7,0.5,1.3,0.9,1.8,1.2c0.2,0.1,0.5,0.3,0.8,0.3v3.4c-0.1,0.1-0.3,0.1-0.4,0.2 M-9,6.8l-0.5,2
	c-0.2,0.8-0.4,1.5-0.5,2.1c0,0.3-0.1,0.6,0,0.9l-3.2,1.3c-0.1-0.1-0.1-0.2-0.2-0.2l-2.3-1.8c-0.1-0.1-0.3-0.1-0.4-0.2V7.4
	c0.3-0.1,0.5-0.2,0.8-0.3c0.5-0.3,1.1-0.7,1.8-1.2v0l0,0l1.7-1.2c0,0,0.1-0.1,0.1-0.1C-10.8,5.2-9.8,5.9-9,6.8C-9,6.8-9,6.8-9,6.8
	 M-20.1,14.8L-20.1,14.8l-0.9,0.3L-20.1,14.8z M-14.1,14.8l0.8,0.3L-14.1,14.8z M-18.8,26.5l-0.7-2.1c-0.3-0.8-0.5-1.5-0.7-2
	c-0.1-0.2-0.2-0.5-0.4-0.7l1.6-2.1c0.2,0,0.3,0.1,0.5,0.1h2.8v-0.9v0v0.9c0.2,0,0.3,0,0.5-0.1l1.8,2.1c-0.1,0.2-0.3,0.4-0.4,0.7
	c-0.2,0.5-0.5,1.2-0.7,2l-0.7,2c-0.6,0.1-1.3,0.2-1.9,0.2C-17.7,26.6-18.2,26.5-18.8,26.5"/>
<g>
	<path class="st2" d="M22.4,1.9c-0.2,0-0.4,0.1-0.6,0.2c-0.2,0.2-0.2,0.4-0.2,0.6v0.8H8.4V2.7c0-0.2-0.1-0.4-0.2-0.6
		S7.8,1.9,7.6,1.9S7.2,1.9,7,2.1C6.9,2.2,6.8,2.5,6.8,2.7v0.8H5.1c-0.9,0-1.7,0.3-2.3,1c-0.6,0.6-1,1.5-1,2.3v18.1
		c0,0.9,0.3,1.7,1,2.3c0.6,0.6,1.5,1,2.3,1h19.7c0.9,0,1.7-0.3,2.3-1c0.6-0.6,1-1.5,1-2.3V6.8c0-0.9-0.3-1.7-1-2.3
		c-0.6-0.6-1.5-1-2.3-1h-1.6V2.7c0-0.2-0.1-0.4-0.2-0.6C22.8,1.9,22.6,1.9,22.4,1.9 M26.5,8.4v16.4c0,0.4-0.2,0.9-0.5,1.2
		c-0.3,0.3-0.7,0.5-1.2,0.5H5.1c-0.4,0-0.9-0.2-1.2-0.5c-0.3-0.3-0.5-0.7-0.5-1.2V8.4H26.5z"/>
	<rect x="7.3" y="11.7" class="st1" width="3.3" height="3.3"/>
	<rect x="13.9" y="11.7" class="st1" width="3.3" height="3.3"/>
	<rect x="20.5" y="11.7" class="st1" width="3.3" height="3.3"/>
	<rect x="7.3" y="19.4" class="st1" width="3.3" height="3.3"/>
	<rect x="13.9" y="19.4" class="st1" width="3.3" height="3.3"/>
	<rect x="20.5" y="19.4" class="st1" width="3.3" height="3.3"/>
</g>
<g>
	<path class="st2" d="M-152.8,86.3c0,0.7-0.3,1.5-0.8,2c-0.5,0.5-1.2,0.8-2,0.8c-0.7,0-1.5-0.3-2-0.8c-0.5-0.5-0.8-1.2-0.8-2
		c0-0.7,0.3-1.5,0.8-2c0.5-0.5,1.2-0.8,2-0.8c0.7,0,1.5,0.3,2,0.8C-153,84.8-152.8,85.5-152.8,86.3 M-149.3,94.9l-3.6-3.6
		c-0.1-0.1-0.2-0.2-0.3-0.2c-0.1-0.1-0.2-0.1-0.4-0.1h-13.2c-0.2,0-0.5,0.1-0.7,0.3c-0.2,0.2-0.3,0.4-0.3,0.7c0,0.2,0.1,0.5,0.3,0.7
		c0.2,0.2,0.4,0.3,0.7,0.3h5l-6,11.8c0,0.1,0,0.3,0,0.4c0,0.2,0,0.5,0.1,0.7c0.1,0.2,0.4,0.4,0.6,0.4c0.2,0.1,0.5,0,0.7-0.1
		c0.2-0.1,0.4-0.3,0.4-0.6l1.9-3.2h3.7l-3.6,7.9c-0.1,0.1-0.1,0.3-0.1,0.5c0,0.2,0,0.5,0.2,0.7c0.1,0.2,0.4,0.3,0.6,0.4
		c0.2,0,0.5,0,0.7-0.1c0.2-0.1,0.4-0.3,0.4-0.6l8.8-17.5l2.7,2.8c0.2,0.2,0.4,0.2,0.6,0.2c0.2,0,0.5-0.1,0.6-0.3
		c0.2-0.2,0.3-0.4,0.3-0.6C-149.1,95.3-149.2,95-149.3,94.9"/>
	<path class="st2" d="M-151.7,102.9c2,0,3.6,1.6,3.6,3.6c0,2-1.6,3.6-3.6,3.6c-2,0-3.6-1.6-3.6-3.6
		C-155.3,104.5-153.7,102.9-151.7,102.9"/>
</g>
<g>
	<path class="st2" d="M-125.8,175.8c-4.2,0-7.5,3.3-7.5,7.4c0,4.1,3.4,7.4,7.5,7.4c4.2,0,7.5-3.3,7.5-7.4
		C-118.3,179.1-121.7,175.8-125.8,175.8 M-120.4,183.2c0,0.7-0.1,1.4-0.4,2c0,0,0,0,0,0c-0.1,0.1-0.2,0.1-0.2,0.2
		c-0.1-0.4-0.4-0.9-0.8-1.4c0.1-0.4,0.1-1.8,0-2.2c0.3-0.3,0.6-0.7,0.8-0.9c0.1,0,0.1,0.1,0.2,0.1
		C-120.6,181.7-120.4,182.4-120.4,183.2 M-130.5,184c0.3,0.2,1.1,0.5,1.6,0.6c0.1,0.2,0.2,0.6,0.5,1.1c0.2,0.4,0.5,0.7,0.7,0.9
		c-0.3,0.5-0.4,0.8-0.3,1.1c-0.3,0-0.5-0.1-0.8-0.2c-0.8-0.5-1.5-1.3-1.9-2.2C-130.7,185-130.7,184.5-130.5,184 M-127.8,178.3
		c0.1,0.2,0.2,0.5,0.3,0.7c-0.2,0.2-1,1.1-1.3,1.9c-0.4,0.1-1.2,0.2-1.6,0.7c-0.2,0-0.3-0.1-0.5-0.1
		C-130.4,180-129.2,178.8-127.8,178.3 M-121.2,180.7c-0.1,0.2-0.5,0.7-0.8,1c-0.4-0.3-1.5-0.8-1.8-0.9c-0.1-0.3-0.3-0.8-0.5-1.2
		c-0.2-0.3-0.4-0.6-0.6-0.7c0.2-0.2,0.5-0.5,0.8-0.7c1.2,0.4,2.2,1.2,2.8,2.2C-121.2,180.5-121.2,180.6-121.2,180.7 M-122.4,187.3
		c-0.3,0.2-1.1,0.6-2,0.5c-0.2-0.2-0.5-0.7-0.7-1c0,0,0-0.1-0.1-0.1c0.6-0.6,1-1.7,1.2-2.1c0.7,0,1.4-0.2,2-0.5
		c0.2,0.2,0.3,0.4,0.5,0.6c0.2,0.3,0.3,0.5,0.3,0.7c-0.2,0.4-0.5,1.1-0.9,1.6C-122.2,187.1-122.3,187.2-122.4,187.3 M-124.5,179.7
		c0.2,0.4,0.4,0.8,0.5,1.1c-0.1,0.1-0.2,0.3-0.3,0.4c-0.3,0.4-0.7,0.9-1,1.3c-0.4-0.1-1.6-0.3-2.4,0c-0.2-0.3-0.3-0.5-0.5-0.8
		c-0.1-0.2-0.2-0.3-0.3-0.5c-0.1-0.1-0.1-0.2-0.2-0.3c0.1-0.5,0.5-1,0.7-1.3c0.2-0.2,0.3-0.4,0.4-0.5c0.1-0.1,0.1-0.1,0.1-0.1
		c0.8-0.1,1.6-0.1,2.4,0C-124.9,179.2-124.7,179.4-124.5,179.7 M-127.7,182.7c0.5-0.1,1.1-0.1,1.6-0.1c0.2,0,0.4,0,0.7,0.1
		c0.1,0,0.2,0,0.2,0c0.1,0.2,0.2,0.4,0.4,0.6c0.2,0.3,0.4,0.6,0.7,1c0.1,0.1,0.1,0.2,0.1,0.3c0,0,0,0.1,0,0.1
		c-0.1,0.4-0.5,1.4-1.1,1.9c-0.9,0.1-1.7,0.1-2.3,0c-0.3-0.2-0.5-0.6-0.7-0.9c-0.2-0.3-0.3-0.6-0.4-0.8c0-0.1-0.1-0.2-0.1-0.3
		c0,0,0,0,0,0C-128.5,183.9-128.1,183.3-127.7,182.7 M-128.4,187.9c0.1,0,0.3,0.1,0.4,0.1c0.1,0.1,0.2,0.2,0.4,0.3
		C-127.8,188.1-128.1,188-128.4,187.9 M-131.2,183.2c0-0.6,0.1-1.1,0.3-1.6c0.2,0,0.3,0.1,0.5,0.1c-0.2,0.5-0.3,1.8-0.1,2.2
		c-0.2,0.4-0.2,0.8-0.3,1.2C-131.1,184.5-131.2,183.9-131.2,183.2"/>
	<path class="st2" d="M-111.2,187.6h-2.2v-17h-24.5v17h-2.5v-19.5h29.3V187.6z M-112.9,187.1h1.2v-18.5H-140v18.5h1.5v-17h25.5
		V187.1z"/>
	<polygon class="st2" points="-138.1,187.5 -138.3,187.1 -134.6,184.8 -134.6,173.3 -138.3,170.6 -138,170.2 -134.1,173.1 
		-134.1,185.1 	"/>
	<polygon class="st2" points="-113.3,187.5 -117.2,185.1 -117.2,173 -113.3,170.2 -113,170.6 -116.7,173.3 -116.7,184.8 -113,187.1 
			"/>
	<rect x="-134.4" y="172.9" class="st2" width="17.4" height="0.5"/>
	<rect x="-138.2" y="178.9" class="st2" width="5.6" height="0.5"/>
	<rect x="-118.7" y="178.9" class="st2" width="5.6" height="0.5"/>
	<rect x="-128.9" y="173.2" class="st2" width="0.5" height="2.7"/>
	<rect x="-122.9" y="173.2" class="st2" width="0.5" height="2.7"/>
	<rect x="-134.4" y="184.7" class="st2" width="0.9" height="0.5"/>
	<rect x="-117.9" y="184.7" class="st2" width="0.9" height="0.5"/>
</g>
<g>
	<path class="st16" d="M-197.8,130.2c0-1.6,0.7-3,1.8-4.1c1.2-1.1,2.7-1.7,4.4-1.7c1.6,0,3.2,0.6,4.4,1.7c1.2,1.1,1.8,2.6,1.8,4.1
		c0,1.6-0.7,3-1.8,4.1c-1.2,1.1-2.7,1.7-4.4,1.7c-1.6,0-3.2-0.6-4.4-1.7C-197.2,133.2-197.8,131.7-197.8,130.2 M-197.8,138.9
		c-2,0-4,0.8-5.5,2.1c-1.4,1.4-2.3,3.2-2.3,5.2c0,1.2,0.5,2.3,1.4,3.1c0.9,0.8,2,1.3,3.3,1.3h18.5c1.2,0,2.4-0.5,3.3-1.3
		c0.9-0.8,1.4-1.9,1.4-3.1c0-1.9-0.8-3.8-2.3-5.2c-1.4-1.4-3.4-2.1-5.5-2.1H-197.8z"/>
</g>
<g>
	<defs>
		<rect id="SVGID_15_" x="-61.8" y="3.2" width="21.9" height="23.6"/>
	</defs>
	<clipPath id="SVGID_16_">
		<use xlink:href="#SVGID_15_"  style="overflow:visible;"/>
	</clipPath>
	<g class="st17">
		<defs>
			<rect id="SVGID_17_" x="-61.8" y="3.2" width="21.9" height="23.6"/>
		</defs>
		<clipPath id="SVGID_18_">
			<use xlink:href="#SVGID_17_"  style="overflow:visible;"/>
		</clipPath>
		<g transform="matrix(1 0 0 1 -3.814697e-06 0)" style="clip-path:url(#SVGID_18_);">
			
				<image style="overflow:visible;" width="950" height="1024" xlink:href="E89D5851.png"  transform="matrix(2.301777e-02 0 0 2.301777e-02 -61.7575 3.215)">
			</image>
		</g>
	</g>
</g>
<g>
	<defs>
		<rect id="SVGID_19_" x="-102.6" y="3.6" width="21.1" height="24.3"/>
	</defs>
	<clipPath id="SVGID_20_">
		<use xlink:href="#SVGID_19_"  style="overflow:visible;"/>
	</clipPath>
	<g class="st18">
		<defs>
			<rect id="SVGID_21_" x="-102.6" y="3.6" width="21.1" height="24.2"/>
		</defs>
		<clipPath id="SVGID_22_">
			<use xlink:href="#SVGID_21_"  style="overflow:visible;"/>
		</clipPath>
		<g style="clip-path:url(#SVGID_22_);">
			
				<image style="overflow:visible;" width="1779" height="2048" xlink:href="E89D5853.png"  transform="matrix(1.184026e-02 0 0 1.184026e-02 -102.6496 3.5813)">
			</image>
		</g>
	</g>
</g>
</svg>
