<?xml version="1.0" encoding="utf-8"?>
<!-- Generator: Adobe Illustrator 23.0.5, SVG Export Plug-In . SVG Version: 6.00 Build 0)  -->
<svg version="1.1" id="Layer_1" xmlns="http://www.w3.org/2000/svg" xmlns:xlink="http://www.w3.org/1999/xlink" x="0px" y="0px"
	 width="30px" height="30px" viewBox="0 0 30 30" style="enable-background:new 0 0 30 30;" xml:space="preserve">
<style type="text/css">
	.st0{fill:#141619;}
	.st1{fill:#6FB95D;}
	.st2{fill:#033A4A;}
	.st3{clip-path:url(#SVGID_2_);}
	.st4{fill:#2A4DA1;}
	.st5{fill:#D1A750;}
	.st6{fill:#FFFFFF;}
	.st7{fill:none;}
	.st8{clip-path:url(#SVGID_6_);fill:#6FB95D;}
	.st9{clip-path:url(#SVGID_6_);fill:#033A4A;}
	.st10{fill:#D6D5D5;}
	.st11{clip-path:url(#SVGID_8_);}
	.st12{clip-path:url(#SVGID_12_);fill:#2A4DA1;}
	.st13{clip-path:url(#SVGID_12_);fill:#D1A750;}
	.st14{clip-path:url(#SVGID_12_);fill:#FFFFFF;}
	.st15{fill:#F7F7F7;}
	.st16{fill-rule:evenodd;clip-rule:evenodd;fill:#033A4A;}
	.st17{clip-path:url(#SVGID_16_);}
	.st18{clip-path:url(#SVGID_20_);}
</style>
<g>
	<path class="st0" d="M-45.5-202.9h-10.7c-4.9,0-8.9,4-8.9,8.9v10.7c0,4.9,4,8.9,8.9,8.9h10.7c4.9,0,8.9-4,8.9-8.9V-194
		C-36.4-198.9-40.4-202.9-45.5-202.9 M-39.2-183.3c0,3.5-2.8,6.3-6.3,6.3h-10.7c-3.5,0-6.3-2.8-6.3-6.3V-194c0-3.5,2.8-6.3,6.3-6.3
		h10.7c3.5,0,6.3,2.8,6.3,6.3V-183.3z"/>
	<path class="st0" d="M-50.8-195.8c-4,0-7.1,3.2-7.1,7.1c0,4,3.2,7.1,7.1,7.1c4,0,7.1-3.2,7.1-7.1
		C-43.7-192.5-46.8-195.8-50.8-195.8 M-50.8-184.1c-2.4,0-4.5-2-4.5-4.5c0-2.5,2-4.5,4.5-4.5c2.5,0,4.5,2,4.5,4.5
		C-46.3-186.1-48.3-184.1-50.8-184.1"/>
	<path class="st0" d="M-43-197.3c0.5,0,0.9,0.4,0.9,0.9s-0.4,0.9-0.9,0.9c-0.5,0-0.9-0.4-0.9-0.9C-44.1-196.8-43.7-197.3-43-197.3"
		/>
</g>
<g>
	<path class="st0" d="M-13.4-202.7H-24c-4.9,0-8.8,3.9-8.8,8.8v10.6c0,4.9,3.9,8.8,8.8,8.8h10.6c4.9,0,8.8-3.9,8.8-8.8v-10.6
		C-4.5-198.8-8.5-202.7-13.4-202.7 M-7.2-183.4c0,3.4-2.8,6.2-6.2,6.2H-24c-3.4,0-6.2-2.8-6.2-6.2v-10.6c0-3.4,2.8-6.2,6.2-6.2h10.6
		c3.4,0,6.2,2.8,6.2,6.2V-183.4z"/>
	<path class="st0" d="M-17.3-191.4v-2.1c0-0.6,0.5-1.1,1.1-1.1h1.1v-2.6h-2.1c-1.7,0-3.2,1.4-3.2,3.2v2.7h-2.1v2.7h2.1v8.5h3.2v-8.6
		h2.1l1.1-2.7L-17.3-191.4z"/>
</g>
<g>
	<path class="st1" d="M-48.4,14.7c0-0.4,0.2-0.6,0.6-0.6h6.7v2.4h-6.7c-0.4,0-0.6-0.2-0.6-0.6V14.7z M-48.4,22
		c0-0.4,0.2-0.6,0.6-0.6h6.7v2.4h-6.7c-0.4,0-0.6-0.2-0.6-0.6V22z M-48.4,7.3c0-0.4,0.2-0.6,0.6-0.6h6.7v2.4h-6.7
		c-0.4,0-0.6-0.2-0.6-0.6V7.3z"/>
	<path class="st2" d="M-41.1,6.7h-6.7c-0.4,0-0.6,0.2-0.6,0.6v1.2c0,0.4,0.2,0.6,0.6,0.6h6.7V14h-6.7c-0.4,0-0.6,0.2-0.6,0.6v1.2
		c0,0.4,0.2,0.6,0.6,0.6h6.7v4.9h-6.7c-0.4,0-0.6,0.2-0.6,0.6v1.2c0,0.4,0.2,0.6,0.6,0.6h6.7v2.7c0,0.7-0.2,1.2-0.7,1.7
		c-0.5,0.5-1.1,0.7-1.7,0.7h-14.6c-0.7,0-1.2-0.2-1.7-0.7c-0.5-0.5-0.7-1.1-0.7-1.7v-23c0-0.7,0.2-1.2,0.7-1.7
		c0.5-0.5,1.1-0.7,1.7-0.7h14.6c0.7,0,1.2,0.2,1.7,0.7c0.5,0.5,0.7,1.1,0.7,1.7V6.7z"/>
</g>
<g>
	<path class="st2" d="M-71.3,8.4v16.5c0,0.9-0.3,1.7-1,2.3c-0.7,0.7-1.4,1-2.3,1h-19.9c-0.9,0-1.7-0.3-2.3-1c-0.7-0.7-1-1.4-1-2.3
		V8.4c0-0.9,0.3-1.7,1-2.3s1.4-1,2.3-1h1.3c-0.9,1.5-1.3,3.2-1.3,5c0,2.7,1,5.1,2.9,7c1.9,1.9,4.3,2.9,7,2.9c2.7,0,5.1-1,7-2.9
		c1.9-1.9,2.9-4.3,2.9-7c0-1.8-0.4-3.4-1.3-5h1.3c0.9,0,1.7,0.3,2.3,1C-71.6,6.7-71.3,7.5-71.3,8.4 M-84.5,14.6
		c-0.4,0-0.7-0.1-1-0.3c-0.3-0.2-0.6-0.4-0.8-0.7c-0.2-0.3-0.3-0.7-0.3-1c0-0.6,0.2-1.1,0.6-1.5c0.4-0.4,0.9-0.6,1.5-0.6l1.7-4
		c0.1-0.3,0.4-0.5,0.8-0.5c0.2,0,0.4,0.1,0.6,0.2c0.2,0.2,0.2,0.4,0.2,0.6c0,0.1,0,0.2-0.1,0.3l-1.8,4.1c0.4,0.4,0.6,0.8,0.6,1.4
		c0,0.6-0.2,1.1-0.6,1.5C-83.5,14.4-83.9,14.6-84.5,14.6"/>
	<path class="st1" d="M-78.7,15.9l-1.2,1.2c-0.8,0.8-2.4,1.2-4.6,1.2c-2.3,0-4.2-0.8-5.8-2.4c-1.6-1.6-2.4-3.6-2.4-5.8
		c0-2.3,0.8-4.2,2.4-5.8c1.6-1.6,3.6-2.4,5.8-2.4c2.3,0,4.2,0.8,5.8,2.4c1.6,1.6,2.4,3.6,2.4,5.8C-76.3,12.3-77.1,14.3-78.7,15.9
		 M-84.5,10.5c-0.6,0-1.1,0.2-1.5,0.6c-0.4,0.4-0.6,0.9-0.6,1.5c0,0.6,0.2,1.1,0.6,1.4c0.4,0.4,0.9,0.6,1.5,0.6
		c0.6,0,1.1-0.2,1.5-0.6c0.4-0.4,0.6-0.9,0.6-1.5c0-0.6-0.2-1-0.6-1.4l1.8-4.1c0-0.1,0.1-0.2,0.1-0.3c0-0.1,0-0.3-0.1-0.4
		c-0.1-0.1-0.2-0.2-0.3-0.3c-0.1-0.1-0.3-0.1-0.4-0.1c-0.4,0-0.6,0.2-0.8,0.5L-84.5,10.5z"/>
</g>
<g>
	<defs>
		<rect id="SVGID_1_" x="-64.8" y="-155.2" width="27.9" height="17.1"/>
	</defs>
	<clipPath id="SVGID_2_">
		<use xlink:href="#SVGID_1_"  style="overflow:visible;"/>
	</clipPath>
	<g class="st3">
		<defs>
			<rect id="SVGID_3_" x="-65.4" y="-155.3" width="29.1" height="17.3"/>
		</defs>
		<clipPath id="SVGID_4_">
			<use xlink:href="#SVGID_3_"  style="overflow:visible;"/>
		</clipPath>
		<g style="clip-path:url(#SVGID_4_);">
			
				<image style="overflow:visible;" width="168" height="100" xlink:href="3669A0E1.jpg"  transform="matrix(0.1731 0 0 0.1731 -65.3793 -155.331)">
			</image>
		</g>
	</g>
</g>
<g>
	<rect x="-33.1" y="-155.5" class="st4" width="28.8" height="17.6"/>
	<rect x="-32.2" y="-156.2" class="st4" width="26.8" height="19.1"/>
	<path class="st5" d="M-18.7-143.1c0.1-0.1,0.2-0.3,0.2-0.4c-0.1,0-0.2-0.1-0.3-0.1c0.5,0.1,0.6-0.5,1.1-0.3c0-0.1,0.1-0.1,0.2-0.1
		l0.1,0.2c0.2,0.1,0.1-0.3,0.4-0.2c0.1-0.1,0-0.3,0.1-0.4c0-0.1,0.1-0.2,0.1-0.4c0.1,0.1,0.1,0.2,0.2,0.1c0.1-0.1,0.2-0.2,0.2-0.3
		c0-0.2-0.1-0.4,0.1-0.5v-0.1c0.1-0.1,0.5,0.1,0.5-0.2c0-0.1,0.1,0,0.1-0.1c0.1,0,0.2,0,0.3,0c0.1-0.2-0.1-0.3-0.2-0.5
		c0.1-0.1,0.1-0.3,0-0.4l-0.1,0c0.1,0,0.3,0,0.5-0.1l0.2-0.1c0.1,0.1,0.2,0.1,0.4,0.1c0.1-0.1,0-0.2,0.1-0.3c0.1,0,0.2,0,0.3-0.1
		l0,0c0.1,0.2,0.4,0.1,0.5,0.2c0.2,0,0.2-0.2,0.3-0.3c0-0.3-0.3-0.4-0.2-0.7c-0.1-0.1-0.2-0.3-0.3-0.4c0,0,0-0.1,0-0.1
		c-0.1-0.1,0-0.3-0.2-0.3c0-0.1-0.2-0.1-0.2-0.2c0.1-0.2-0.1-0.3-0.1-0.5c-0.1-0.1-0.3,0.1-0.3-0.1c-0.1,0-0.2,0.1-0.3,0
		c0-0.1,0.1-0.2,0.1-0.3c0.2,0,0.2-0.2,0.3-0.3l0.2-0.2c-0.2-0.1-0.4,0-0.7-0.1c-0.1,0,0,0.1-0.1,0.1c-0.1,0.1-0.2,0.1-0.3,0.1
		c0-0.1-0.2-0.1-0.1-0.2c0,0,0-0.1,0-0.1c-0.2,0-0.1,0.1-0.3,0.1c-0.2-0.1,0-0.3-0.3-0.3c0-0.2-0.4-0.4-0.1-0.6c0,0,0-0.1,0-0.2
		c-0.2-0.1-0.5-0.1-0.7,0c-0.2,0-0.1,0.2-0.1,0.3c-0.1,0.1-0.2,0.2-0.2,0.3c-0.1,0-0.2,0.1-0.3,0.2c-0.3-0.3-0.6-0.5-1-0.5
		c-0.2-0.1-0.3-0.4-0.5-0.3c-0.1-0.2-0.4,0-0.4-0.2c-0.1,0-0.1-0.2-0.1-0.3c0-0.2,0-0.3,0.2-0.5c0.1-0.1-0.1-0.1-0.1-0.3
		c0,0,0-0.1,0-0.1c-0.1,0-0.1-0.1-0.1-0.1c0,0-0.1,0-0.1-0.1c0-0.1-0.2-0.1-0.3-0.2c-0.1,0-0.2,0-0.2,0.1c0-0.1-0.1-0.2-0.2-0.2
		c-0.1,0-0.1,0.1-0.2,0.2c0,0.2-0.1,0.2-0.1,0.4c0.1,0.1,0.3,0.2,0.3,0.4c-0.1,0.2-0.1,0.4-0.2,0.6c-0.1,0.1-0.2,0.2-0.2,0.4
		c0.1,0.1,0,0.3-0.1,0.5c0,0.1-0.1,0.2-0.1,0.4c-0.2,0.1-0.2,0.4-0.5,0.5c-0.2,0-0.2,0.3-0.4,0.2c0,0-0.1,0.1-0.1,0.1
		c-0.1-0.1-0.3,0-0.5,0c-0.1,0.2,0.1,0.5-0.2,0.6v0.1c0,0,0.1,0,0.1,0c0,0.1-0.2,0.2-0.1,0.3c-0.1,0-0.1,0.1-0.1,0.2
		c-0.1,0.3-0.6,0.3-0.7,0.6c0.1,0.1,0.1,0.1,0.1,0.2c-0.1,0.1-0.1,0.2-0.1,0.4c0.1,0,0.1,0.1,0.1,0.2c-0.1,0.1-0.2,0.1-0.3,0.1
		c-0.2,0-0.3,0.2-0.4,0.2c0,0,0,0.1,0,0.1c0.2,0.1,0,0.4,0.2,0.3c0.1,0.1,0.2,0.1,0.3,0.2c0.1,0,0.2,0,0.3,0
		c0.1-0.1,0.2-0.1,0.3-0.2c0.1,0,0.2,0.1,0.3,0c0,0.2,0.1,0.3,0.2,0.4c0,0.1,0.1,0.1,0.2,0.1c0.2,0,0.3,0,0.5,0.1c0.1,0,0.1,0,0.2,0
		c0.1,0,0.2,0,0.3-0.1c0,0.2,0.3,0,0.4,0.3c0.1,0.1-0.2,0.2-0.2,0.3c0,0.1,0.1,0.2,0.1,0.3c0.1,0,0.1,0.1,0.2,0
		c0.2,0.1,0,0.5,0.4,0.4c0,0,0-0.1,0-0.1c0.1,0,0.1,0.1,0.2,0.2c0,0.1,0,0.3,0.1,0.4c0.1,0,0.1,0,0.1,0.1c0,0.1-0.1,0.2-0.1,0.2
		c0,0-0.1,0-0.1,0c0,0.1-0.1,0.2-0.1,0.3c-0.1,0-0.1,0.1-0.1,0.1c0.1,0.1,0,0.3,0.2,0.2c0.1,0.1,0.2,0,0.3,0.1
		c0.2,0.1,0.5,0.1,0.6,0.3c0.1,0,0.1,0.1,0.2,0C-18.9-143.1-18.7-143-18.7-143.1"/>
	<polygon class="st6" points="-17.2,-140.6 -17.5,-139.8 -17.7,-140.6 -18.6,-140.6 -17.9,-141.1 -18.2,-141.9 -17.5,-141.4 
		-16.8,-141.9 -17.1,-141.1 -16.4,-140.6 	"/>
	<polygon class="st6" points="-14.6,-141.1 -14.9,-140.3 -15.1,-141.1 -16,-141.1 -15.3,-141.6 -15.5,-142.4 -14.9,-141.9 
		-14.2,-142.4 -14.4,-141.6 -13.8,-141.1 	"/>
	<polygon class="st6" points="-12.1,-142 -12.4,-141.2 -12.6,-142 -13.4,-142 -12.8,-142.5 -13,-143.3 -12.4,-142.8 -11.7,-143.3 
		-11.9,-142.5 -11.3,-142 	"/>
	<polygon class="st6" points="-19.9,-140.6 -20.2,-139.8 -20.4,-140.6 -21.2,-140.6 -20.6,-141.1 -20.8,-141.9 -20.2,-141.4 
		-19.5,-141.9 -19.7,-141.1 -19.1,-140.6 	"/>
	<polygon class="st6" points="-22.5,-141.1 -22.8,-140.3 -23,-141.1 -23.9,-141.1 -23.2,-141.6 -23.5,-142.4 -22.8,-141.9 
		-22.1,-142.4 -22.4,-141.6 -21.7,-141.1 	"/>
	<polygon class="st6" points="-25,-142 -25.3,-141.2 -25.5,-142 -26.4,-142 -25.7,-142.5 -26,-143.3 -25.3,-142.8 -24.6,-143.3 
		-24.9,-142.5 -24.2,-142 	"/>
	<rect x="-32.2" y="-155.5" class="st7" width="26.8" height="17.6"/>
</g>
<g>
	<path class="st2" d="M3.8-132.6c-0.4,0-0.7-0.1-1-0.4c-0.3-0.3-0.4-0.6-0.4-1v-5.6c0-0.8,0.3-1.4,0.8-2c0.5-0.5,1.2-0.8,2-0.8h19.6
		c0.8,0,1.4,0.3,2,0.8c0.5,0.5,0.8,1.2,0.8,2v5.6c0,0.4-0.1,0.7-0.4,1c-0.3,0.3-0.6,0.4-1,0.4H3.8z M5.2-145.2v-4.2
		c0-0.8,0.3-1.4,0.8-2c0.6-0.5,1.2-0.8,2-0.8h5.6v-2c-0.4-0.3-0.8-0.6-1-1c-0.3-0.4-0.4-0.9-0.4-1.4c0-0.3,0.1-0.7,0.2-1
		c0.1-0.3,0.3-0.6,0.6-0.9l2-2l2,2c0.3,0.3,0.5,0.6,0.6,0.9c0.1,0.3,0.2,0.7,0.2,1c0,0.6-0.1,1-0.4,1.4c-0.3,0.4-0.6,0.7-1,1v2H22
		c0.8,0,1.4,0.3,2,0.8c0.6,0.5,0.8,1.2,0.8,2v4.2H5.2z"/>
	<path class="st1" d="M5.2-145.2v-4.2c0-0.8,0.3-1.4,0.8-2c0.6-0.5,1.2-0.8,2-0.8h5.6v-2c-0.4-0.3-0.8-0.6-1-1
		c-0.3-0.4-0.4-0.9-0.4-1.4c0-0.3,0.1-0.7,0.2-1c0.1-0.3,0.3-0.6,0.6-0.9l2-2l2,2c0.3,0.3,0.5,0.6,0.6,0.9c0.1,0.3,0.2,0.7,0.2,1
		c0,0.6-0.1,1-0.4,1.4c-0.3,0.4-0.6,0.7-1,1v2H22c0.8,0,1.4,0.3,2,0.8c0.6,0.5,0.8,1.2,0.8,2v4.2H5.2z"/>
</g>
<g>
	<g>
		<defs>
			<rect id="SVGID_5_" x="-64.9" y="-79.4" width="28.1" height="25"/>
		</defs>
		<clipPath id="SVGID_6_">
			<use xlink:href="#SVGID_5_"  style="overflow:visible;"/>
		</clipPath>
		<path class="st8" d="M-46.1-73.4v0.3h-5.5c-0.2,0-0.4-0.1-0.6-0.2c-0.1-0.1-0.2-0.3-0.2-0.6v-5.5h0.3c0.3,0,0.6,0.1,0.8,0.3
			l4.8,4.8C-46.3-74-46.1-73.7-46.1-73.4 M-50.8-62.4l7.9-7.9l3.3,3.3l-7.9,8h-3.4V-62.4z M-37.1-71.2c0.2,0.3,0.3,0.6,0.3,0.9
			c0,0.3-0.1,0.6-0.3,0.9l-1.4,1.4l-3.3-3.3l1.4-1.4c0.2-0.2,0.5-0.3,0.9-0.3c0.3,0,0.6,0.1,0.9,0.3L-37.1-71.2z"/>
		<path class="st9" d="M-61.5-60.4c0,0,0,0-0.1,0.1c-0.1,0.1-0.1,0.2-0.1,0.5c0,0.2,0.1,0.4,0.2,0.6c0.1,0.1,0.3,0.2,0.6,0.2h0.6
			c0.5,0,0.9-0.1,1.3-0.4c0.4-0.3,0.6-0.6,0.7-1.1l0.5-1.5l0.8,2.4c0.1,0.3,0.3,0.5,0.7,0.5c0.4,0,0.6-0.1,0.7-0.4l0.4-0.7
			c0.1-0.2,0.3-0.3,0.5-0.3c0.2,0,0.4,0.1,0.5,0.3c0.4,0.8,1,1.2,1.9,1.2h4.9l1.3-1.3v4.8c0,0.2,0,0.3-0.1,0.5
			c-0.1,0.1-0.1,0.3-0.2,0.4c-0.1,0.1-0.2,0.2-0.4,0.2c-0.1,0.1-0.3,0.1-0.5,0.1h-16.4c-0.3,0-0.6-0.1-0.8-0.3
			c-0.2-0.2-0.3-0.5-0.3-0.8v-22.6c0-0.3,0.1-0.6,0.3-0.8c0.2-0.2,0.5-0.3,0.8-0.3h11.3v5.5c0,0.2,0.1,0.4,0.2,0.6
			c0.1,0.1,0.3,0.2,0.6,0.2h5.5v6l-4.7,4.6v1.8h-1.6c-0.2,0-0.4-0.1-0.4-0.3c-0.3-0.6-0.8-1-1.5-1.1c-0.7-0.1-1.3,0-1.7,0.4l-0.7-2
			c-0.2-0.6-0.6-0.8-1.1-0.8s-0.9,0.3-1.1,0.8l-0.9,2.6c-0.1,0.3-0.3,0.4-0.5,0.4H-61C-61.2-60.6-61.4-60.6-61.5-60.4"/>
	</g>
</g>
<g>
	<path class="st1" d="M-84.5-34.4c1.2,0,2.2-0.2,3.2-0.6c1-0.4,1.7-0.9,2.2-1.6l1.4,0.7c-0.2,0.2-0.4,0.4-0.6,0.6
		c-1.7,1.5-3.8,2.3-6.2,2.3s-4.5-0.8-6.2-2.3c-0.2-0.2-0.4-0.4-0.6-0.6l1.5-0.7c0.3,0.4,0.7,0.8,1.2,1.1c0.5,0.3,1.1,0.6,1.9,0.8
		C-86-34.5-85.3-34.4-84.5-34.4"/>
	<polygon class="st1" points="-98,-32.6 -96.7,-33.2 -93.4,-26.7 -94.7,-26 	"/>
	<polygon class="st1" points="-72.4,-33.2 -71.1,-32.6 -74.4,-26 -75.6,-26.7 	"/>
	<path class="st2" d="M-98.8-32.2l0.8-0.4l3.3,6.5l-0.8,0.4c-0.1,0-0.2,0-0.3,0c-0.3,0-0.5-0.1-0.6-0.4l-2.6-5.2
		c-0.1-0.1-0.1-0.2-0.1-0.3C-99.2-31.8-99-32.1-98.8-32.2 M-77.8-35.9l5.4,2.7l-3.2,6.5l-0.5-0.2c-0.1-0.1-0.2-0.1-0.3-0.1
		c-0.2,0-0.4,0.1-0.5,0.2c-0.1,0.2-0.2,0.3-0.2,0.5v11.6c0,0.4-0.1,0.7-0.4,1c-0.3,0.3-0.6,0.4-1,0.4h-11.7c-0.4,0-0.7-0.1-1-0.4
		c-0.3-0.3-0.4-0.6-0.4-1v-11.6c0-0.2-0.1-0.3-0.2-0.5c-0.1-0.2-0.3-0.2-0.5-0.2c-0.1,0-0.2,0-0.3,0.1l-0.5,0.2l-3.2-6.5l5.4-2.7
		c0.2,0.2,0.4,0.4,0.6,0.6c1.7,1.5,3.8,2.3,6.2,2.3s4.5-0.8,6.2-2.3C-78.1-35.5-77.9-35.7-77.8-35.9 M-70.3-32.2
		c0.3,0.1,0.4,0.3,0.4,0.6c0,0.1,0,0.2-0.1,0.3l-2.6,5.2c-0.1,0.3-0.3,0.4-0.6,0.4c-0.1,0-0.2,0-0.3,0h0l-0.8-0.4l3.3-6.5
		L-70.3-32.2z"/>
</g>
<g>
	<path class="st2" d="M-11.4,2c-0.2,0-0.4,0.1-0.6,0.2c-0.2,0.2-0.2,0.4-0.2,0.6v0.8h-13V2.8c0-0.2-0.1-0.4-0.2-0.6
		C-25.6,2.1-25.8,2-26,2c-0.2,0-0.4,0.1-0.6,0.2c-0.2,0.2-0.2,0.4-0.2,0.6v0.8h-1.6c-0.9,0-1.7,0.3-2.3,1c-0.6,0.6-1,1.4-1,2.3v17.9
		c0,0.9,0.3,1.7,1,2.3c0.6,0.6,1.4,1,2.3,1H-9c0.9,0,1.7-0.3,2.3-1c0.6-0.6,1-1.4,1-2.3V6.9c0-0.9-0.3-1.7-1-2.3
		c-0.6-0.6-1.4-1-2.3-1h-1.6V2.8c0-0.2-0.1-0.4-0.2-0.6C-11,2.1-11.2,2-11.4,2 M-7.3,8.5v16.2c0,0.4-0.2,0.8-0.5,1.1
		c-0.3,0.3-0.7,0.5-1.1,0.5h-19.5c-0.4,0-0.8-0.2-1.1-0.5c-0.3-0.3-0.5-0.7-0.5-1.1V8.5H-7.3z"/>
	<rect x="-26.3" y="11.8" class="st1" width="3.2" height="3.2"/>
	<rect x="-19.8" y="11.8" class="st1" width="3.3" height="3.2"/>
	<rect x="-13.3" y="11.8" class="st1" width="3.2" height="3.2"/>
	<rect x="-26.3" y="19.3" class="st1" width="3.2" height="3.3"/>
	<rect x="-19.8" y="19.3" class="st1" width="3.3" height="3.3"/>
	<rect x="-13.3" y="19.3" class="st1" width="3.2" height="3.3"/>
</g>
<g>
	<path class="st10" d="M9,27.1l-0.5,0.5c-0.3,0.3-0.9,0.5-1.8,0.5c-0.9,0-1.7-0.3-2.3-1c-0.7-0.7-1-1.4-1-2.3v-1.7H10v1.7
		C10,25.7,9.7,26.4,9,27.1 M2,9.2c0.6-2.7,1.5-4.6,2.6-5.9C5.8,2.1,7,1.5,8.3,1.5c1.1,0,2,0.4,2.8,1.3c0.8,0.9,1.3,2,1.7,3.3
		c0.4,1.4,0.5,2.8,0.5,4.5c0,1.9-0.6,3.7-1.7,5.4c-0.4,0.7-0.7,1.1-0.9,1.4c-0.2,0.3-0.3,0.8-0.5,1.5c-0.2,0.7-0.3,1.6-0.3,2.6H3.3
		l-0.8-3c-0.5-1.6-0.7-2.9-0.8-4.2C1.6,12.5,1.7,10.8,2,9.2"/>
	<path class="st2" d="M25.7,27.5L25.2,28c-0.3,0.3-0.9,0.5-1.8,0.5c-0.9,0-1.7-0.3-2.3-1c-0.7-0.7-1-1.4-1-2.3v-1.7h6.7v1.7
		C26.7,26.1,26.3,26.9,25.7,27.5 M16.7,11c0-2.5,0.4-4.7,1.3-6.4c0.9-1.8,2.1-2.7,3.7-2.7c1.3,0,2.5,0.6,3.7,1.9
		C26.5,5,27.4,7,28,9.7c0.3,1.6,0.5,3.2,0.3,5c-0.1,1.2-0.3,2.6-0.8,4.2l-0.8,3H20c0-1-0.1-1.8-0.3-2.6c-0.2-0.7-0.4-1.2-0.5-1.5
		c-0.2-0.3-0.4-0.7-0.9-1.4C17.2,14.8,16.7,12.9,16.7,11"/>
</g>
<g>
	<defs>
		<rect id="SVGID_7_" x="-98.3" y="-115.2" width="27.5" height="16.8"/>
	</defs>
	<clipPath id="SVGID_8_">
		<use xlink:href="#SVGID_7_"  style="overflow:visible;"/>
	</clipPath>
	<g class="st11">
		<defs>
			<rect id="SVGID_9_" x="-98.9" y="-115.3" width="28.7" height="17.1"/>
		</defs>
		<clipPath id="SVGID_10_">
			<use xlink:href="#SVGID_9_"  style="overflow:visible;"/>
		</clipPath>
		<g transform="matrix(1 0 0 1 0 7.629395e-06)" style="clip-path:url(#SVGID_10_);">
			
				<image style="overflow:visible;" width="168" height="100" xlink:href="3669A0E3.jpg"  transform="matrix(0.1706 0 0 0.1706 -98.8734 -115.3232)">
			</image>
		</g>
	</g>
</g>
<g>
	<rect x="-98.9" y="-155" class="st4" width="28.8" height="17.6"/>
	<g>
		<defs>
			<rect id="SVGID_11_" x="-98" y="-155" width="26.8" height="17.6"/>
		</defs>
		<clipPath id="SVGID_12_">
			<use xlink:href="#SVGID_11_"  style="overflow:visible;"/>
		</clipPath>
		<rect x="-98" y="-155.7" class="st12" width="26.8" height="19.1"/>
		<path class="st13" d="M-84.5-142.6c0.1-0.1,0.2-0.3,0.2-0.4c-0.1,0-0.2-0.1-0.3-0.1c0.5,0.1,0.6-0.5,1.1-0.3
			c0-0.1,0.1-0.1,0.2-0.1l0.1,0.2c0.2,0.1,0.1-0.3,0.4-0.2c0.1-0.1,0-0.3,0.1-0.4c0-0.1,0.1-0.2,0.1-0.4c0.1,0.1,0.1,0.2,0.2,0.1
			c0.1-0.1,0.2-0.2,0.2-0.3c0-0.2-0.1-0.4,0.1-0.5v-0.1c0.1-0.1,0.5,0.1,0.5-0.2c0-0.1,0.1,0,0.1-0.1c0.1,0,0.2,0,0.3,0
			c0.1-0.2-0.1-0.3-0.2-0.5c0.1-0.1,0.1-0.3,0-0.4l-0.1,0c0.1,0,0.3,0,0.5-0.1l0.2-0.1c0.1,0.1,0.2,0.1,0.4,0.1
			c0.1-0.1,0-0.2,0.1-0.3c0.1,0,0.2,0,0.3-0.1l0,0c0.1,0.2,0.4,0.1,0.5,0.2c0.2,0,0.2-0.2,0.3-0.3c0-0.3-0.3-0.4-0.2-0.7
			c-0.1-0.1-0.2-0.3-0.3-0.4c0,0,0-0.1,0-0.1c-0.1-0.1,0-0.3-0.2-0.3c0-0.1-0.2-0.1-0.2-0.2c0.2-0.2-0.1-0.3-0.1-0.5
			c-0.1-0.1-0.3,0.1-0.3-0.1c-0.1,0-0.2,0.1-0.3,0c0-0.1,0.1-0.2,0.1-0.3c0.2,0,0.2-0.2,0.3-0.3l0.2-0.2c-0.2-0.1-0.4,0-0.7-0.1
			c-0.1,0,0,0.1-0.1,0.1c-0.1,0.1-0.2,0.1-0.3,0.1c0-0.1-0.1-0.1-0.1-0.2c0,0,0-0.1,0-0.1c-0.2,0-0.1,0.1-0.3,0.1
			c-0.2-0.1,0-0.3-0.3-0.3c0-0.2-0.4-0.4-0.1-0.6c0,0,0-0.1,0-0.2c-0.2-0.1-0.5-0.1-0.7,0c-0.2,0-0.1,0.2-0.1,0.3
			c-0.1,0.1-0.2,0.2-0.2,0.3c-0.1,0-0.2,0.1-0.3,0.2c-0.3-0.3-0.6-0.5-1-0.5c-0.2-0.1-0.3-0.4-0.5-0.3c-0.1-0.2-0.4,0-0.4-0.2
			c-0.1,0-0.1-0.2-0.1-0.3c0-0.2,0-0.3,0.2-0.5c0.1-0.1-0.1-0.1-0.1-0.3c0,0,0-0.1,0-0.1c-0.1,0-0.1-0.1-0.1-0.1c0,0-0.1,0-0.1-0.1
			c0-0.1-0.2-0.1-0.3-0.2c-0.1,0-0.2,0-0.2,0.1c0-0.1-0.1-0.2-0.2-0.2c-0.2,0-0.1,0.1-0.2,0.2c0,0.2-0.1,0.2-0.1,0.4
			c0.1,0.1,0.3,0.2,0.3,0.4c-0.1,0.2-0.1,0.4-0.2,0.6c-0.1,0.1-0.2,0.2-0.2,0.4c0.1,0.1,0,0.3-0.1,0.5c0,0.1-0.1,0.2-0.1,0.4
			c-0.2,0.1-0.2,0.4-0.5,0.5c-0.2,0-0.2,0.3-0.4,0.2c0,0-0.1,0.1-0.1,0.1c-0.1-0.1-0.3,0-0.5,0c-0.1,0.2,0.1,0.5-0.2,0.6v0.1
			c0,0,0.1,0,0.1,0c0,0.1-0.2,0.2-0.1,0.3c-0.1,0-0.1,0.1-0.1,0.2c-0.1,0.3-0.6,0.3-0.7,0.6c0.1,0.1,0.1,0.1,0.1,0.2
			c-0.1,0.1-0.1,0.2-0.1,0.4c0.1,0,0.1,0.1,0.1,0.2c-0.1,0.1-0.2,0.1-0.3,0.1c-0.2,0-0.3,0.2-0.4,0.2c0,0,0,0.1,0,0.1
			c0.2,0.1,0,0.4,0.2,0.3c0.1,0.1,0.2,0.1,0.3,0.2c0.1,0,0.2,0,0.3,0c0.1-0.1,0.2-0.1,0.3-0.2c0.1,0,0.2,0.1,0.3,0
			c0,0.2,0.1,0.3,0.2,0.4c0,0.1,0.1,0.1,0.2,0.1c0.2,0,0.3,0,0.5,0.1c0.1,0,0.1,0,0.2,0c0.1,0,0.2,0,0.3-0.1c0,0.2,0.3,0,0.4,0.3
			c0.1,0.1-0.2,0.2-0.2,0.3c0,0.1,0.1,0.2,0.1,0.3c0.1,0,0.1,0.1,0.2,0c0.2,0.1,0,0.5,0.4,0.4c0,0,0-0.1,0-0.1
			c0.1,0,0.1,0.1,0.2,0.2c0,0.1,0,0.3,0.1,0.4c0.1,0,0.1,0,0.1,0.1c0,0.1-0.1,0.2-0.1,0.2c0,0-0.1,0-0.1,0c0,0.1-0.1,0.2-0.1,0.3
			c-0.1,0-0.1,0.1-0.1,0.1c0.1,0.1,0,0.3,0.2,0.2c0.1,0.1,0.2,0,0.3,0.1c0.2,0.1,0.5,0.1,0.6,0.3c0.1,0,0.1,0.1,0.2,0
			C-84.7-142.6-84.5-142.5-84.5-142.6"/>
		<polygon class="st14" points="-83.1,-140.1 -83.3,-139.3 -83.6,-140.1 -84.4,-140.1 -83.7,-140.6 -84,-141.4 -83.3,-140.9 
			-82.6,-141.4 -82.9,-140.6 -82.2,-140.1 		"/>
		<polygon class="st14" points="-80.4,-140.5 -80.7,-139.8 -80.9,-140.5 -81.8,-140.5 -81.1,-141 -81.4,-141.8 -80.7,-141.3 
			-80,-141.8 -80.3,-141 -79.6,-140.5 		"/>
		<polygon class="st14" points="-77.9,-141.5 -78.2,-140.7 -78.4,-141.5 -79.3,-141.5 -78.6,-141.9 -78.9,-142.7 -78.2,-142.2 
			-77.5,-142.7 -77.8,-141.9 -77.1,-141.5 		"/>
		<polygon class="st14" points="-85.7,-140.1 -86,-139.3 -86.2,-140.1 -87.1,-140.1 -86.4,-140.6 -86.7,-141.4 -86,-140.9 
			-85.3,-141.4 -85.6,-140.6 -84.9,-140.1 		"/>
		<polygon class="st14" points="-88.3,-140.5 -88.6,-139.8 -88.9,-140.5 -89.7,-140.5 -89,-141 -89.3,-141.8 -88.6,-141.3 
			-87.9,-141.8 -88.2,-141 -87.5,-140.5 		"/>
		<polygon class="st14" points="-90.9,-141.5 -91.1,-140.7 -91.4,-141.5 -92.2,-141.5 -91.5,-141.9 -91.8,-142.7 -91.1,-142.2 
			-90.4,-142.7 -90.7,-141.9 -90,-141.5 		"/>
	</g>
</g>
<g>
	<path class="st15" d="M-69.7-188.6c0,8.2-6.6,14.8-14.8,14.8s-14.8-6.6-14.8-14.8c0-8.2,6.6-14.8,14.8-14.8S-69.7-196.8-69.7-188.6
		"/>
	<g>
		<defs>
			<rect id="SVGID_13_" x="-94.8" y="-200.5" width="20.5" height="23.6"/>
		</defs>
		<clipPath id="SVGID_14_">
			<use xlink:href="#SVGID_13_"  style="overflow:visible;"/>
		</clipPath>
		<g style="clip-path:url(#SVGID_14_);">
			
				<image style="overflow:visible;" width="1779" height="2048" xlink:href="3669A0E1.png"  transform="matrix(1.153737e-02 0 0 1.153737e-02 -94.7919 -200.4614)">
			</image>
		</g>
	</g>
</g>
<path class="st2" d="M103.5-188.8C103.5-188.8,103.4-188.8,103.5-188.8c0-0.3,0-0.4,0-0.6c0-7.4-6-13.5-13.5-13.5
	c-7.4,0-13.5,6-13.5,13.5c0,7.4,6,13.5,13.5,13.5c7.1,0,12.8-5.4,13.4-12.4C103.5-188.4,103.5-188.6,103.5-188.8 M100.3-184
	C100.3-184,100.3-184,100.3-184h-2c-0.9,0-1.6,0-2.2,0.1c-0.3,0-0.6,0.1-0.9,0.2l-1.9-2.2c0-0.1,0.1-0.2,0.1-0.3l0.9-2.9l-0.5-0.2
	l0.5,0.2c0-0.1,0-0.3,0.1-0.4l3.3-1.4c0.2,0.2,0.4,0.4,0.6,0.6c0.5,0.4,1,0.8,1.8,1.2l1.4,0.9C101.4-186.7,100.9-185.3,100.3-184
	 M85-183.8c-0.3-0.1-0.6-0.1-0.8-0.2c-0.6-0.1-1.3-0.1-2.2-0.1h-2l0,0.5h0v-0.5c-0.1,0-0.2,0-0.2,0c-0.7-1.3-1.1-2.6-1.3-4.1l1.5-1
	c0.7-0.5,1.3-0.9,1.8-1.2c0.2-0.2,0.4-0.4,0.6-0.6l3.2,1.4c0,0.1,0,0.3,0.1,0.4l0.5-0.2l-0.5,0.2l0.9,2.9c0,0.1,0.1,0.2,0.1,0.3
	L85-183.8z M89.4-192.4l-0.7-0.9l-2.3,1.8v0c-0.1,0.1-0.1,0.1-0.2,0.2l-3.2-1.3c0-0.3,0-0.6-0.1-0.9c-0.1-0.6-0.3-1.3-0.5-2.1
	l-0.5-2c0,0,0-0.1,0-0.1c0.9-0.8,1.9-1.6,3-2.1l1.7,1.2c0.7,0.5,1.3,0.9,1.8,1.2c0.2,0.1,0.5,0.3,0.8,0.3v3.4
	c-0.1,0.1-0.3,0.1-0.4,0.2 M98.1-197.6l-0.5,2c-0.2,0.8-0.4,1.5-0.5,2.1c0,0.3-0.1,0.6,0,0.9l-3.2,1.3c-0.1-0.1-0.1-0.2-0.2-0.2
	l-2.3-1.8c-0.1-0.1-0.3-0.1-0.4-0.2v-3.4c0.3-0.1,0.5-0.2,0.8-0.3c0.5-0.3,1.1-0.7,1.8-1.2v0l0,0l1.7-1.2c0,0,0.1-0.1,0.1-0.1
	C96.3-199.1,97.3-198.4,98.1-197.6C98.1-197.6,98.1-197.6,98.1-197.6 M87-189.6L87-189.6l-0.9,0.3L87-189.6z M93-189.6l0.8,0.3
	L93-189.6z M88.3-177.9l-0.7-2.1c-0.3-0.8-0.5-1.5-0.7-2c-0.1-0.2-0.2-0.5-0.4-0.7l1.6-2.1c0.2,0,0.3,0.1,0.5,0.1h2.8v-0.9v0v0.9
	c0.2,0,0.3,0,0.5-0.1l1.8,2.1c-0.1,0.2-0.3,0.4-0.4,0.7c-0.2,0.5-0.5,1.2-0.7,2l-0.7,2c-0.6,0.1-1.3,0.2-1.9,0.2
	C89.4-177.8,88.9-177.8,88.3-177.9"/>
<g>
	<path class="st2" d="M129.5-202.5c-0.2,0-0.4,0.1-0.6,0.2c-0.2,0.2-0.2,0.4-0.2,0.6v0.8h-13.1v-0.8c0-0.2-0.1-0.4-0.2-0.6
		c-0.2-0.2-0.4-0.2-0.6-0.2s-0.4,0.1-0.6,0.2c-0.2,0.2-0.2,0.4-0.2,0.6v0.8h-1.6c-0.9,0-1.7,0.3-2.3,1c-0.6,0.6-1,1.5-1,2.3v18.1
		c0,0.9,0.3,1.7,1,2.3c0.6,0.6,1.5,1,2.3,1H132c0.9,0,1.7-0.3,2.3-1c0.6-0.6,1-1.5,1-2.3v-18.1c0-0.9-0.3-1.7-1-2.3
		c-0.6-0.6-1.5-1-2.3-1h-1.6v-0.8c0-0.2-0.1-0.4-0.2-0.6C129.9-202.4,129.7-202.5,129.5-202.5 M133.6-195.9v16.4
		c0,0.4-0.2,0.9-0.5,1.2c-0.3,0.3-0.7,0.5-1.2,0.5h-19.7c-0.4,0-0.9-0.2-1.2-0.5c-0.3-0.3-0.5-0.7-0.5-1.2v-16.4H133.6z"/>
	<rect x="114.4" y="-192.6" class="st1" width="3.3" height="3.3"/>
	<rect x="121" y="-192.6" class="st1" width="3.3" height="3.3"/>
	<rect x="127.6" y="-192.6" class="st1" width="3.3" height="3.3"/>
	<rect x="114.4" y="-185" class="st1" width="3.3" height="3.3"/>
	<rect x="121" y="-185" class="st1" width="3.3" height="3.3"/>
	<rect x="127.6" y="-185" class="st1" width="3.3" height="3.3"/>
</g>
<g>
	<path class="st2" d="M-45.6-118.1c0,0.7-0.3,1.5-0.8,2c-0.5,0.5-1.2,0.8-2,0.8c-0.7,0-1.5-0.3-2-0.8c-0.5-0.5-0.8-1.2-0.8-2
		c0-0.7,0.3-1.5,0.8-2c0.5-0.5,1.2-0.8,2-0.8c0.7,0,1.5,0.3,2,0.8C-45.9-119.5-45.6-118.8-45.6-118.1 M-42.2-109.5l-3.6-3.6
		c-0.1-0.1-0.2-0.2-0.3-0.2c-0.1-0.1-0.2-0.1-0.4-0.1h-13.2c-0.2,0-0.5,0.1-0.7,0.3c-0.2,0.2-0.3,0.4-0.3,0.7c0,0.2,0.1,0.5,0.3,0.7
		c0.2,0.2,0.4,0.3,0.7,0.3h5l-6,11.8c0,0.1,0,0.3,0,0.4c0,0.2,0,0.5,0.1,0.7c0.1,0.2,0.4,0.4,0.6,0.4c0.2,0.1,0.5,0,0.7-0.1
		s0.4-0.3,0.4-0.6l1.9-3.2h3.7l-3.6,7.9c-0.1,0.1-0.1,0.3-0.1,0.5c0,0.2,0,0.5,0.2,0.7c0.1,0.2,0.4,0.3,0.6,0.4c0.2,0,0.5,0,0.7-0.1
		c0.2-0.1,0.4-0.3,0.4-0.6l8.8-17.5l2.7,2.8c0.2,0.2,0.4,0.2,0.6,0.2c0.2,0,0.5-0.1,0.6-0.3c0.2-0.2,0.3-0.4,0.3-0.6
		C-42-109.1-42-109.3-42.2-109.5"/>
	<path class="st2" d="M-44.6-101.5c2,0,3.6,1.6,3.6,3.6c0,2-1.6,3.6-3.6,3.6c-2,0-3.6-1.6-3.6-3.6C-48.2-99.9-46.6-101.5-44.6-101.5
		"/>
</g>
<g>
	<path class="st2" d="M-18.7-28.5c-4.2,0-7.5,3.3-7.5,7.4c0,4.1,3.4,7.4,7.5,7.4s7.5-3.3,7.5-7.4C-11.2-25.2-14.6-28.5-18.7-28.5
		 M-13.3-21.1c0,0.7-0.1,1.4-0.4,2c0,0,0,0,0,0c-0.1,0.1-0.2,0.1-0.2,0.2c-0.1-0.4-0.4-0.9-0.8-1.4c0.1-0.4,0.1-1.8,0-2.2
		c0.3-0.3,0.6-0.7,0.8-0.9c0.1,0,0.1,0.1,0.2,0.1C-13.5-22.7-13.3-21.9-13.3-21.1 M-23.4-20.3c0.3,0.2,1.1,0.5,1.6,0.6
		c0.1,0.2,0.2,0.6,0.5,1.1c0.2,0.4,0.5,0.7,0.7,0.9c-0.3,0.5-0.4,0.8-0.3,1.1c-0.3,0-0.5-0.1-0.8-0.2c-0.8-0.5-1.5-1.3-1.9-2.2
		C-23.6-19.3-23.6-19.8-23.4-20.3 M-20.7-26.1c0.1,0.2,0.2,0.5,0.3,0.7c-0.2,0.2-1,1.1-1.3,1.9c-0.4,0.1-1.2,0.2-1.6,0.7
		c-0.2,0-0.3-0.1-0.5-0.1C-23.3-24.3-22.1-25.5-20.7-26.1 M-14.1-23.6c-0.1,0.2-0.5,0.7-0.8,1c-0.4-0.3-1.5-0.8-1.8-0.9
		c-0.1-0.3-0.3-0.8-0.5-1.2c-0.2-0.3-0.4-0.6-0.6-0.7c0.2-0.2,0.5-0.5,0.8-0.7c1.2,0.4,2.2,1.2,2.8,2.2
		C-14.1-23.8-14.1-23.7-14.1-23.6 M-15.3-17c-0.3,0.2-1.1,0.6-2,0.5c-0.2-0.2-0.5-0.7-0.7-1c0,0,0-0.1-0.1-0.1
		c0.6-0.6,1-1.7,1.2-2.1c0.7,0,1.4-0.2,2-0.5c0.2,0.2,0.3,0.4,0.5,0.6c0.2,0.3,0.3,0.5,0.3,0.7c-0.2,0.4-0.5,1.1-0.9,1.6
		C-15.1-17.2-15.2-17.1-15.3-17 M-17.3-24.6c0.2,0.4,0.4,0.8,0.5,1.1c-0.1,0.1-0.2,0.3-0.3,0.4c-0.3,0.4-0.7,0.9-1,1.3
		c-0.4-0.1-1.6-0.3-2.4,0c-0.2-0.3-0.3-0.5-0.5-0.8c-0.1-0.2-0.2-0.3-0.3-0.5c-0.1-0.1-0.1-0.2-0.2-0.3c0.1-0.5,0.5-1,0.7-1.3
		c0.2-0.2,0.3-0.4,0.4-0.5c0.1-0.1,0.1-0.1,0.1-0.1c0.8-0.1,1.6-0.1,2.4,0C-17.7-25.2-17.5-24.9-17.3-24.6 M-20.6-21.6
		c0.5-0.1,1.1-0.1,1.6-0.1c0.2,0,0.4,0,0.7,0.1c0.1,0,0.2,0,0.2,0c0.1,0.2,0.2,0.4,0.4,0.6c0.2,0.3,0.4,0.6,0.7,1
		c0.1,0.1,0.1,0.2,0.1,0.3c0,0,0,0.1,0,0.1c-0.1,0.4-0.5,1.4-1.1,1.9c-0.9,0.1-1.7,0.1-2.3,0c-0.3-0.2-0.5-0.6-0.7-0.9
		c-0.2-0.3-0.3-0.6-0.4-0.8c0-0.1-0.1-0.2-0.1-0.3c0,0,0,0,0,0C-21.4-20.4-21-21.1-20.6-21.6 M-21.2-16.5c0.1,0,0.3,0.1,0.4,0.1
		c0.1,0.1,0.2,0.2,0.4,0.3C-20.7-16.2-21-16.4-21.2-16.5 M-24.1-21.1c0-0.6,0.1-1.1,0.3-1.6c0.2,0,0.3,0.1,0.5,0.1
		c-0.2,0.5-0.3,1.8-0.1,2.2c-0.2,0.4-0.2,0.8-0.3,1.2C-24-19.8-24.1-20.5-24.1-21.1"/>
	<path class="st2" d="M-4.1-16.8h-2.2v-17h-24.5v17h-2.5v-19.5h29.3V-16.8z M-5.8-17.3h1.2v-18.5h-28.3v18.5h1.5v-17h25.5V-17.3z"/>
	<polygon class="st2" points="-30.9,-16.8 -31.2,-17.2 -27.5,-19.6 -27.5,-31.1 -31.2,-33.8 -30.9,-34.2 -27,-31.3 -27,-19.3 	"/>
	<polygon class="st2" points="-6.2,-16.8 -10.1,-19.3 -10.1,-31.3 -6.2,-34.2 -5.9,-33.8 -9.6,-31 -9.6,-19.6 -5.9,-17.2 	"/>
	<rect x="-27.3" y="-31.4" class="st2" width="17.4" height="0.5"/>
	<rect x="-31.1" y="-25.5" class="st2" width="5.6" height="0.5"/>
	<rect x="-11.6" y="-25.5" class="st2" width="5.6" height="0.5"/>
	<rect x="-21.8" y="-31.2" class="st2" width="0.5" height="2.7"/>
	<rect x="-15.8" y="-31.2" class="st2" width="0.5" height="2.7"/>
	<rect x="-27.3" y="-19.7" class="st2" width="0.9" height="0.5"/>
	<rect x="-10.8" y="-19.7" class="st2" width="0.9" height="0.5"/>
</g>
<g>
	<path class="st16" d="M-90.7-74.2c0-1.6,0.7-3,1.8-4.1c1.2-1.1,2.7-1.7,4.4-1.7c1.6,0,3.2,0.6,4.4,1.7c1.2,1.1,1.8,2.6,1.8,4.1
		c0,1.6-0.7,3-1.8,4.1c-1.2,1.1-2.7,1.7-4.4,1.7c-1.6,0-3.2-0.6-4.4-1.7C-90.1-71.1-90.7-72.6-90.7-74.2 M-90.7-65.4
		c-2,0-4,0.8-5.5,2.1c-1.4,1.4-2.3,3.2-2.3,5.2c0,1.2,0.5,2.3,1.4,3.1c0.9,0.8,2,1.3,3.3,1.3h18.5c1.2,0,2.4-0.5,3.3-1.3
		c0.9-0.8,1.4-1.9,1.4-3.1c0-1.9-0.8-3.8-2.3-5.2c-1.4-1.4-3.4-2.1-5.5-2.1H-90.7z"/>
</g>
<g>
	<defs>
		<rect id="SVGID_15_" x="45.4" y="-201.1" width="21.9" height="23.6"/>
	</defs>
	<clipPath id="SVGID_16_">
		<use xlink:href="#SVGID_15_"  style="overflow:visible;"/>
	</clipPath>
	<g class="st17">
		<defs>
			<rect id="SVGID_17_" x="45.4" y="-201.1" width="21.9" height="23.6"/>
		</defs>
		<clipPath id="SVGID_18_">
			<use xlink:href="#SVGID_17_"  style="overflow:visible;"/>
		</clipPath>
		<g style="clip-path:url(#SVGID_18_);">
			
				<image style="overflow:visible;" width="950" height="1024" xlink:href="3669A0E7.png"  transform="matrix(2.301777e-02 0 0 2.301777e-02 45.3601 -201.1379)">
			</image>
		</g>
	</g>
</g>
<g>
	<defs>
		<rect id="SVGID_19_" x="4.5" y="-200.8" width="21.1" height="24.3"/>
	</defs>
	<clipPath id="SVGID_20_">
		<use xlink:href="#SVGID_19_"  style="overflow:visible;"/>
	</clipPath>
	<g class="st18">
		<defs>
			<rect id="SVGID_21_" x="4.5" y="-200.8" width="21.1" height="24.2"/>
		</defs>
		<clipPath id="SVGID_22_">
			<use xlink:href="#SVGID_21_"  style="overflow:visible;"/>
		</clipPath>
		<g style="clip-path:url(#SVGID_22_);">
			
				<image style="overflow:visible;" width="1779" height="2048" xlink:href="3669A0E2.png"  transform="matrix(1.184026e-02 0 0 1.184026e-02 4.4681 -200.7716)">
			</image>
		</g>
	</g>
</g>
</svg>
