<?xml version="1.0" encoding="utf-8"?>
<!-- Generator: Adobe Illustrator 23.0.5, SVG Export Plug-In . SVG Version: 6.00 Build 0)  -->
<svg version="1.1" id="Layer_1" xmlns="http://www.w3.org/2000/svg" xmlns:xlink="http://www.w3.org/1999/xlink" x="0px" y="0px"
	 width="30px" height="30px" viewBox="0 0 30 30" style="enable-background:new 0 0 30 30;" xml:space="preserve">
<style type="text/css">
	.st0{fill:#141619;}
	.st1{fill:#6FB95D;}
	.st2{fill:#033A4A;}
	.st3{clip-path:url(#SVGID_2_);}
	.st4{fill:#2A4DA1;}
	.st5{fill:#D1A750;}
	.st6{fill:#FFFFFF;}
	.st7{fill:none;}
	.st8{clip-path:url(#SVGID_6_);fill:#6FB95D;}
	.st9{clip-path:url(#SVGID_6_);fill:#033A4A;}
	.st10{fill:#D6D5D5;}
	.st11{clip-path:url(#SVGID_8_);}
	.st12{clip-path:url(#SVGID_12_);fill:#2A4DA1;}
	.st13{clip-path:url(#SVGID_12_);fill:#D1A750;}
	.st14{clip-path:url(#SVGID_12_);fill:#FFFFFF;}
	.st15{fill:#F7F7F7;}
	.st16{fill-rule:evenodd;clip-rule:evenodd;fill:#033A4A;}
	.st17{clip-path:url(#SVGID_16_);}
	.st18{clip-path:url(#SVGID_20_);}
</style>
<g>
	<path class="st0" d="M54.1-121.1H43.3c-4.9,0-8.9,4-8.9,8.9v10.7c0,4.9,4,8.9,8.9,8.9h10.7c4.9,0,8.9-4,8.9-8.9v-10.7
		C63.1-117.1,59.1-121.1,54.1-121.1 M60.4-101.4c0,3.5-2.8,6.3-6.3,6.3H43.3c-3.5,0-6.3-2.8-6.3-6.3v-10.7c0-3.5,2.8-6.3,6.3-6.3
		h10.7c3.5,0,6.3,2.8,6.3,6.3V-101.4z"/>
	<path class="st0" d="M48.7-113.9c-4,0-7.1,3.2-7.1,7.1c0,4,3.2,7.1,7.1,7.1c4,0,7.1-3.2,7.1-7.1C55.9-110.7,52.7-113.9,48.7-113.9
		 M48.7-102.2c-2.4,0-4.5-2-4.5-4.5c0-2.5,2-4.5,4.5-4.5c2.5,0,4.5,2,4.5,4.5C53.2-104.2,51.2-102.2,48.7-102.2"/>
	<path class="st0" d="M56.5-115.4c0.5,0,0.9,0.4,0.9,0.9c0,0.5-0.4,0.9-0.9,0.9c-0.5,0-0.9-0.4-0.9-0.9
		C55.4-115,55.8-115.4,56.5-115.4"/>
</g>
<g>
	<path class="st0" d="M86.1-120.8H75.5c-4.9,0-8.8,3.9-8.8,8.8v10.6c0,4.9,3.9,8.8,8.8,8.8h10.6c4.9,0,8.8-3.9,8.8-8.8V-112
		C95-116.9,91.1-120.8,86.1-120.8 M92.3-101.5c0,3.4-2.8,6.2-6.2,6.2H75.5c-3.4,0-6.2-2.8-6.2-6.2V-112c0-3.4,2.8-6.2,6.2-6.2h10.6
		c3.4,0,6.2,2.8,6.2,6.2V-101.5z"/>
	<path class="st0" d="M82.2-109.5v-2.1c0-0.6,0.5-1.1,1.1-1.1h1.1v-2.6h-2.1c-1.7,0-3.2,1.4-3.2,3.2v2.7h-2.1v2.7h2.1v8.5h3.2v-8.6
		h2.1l1.1-2.7L82.2-109.5z"/>
</g>
<g>
	<path class="st1" d="M51.1,96.5c0-0.4,0.2-0.6,0.6-0.6h6.7v2.4h-6.7c-0.4,0-0.6-0.2-0.6-0.6V96.5z M51.1,103.9
		c0-0.4,0.2-0.6,0.6-0.6h6.7v2.4h-6.7c-0.4,0-0.6-0.2-0.6-0.6V103.9z M51.1,89.2c0-0.4,0.2-0.6,0.6-0.6h6.7v2.4h-6.7
		c-0.4,0-0.6-0.2-0.6-0.6V89.2z"/>
	<path class="st2" d="M58.5,88.6h-6.7c-0.4,0-0.6,0.2-0.6,0.6v1.2c0,0.4,0.2,0.6,0.6,0.6h6.7v4.9h-6.7c-0.4,0-0.6,0.2-0.6,0.6v1.2
		c0,0.4,0.2,0.6,0.6,0.6h6.7v4.9h-6.7c-0.4,0-0.6,0.2-0.6,0.6v1.2c0,0.4,0.2,0.6,0.6,0.6h6.7v2.7c0,0.7-0.2,1.2-0.7,1.7
		c-0.5,0.5-1.1,0.7-1.7,0.7H41.4c-0.7,0-1.2-0.2-1.7-0.7c-0.5-0.5-0.7-1.1-0.7-1.7v-23c0-0.7,0.2-1.2,0.7-1.7
		c0.5-0.5,1.1-0.7,1.7-0.7H56c0.7,0,1.2,0.2,1.7,0.7c0.5,0.5,0.7,1.1,0.7,1.7V88.6z"/>
</g>
<g>
	<path class="st2" d="M28.2,90.3v16.5c0,0.9-0.3,1.7-1,2.3c-0.7,0.7-1.4,1-2.3,1H5.1c-0.9,0-1.7-0.3-2.3-1c-0.7-0.7-1-1.4-1-2.3
		V90.3c0-0.9,0.3-1.7,1-2.3c0.7-0.7,1.4-1,2.3-1h1.3c-0.9,1.5-1.3,3.2-1.3,5c0,2.7,1,5.1,2.9,7c1.9,1.9,4.3,2.9,7,2.9
		c2.7,0,5.1-1,7-2.9c1.9-1.9,2.9-4.3,2.9-7c0-1.8-0.4-3.4-1.3-5h1.3c0.9,0,1.7,0.3,2.3,1C27.9,88.6,28.2,89.4,28.2,90.3 M15,96.5
		c-0.4,0-0.7-0.1-1-0.3c-0.3-0.2-0.6-0.4-0.8-0.7c-0.2-0.3-0.3-0.7-0.3-1c0-0.6,0.2-1.1,0.6-1.5c0.4-0.4,0.9-0.6,1.5-0.6l1.7-4
		c0.1-0.3,0.4-0.5,0.8-0.5c0.2,0,0.4,0.1,0.6,0.2c0.2,0.2,0.2,0.4,0.2,0.6c0,0.1,0,0.2-0.1,0.3L16.5,93c0.4,0.4,0.6,0.8,0.6,1.4
		c0,0.6-0.2,1.1-0.6,1.5C16.1,96.3,15.6,96.5,15,96.5"/>
	<path class="st1" d="M20.8,97.8L19.6,99c-0.8,0.8-2.4,1.2-4.6,1.2c-2.3,0-4.2-0.8-5.8-2.4s-2.4-3.6-2.4-5.8c0-2.3,0.8-4.2,2.4-5.8
		c1.6-1.6,3.6-2.4,5.8-2.4c2.3,0,4.2,0.8,5.8,2.4c1.6,1.6,2.4,3.6,2.4,5.8C23.3,94.2,22.5,96.1,20.8,97.8 M15,92.3
		c-0.6,0-1.1,0.2-1.5,0.6c-0.4,0.4-0.6,0.9-0.6,1.5c0,0.6,0.2,1.1,0.6,1.4c0.4,0.4,0.9,0.6,1.5,0.6c0.6,0,1.1-0.2,1.5-0.6
		c0.4-0.4,0.6-0.9,0.6-1.5c0-0.6-0.2-1-0.6-1.4l1.8-4.1c0-0.1,0.1-0.2,0.1-0.3c0-0.1,0-0.3-0.1-0.4c-0.1-0.1-0.2-0.2-0.3-0.3
		c-0.1-0.1-0.3-0.1-0.4-0.1c-0.4,0-0.6,0.2-0.8,0.5L15,92.3z"/>
</g>
<g>
	<defs>
		<rect id="SVGID_1_" x="34.8" y="-73.3" width="27.9" height="17.1"/>
	</defs>
	<clipPath id="SVGID_2_">
		<use xlink:href="#SVGID_1_"  style="overflow:visible;"/>
	</clipPath>
	<g class="st3">
		<defs>
			<rect id="SVGID_3_" x="34.2" y="-73.4" width="29.1" height="17.3"/>
		</defs>
		<clipPath id="SVGID_4_">
			<use xlink:href="#SVGID_3_"  style="overflow:visible;"/>
		</clipPath>
		<g style="clip-path:url(#SVGID_4_);">
			
				<image style="overflow:visible;" width="168" height="100" xlink:href="DCD868E5.jpg"  transform="matrix(0.1731 0 0 0.1731 34.1501 -73.4487)">
			</image>
		</g>
	</g>
</g>
<g>
	<rect x="66.4" y="-73.6" class="st4" width="28.8" height="17.6"/>
	<rect x="67.3" y="-74.3" class="st4" width="26.8" height="19.1"/>
	<path class="st5" d="M80.9-61.3c0.1-0.1,0.2-0.3,0.2-0.4c-0.1,0-0.2-0.1-0.3-0.1c0.5,0.1,0.6-0.5,1.1-0.3c0-0.1,0.1-0.1,0.2-0.1
		l0.1,0.2c0.2,0.1,0.1-0.3,0.4-0.2c0.1-0.1,0-0.3,0.1-0.4c0-0.1,0.1-0.2,0.1-0.4c0.1,0.1,0.1,0.2,0.2,0.1c0.1-0.1,0.2-0.2,0.2-0.3
		c0-0.2-0.1-0.4,0.1-0.5v-0.1c0.1-0.1,0.5,0.1,0.5-0.2c0-0.1,0.1,0,0.1-0.1c0.1,0,0.2,0,0.3,0c0.1-0.2-0.1-0.3-0.2-0.5
		c0.1-0.1,0.1-0.3,0-0.4l-0.1,0c0.1,0,0.3,0,0.5-0.1l0.2-0.1c0.1,0.1,0.2,0.1,0.4,0.1c0.1-0.1,0-0.2,0.1-0.3c0.1,0,0.2,0,0.3-0.1
		l0,0c0.1,0.2,0.4,0.1,0.5,0.2c0.2,0,0.2-0.2,0.3-0.3c0-0.3-0.3-0.4-0.2-0.7c-0.1-0.1-0.2-0.3-0.3-0.4c0,0,0-0.1,0-0.1
		c-0.1-0.1,0-0.3-0.2-0.3c0-0.1-0.2-0.1-0.2-0.2c0.1-0.2-0.1-0.3-0.1-0.5c-0.1-0.1-0.3,0.1-0.3-0.1c-0.1,0-0.2,0.1-0.3,0
		c0-0.1,0.1-0.2,0.1-0.3c0.2,0,0.2-0.2,0.3-0.3l0.2-0.2c-0.2-0.1-0.4,0-0.7-0.1c-0.1,0,0,0.1-0.1,0.1c-0.1,0.1-0.2,0.1-0.3,0.1
		c0-0.1-0.2-0.1-0.1-0.2c0,0,0-0.1,0-0.1c-0.2,0-0.1,0.1-0.3,0.1c-0.2-0.1,0-0.3-0.3-0.3c0-0.2-0.4-0.4-0.1-0.6c0,0,0-0.1,0-0.2
		c-0.2-0.1-0.5-0.1-0.7,0c-0.2,0-0.1,0.2-0.1,0.3c-0.1,0.1-0.2,0.2-0.2,0.3c-0.1,0-0.2,0.1-0.3,0.2c-0.3-0.3-0.6-0.5-1-0.5
		c-0.2-0.1-0.3-0.4-0.5-0.3c-0.1-0.2-0.4,0-0.4-0.2c-0.1,0-0.1-0.2-0.1-0.3c0-0.2,0-0.3,0.2-0.5c0.1-0.1-0.1-0.1-0.1-0.3
		c0,0,0-0.1,0-0.1c-0.1,0-0.1-0.1-0.1-0.1c0,0-0.1,0-0.1-0.1c0-0.1-0.2-0.1-0.3-0.2c-0.1,0-0.2,0-0.2,0.1c0-0.1-0.1-0.2-0.2-0.2
		c-0.1,0-0.1,0.1-0.2,0.2c0,0.2-0.1,0.2-0.1,0.4c0.1,0.1,0.3,0.2,0.3,0.4c-0.1,0.2-0.1,0.4-0.2,0.6c-0.1,0.1-0.2,0.2-0.2,0.4
		c0.1,0.1,0,0.3-0.1,0.5c0,0.1-0.1,0.2-0.1,0.4c-0.2,0.1-0.2,0.4-0.5,0.5c-0.2,0-0.2,0.3-0.4,0.2c0,0-0.1,0.1-0.1,0.1
		c-0.1-0.1-0.3,0-0.5,0c-0.1,0.2,0.1,0.5-0.2,0.6v0.1c0,0,0.1,0,0.1,0c0,0.1-0.2,0.2-0.1,0.3c-0.1,0-0.1,0.1-0.1,0.2
		c-0.1,0.3-0.6,0.3-0.7,0.6c0.1,0.1,0.1,0.1,0.1,0.2c-0.1,0.1-0.1,0.2-0.1,0.4c0.1,0,0.1,0.1,0.1,0.2c-0.1,0.1-0.2,0.1-0.3,0.1
		c-0.2,0-0.3,0.2-0.4,0.2c0,0,0,0.1,0,0.1c0.2,0.1,0,0.4,0.2,0.3c0.1,0.1,0.2,0.1,0.3,0.2c0.1,0,0.2,0,0.3,0
		c0.1-0.1,0.2-0.1,0.3-0.2c0.1,0,0.2,0.1,0.3,0c0,0.2,0.1,0.3,0.2,0.4c0,0.1,0.1,0.1,0.2,0.1c0.2,0,0.3,0,0.5,0.1c0.1,0,0.1,0,0.2,0
		c0.1,0,0.2,0,0.3-0.1c0,0.2,0.3,0,0.4,0.3c0.1,0.1-0.2,0.2-0.2,0.3c0,0.1,0.1,0.2,0.1,0.3c0.1,0,0.1,0.1,0.2,0
		c0.2,0.1,0,0.5,0.4,0.4c0,0,0-0.1,0-0.1c0.1,0,0.1,0.1,0.2,0.2c0,0.1,0,0.3,0.1,0.4c0.1,0,0.1,0,0.1,0.1c0,0.1-0.1,0.2-0.1,0.2
		c0,0-0.1,0-0.1,0c0,0.1-0.1,0.2-0.1,0.3c-0.1,0-0.1,0.1-0.1,0.1c0.1,0.1,0,0.3,0.2,0.2c0.1,0.1,0.2,0,0.3,0.1
		c0.2,0.1,0.5,0.1,0.6,0.3c0.1,0,0.1,0.1,0.2,0C80.7-61.2,80.9-61.2,80.9-61.3"/>
	<polygon class="st6" points="82.3,-58.7 82,-57.9 81.8,-58.7 81,-58.7 81.6,-59.2 81.4,-60 82,-59.5 82.7,-60 82.5,-59.2 
		83.1,-58.7 	"/>
	<polygon class="st6" points="84.9,-59.2 84.7,-58.4 84.4,-59.2 83.6,-59.2 84.3,-59.7 84,-60.5 84.7,-60 85.3,-60.5 85.1,-59.7 
		85.8,-59.2 	"/>
	<polygon class="st6" points="87.4,-60.1 87.2,-59.3 86.9,-60.1 86.1,-60.1 86.8,-60.6 86.5,-61.4 87.2,-60.9 87.8,-61.4 
		87.6,-60.6 88.3,-60.1 	"/>
	<polygon class="st6" points="79.6,-58.7 79.4,-57.9 79.1,-58.7 78.3,-58.7 79,-59.2 78.7,-60 79.4,-59.5 80,-60 79.8,-59.2 
		80.5,-58.7 	"/>
	<polygon class="st6" points="77,-59.2 76.8,-58.4 76.5,-59.2 75.7,-59.2 76.3,-59.7 76.1,-60.5 76.8,-60 77.4,-60.5 77.2,-59.7 
		77.8,-59.2 	"/>
	<polygon class="st6" points="74.5,-60.1 74.2,-59.3 74,-60.1 73.2,-60.1 73.8,-60.6 73.6,-61.4 74.2,-60.9 74.9,-61.4 74.7,-60.6 
		75.3,-60.1 	"/>
	<rect x="67.3" y="-73.6" class="st7" width="26.8" height="17.6"/>
</g>
<g>
	<path class="st2" d="M103.3-50.8c-0.4,0-0.7-0.1-1-0.4c-0.3-0.3-0.4-0.6-0.4-1v-5.6c0-0.8,0.3-1.4,0.8-2c0.5-0.5,1.2-0.8,2-0.8
		h19.6c0.8,0,1.4,0.3,2,0.8c0.5,0.5,0.8,1.2,0.8,2v5.6c0,0.4-0.1,0.7-0.4,1c-0.3,0.3-0.6,0.4-1,0.4H103.3z M104.7-63.4v-4.2
		c0-0.8,0.3-1.4,0.8-2c0.6-0.5,1.2-0.8,2-0.8h5.6v-2c-0.4-0.3-0.8-0.6-1-1c-0.3-0.4-0.4-0.9-0.4-1.4c0-0.3,0.1-0.7,0.2-1
		c0.1-0.3,0.3-0.6,0.6-0.9l2-2l2,2c0.3,0.3,0.5,0.6,0.6,0.9c0.1,0.3,0.2,0.7,0.2,1c0,0.6-0.1,1-0.4,1.4c-0.3,0.4-0.6,0.7-1,1v2h5.6
		c0.8,0,1.4,0.3,2,0.8c0.6,0.5,0.8,1.2,0.8,2v4.2H104.7z"/>
	<path class="st1" d="M104.7-63.4v-4.2c0-0.8,0.3-1.4,0.8-2c0.6-0.5,1.2-0.8,2-0.8h5.6v-2c-0.4-0.3-0.8-0.6-1-1
		c-0.3-0.4-0.4-0.9-0.4-1.4c0-0.3,0.1-0.7,0.2-1c0.1-0.3,0.3-0.6,0.6-0.9l2-2l2,2c0.3,0.3,0.5,0.6,0.6,0.9c0.1,0.3,0.2,0.7,0.2,1
		c0,0.6-0.1,1-0.4,1.4c-0.3,0.4-0.6,0.7-1,1v2h5.6c0.8,0,1.4,0.3,2,0.8c0.6,0.5,0.8,1.2,0.8,2v4.2H104.7z"/>
</g>
<g>
	<g>
		<defs>
			<rect id="SVGID_5_" x="34.7" y="2.5" width="28.1" height="25"/>
		</defs>
		<clipPath id="SVGID_6_">
			<use xlink:href="#SVGID_5_"  style="overflow:visible;"/>
		</clipPath>
		<path class="st8" d="M53.4,8.5v0.3h-5.5c-0.2,0-0.4-0.1-0.6-0.2c-0.1-0.1-0.2-0.3-0.2-0.6V2.5h0.3c0.3,0,0.6,0.1,0.8,0.3L53,7.6
			C53.3,7.9,53.4,8.1,53.4,8.5 M48.7,19.4l7.9-7.9l3.3,3.3l-7.9,8h-3.4V19.4z M62.4,10.7c0.2,0.3,0.3,0.6,0.3,0.9
			c0,0.3-0.1,0.6-0.3,0.9L61,13.8l-3.3-3.3l1.4-1.4c0.2-0.2,0.5-0.3,0.9-0.3c0.3,0,0.6,0.1,0.9,0.3L62.4,10.7z"/>
		<path class="st9" d="M38,21.5c0,0,0,0-0.1,0.1c-0.1,0.1-0.1,0.2-0.1,0.5c0,0.2,0.1,0.4,0.2,0.6c0.1,0.1,0.3,0.2,0.6,0.2h0.6
			c0.5,0,0.9-0.1,1.3-0.4c0.4-0.3,0.6-0.6,0.7-1.1l0.5-1.5l0.8,2.4c0.1,0.3,0.3,0.5,0.7,0.5c0.4,0,0.6-0.1,0.7-0.4l0.4-0.7
			c0.1-0.2,0.3-0.3,0.5-0.3c0.2,0,0.4,0.1,0.5,0.3c0.4,0.8,1,1.2,1.9,1.2h4.9l1.3-1.3v4.8c0,0.2,0,0.3-0.1,0.5
			c-0.1,0.1-0.1,0.3-0.2,0.4c-0.1,0.1-0.2,0.2-0.4,0.2c-0.1,0.1-0.3,0.1-0.5,0.1H35.8c-0.3,0-0.6-0.1-0.8-0.3
			c-0.2-0.2-0.3-0.5-0.3-0.8V3.7c0-0.3,0.1-0.6,0.3-0.8c0.2-0.2,0.5-0.3,0.8-0.3h11.3V8c0,0.2,0.1,0.4,0.2,0.6
			c0.1,0.1,0.3,0.2,0.6,0.2h5.5v6l-4.7,4.6v1.8h-1.6c-0.2,0-0.4-0.1-0.4-0.3c-0.3-0.6-0.8-1-1.5-1.1c-0.7-0.1-1.3,0-1.7,0.4l-0.7-2
			c-0.2-0.6-0.6-0.8-1.1-0.8s-0.9,0.3-1.1,0.8l-0.9,2.6c-0.1,0.3-0.3,0.4-0.5,0.4h-0.6C38.3,21.2,38.1,21.3,38,21.5"/>
	</g>
</g>
<g>
	<path class="st1" d="M15,47.4c1.2,0,2.2-0.2,3.2-0.6c1-0.4,1.7-0.9,2.2-1.6l1.4,0.7c-0.2,0.2-0.4,0.4-0.6,0.6
		c-1.7,1.5-3.8,2.3-6.2,2.3c-2.4,0-4.5-0.8-6.2-2.3c-0.2-0.2-0.4-0.4-0.6-0.6l1.5-0.7c0.3,0.4,0.7,0.8,1.2,1.1
		c0.5,0.3,1.1,0.6,1.9,0.8C13.5,47.3,14.2,47.4,15,47.4"/>
	<polygon class="st1" points="1.5,49.3 2.9,48.7 6.1,55.2 4.8,55.9 	"/>
	<polygon class="st1" points="27.1,48.7 28.5,49.3 25.2,55.9 23.9,55.2 	"/>
	<path class="st2" d="M0.8,49.7l0.8-0.4l3.3,6.5L4,56.3c-0.1,0-0.2,0-0.3,0c-0.3,0-0.5-0.1-0.6-0.4l-2.6-5.2
		c-0.1-0.1-0.1-0.2-0.1-0.3C0.4,50.1,0.5,49.8,0.8,49.7 M21.8,46l5.4,2.7l-3.2,6.5L23.4,55c-0.1-0.1-0.2-0.1-0.3-0.1
		c-0.2,0-0.4,0.1-0.5,0.2c-0.1,0.2-0.2,0.3-0.2,0.5v11.6c0,0.4-0.1,0.7-0.4,1c-0.3,0.3-0.6,0.4-1,0.4H9.1c-0.4,0-0.7-0.1-1-0.4
		c-0.3-0.3-0.4-0.6-0.4-1V55.6c0-0.2-0.1-0.3-0.2-0.5c-0.1-0.2-0.3-0.2-0.5-0.2c-0.1,0-0.2,0-0.3,0.1l-0.5,0.2l-3.2-6.5L8.2,46
		c0.2,0.2,0.4,0.4,0.6,0.6c1.7,1.5,3.8,2.3,6.2,2.3s4.5-0.8,6.2-2.3C21.4,46.4,21.6,46.2,21.8,46 M29.2,49.7
		c0.3,0.1,0.4,0.3,0.4,0.6c0,0.1,0,0.2-0.1,0.3l-2.6,5.2c-0.1,0.3-0.3,0.4-0.6,0.4c-0.1,0-0.2,0-0.3,0h0l-0.8-0.4l3.3-6.5L29.2,49.7
		z"/>
</g>
<g>
	<path class="st2" d="M88.1,83.9c-0.2,0-0.4,0.1-0.6,0.2c-0.2,0.2-0.2,0.4-0.2,0.6v0.8h-13v-0.8c0-0.2-0.1-0.4-0.2-0.6
		c-0.2-0.2-0.4-0.2-0.6-0.2s-0.4,0.1-0.6,0.2c-0.2,0.2-0.2,0.4-0.2,0.6v0.8h-1.6c-0.9,0-1.7,0.3-2.3,1c-0.6,0.6-1,1.4-1,2.3v17.9
		c0,0.9,0.3,1.7,1,2.3c0.6,0.6,1.4,1,2.3,1h19.5c0.9,0,1.7-0.3,2.3-1c0.6-0.6,1-1.4,1-2.3V88.8c0-0.9-0.3-1.7-1-2.3
		c-0.6-0.6-1.4-1-2.3-1h-1.6v-0.8c0-0.2-0.1-0.4-0.2-0.6C88.6,84,88.4,83.9,88.1,83.9 M92.2,90.4v16.2c0,0.4-0.2,0.8-0.5,1.1
		c-0.3,0.3-0.7,0.5-1.1,0.5H71.1c-0.4,0-0.8-0.2-1.1-0.5c-0.3-0.3-0.5-0.7-0.5-1.1V90.4H92.2z"/>
	<rect x="73.2" y="93.6" class="st1" width="3.2" height="3.2"/>
	<rect x="79.7" y="93.6" class="st1" width="3.3" height="3.2"/>
	<rect x="86.2" y="93.6" class="st1" width="3.2" height="3.2"/>
	<rect x="73.2" y="101.2" class="st1" width="3.2" height="3.3"/>
	<rect x="79.7" y="101.2" class="st1" width="3.3" height="3.3"/>
	<rect x="86.2" y="101.2" class="st1" width="3.2" height="3.3"/>
</g>
<g>
	<path class="st10" d="M108.5,109l-0.5,0.5c-0.3,0.3-0.9,0.5-1.8,0.5c-0.9,0-1.7-0.3-2.3-1c-0.7-0.7-1-1.4-1-2.3V105h6.7v1.7
		C109.5,107.5,109.2,108.3,108.5,109 M101.6,91.1c0.6-2.7,1.5-4.6,2.6-5.9c1.1-1.2,2.4-1.9,3.7-1.9c1.1,0,2,0.4,2.8,1.3
		c0.8,0.9,1.3,2,1.7,3.3c0.4,1.4,0.5,2.8,0.5,4.5c0,1.9-0.6,3.7-1.7,5.4c-0.4,0.7-0.7,1.1-0.9,1.4c-0.2,0.3-0.3,0.8-0.5,1.5
		c-0.2,0.7-0.3,1.6-0.3,2.6h-6.7l-0.8-3c-0.5-1.6-0.7-2.9-0.8-4.2C101.1,94.4,101.2,92.7,101.6,91.1"/>
	<path class="st2" d="M125.2,109.4l-0.5,0.5c-0.3,0.3-0.9,0.5-1.8,0.5c-0.9,0-1.7-0.3-2.3-1c-0.7-0.7-1-1.4-1-2.3v-1.7h6.7v1.7
		C126.2,108,125.9,108.8,125.2,109.4 M116.2,92.9c0-2.5,0.4-4.7,1.3-6.4c0.9-1.8,2.1-2.7,3.7-2.7c1.3,0,2.5,0.6,3.7,1.9
		c1.1,1.2,2,3.2,2.6,5.9c0.3,1.6,0.5,3.2,0.3,5c-0.1,1.2-0.3,2.6-0.8,4.2l-0.8,3h-6.7c0-1-0.1-1.8-0.3-2.6c-0.2-0.7-0.4-1.2-0.5-1.5
		c-0.2-0.3-0.4-0.7-0.9-1.4C116.7,96.6,116.2,94.8,116.2,92.9"/>
</g>
<g>
	<defs>
		<rect id="SVGID_7_" x="1.3" y="-33.3" width="27.5" height="16.8"/>
	</defs>
	<clipPath id="SVGID_8_">
		<use xlink:href="#SVGID_7_"  style="overflow:visible;"/>
	</clipPath>
	<g class="st11">
		<defs>
			<rect id="SVGID_9_" x="0.7" y="-33.4" width="28.7" height="17.1"/>
		</defs>
		<clipPath id="SVGID_10_">
			<use xlink:href="#SVGID_9_"  style="overflow:visible;"/>
		</clipPath>
		<g style="clip-path:url(#SVGID_10_);">
			
				<image style="overflow:visible;" width="168" height="100" xlink:href="DCD868E7.jpg"  transform="matrix(0.1706 0 0 0.1706 0.656 -33.4408)">
			</image>
		</g>
	</g>
</g>
<g>
	<rect x="0.6" y="-73.1" class="st4" width="28.8" height="17.6"/>
	<g>
		<defs>
			<rect id="SVGID_11_" x="1.5" y="-73.1" width="26.8" height="17.6"/>
		</defs>
		<clipPath id="SVGID_12_">
			<use xlink:href="#SVGID_11_"  style="overflow:visible;"/>
		</clipPath>
		<rect x="1.5" y="-73.8" class="st12" width="26.8" height="19.1"/>
		<path class="st13" d="M15-60.7c0.1-0.1,0.2-0.3,0.2-0.4c-0.1,0-0.2-0.1-0.3-0.1c0.5,0.1,0.6-0.5,1.1-0.3c0-0.1,0.1-0.1,0.2-0.1
			l0.1,0.2c0.2,0.1,0.1-0.3,0.4-0.2c0.1-0.1,0-0.3,0.1-0.4c0-0.1,0.1-0.2,0.1-0.4c0.1,0.1,0.1,0.2,0.2,0.1c0.1-0.1,0.2-0.2,0.2-0.3
			c0-0.2-0.1-0.4,0.1-0.5v-0.1c0.1-0.1,0.5,0.1,0.5-0.2c0-0.1,0.1,0,0.1-0.1c0.1,0,0.2,0,0.3,0c0.1-0.2-0.1-0.3-0.2-0.5
			c0.1-0.1,0.1-0.3,0-0.4l-0.1,0c0.1,0,0.3,0,0.5-0.1l0.2-0.1c0.1,0.1,0.2,0.1,0.4,0.1c0.1-0.1,0-0.2,0.1-0.3c0.1,0,0.2,0,0.3-0.1
			l0,0c0.1,0.2,0.4,0.1,0.5,0.2c0.2,0,0.2-0.2,0.3-0.3c0-0.3-0.3-0.4-0.2-0.7c-0.1-0.1-0.2-0.3-0.3-0.4c0,0,0-0.1,0-0.1
			c-0.1-0.1,0-0.3-0.2-0.3c0-0.1-0.2-0.1-0.2-0.2c0.2-0.2-0.1-0.3-0.1-0.5c-0.1-0.1-0.3,0.1-0.3-0.1c-0.1,0-0.2,0.1-0.3,0
			c0-0.1,0.1-0.2,0.1-0.3c0.2,0,0.2-0.2,0.3-0.3l0.2-0.2c-0.2-0.1-0.4,0-0.7-0.1c-0.1,0,0,0.1-0.1,0.1C18.7-68,18.5-68,18.4-68
			c0-0.1-0.1-0.1-0.1-0.2c0,0,0-0.1,0-0.1c-0.2,0-0.1,0.1-0.3,0.1c-0.2-0.1,0-0.3-0.3-0.3c0-0.2-0.4-0.4-0.1-0.6c0,0,0-0.1,0-0.2
			c-0.2-0.1-0.5-0.1-0.7,0c-0.2,0-0.1,0.2-0.1,0.3c-0.1,0.1-0.2,0.2-0.2,0.3c-0.1,0-0.2,0.1-0.3,0.2c-0.3-0.3-0.6-0.5-1-0.5
			c-0.2-0.1-0.3-0.4-0.5-0.3c-0.1-0.2-0.4,0-0.4-0.2c-0.1,0-0.1-0.2-0.1-0.3c0-0.2,0-0.3,0.2-0.5c0.1-0.1-0.1-0.1-0.1-0.3
			c0,0,0-0.1,0-0.1c-0.1,0-0.1-0.1-0.1-0.1c0,0-0.1,0-0.1-0.1c0-0.1-0.2-0.1-0.3-0.2c-0.1,0-0.2,0-0.2,0.1c0-0.1-0.1-0.2-0.2-0.2
			c-0.2,0-0.1,0.1-0.2,0.2c0,0.2-0.1,0.2-0.1,0.4c0.1,0.1,0.3,0.2,0.3,0.4c-0.1,0.2-0.1,0.4-0.2,0.6c-0.1,0.1-0.2,0.2-0.2,0.4
			c0.1,0.1,0,0.3-0.1,0.5c0,0.1-0.1,0.2-0.1,0.4c-0.2,0.1-0.2,0.4-0.5,0.5c-0.2,0-0.2,0.3-0.4,0.2c0,0-0.1,0.1-0.1,0.1
			c-0.1-0.1-0.3,0-0.5,0c-0.1,0.2,0.1,0.5-0.2,0.6v0.1c0,0,0.1,0,0.1,0c0,0.1-0.2,0.2-0.1,0.3c-0.1,0-0.1,0.1-0.1,0.2
			c-0.1,0.3-0.6,0.3-0.7,0.6c0.1,0.1,0.1,0.1,0.1,0.2c-0.1,0.1-0.1,0.2-0.1,0.4c0.1,0,0.1,0.1,0.1,0.2C10.5-65,10.4-65,10.3-65
			c-0.2,0-0.3,0.2-0.4,0.2c0,0,0,0.1,0,0.1c0.2,0.1,0,0.4,0.2,0.3c0.1,0.1,0.2,0.1,0.3,0.2c0.1,0,0.2,0,0.3,0
			c0.1-0.1,0.2-0.1,0.3-0.2c0.1,0,0.2,0.1,0.3,0c0,0.2,0.1,0.3,0.2,0.4c0,0.1,0.1,0.1,0.2,0.1c0.2,0,0.3,0,0.5,0.1
			c0.1,0,0.1,0,0.2,0c0.1,0,0.2,0,0.3-0.1c0,0.2,0.3,0,0.4,0.3c0.1,0.1-0.2,0.2-0.2,0.3c0,0.1,0.1,0.2,0.1,0.3c0.1,0,0.1,0.1,0.2,0
			c0.2,0.1,0,0.5,0.4,0.4c0,0,0-0.1,0-0.1c0.1,0,0.1,0.1,0.2,0.2c0,0.1,0,0.3,0.1,0.4c0.1,0,0.1,0,0.1,0.1c0,0.1-0.1,0.2-0.1,0.2
			c0,0-0.1,0-0.1,0c0,0.1-0.1,0.2-0.1,0.3c-0.1,0-0.1,0.1-0.1,0.1c0.1,0.1,0,0.3,0.2,0.2c0.1,0.1,0.2,0,0.3,0.1
			c0.2,0.1,0.5,0.1,0.6,0.3c0.1,0,0.1,0.1,0.2,0C14.9-60.7,15-60.6,15-60.7"/>
		<polygon class="st14" points="16.5,-58.2 16.2,-57.4 16,-58.2 15.1,-58.2 15.8,-58.7 15.5,-59.5 16.2,-59 16.9,-59.5 16.6,-58.7 
			17.3,-58.2 		"/>
		<polygon class="st14" points="19.1,-58.7 18.8,-57.9 18.6,-58.7 17.8,-58.7 18.4,-59.2 18.2,-59.9 18.8,-59.5 19.5,-59.9 
			19.3,-59.2 19.9,-58.7 		"/>
		<polygon class="st14" points="21.6,-59.6 21.4,-58.8 21.1,-59.6 20.3,-59.6 20.9,-60.1 20.7,-60.9 21.4,-60.4 22,-60.9 
			21.8,-60.1 22.4,-59.6 		"/>
		<polygon class="st14" points="13.8,-58.2 13.6,-57.4 13.3,-58.2 12.5,-58.2 13.1,-58.7 12.9,-59.5 13.6,-59 14.2,-59.5 14,-58.7 
			14.6,-58.2 		"/>
		<polygon class="st14" points="11.2,-58.7 10.9,-57.9 10.7,-58.7 9.8,-58.7 10.5,-59.2 10.3,-59.9 10.9,-59.5 11.6,-59.9 
			11.3,-59.2 12,-58.7 		"/>
		<polygon class="st14" points="8.7,-59.6 8.4,-58.8 8.2,-59.6 7.3,-59.6 8,-60.1 7.7,-60.9 8.4,-60.4 9.1,-60.9 8.8,-60.1 
			9.5,-59.6 		"/>
	</g>
</g>
<g>
	<path class="st15" d="M29.8-106.8c0,8.2-6.6,14.8-14.8,14.8S0.2-98.6,0.2-106.8c0-8.2,6.6-14.8,14.8-14.8S29.8-115,29.8-106.8"/>
	<g>
		<defs>
			<rect id="SVGID_13_" x="4.7" y="-118.6" width="20.5" height="23.6"/>
		</defs>
		<clipPath id="SVGID_14_">
			<use xlink:href="#SVGID_13_"  style="overflow:visible;"/>
		</clipPath>
		<g style="clip-path:url(#SVGID_14_);">
			
				<image style="overflow:visible;" width="1779" height="2048" xlink:href="DCD868E5.png"  transform="matrix(1.153737e-02 0 0 1.153737e-02 4.7375 -118.5791)">
			</image>
		</g>
	</g>
</g>
<path class="st2" d="M203-106.9C203-106.9,203-106.9,203-106.9c0-0.3,0-0.4,0-0.6c0-7.4-6-13.5-13.5-13.5c-7.4,0-13.5,6-13.5,13.5
	c0,7.4,6,13.5,13.5,13.5c7.1,0,12.8-5.4,13.4-12.4C203-106.5,203-106.7,203-106.9 M199.8-102.1C199.8-102.1,199.8-102.1,199.8-102.1
	h-2c-0.9,0-1.6,0-2.2,0.1c-0.3,0-0.6,0.1-0.9,0.2l-1.9-2.2c0-0.1,0.1-0.2,0.1-0.3l0.9-2.9l-0.5-0.2l0.5,0.2c0-0.1,0-0.3,0.1-0.4
	l3.3-1.4c0.2,0.2,0.4,0.4,0.6,0.6c0.5,0.4,1,0.8,1.8,1.2l1.4,0.9C200.9-104.8,200.5-103.4,199.8-102.1 M184.5-101.9
	c-0.3-0.1-0.6-0.1-0.8-0.2c-0.6-0.1-1.3-0.1-2.2-0.1h-2l0,0.5h0v-0.5c-0.1,0-0.2,0-0.2,0c-0.7-1.3-1.1-2.6-1.3-4.1l1.5-1
	c0.7-0.5,1.3-0.9,1.8-1.2c0.2-0.2,0.4-0.4,0.6-0.6l3.2,1.4c0,0.1,0,0.3,0.1,0.4l0.5-0.2l-0.5,0.2l0.9,2.9c0,0.1,0.1,0.2,0.1,0.3
	L184.5-101.9z M188.9-110.5l-0.7-0.9l-2.3,1.8v0c-0.1,0.1-0.1,0.1-0.2,0.2l-3.2-1.3c0-0.3,0-0.6-0.1-0.9c-0.1-0.6-0.3-1.3-0.5-2.1
	l-0.5-2c0,0,0-0.1,0-0.1c0.9-0.8,1.9-1.6,3-2.1l1.7,1.2c0.7,0.5,1.3,0.9,1.8,1.2c0.2,0.1,0.5,0.3,0.8,0.3v3.4
	c-0.1,0.1-0.3,0.1-0.4,0.2 M197.7-115.7l-0.5,2c-0.2,0.8-0.4,1.5-0.5,2.1c0,0.3-0.1,0.6,0,0.9l-3.2,1.3c-0.1-0.1-0.1-0.2-0.2-0.2
	l-2.3-1.8c-0.1-0.1-0.3-0.1-0.4-0.2v-3.4c0.3-0.1,0.5-0.2,0.8-0.3c0.5-0.3,1.1-0.7,1.8-1.2v0l0,0l1.7-1.2c0,0,0.1-0.1,0.1-0.1
	C195.8-117.3,196.8-116.6,197.7-115.7C197.7-115.7,197.7-115.7,197.7-115.7 M186.5-107.7L186.5-107.7l-0.9,0.3L186.5-107.7z
	 M192.5-107.7l0.8,0.3L192.5-107.7z M187.9-96l-0.7-2.1c-0.3-0.8-0.5-1.5-0.7-2c-0.1-0.2-0.2-0.5-0.4-0.7l1.6-2.1
	c0.2,0,0.3,0.1,0.5,0.1h2.8v-0.9v0v0.9c0.2,0,0.3,0,0.5-0.1l1.8,2.1c-0.1,0.2-0.3,0.4-0.4,0.7c-0.2,0.5-0.5,1.2-0.7,2l-0.7,2
	c-0.6,0.1-1.3,0.2-1.9,0.2C189-95.9,188.4-95.9,187.9-96"/>
<g>
	<path class="st2" d="M229-120.6c-0.2,0-0.4,0.1-0.6,0.2c-0.2,0.2-0.2,0.4-0.2,0.6v0.8h-13.1v-0.8c0-0.2-0.1-0.4-0.2-0.6
		c-0.2-0.2-0.4-0.2-0.6-0.2c-0.2,0-0.4,0.1-0.6,0.2s-0.2,0.4-0.2,0.6v0.8h-1.6c-0.9,0-1.7,0.3-2.3,1c-0.6,0.6-1,1.5-1,2.3v18.1
		c0,0.9,0.3,1.7,1,2.3c0.6,0.6,1.5,1,2.3,1h19.7c0.9,0,1.7-0.3,2.3-1c0.6-0.6,1-1.5,1-2.3v-18.1c0-0.9-0.3-1.7-1-2.3
		c-0.6-0.6-1.5-1-2.3-1h-1.6v-0.8c0-0.2-0.1-0.4-0.2-0.6C229.5-120.5,229.3-120.6,229-120.6 M233.2-114v16.4c0,0.4-0.2,0.9-0.5,1.2
		c-0.3,0.3-0.7,0.5-1.2,0.5h-19.7c-0.4,0-0.9-0.2-1.2-0.5c-0.3-0.3-0.5-0.7-0.5-1.2V-114H233.2z"/>
	<rect x="214" y="-110.8" class="st1" width="3.3" height="3.3"/>
	<rect x="220.6" y="-110.8" class="st1" width="3.3" height="3.3"/>
	<rect x="227.1" y="-110.8" class="st1" width="3.3" height="3.3"/>
	<rect x="214" y="-103.1" class="st1" width="3.3" height="3.3"/>
	<rect x="220.6" y="-103.1" class="st1" width="3.3" height="3.3"/>
	<rect x="227.1" y="-103.1" class="st1" width="3.3" height="3.3"/>
</g>
<g>
	<path class="st2" d="M53.9-36.2c0,0.7-0.3,1.5-0.8,2c-0.5,0.5-1.2,0.8-2,0.8c-0.7,0-1.5-0.3-2-0.8c-0.5-0.5-0.8-1.2-0.8-2
		c0-0.7,0.3-1.5,0.8-2c0.5-0.5,1.2-0.8,2-0.8c0.7,0,1.5,0.3,2,0.8C53.6-37.7,53.9-36.9,53.9-36.2 M57.3-27.6l-3.6-3.6
		c-0.1-0.1-0.2-0.2-0.3-0.2c-0.1-0.1-0.2-0.1-0.4-0.1H39.9c-0.2,0-0.5,0.1-0.7,0.3c-0.2,0.2-0.3,0.4-0.3,0.7c0,0.2,0.1,0.5,0.3,0.7
		c0.2,0.2,0.4,0.3,0.7,0.3h5l-6,11.8c0,0.1,0,0.3,0,0.4c0,0.2,0,0.5,0.1,0.7c0.1,0.2,0.4,0.4,0.6,0.4c0.2,0.1,0.5,0,0.7-0.1
		c0.2-0.1,0.4-0.3,0.4-0.6l1.9-3.2h3.7l-3.6,7.9c-0.1,0.1-0.1,0.3-0.1,0.5c0,0.2,0,0.5,0.2,0.7c0.1,0.2,0.4,0.3,0.6,0.4
		c0.2,0,0.5,0,0.7-0.1c0.2-0.1,0.4-0.3,0.4-0.6l8.8-17.5l2.7,2.8c0.2,0.2,0.4,0.2,0.6,0.2c0.2,0,0.5-0.1,0.6-0.3
		c0.2-0.2,0.3-0.4,0.3-0.6C57.6-27.2,57.5-27.4,57.3-27.6"/>
	<path class="st2" d="M54.9-19.6c2,0,3.6,1.6,3.6,3.6c0,2-1.6,3.6-3.6,3.6c-2,0-3.6-1.6-3.6-3.6C51.3-18,52.9-19.6,54.9-19.6"/>
</g>
<g>
	<path class="st2" d="M80.8,53.4c-4.2,0-7.5,3.3-7.5,7.4c0,4.1,3.4,7.4,7.5,7.4c4.2,0,7.5-3.3,7.5-7.4C88.3,56.7,85,53.4,80.8,53.4
		 M86.2,60.7c0,0.7-0.1,1.4-0.4,2c0,0,0,0,0,0c-0.1,0.1-0.2,0.1-0.2,0.2c-0.1-0.4-0.4-0.9-0.8-1.4c0.1-0.4,0.1-1.8,0-2.2
		c0.3-0.3,0.6-0.7,0.8-0.9c0.1,0,0.1,0.1,0.2,0.1C86,59.2,86.2,60,86.2,60.7 M76.1,61.6c0.3,0.2,1.1,0.5,1.6,0.6
		c0.1,0.2,0.2,0.6,0.5,1.1c0.2,0.4,0.5,0.7,0.7,0.9c-0.3,0.5-0.4,0.8-0.3,1.1c-0.3,0-0.5-0.1-0.8-0.2c-0.8-0.5-1.5-1.3-1.9-2.2
		C75.9,62.6,76,62.1,76.1,61.6 M78.9,55.8c0.1,0.2,0.2,0.5,0.3,0.7c-0.2,0.2-1,1.1-1.3,1.9c-0.4,0.1-1.2,0.2-1.6,0.7
		c-0.2,0-0.3-0.1-0.5-0.1C76.3,57.5,77.4,56.4,78.9,55.8 M85.5,58.3c-0.1,0.2-0.5,0.7-0.8,1c-0.4-0.3-1.5-0.8-1.8-0.9
		c-0.1-0.3-0.3-0.8-0.5-1.2c-0.2-0.3-0.4-0.6-0.6-0.7c0.2-0.2,0.5-0.5,0.8-0.7c1.2,0.4,2.2,1.2,2.8,2.2
		C85.4,58.1,85.4,58.2,85.5,58.3 M84.2,64.8c-0.3,0.2-1.1,0.6-2,0.5c-0.2-0.2-0.5-0.7-0.7-1c0,0,0-0.1-0.1-0.1
		c0.6-0.6,1-1.7,1.2-2.1c0.7,0,1.4-0.2,2-0.5c0.2,0.2,0.3,0.4,0.5,0.6c0.2,0.3,0.3,0.5,0.3,0.7c-0.2,0.4-0.5,1.1-0.9,1.6
		C84.4,64.7,84.3,64.8,84.2,64.8 M82.2,57.3c0.2,0.4,0.4,0.8,0.5,1.1c-0.1,0.1-0.2,0.3-0.3,0.4c-0.3,0.4-0.7,0.9-1,1.3
		c-0.4-0.1-1.6-0.3-2.4,0c-0.2-0.3-0.3-0.5-0.5-0.8c-0.1-0.2-0.2-0.3-0.3-0.5c-0.1-0.1-0.1-0.2-0.2-0.3c0.1-0.5,0.5-1,0.7-1.3
		c0.2-0.2,0.3-0.4,0.4-0.5c0.1-0.1,0.1-0.1,0.1-0.1c0.8-0.1,1.6-0.1,2.4,0C81.8,56.7,82,56.9,82.2,57.3 M78.9,60.2
		c0.5-0.1,1.1-0.1,1.6-0.1c0.2,0,0.4,0,0.7,0.1c0.1,0,0.2,0,0.2,0c0.1,0.2,0.2,0.4,0.4,0.6c0.2,0.3,0.4,0.6,0.7,1
		c0.1,0.1,0.1,0.2,0.1,0.3c0,0,0,0.1,0,0.1c-0.1,0.4-0.5,1.4-1.1,1.9c-0.9,0.1-1.7,0.1-2.3,0c-0.3-0.2-0.5-0.6-0.7-0.9
		c-0.2-0.3-0.3-0.6-0.4-0.8c0-0.1-0.1-0.2-0.1-0.3c0,0,0,0,0,0C78.1,61.4,78.6,60.8,78.9,60.2 M78.3,65.4c0.1,0,0.3,0.1,0.4,0.1
		c0.1,0.1,0.2,0.2,0.4,0.3C78.8,65.6,78.5,65.5,78.3,65.4 M75.4,60.7c0-0.6,0.1-1.1,0.3-1.6c0.2,0,0.3,0.1,0.5,0.1
		c-0.2,0.5-0.3,1.8-0.1,2.2c-0.2,0.4-0.2,0.8-0.3,1.2C75.6,62,75.4,61.4,75.4,60.7"/>
	<path class="st2" d="M95.5,65.1h-2.2v-17H68.7v17h-2.5V45.6h29.3V65.1z M93.7,64.6H95V46.1H66.7v18.5h1.5v-17h25.5V64.6z"/>
	<polygon class="st2" points="68.6,65.1 68.3,64.6 72,62.3 72,50.8 68.3,48.1 68.6,47.7 72.5,50.6 72.5,62.6 	"/>
	<polygon class="st2" points="93.3,65.1 89.4,62.6 89.4,50.6 93.3,47.7 93.6,48.1 89.9,50.8 89.9,62.3 93.6,64.6 	"/>
	<rect x="72.3" y="50.5" class="st2" width="17.4" height="0.5"/>
	<rect x="68.5" y="56.4" class="st2" width="5.6" height="0.5"/>
	<rect x="87.9" y="56.4" class="st2" width="5.6" height="0.5"/>
	<rect x="77.7" y="50.7" class="st2" width="0.5" height="2.7"/>
	<rect x="83.7" y="50.7" class="st2" width="0.5" height="2.7"/>
	<rect x="72.3" y="62.2" class="st2" width="0.9" height="0.5"/>
	<rect x="88.7" y="62.2" class="st2" width="0.9" height="0.5"/>
</g>
<g>
	<path class="st16" d="M8.8,7.7c0-1.6,0.7-3,1.8-4.1c1.2-1.1,2.7-1.7,4.4-1.7s3.2,0.6,4.4,1.7c1.2,1.1,1.8,2.6,1.8,4.1
		s-0.7,3-1.8,4.1c-1.2,1.1-2.7,1.7-4.4,1.7s-3.2-0.6-4.4-1.7C9.5,10.7,8.8,9.3,8.8,7.7 M8.8,16.5c-2,0-4,0.8-5.5,2.1
		c-1.4,1.4-2.3,3.2-2.3,5.2c0,1.2,0.5,2.3,1.4,3.1c0.9,0.8,2,1.3,3.3,1.3h18.5c1.2,0,2.4-0.5,3.3-1.3c0.9-0.8,1.4-1.9,1.4-3.1
		c0-1.9-0.8-3.8-2.3-5.2c-1.4-1.4-3.4-2.1-5.5-2.1H8.8z"/>
</g>
<g>
	<defs>
		<rect id="SVGID_15_" x="144.9" y="-119.3" width="21.9" height="23.6"/>
	</defs>
	<clipPath id="SVGID_16_">
		<use xlink:href="#SVGID_15_"  style="overflow:visible;"/>
	</clipPath>
	<g class="st17">
		<defs>
			<rect id="SVGID_17_" x="144.9" y="-119.3" width="21.9" height="23.6"/>
		</defs>
		<clipPath id="SVGID_18_">
			<use xlink:href="#SVGID_17_"  style="overflow:visible;"/>
		</clipPath>
		<g style="clip-path:url(#SVGID_18_);">
			
				<image style="overflow:visible;" width="950" height="1024" xlink:href="DCD868E3.png"  transform="matrix(2.301777e-02 0 0 2.301777e-02 144.8895 -119.2555)">
			</image>
		</g>
	</g>
</g>
<g>
	<defs>
		<rect id="SVGID_19_" x="104" y="-118.9" width="21.1" height="24.3"/>
	</defs>
	<clipPath id="SVGID_20_">
		<use xlink:href="#SVGID_19_"  style="overflow:visible;"/>
	</clipPath>
	<g class="st18">
		<defs>
			<rect id="SVGID_21_" x="104" y="-118.9" width="21.1" height="24.2"/>
		</defs>
		<clipPath id="SVGID_22_">
			<use xlink:href="#SVGID_21_"  style="overflow:visible;"/>
		</clipPath>
		<g style="clip-path:url(#SVGID_22_);">
			
				<image style="overflow:visible;" width="1779" height="2048" xlink:href="DCD868ED.png"  transform="matrix(1.184026e-02 0 0 1.184026e-02 103.9975 -118.8893)">
			</image>
		</g>
	</g>
</g>
</svg>
