<?xml version="1.0" encoding="utf-8"?>
<!-- Generator: Adobe Illustrator 23.0.5, SVG Export Plug-In . SVG Version: 6.00 Build 0)  -->
<svg version="1.1" id="Layer_1" xmlns="http://www.w3.org/2000/svg" xmlns:xlink="http://www.w3.org/1999/xlink" x="0px" y="0px"
	 width="30px" height="30px" viewBox="0 0 30 30" style="enable-background:new 0 0 30 30;" xml:space="preserve">
<style type="text/css">
	.st0{fill:#141619;}
	.st1{fill:#6FB95D;}
	.st2{fill:#033A4A;}
	.st3{clip-path:url(#SVGID_2_);}
	.st4{fill:#2A4DA1;}
	.st5{fill:#D1A750;}
	.st6{fill:#FFFFFF;}
	.st7{fill:none;}
	.st8{clip-path:url(#SVGID_6_);fill:#6FB95D;}
	.st9{clip-path:url(#SVGID_6_);fill:#033A4A;}
	.st10{fill:#D6D5D5;}
	.st11{clip-path:url(#SVGID_8_);}
	.st12{clip-path:url(#SVGID_12_);fill:#2A4DA1;}
	.st13{clip-path:url(#SVGID_12_);fill:#D1A750;}
	.st14{clip-path:url(#SVGID_12_);fill:#FFFFFF;}
	.st15{fill:#F7F7F7;}
	.st16{fill-rule:evenodd;clip-rule:evenodd;fill:#033A4A;}
	.st17{clip-path:url(#SVGID_16_);}
	.st18{clip-path:url(#SVGID_20_);}
</style>
<g>
	<path class="st0" d="M-11.8-163.1h-10.7c-4.9,0-8.9,4-8.9,8.9v10.7c0,4.9,4,8.9,8.9,8.9h10.7c4.9,0,8.9-4,8.9-8.9v-10.7
		C-2.7-159.1-6.7-163.1-11.8-163.1 M-5.5-143.4c0,3.5-2.8,6.3-6.3,6.3h-10.7c-3.5,0-6.3-2.8-6.3-6.3v-10.7c0-3.5,2.8-6.3,6.3-6.3
		h10.7c3.5,0,6.3,2.8,6.3,6.3V-143.4z"/>
	<path class="st0" d="M-17.1-155.9c-4,0-7.1,3.2-7.1,7.1c0,4,3.2,7.1,7.1,7.1c4,0,7.1-3.2,7.1-7.1C-10-152.7-13.1-155.9-17.1-155.9
		 M-17.1-144.2c-2.4,0-4.5-2-4.5-4.5c0-2.5,2-4.5,4.5-4.5c2.5,0,4.5,2,4.5,4.5C-12.6-146.2-14.6-144.2-17.1-144.2"/>
	<path class="st0" d="M-9.3-157.4c0.5,0,0.9,0.4,0.9,0.9s-0.4,0.9-0.9,0.9c-0.5,0-0.9-0.4-0.9-0.9C-10.4-157-10-157.4-9.3-157.4"/>
</g>
<g>
	<path class="st0" d="M20.3-162.8H9.7c-4.9,0-8.8,3.9-8.8,8.8v10.6c0,4.9,3.9,8.8,8.8,8.8h10.6c4.9,0,8.8-3.9,8.8-8.8V-154
		C29.2-158.9,25.2-162.8,20.3-162.8 M26.5-143.5c0,3.4-2.8,6.2-6.2,6.2H9.7c-3.4,0-6.2-2.8-6.2-6.2V-154c0-3.4,2.8-6.2,6.2-6.2h10.6
		c3.4,0,6.2,2.8,6.2,6.2V-143.5z"/>
	<path class="st0" d="M16.4-151.5v-2.1c0-0.6,0.5-1.1,1.1-1.1h1.1v-2.6h-2.1c-1.7,0-3.2,1.4-3.2,3.2v2.7h-2.1v2.7h2.1v8.5h3.2v-8.6
		h2.1l1.1-2.7L16.4-151.5z"/>
</g>
<g>
	<path class="st1" d="M-14.7,54.5c0-0.4,0.2-0.6,0.6-0.6h6.7v2.4h-6.7c-0.4,0-0.6-0.2-0.6-0.6V54.5z M-14.7,61.9
		c0-0.4,0.2-0.6,0.6-0.6h6.7v2.4h-6.7c-0.4,0-0.6-0.2-0.6-0.6V61.9z M-14.7,47.2c0-0.4,0.2-0.6,0.6-0.6h6.7v2.4h-6.7
		c-0.4,0-0.6-0.2-0.6-0.6V47.2z"/>
	<path class="st2" d="M-7.4,46.6h-6.7c-0.4,0-0.6,0.2-0.6,0.6v1.2c0,0.4,0.2,0.6,0.6,0.6h6.7v4.9h-6.7c-0.4,0-0.6,0.2-0.6,0.6v1.2
		c0,0.4,0.2,0.6,0.6,0.6h6.7v4.9h-6.7c-0.4,0-0.6,0.2-0.6,0.6v1.2c0,0.4,0.2,0.6,0.6,0.6h6.7v2.7c0,0.7-0.2,1.2-0.7,1.7
		c-0.5,0.5-1.1,0.7-1.7,0.7h-14.6c-0.7,0-1.2-0.2-1.7-0.7c-0.5-0.5-0.7-1.1-0.7-1.7v-23c0-0.7,0.2-1.2,0.7-1.7
		c0.5-0.5,1.1-0.7,1.7-0.7h14.6c0.7,0,1.2,0.2,1.7,0.7c0.5,0.5,0.7,1.1,0.7,1.7V46.6z"/>
</g>
<g>
	<path class="st2" d="M-37.6,48.3v16.5c0,0.9-0.3,1.7-1,2.3c-0.7,0.7-1.4,1-2.3,1h-19.9c-0.9,0-1.7-0.3-2.3-1c-0.7-0.7-1-1.4-1-2.3
		V48.3c0-0.9,0.3-1.7,1-2.3c0.7-0.7,1.4-1,2.3-1h1.3c-0.9,1.5-1.3,3.2-1.3,5c0,2.7,1,5.1,2.9,7c1.9,1.9,4.3,2.9,7,2.9
		c2.7,0,5.1-1,7-2.9c1.9-1.9,2.9-4.3,2.9-7c0-1.8-0.4-3.4-1.3-5h1.3c0.9,0,1.7,0.3,2.3,1C-37.9,46.6-37.6,47.4-37.6,48.3
		 M-50.8,54.5c-0.4,0-0.7-0.1-1-0.3c-0.3-0.2-0.6-0.4-0.8-0.7c-0.2-0.3-0.3-0.7-0.3-1c0-0.6,0.2-1.1,0.6-1.5
		c0.4-0.4,0.9-0.6,1.5-0.6l1.7-4c0.1-0.3,0.4-0.5,0.8-0.5c0.2,0,0.4,0.1,0.6,0.2c0.2,0.2,0.2,0.4,0.2,0.6c0,0.1,0,0.2-0.1,0.3
		l-1.8,4.1c0.4,0.4,0.6,0.8,0.6,1.4c0,0.6-0.2,1.1-0.6,1.5C-49.7,54.3-50.2,54.5-50.8,54.5"/>
	<path class="st1" d="M-45,55.8l-1.2,1.2c-0.8,0.8-2.4,1.2-4.6,1.2c-2.3,0-4.2-0.8-5.8-2.4s-2.4-3.6-2.4-5.8c0-2.3,0.8-4.2,2.4-5.8
		s3.6-2.4,5.8-2.4c2.3,0,4.2,0.8,5.8,2.4s2.4,3.6,2.4,5.8C-42.6,52.2-43.4,54.1-45,55.8 M-50.8,50.3c-0.6,0-1.1,0.2-1.5,0.6
		c-0.4,0.4-0.6,0.9-0.6,1.5c0,0.6,0.2,1.1,0.6,1.4c0.4,0.4,0.9,0.6,1.5,0.6c0.6,0,1.1-0.2,1.5-0.6c0.4-0.4,0.6-0.9,0.6-1.5
		c0-0.6-0.2-1-0.6-1.4l1.8-4.1c0-0.1,0.1-0.2,0.1-0.3c0-0.1,0-0.3-0.1-0.4c-0.1-0.1-0.2-0.2-0.3-0.3c-0.1-0.1-0.3-0.1-0.4-0.1
		c-0.4,0-0.6,0.2-0.8,0.5L-50.8,50.3z"/>
</g>
<g>
	<defs>
		<rect id="SVGID_1_" x="-31.1" y="-115.3" width="27.9" height="17.1"/>
	</defs>
	<clipPath id="SVGID_2_">
		<use xlink:href="#SVGID_1_"  style="overflow:visible;"/>
	</clipPath>
	<g class="st3">
		<defs>
			<rect id="SVGID_3_" x="-31.7" y="-115.4" width="29.1" height="17.3"/>
		</defs>
		<clipPath id="SVGID_4_">
			<use xlink:href="#SVGID_3_"  style="overflow:visible;"/>
		</clipPath>
		<g style="clip-path:url(#SVGID_4_);">
			
				<image style="overflow:visible;" width="168" height="100" xlink:href="B0365BE.jpg"  transform="matrix(0.1731 0 0 0.1731 -31.6734 -115.4487)">
			</image>
		</g>
	</g>
</g>
<g>
	<rect x="0.6" y="-115.6" class="st4" width="28.8" height="17.6"/>
	<rect x="1.5" y="-116.3" class="st4" width="26.8" height="19.1"/>
	<path class="st5" d="M15-103.3c0.1-0.1,0.2-0.3,0.2-0.4c-0.1,0-0.2-0.1-0.3-0.1c0.5,0.1,0.6-0.5,1.1-0.3c0-0.1,0.1-0.1,0.2-0.1
		l0.1,0.2c0.2,0.1,0.1-0.3,0.4-0.2c0.1-0.1,0-0.3,0.1-0.4c0-0.1,0.1-0.2,0.1-0.4c0.1,0.1,0.1,0.2,0.2,0.1c0.1-0.1,0.2-0.2,0.2-0.3
		c0-0.2-0.1-0.4,0.1-0.5v-0.1c0.1-0.1,0.5,0.1,0.5-0.2c0-0.1,0.1,0,0.1-0.1c0.1,0,0.2,0,0.3,0c0.1-0.2-0.1-0.3-0.2-0.5
		c0.1-0.1,0.1-0.3,0-0.4l-0.1,0c0.1,0,0.3,0,0.5-0.1l0.2-0.1c0.1,0.1,0.2,0.1,0.4,0.1c0.1-0.1,0-0.2,0.1-0.3c0.1,0,0.2,0,0.3-0.1
		l0,0c0.1,0.2,0.4,0.1,0.5,0.2c0.2,0,0.2-0.2,0.3-0.3c0-0.3-0.3-0.4-0.2-0.7c-0.1-0.1-0.2-0.3-0.3-0.4c0,0,0-0.1,0-0.1
		c-0.1-0.1,0-0.3-0.2-0.3c0-0.1-0.2-0.1-0.2-0.2c0.1-0.2-0.1-0.3-0.1-0.5c-0.1-0.1-0.3,0.1-0.3-0.1c-0.1,0-0.2,0.1-0.3,0
		c0-0.1,0.1-0.2,0.1-0.3c0.2,0,0.2-0.2,0.3-0.3l0.2-0.2c-0.2-0.1-0.4,0-0.7-0.1c-0.1,0,0,0.1-0.1,0.1c-0.1,0.1-0.2,0.1-0.3,0.1
		c0-0.1-0.2-0.1-0.1-0.2c0,0,0-0.1,0-0.1c-0.2,0-0.1,0.1-0.3,0.1c-0.2-0.1,0-0.3-0.3-0.3c0-0.2-0.4-0.4-0.1-0.6c0,0,0-0.1,0-0.2
		c-0.2-0.1-0.5-0.1-0.7,0c-0.2,0-0.1,0.2-0.1,0.3c-0.1,0.1-0.2,0.2-0.2,0.3c-0.1,0-0.2,0.1-0.3,0.2c-0.3-0.3-0.6-0.5-1-0.5
		c-0.2-0.1-0.3-0.4-0.5-0.3c-0.1-0.2-0.4,0-0.4-0.2c-0.1,0-0.1-0.2-0.1-0.3c0-0.2,0-0.3,0.2-0.5c0.1-0.1-0.1-0.1-0.1-0.3
		c0,0,0-0.1,0-0.1c-0.1,0-0.1-0.1-0.1-0.1c0,0-0.1,0-0.1-0.1c0-0.1-0.2-0.1-0.3-0.2c-0.1,0-0.2,0-0.2,0.1c0-0.1-0.1-0.2-0.2-0.2
		c-0.1,0-0.1,0.1-0.2,0.2c0,0.2-0.1,0.2-0.1,0.4c0.1,0.1,0.3,0.2,0.3,0.4c-0.1,0.2-0.1,0.4-0.2,0.6c-0.1,0.1-0.2,0.2-0.2,0.4
		c0.1,0.1,0,0.3-0.1,0.5c0,0.1-0.1,0.2-0.1,0.4c-0.2,0.1-0.2,0.4-0.5,0.5c-0.2,0-0.2,0.3-0.4,0.2c0,0-0.1,0.1-0.1,0.1
		c-0.1-0.1-0.3,0-0.5,0c-0.1,0.2,0.1,0.5-0.2,0.6v0.1c0,0,0.1,0,0.1,0c0,0.1-0.2,0.2-0.1,0.3c-0.1,0-0.1,0.1-0.1,0.2
		c-0.1,0.3-0.6,0.3-0.7,0.6c0.1,0.1,0.1,0.1,0.1,0.2c-0.1,0.1-0.1,0.2-0.1,0.4c0.1,0,0.1,0.1,0.1,0.2c-0.1,0.1-0.2,0.1-0.3,0.1
		c-0.2,0-0.3,0.2-0.4,0.2c0,0,0,0.1,0,0.1c0.2,0.1,0,0.4,0.2,0.3c0.1,0.1,0.2,0.1,0.3,0.2c0.1,0,0.2,0,0.3,0
		c0.1-0.1,0.2-0.1,0.3-0.2c0.1,0,0.2,0.1,0.3,0c0,0.2,0.1,0.3,0.2,0.4c0,0.1,0.1,0.1,0.2,0.1c0.2,0,0.3,0,0.5,0.1c0.1,0,0.1,0,0.2,0
		c0.1,0,0.2,0,0.3-0.1c0,0.2,0.3,0,0.4,0.3c0.1,0.1-0.2,0.2-0.2,0.3c0,0.1,0.1,0.2,0.1,0.3c0.1,0,0.1,0.1,0.2,0
		c0.2,0.1,0,0.5,0.4,0.4c0,0,0-0.1,0-0.1c0.1,0,0.1,0.1,0.2,0.2c0,0.1,0,0.3,0.1,0.4c0.1,0,0.1,0,0.1,0.1c0,0.1-0.1,0.2-0.1,0.2
		c0,0-0.1,0-0.1,0c0,0.1-0.1,0.2-0.1,0.3c-0.1,0-0.1,0.1-0.1,0.1c0.1,0.1,0,0.3,0.2,0.2c0.1,0.1,0.2,0,0.3,0.1
		c0.2,0.1,0.5,0.1,0.6,0.3c0.1,0,0.1,0.1,0.2,0C14.9-103.2,15-103.2,15-103.3"/>
	<polygon class="st6" points="16.5,-100.7 16.2,-99.9 16,-100.7 15.1,-100.7 15.8,-101.2 15.5,-102 16.2,-101.5 16.9,-102 
		16.6,-101.2 17.3,-100.7 	"/>
	<polygon class="st6" points="19.1,-101.2 18.8,-100.4 18.6,-101.2 17.8,-101.2 18.4,-101.7 18.2,-102.5 18.8,-102 19.5,-102.5 
		19.3,-101.7 19.9,-101.2 	"/>
	<polygon class="st6" points="21.6,-102.1 21.4,-101.3 21.1,-102.1 20.3,-102.1 20.9,-102.6 20.7,-103.4 21.4,-102.9 22,-103.4 
		21.8,-102.6 22.4,-102.1 	"/>
	<polygon class="st6" points="13.8,-100.7 13.6,-99.9 13.3,-100.7 12.5,-100.7 13.1,-101.2 12.9,-102 13.6,-101.5 14.2,-102 
		14,-101.2 14.6,-100.7 	"/>
	<polygon class="st6" points="11.2,-101.2 10.9,-100.4 10.7,-101.2 9.8,-101.2 10.5,-101.7 10.3,-102.5 10.9,-102 11.6,-102.5 
		11.3,-101.7 12,-101.2 	"/>
	<polygon class="st6" points="8.7,-102.1 8.4,-101.3 8.2,-102.1 7.3,-102.1 8,-102.6 7.7,-103.4 8.4,-102.9 9.1,-103.4 8.8,-102.6 
		9.5,-102.1 	"/>
	<rect x="1.5" y="-115.6" class="st7" width="26.8" height="17.6"/>
</g>
<g>
	<path class="st2" d="M37.5-92.8c-0.4,0-0.7-0.1-1-0.4c-0.3-0.3-0.4-0.6-0.4-1v-5.6c0-0.8,0.3-1.4,0.8-2c0.5-0.5,1.2-0.8,2-0.8h19.6
		c0.8,0,1.4,0.3,2,0.8c0.5,0.5,0.8,1.2,0.8,2v5.6c0,0.4-0.1,0.7-0.4,1c-0.3,0.3-0.6,0.4-1,0.4H37.5z M38.9-105.4v-4.2
		c0-0.8,0.3-1.4,0.8-2c0.6-0.5,1.2-0.8,2-0.8h5.6v-2c-0.4-0.3-0.8-0.6-1-1c-0.3-0.4-0.4-0.9-0.4-1.4c0-0.3,0.1-0.7,0.2-1
		c0.1-0.3,0.3-0.6,0.6-0.9l2-2l2,2c0.3,0.3,0.5,0.6,0.6,0.9c0.1,0.3,0.2,0.7,0.2,1c0,0.6-0.1,1-0.4,1.4c-0.3,0.4-0.6,0.7-1,1v2h5.6
		c0.8,0,1.4,0.3,2,0.8c0.6,0.5,0.8,1.2,0.8,2v4.2H38.9z"/>
	<path class="st1" d="M38.9-105.4v-4.2c0-0.8,0.3-1.4,0.8-2c0.6-0.5,1.2-0.8,2-0.8h5.6v-2c-0.4-0.3-0.8-0.6-1-1
		c-0.3-0.4-0.4-0.9-0.4-1.4c0-0.3,0.1-0.7,0.2-1c0.1-0.3,0.3-0.6,0.6-0.9l2-2l2,2c0.3,0.3,0.5,0.6,0.6,0.9c0.1,0.3,0.2,0.7,0.2,1
		c0,0.6-0.1,1-0.4,1.4c-0.3,0.4-0.6,0.7-1,1v2h5.6c0.8,0,1.4,0.3,2,0.8c0.6,0.5,0.8,1.2,0.8,2v4.2H38.9z"/>
</g>
<g>
	<g>
		<defs>
			<rect id="SVGID_5_" x="-31.2" y="-39.5" width="28.1" height="25"/>
		</defs>
		<clipPath id="SVGID_6_">
			<use xlink:href="#SVGID_5_"  style="overflow:visible;"/>
		</clipPath>
		<path class="st8" d="M-12.4-33.5v0.3h-5.5c-0.2,0-0.4-0.1-0.6-0.2c-0.1-0.1-0.2-0.3-0.2-0.6v-5.5h0.3c0.3,0,0.6,0.1,0.8,0.3
			l4.8,4.8C-12.6-34.1-12.4-33.9-12.4-33.5 M-17.1-22.6l7.9-7.9l3.3,3.3l-7.9,8h-3.4V-22.6z M-3.4-31.3c0.2,0.3,0.3,0.6,0.3,0.9
			c0,0.3-0.1,0.6-0.3,0.9l-1.4,1.4l-3.3-3.3l1.4-1.4c0.2-0.2,0.5-0.3,0.9-0.3c0.3,0,0.6,0.1,0.9,0.3L-3.4-31.3z"/>
		<path class="st9" d="M-27.8-20.5c0,0,0,0-0.1,0.1C-28-20.4-28-20.2-28-20c0,0.2,0.1,0.4,0.2,0.6c0.1,0.1,0.3,0.2,0.6,0.2h0.6
			c0.5,0,0.9-0.1,1.3-0.4c0.4-0.3,0.6-0.6,0.7-1.1l0.5-1.5l0.8,2.4c0.1,0.3,0.3,0.5,0.7,0.5c0.4,0,0.6-0.1,0.7-0.4l0.4-0.7
			c0.1-0.2,0.3-0.3,0.5-0.3c0.2,0,0.4,0.1,0.5,0.3c0.4,0.8,1,1.2,1.9,1.2h4.9l1.3-1.3v4.8c0,0.2,0,0.3-0.1,0.5
			c-0.1,0.1-0.1,0.3-0.2,0.4c-0.1,0.1-0.2,0.2-0.4,0.2c-0.1,0.1-0.3,0.1-0.5,0.1H-30c-0.3,0-0.6-0.1-0.8-0.3
			c-0.2-0.2-0.3-0.5-0.3-0.8v-22.6c0-0.3,0.1-0.6,0.3-0.8c0.2-0.2,0.5-0.3,0.8-0.3h11.3v5.5c0,0.2,0.1,0.4,0.2,0.6
			c0.1,0.1,0.3,0.2,0.6,0.2h5.5v6l-4.7,4.6v1.8h-1.6c-0.2,0-0.4-0.1-0.4-0.3c-0.3-0.6-0.8-1-1.5-1.1c-0.7-0.1-1.3,0-1.7,0.4l-0.7-2
			c-0.2-0.6-0.6-0.8-1.1-0.8c-0.6,0-0.9,0.3-1.1,0.8l-0.9,2.6c-0.1,0.3-0.3,0.4-0.5,0.4h-0.6C-27.5-20.8-27.7-20.7-27.8-20.5"/>
	</g>
</g>
<g>
	<path class="st1" d="M-50.8,5.4c1.2,0,2.2-0.2,3.2-0.6c1-0.4,1.7-0.9,2.2-1.6L-44,4c-0.2,0.2-0.4,0.4-0.6,0.6
		c-1.7,1.5-3.8,2.3-6.2,2.3c-2.4,0-4.5-0.8-6.2-2.3c-0.2-0.2-0.4-0.4-0.6-0.6l1.5-0.7c0.3,0.4,0.7,0.8,1.2,1.1
		c0.5,0.3,1.1,0.6,1.9,0.8C-52.3,5.3-51.6,5.4-50.8,5.4"/>
	<polygon class="st1" points="-64.3,7.3 -63,6.7 -59.7,13.2 -61,13.9 	"/>
	<polygon class="st1" points="-38.7,6.7 -37.4,7.3 -40.7,13.9 -41.9,13.2 	"/>
	<path class="st2" d="M-65.1,7.7l0.8-0.4l3.3,6.5l-0.8,0.4c-0.1,0-0.2,0-0.3,0c-0.3,0-0.5-0.1-0.6-0.4l-2.6-5.2
		c-0.1-0.1-0.1-0.2-0.1-0.3C-65.5,8.1-65.3,7.8-65.1,7.7 M-44,4l5.4,2.7l-3.2,6.5l-0.5-0.2c-0.1-0.1-0.2-0.1-0.3-0.1
		c-0.2,0-0.4,0.1-0.5,0.2c-0.1,0.2-0.2,0.3-0.2,0.5v11.6c0,0.4-0.1,0.7-0.4,1c-0.3,0.3-0.6,0.4-1,0.4h-11.7c-0.4,0-0.7-0.1-1-0.4
		c-0.3-0.3-0.4-0.6-0.4-1V13.6c0-0.2-0.1-0.3-0.2-0.5c-0.1-0.2-0.3-0.2-0.5-0.2c-0.1,0-0.2,0-0.3,0.1l-0.5,0.2L-63,6.7l5.4-2.7
		c0.2,0.2,0.4,0.4,0.6,0.6c1.7,1.5,3.8,2.3,6.2,2.3c2.4,0,4.5-0.8,6.2-2.3C-44.4,4.4-44.2,4.2-44,4 M-36.6,7.7
		c0.3,0.1,0.4,0.3,0.4,0.6c0,0.1,0,0.2-0.1,0.3l-2.6,5.2c-0.1,0.3-0.3,0.4-0.6,0.4c-0.1,0-0.2,0-0.3,0h0l-0.8-0.4l3.3-6.5L-36.6,7.7
		z"/>
</g>
<g>
	<path class="st2" d="M22.3,41.9c-0.2,0-0.4,0.1-0.6,0.2c-0.2,0.2-0.2,0.4-0.2,0.6v0.8h-13v-0.8c0-0.2-0.1-0.4-0.2-0.6
		c-0.2-0.2-0.4-0.2-0.6-0.2c-0.2,0-0.4,0.1-0.6,0.2c-0.2,0.2-0.2,0.4-0.2,0.6v0.8H5.3c-0.9,0-1.7,0.3-2.3,1c-0.6,0.6-1,1.4-1,2.3
		v17.9c0,0.9,0.3,1.7,1,2.3c0.6,0.6,1.4,1,2.3,1h19.5c0.9,0,1.7-0.3,2.3-1c0.6-0.6,1-1.4,1-2.3V46.8c0-0.9-0.3-1.7-1-2.3
		c-0.6-0.6-1.4-1-2.3-1h-1.6v-0.8c0-0.2-0.1-0.4-0.2-0.6C22.7,42,22.5,41.9,22.3,41.9 M26.4,48.4v16.2c0,0.4-0.2,0.8-0.5,1.1
		c-0.3,0.3-0.7,0.5-1.1,0.5H5.3c-0.4,0-0.8-0.2-1.1-0.5s-0.5-0.7-0.5-1.1V48.4H26.4z"/>
	<rect x="7.4" y="51.6" class="st1" width="3.2" height="3.2"/>
	<rect x="13.9" y="51.6" class="st1" width="3.3" height="3.2"/>
	<rect x="20.4" y="51.6" class="st1" width="3.2" height="3.2"/>
	<rect x="7.4" y="59.2" class="st1" width="3.2" height="3.3"/>
	<rect x="13.9" y="59.2" class="st1" width="3.3" height="3.3"/>
	<rect x="20.4" y="59.2" class="st1" width="3.2" height="3.3"/>
</g>
<g>
	<path class="st10" d="M42.7,67l-0.5,0.5c-0.3,0.3-0.9,0.5-1.8,0.5c-0.9,0-1.7-0.3-2.3-1c-0.7-0.7-1-1.4-1-2.3V63h6.7v1.7
		C43.7,65.5,43.4,66.3,42.7,67 M35.8,49.1c0.6-2.7,1.5-4.6,2.6-5.9c1.1-1.2,2.4-1.9,3.7-1.9c1.1,0,2,0.4,2.8,1.3
		c0.8,0.9,1.3,2,1.7,3.3c0.4,1.4,0.5,2.8,0.5,4.5c0,1.9-0.6,3.7-1.7,5.4c-0.4,0.7-0.7,1.1-0.9,1.4c-0.2,0.3-0.3,0.8-0.5,1.5
		c-0.2,0.7-0.3,1.6-0.3,2.6h-6.7l-0.8-3c-0.5-1.6-0.7-2.9-0.8-4.2C35.3,52.4,35.4,50.7,35.8,49.1"/>
	<path class="st2" d="M59.4,67.4l-0.5,0.5c-0.3,0.3-0.9,0.5-1.8,0.5c-0.9,0-1.7-0.3-2.3-1c-0.7-0.7-1-1.4-1-2.3v-1.7h6.7v1.7
		C60.4,66,60,66.8,59.4,67.4 M50.4,50.9c0-2.5,0.4-4.7,1.3-6.4c0.9-1.8,2.1-2.7,3.7-2.7c1.3,0,2.5,0.6,3.7,1.9
		c1.1,1.2,2,3.2,2.6,5.9c0.3,1.6,0.5,3.2,0.3,5c-0.1,1.2-0.3,2.6-0.8,4.2l-0.8,3h-6.7c0-1-0.1-1.8-0.3-2.6c-0.2-0.7-0.4-1.2-0.5-1.5
		c-0.2-0.3-0.4-0.7-0.9-1.4C50.9,54.6,50.4,52.8,50.4,50.9"/>
</g>
<g>
	<defs>
		<rect id="SVGID_7_" x="-64.6" y="-75.3" width="27.5" height="16.8"/>
	</defs>
	<clipPath id="SVGID_8_">
		<use xlink:href="#SVGID_7_"  style="overflow:visible;"/>
	</clipPath>
	<g class="st11">
		<defs>
			<rect id="SVGID_9_" x="-65.2" y="-75.4" width="28.7" height="17.1"/>
		</defs>
		<clipPath id="SVGID_10_">
			<use xlink:href="#SVGID_9_"  style="overflow:visible;"/>
		</clipPath>
		<g style="clip-path:url(#SVGID_10_);">
			
				<image style="overflow:visible;" width="168" height="100" xlink:href="B0365C2.jpg"  transform="matrix(0.1706 0 0 0.1706 -65.1675 -75.4408)">
			</image>
		</g>
	</g>
</g>
<g>
	<rect x="-65.2" y="-115.1" class="st4" width="28.8" height="17.6"/>
	<g>
		<defs>
			<rect id="SVGID_11_" x="-64.3" y="-115.1" width="26.8" height="17.6"/>
		</defs>
		<clipPath id="SVGID_12_">
			<use xlink:href="#SVGID_11_"  style="overflow:visible;"/>
		</clipPath>
		<rect x="-64.3" y="-115.8" class="st12" width="26.8" height="19.1"/>
		<path class="st13" d="M-50.8-102.7c0.1-0.1,0.2-0.3,0.2-0.4c-0.1,0-0.2-0.1-0.3-0.1c0.5,0.1,0.6-0.5,1.1-0.3
			c0-0.1,0.1-0.1,0.2-0.1l0.1,0.2c0.2,0.1,0.1-0.3,0.4-0.2c0.1-0.1,0-0.3,0.1-0.4c0-0.1,0.1-0.2,0.1-0.4c0.1,0.1,0.1,0.2,0.2,0.1
			c0.1-0.1,0.2-0.2,0.2-0.3c0-0.2-0.1-0.4,0.1-0.5v-0.1c0.1-0.1,0.5,0.1,0.5-0.2c0-0.1,0.1,0,0.1-0.1c0.1,0,0.2,0,0.3,0
			c0.1-0.2-0.1-0.3-0.2-0.5c0.1-0.1,0.1-0.3,0-0.4l-0.1,0c0.1,0,0.3,0,0.5-0.1l0.2-0.1c0.1,0.1,0.2,0.1,0.4,0.1
			c0.1-0.1,0-0.2,0.1-0.3c0.1,0,0.2,0,0.3-0.1l0,0c0.1,0.2,0.4,0.1,0.5,0.2c0.2,0,0.2-0.2,0.3-0.3c0-0.3-0.3-0.4-0.2-0.7
			c-0.1-0.1-0.2-0.3-0.3-0.4c0,0,0-0.1,0-0.1c-0.1-0.1,0-0.3-0.2-0.3c0-0.1-0.2-0.1-0.2-0.2c0.2-0.2-0.1-0.3-0.1-0.5
			c-0.1-0.1-0.3,0.1-0.3-0.1c-0.1,0-0.2,0.1-0.3,0c0-0.1,0.1-0.2,0.1-0.3c0.2,0,0.2-0.2,0.3-0.3l0.2-0.2c-0.2-0.1-0.4,0-0.7-0.1
			c-0.1,0,0,0.1-0.1,0.1c-0.1,0.1-0.2,0.1-0.3,0.1c0-0.1-0.1-0.1-0.1-0.2c0,0,0-0.1,0-0.1c-0.2,0-0.1,0.1-0.3,0.1
			c-0.2-0.1,0-0.3-0.3-0.3c0-0.2-0.4-0.4-0.1-0.6c0,0,0-0.1,0-0.2c-0.2-0.1-0.5-0.1-0.7,0c-0.2,0-0.1,0.2-0.1,0.3
			c-0.1,0.1-0.2,0.2-0.2,0.3c-0.1,0-0.2,0.1-0.3,0.2c-0.3-0.3-0.6-0.5-1-0.5c-0.2-0.1-0.3-0.4-0.5-0.3c-0.1-0.2-0.4,0-0.4-0.2
			c-0.1,0-0.1-0.2-0.1-0.3c0-0.2,0-0.3,0.2-0.5c0.1-0.1-0.1-0.1-0.1-0.3c0,0,0-0.1,0-0.1c-0.1,0-0.1-0.1-0.1-0.1c0,0-0.1,0-0.1-0.1
			c0-0.1-0.2-0.1-0.3-0.2c-0.1,0-0.2,0-0.2,0.1c0-0.1-0.1-0.2-0.2-0.2c-0.2,0-0.1,0.1-0.2,0.2c0,0.2-0.1,0.2-0.1,0.4
			c0.1,0.1,0.3,0.2,0.3,0.4c-0.1,0.2-0.1,0.4-0.2,0.6c-0.1,0.1-0.2,0.2-0.2,0.4c0.1,0.1,0,0.3-0.1,0.5c0,0.1-0.1,0.2-0.1,0.4
			c-0.2,0.1-0.2,0.4-0.5,0.5c-0.2,0-0.2,0.3-0.4,0.2c0,0-0.1,0.1-0.1,0.1c-0.1-0.1-0.3,0-0.5,0c-0.1,0.2,0.1,0.5-0.2,0.6v0.1
			c0,0,0.1,0,0.1,0c0,0.1-0.2,0.2-0.1,0.3c-0.1,0-0.1,0.1-0.1,0.2c-0.1,0.3-0.6,0.3-0.7,0.6c0.1,0.1,0.1,0.1,0.1,0.2
			c-0.1,0.1-0.1,0.2-0.1,0.4c0.1,0,0.1,0.1,0.1,0.2c-0.1,0.1-0.2,0.1-0.3,0.1c-0.2,0-0.3,0.2-0.4,0.2c0,0,0,0.1,0,0.1
			c0.2,0.1,0,0.4,0.2,0.3c0.1,0.1,0.2,0.1,0.3,0.2c0.1,0,0.2,0,0.3,0c0.1-0.1,0.2-0.1,0.3-0.2c0.1,0,0.2,0.1,0.3,0
			c0,0.2,0.1,0.3,0.2,0.4c0,0.1,0.1,0.1,0.2,0.1c0.2,0,0.3,0,0.5,0.1c0.1,0,0.1,0,0.2,0c0.1,0,0.2,0,0.3-0.1c0,0.2,0.3,0,0.4,0.3
			c0.1,0.1-0.2,0.2-0.2,0.3c0,0.1,0.1,0.2,0.1,0.3c0.1,0,0.1,0.1,0.2,0c0.2,0.1,0,0.5,0.4,0.4c0,0,0-0.1,0-0.1
			c0.1,0,0.1,0.1,0.2,0.2c0,0.1,0,0.3,0.1,0.4c0.1,0,0.1,0,0.1,0.1c0,0.1-0.1,0.2-0.1,0.2c0,0-0.1,0-0.1,0c0,0.1-0.1,0.2-0.1,0.3
			c-0.1,0-0.1,0.1-0.1,0.1c0.1,0.1,0,0.3,0.2,0.2c0.1,0.1,0.2,0,0.3,0.1c0.2,0.1,0.5,0.1,0.6,0.3c0.1,0,0.1,0.1,0.2,0
			C-51-102.7-50.8-102.6-50.8-102.7"/>
		<polygon class="st14" points="-49.3,-100.2 -49.6,-99.4 -49.9,-100.2 -50.7,-100.2 -50,-100.7 -50.3,-101.5 -49.6,-101 
			-48.9,-101.5 -49.2,-100.7 -48.5,-100.2 		"/>
		<polygon class="st14" points="-46.7,-100.7 -47,-99.9 -47.2,-100.7 -48.1,-100.7 -47.4,-101.2 -47.7,-101.9 -47,-101.5 
			-46.3,-101.9 -46.6,-101.2 -45.9,-100.7 		"/>
		<polygon class="st14" points="-44.2,-101.6 -44.5,-100.8 -44.7,-101.6 -45.6,-101.6 -44.9,-102.1 -45.1,-102.9 -44.5,-102.4 
			-43.8,-102.9 -44.1,-102.1 -43.4,-101.6 		"/>
		<polygon class="st14" points="-52,-100.2 -52.3,-99.4 -52.5,-100.2 -53.4,-100.2 -52.7,-100.7 -52.9,-101.5 -52.3,-101 
			-51.6,-101.5 -51.9,-100.7 -51.2,-100.2 		"/>
		<polygon class="st14" points="-54.6,-100.7 -54.9,-99.9 -55.2,-100.7 -56,-100.7 -55.3,-101.2 -55.6,-101.9 -54.9,-101.5 
			-54.2,-101.9 -54.5,-101.2 -53.8,-100.7 		"/>
		<polygon class="st14" points="-57.1,-101.6 -57.4,-100.8 -57.7,-101.6 -58.5,-101.6 -57.8,-102.1 -58.1,-102.9 -57.4,-102.4 
			-56.7,-102.9 -57,-102.1 -56.3,-101.6 		"/>
	</g>
</g>
<g>
	<path class="st15" d="M-36-148.8c0,8.2-6.6,14.8-14.8,14.8s-14.8-6.6-14.8-14.8c0-8.2,6.6-14.8,14.8-14.8S-36-157-36-148.8"/>
	<g>
		<defs>
			<rect id="SVGID_13_" x="-61.1" y="-160.6" width="20.5" height="23.6"/>
		</defs>
		<clipPath id="SVGID_14_">
			<use xlink:href="#SVGID_13_"  style="overflow:visible;"/>
		</clipPath>
		<g style="clip-path:url(#SVGID_14_);">
			
				<image style="overflow:visible;" width="1779" height="2048" xlink:href="B0365C2.png"  transform="matrix(1.153737e-02 0 0 1.153737e-02 -61.086 -160.5791)">
			</image>
		</g>
	</g>
</g>
<path class="st2" d="M137.2-148.9C137.2-148.9,137.1-148.9,137.2-148.9c0-0.3,0-0.4,0-0.6c0-7.4-6-13.5-13.5-13.5
	c-7.4,0-13.5,6-13.5,13.5c0,7.4,6,13.5,13.5,13.5c7.1,0,12.8-5.4,13.4-12.4C137.2-148.5,137.2-148.7,137.2-148.9 M134-144.1
	C134-144.1,134-144.1,134-144.1h-2c-0.9,0-1.6,0-2.2,0.1c-0.3,0-0.6,0.1-0.9,0.2l-1.9-2.2c0-0.1,0.1-0.2,0.1-0.3l0.9-2.9l-0.5-0.2
	l0.5,0.2c0-0.1,0-0.3,0.1-0.4l3.3-1.4c0.2,0.2,0.4,0.4,0.6,0.6c0.5,0.4,1,0.8,1.8,1.2l1.4,0.9C135.1-146.8,134.6-145.4,134-144.1
	 M118.7-143.9c-0.3-0.1-0.6-0.1-0.8-0.2c-0.6-0.1-1.3-0.1-2.2-0.1h-2l0,0.5h0v-0.5c-0.1,0-0.2,0-0.2,0c-0.7-1.3-1.1-2.6-1.3-4.1
	l1.5-1c0.7-0.5,1.3-0.9,1.8-1.2c0.2-0.2,0.4-0.4,0.6-0.6l3.2,1.4c0,0.1,0,0.3,0.1,0.4l0.5-0.2l-0.5,0.2l0.9,2.9
	c0,0.1,0.1,0.2,0.1,0.3L118.7-143.9z M123.1-152.5l-0.7-0.9l-2.3,1.8v0c-0.1,0.1-0.1,0.1-0.2,0.2l-3.2-1.3c0-0.3,0-0.6-0.1-0.9
	c-0.1-0.6-0.3-1.3-0.5-2.1l-0.5-2c0,0,0-0.1,0-0.1c0.9-0.8,1.9-1.6,3-2.1l1.7,1.2c0.7,0.5,1.3,0.9,1.8,1.2c0.2,0.1,0.5,0.3,0.8,0.3
	v3.4c-0.1,0.1-0.3,0.1-0.4,0.2 M131.8-157.7l-0.5,2c-0.2,0.8-0.4,1.5-0.5,2.1c0,0.3-0.1,0.6,0,0.9l-3.2,1.3
	c-0.1-0.1-0.1-0.2-0.2-0.2l-2.3-1.8c-0.1-0.1-0.3-0.1-0.4-0.2v-3.4c0.3-0.1,0.5-0.2,0.8-0.3c0.5-0.3,1.1-0.7,1.8-1.2v0l0,0l1.7-1.2
	c0,0,0.1-0.1,0.1-0.1C130-159.3,131-158.6,131.8-157.7C131.9-157.7,131.8-157.7,131.8-157.7 M120.7-149.7L120.7-149.7l-0.9,0.3
	L120.7-149.7z M126.7-149.7l0.8,0.3L126.7-149.7z M122-138l-0.7-2.1c-0.3-0.8-0.5-1.5-0.7-2c-0.1-0.2-0.2-0.5-0.4-0.7l1.6-2.1
	c0.2,0,0.3,0.1,0.5,0.1h2.8v-0.9v0v0.9c0.2,0,0.3,0,0.5-0.1l1.8,2.1c-0.1,0.2-0.3,0.4-0.4,0.7c-0.2,0.5-0.5,1.2-0.7,2l-0.7,2
	c-0.6,0.1-1.3,0.2-1.9,0.2C123.1-137.9,122.6-137.9,122-138"/>
<g>
	<path class="st2" d="M163.2-162.6c-0.2,0-0.4,0.1-0.6,0.2c-0.2,0.2-0.2,0.4-0.2,0.6v0.8h-13.1v-0.8c0-0.2-0.1-0.4-0.2-0.6
		c-0.2-0.2-0.4-0.2-0.6-0.2c-0.2,0-0.4,0.1-0.6,0.2c-0.2,0.2-0.2,0.4-0.2,0.6v0.8H146c-0.9,0-1.7,0.3-2.3,1c-0.6,0.6-1,1.5-1,2.3
		v18.1c0,0.9,0.3,1.7,1,2.3c0.6,0.6,1.5,1,2.3,1h19.7c0.9,0,1.7-0.3,2.3-1c0.6-0.6,1-1.5,1-2.3v-18.1c0-0.9-0.3-1.7-1-2.3
		c-0.6-0.6-1.5-1-2.3-1H164v-0.8c0-0.2-0.1-0.4-0.2-0.6C163.6-162.5,163.4-162.6,163.2-162.6 M167.3-156v16.4c0,0.4-0.2,0.9-0.5,1.2
		c-0.3,0.3-0.7,0.5-1.2,0.5H146c-0.4,0-0.9-0.2-1.2-0.5c-0.3-0.3-0.5-0.7-0.5-1.2V-156H167.3z"/>
	<rect x="148.2" y="-152.8" class="st1" width="3.3" height="3.3"/>
	<rect x="154.7" y="-152.8" class="st1" width="3.3" height="3.3"/>
	<rect x="161.3" y="-152.8" class="st1" width="3.3" height="3.3"/>
	<rect x="148.2" y="-145.1" class="st1" width="3.3" height="3.3"/>
	<rect x="154.7" y="-145.1" class="st1" width="3.3" height="3.3"/>
	<rect x="161.3" y="-145.1" class="st1" width="3.3" height="3.3"/>
</g>
<g>
	<path class="st2" d="M-11.9-78.2c0,0.7-0.3,1.5-0.8,2c-0.5,0.5-1.2,0.8-2,0.8c-0.7,0-1.5-0.3-2-0.8c-0.5-0.5-0.8-1.2-0.8-2
		c0-0.7,0.3-1.5,0.8-2c0.5-0.5,1.2-0.8,2-0.8c0.7,0,1.5,0.3,2,0.8C-12.2-79.7-11.9-78.9-11.9-78.2 M-8.5-69.6l-3.6-3.6
		c-0.1-0.1-0.2-0.2-0.3-0.2c-0.1-0.1-0.2-0.1-0.4-0.1H-26c-0.2,0-0.5,0.1-0.7,0.3c-0.2,0.2-0.3,0.4-0.3,0.7c0,0.2,0.1,0.5,0.3,0.7
		c0.2,0.2,0.4,0.3,0.7,0.3h5l-6,11.8c0,0.1,0,0.3,0,0.4c0,0.2,0,0.5,0.1,0.7c0.1,0.2,0.4,0.4,0.6,0.4c0.2,0.1,0.5,0,0.7-0.1
		s0.4-0.3,0.4-0.6l1.9-3.2h3.7l-3.6,7.9c-0.1,0.1-0.1,0.3-0.1,0.5c0,0.2,0,0.5,0.2,0.7c0.1,0.2,0.4,0.3,0.6,0.4c0.2,0,0.5,0,0.7-0.1
		c0.2-0.1,0.4-0.3,0.4-0.6l8.8-17.5l2.7,2.8c0.2,0.2,0.4,0.2,0.6,0.2c0.2,0,0.5-0.1,0.6-0.3c0.2-0.2,0.3-0.4,0.3-0.6
		C-8.3-69.2-8.3-69.4-8.5-69.6"/>
	<path class="st2" d="M-10.9-61.6c2,0,3.6,1.6,3.6,3.6c0,2-1.6,3.6-3.6,3.6c-2,0-3.6-1.6-3.6-3.6C-14.5-60-12.9-61.6-10.9-61.6"/>
</g>
<g>
	<path class="st2" d="M15,11.4c-4.2,0-7.5,3.3-7.5,7.4c0,4.1,3.4,7.4,7.5,7.4s7.5-3.3,7.5-7.4C22.5,14.7,19.2,11.4,15,11.4
		 M20.4,18.7c0,0.7-0.1,1.4-0.4,2c0,0,0,0,0,0c-0.1,0.1-0.2,0.1-0.2,0.2c-0.1-0.4-0.4-0.9-0.8-1.4c0.1-0.4,0.1-1.8,0-2.2
		c0.3-0.3,0.6-0.7,0.8-0.9c0.1,0,0.1,0.1,0.2,0.1C20.2,17.2,20.4,18,20.4,18.7 M10.3,19.6c0.3,0.2,1.1,0.5,1.6,0.6
		c0.1,0.2,0.2,0.6,0.5,1.1c0.2,0.4,0.5,0.7,0.7,0.9c-0.3,0.5-0.4,0.8-0.3,1.1c-0.3,0-0.5-0.1-0.8-0.2c-0.8-0.5-1.5-1.3-1.9-2.2
		C10.1,20.6,10.1,20.1,10.3,19.6 M13,13.8c0.1,0.2,0.2,0.5,0.3,0.7c-0.2,0.2-1,1.1-1.3,1.9c-0.4,0.1-1.2,0.2-1.6,0.7
		c-0.2,0-0.3-0.1-0.5-0.1C10.4,15.5,11.6,14.4,13,13.8 M19.6,16.3c-0.1,0.2-0.5,0.7-0.8,1c-0.4-0.3-1.5-0.8-1.8-0.9
		c-0.1-0.3-0.3-0.8-0.5-1.2c-0.2-0.3-0.4-0.6-0.6-0.7c0.2-0.2,0.5-0.5,0.8-0.7c1.2,0.4,2.2,1.2,2.8,2.2
		C19.6,16.1,19.6,16.2,19.6,16.3 M18.4,22.8c-0.3,0.2-1.1,0.6-2,0.5c-0.2-0.2-0.5-0.7-0.7-1c0,0,0-0.1-0.1-0.1
		c0.6-0.6,1-1.7,1.2-2.1c0.7,0,1.4-0.2,2-0.5c0.2,0.2,0.3,0.4,0.5,0.6c0.2,0.3,0.3,0.5,0.3,0.7c-0.2,0.4-0.5,1.1-0.9,1.6
		C18.6,22.7,18.5,22.8,18.4,22.8 M16.4,15.3c0.2,0.4,0.4,0.8,0.5,1.1c-0.1,0.1-0.2,0.3-0.3,0.4c-0.3,0.4-0.7,0.9-1,1.3
		c-0.4-0.1-1.6-0.3-2.4,0c-0.2-0.3-0.3-0.5-0.5-0.8c-0.1-0.2-0.2-0.3-0.3-0.5c-0.1-0.1-0.1-0.2-0.2-0.3c0.1-0.5,0.5-1,0.7-1.3
		c0.2-0.2,0.3-0.4,0.4-0.5c0.1-0.1,0.1-0.1,0.1-0.1c0.8-0.1,1.6-0.1,2.4,0C16,14.7,16.2,14.9,16.4,15.3 M13.1,18.2
		c0.5-0.1,1.1-0.1,1.6-0.1c0.2,0,0.4,0,0.7,0.1c0.1,0,0.2,0,0.2,0c0.1,0.2,0.2,0.4,0.4,0.6c0.2,0.3,0.4,0.6,0.7,1
		c0.1,0.1,0.1,0.2,0.1,0.3c0,0,0,0.1,0,0.1c-0.1,0.4-0.5,1.4-1.1,1.9c-0.9,0.1-1.7,0.1-2.3,0c-0.3-0.2-0.5-0.6-0.7-0.9
		c-0.2-0.3-0.3-0.6-0.4-0.8c0-0.1-0.1-0.2-0.1-0.3c0,0,0,0,0,0C12.3,19.4,12.7,18.8,13.1,18.2 M12.5,23.4c0.1,0,0.3,0.1,0.4,0.1
		c0.1,0.1,0.2,0.2,0.4,0.3C13,23.6,12.7,23.5,12.5,23.4 M9.6,18.7c0-0.6,0.1-1.1,0.3-1.6c0.2,0,0.3,0.1,0.5,0.1
		c-0.2,0.5-0.3,1.8-0.1,2.2C10,19.8,10,20.3,10,20.6C9.7,20,9.6,19.4,9.6,18.7"/>
	<path class="st2" d="M29.6,23.1h-2.2v-17H2.9v17H0.4V3.6h29.3V23.1z M27.9,22.6h1.2V4.1H0.9v18.5h1.5v-17h25.5V22.6z"/>
	<polygon class="st2" points="2.8,23.1 2.5,22.6 6.2,20.3 6.2,8.8 2.5,6.1 2.8,5.7 6.7,8.6 6.7,20.6 	"/>
	<polygon class="st2" points="27.5,23.1 23.6,20.6 23.6,8.6 27.5,5.7 27.8,6.1 24.1,8.8 24.1,20.3 27.8,22.6 	"/>
	<rect x="6.4" y="8.5" class="st2" width="17.4" height="0.5"/>
	<rect x="2.6" y="14.4" class="st2" width="5.6" height="0.5"/>
	<rect x="22.1" y="14.4" class="st2" width="5.6" height="0.5"/>
	<rect x="11.9" y="8.7" class="st2" width="0.5" height="2.7"/>
	<rect x="17.9" y="8.7" class="st2" width="0.5" height="2.7"/>
	<rect x="6.4" y="20.2" class="st2" width="0.9" height="0.5"/>
	<rect x="22.9" y="20.2" class="st2" width="0.9" height="0.5"/>
</g>
<g>
	<path class="st16" d="M-57-34.3c0-1.6,0.7-3,1.8-4.1c1.2-1.1,2.7-1.7,4.4-1.7c1.6,0,3.2,0.6,4.4,1.7c1.2,1.1,1.8,2.6,1.8,4.1
		s-0.7,3-1.8,4.1c-1.2,1.1-2.7,1.7-4.4,1.7c-1.6,0-3.2-0.6-4.4-1.7C-56.3-31.3-57-32.7-57-34.3 M-57-25.5c-2,0-4,0.8-5.5,2.1
		c-1.4,1.4-2.3,3.2-2.3,5.2c0,1.2,0.5,2.3,1.4,3.1c0.9,0.8,2,1.3,3.3,1.3h18.5c1.2,0,2.4-0.5,3.3-1.3c0.9-0.8,1.4-1.9,1.4-3.1
		c0-1.9-0.8-3.8-2.3-5.2c-1.4-1.4-3.4-2.1-5.5-2.1H-57z"/>
</g>
<g>
	<defs>
		<rect id="SVGID_15_" x="79.1" y="-161.3" width="21.9" height="23.6"/>
	</defs>
	<clipPath id="SVGID_16_">
		<use xlink:href="#SVGID_15_"  style="overflow:visible;"/>
	</clipPath>
	<g class="st17">
		<defs>
			<rect id="SVGID_17_" x="79.1" y="-161.3" width="21.9" height="23.6"/>
		</defs>
		<clipPath id="SVGID_18_">
			<use xlink:href="#SVGID_17_"  style="overflow:visible;"/>
		</clipPath>
		<g style="clip-path:url(#SVGID_18_);">
			
				<image style="overflow:visible;" width="950" height="1024" xlink:href="B0365C6.png"  transform="matrix(2.301777e-02 0 0 2.301777e-02 79.066 -161.2555)">
			</image>
		</g>
	</g>
</g>
<g>
	<defs>
		<rect id="SVGID_19_" x="38.2" y="-160.9" width="21.1" height="24.3"/>
	</defs>
	<clipPath id="SVGID_20_">
		<use xlink:href="#SVGID_19_"  style="overflow:visible;"/>
	</clipPath>
	<g class="st18">
		<defs>
			<rect id="SVGID_21_" x="38.2" y="-160.9" width="21.1" height="24.2"/>
		</defs>
		<clipPath id="SVGID_22_">
			<use xlink:href="#SVGID_21_"  style="overflow:visible;"/>
		</clipPath>
		<g style="clip-path:url(#SVGID_22_);">
			
				<image style="overflow:visible;" width="1779" height="2048" xlink:href="B0365C5.png"  transform="matrix(1.184026e-02 0 0 1.184026e-02 38.1739 -160.8893)">
			</image>
		</g>
	</g>
</g>
</svg>
