<?xml version="1.0" encoding="utf-8"?>
<!-- Generator: Adobe Illustrator 23.0.5, SVG Export Plug-In . SVG Version: 6.00 Build 0)  -->
<svg version="1.1" id="Layer_1" xmlns="http://www.w3.org/2000/svg" xmlns:xlink="http://www.w3.org/1999/xlink" x="0px" y="0px"
	 width="30px" height="30px" viewBox="0 0 30 30" style="enable-background:new 0 0 30 30;" xml:space="preserve">
<style type="text/css">
	.st0{fill:#141619;}
	.st1{fill:#6FB95D;}
	.st2{fill:#033A4A;}
	.st3{clip-path:url(#SVGID_2_);}
	.st4{fill:#2A4DA1;}
	.st5{fill:#D1A750;}
	.st6{fill:#FFFFFF;}
	.st7{fill:none;}
	.st8{clip-path:url(#SVGID_6_);fill:#6FB95D;}
	.st9{clip-path:url(#SVGID_6_);fill:#033A4A;}
	.st10{fill:#D6D5D5;}
	.st11{clip-path:url(#SVGID_8_);}
	.st12{clip-path:url(#SVGID_12_);fill:#2A4DA1;}
	.st13{clip-path:url(#SVGID_12_);fill:#D1A750;}
	.st14{clip-path:url(#SVGID_12_);fill:#FFFFFF;}
	.st15{fill:#F7F7F7;}
	.st16{fill-rule:evenodd;clip-rule:evenodd;fill:#033A4A;}
	.st17{clip-path:url(#SVGID_16_);}
	.st18{clip-path:url(#SVGID_20_);}
</style>
<g>
	<path class="st0" d="M-120.5,1.4h-10.7c-4.9,0-8.9,4-8.9,8.9v10.7c0,4.9,4,8.9,8.9,8.9h10.7c4.9,0,8.9-4,8.9-8.9V10.3
		C-111.4,5.4-115.4,1.4-120.5,1.4 M-114.2,21.1c0,3.5-2.8,6.3-6.3,6.3h-10.7c-3.5,0-6.3-2.8-6.3-6.3V10.3c0-3.5,2.8-6.3,6.3-6.3
		h10.7c3.5,0,6.3,2.8,6.3,6.3V21.1z"/>
	<path class="st0" d="M-125.8,8.6c-4,0-7.1,3.2-7.1,7.1c0,4,3.2,7.1,7.1,7.1c4,0,7.1-3.2,7.1-7.1C-118.7,11.8-121.8,8.6-125.8,8.6
		 M-125.8,20.2c-2.4,0-4.5-2-4.5-4.5c0-2.5,2-4.5,4.5-4.5c2.5,0,4.5,2,4.5,4.5C-121.3,18.2-123.3,20.2-125.8,20.2"/>
	<path class="st0" d="M-118,7.1c0.5,0,0.9,0.4,0.9,0.9S-117.5,9-118,9c-0.5,0-0.9-0.4-0.9-0.9C-119.1,7.5-118.7,7.1-118,7.1"/>
</g>
<g>
	<path class="st0" d="M-88.4,1.6H-99c-4.9,0-8.8,3.9-8.8,8.8V21c0,4.9,3.9,8.8,8.8,8.8h10.6c4.9,0,8.8-3.9,8.8-8.8V10.4
		C-79.5,5.6-83.5,1.6-88.4,1.6 M-82.2,21c0,3.4-2.8,6.2-6.2,6.2H-99c-3.4,0-6.2-2.8-6.2-6.2V10.4c0-3.4,2.8-6.2,6.2-6.2h10.6
		c3.4,0,6.2,2.8,6.2,6.2V21z"/>
	<path class="st0" d="M-92.3,13v-2.1c0-0.6,0.5-1.1,1.1-1.1h1.1V7.2h-2.1c-1.7,0-3.2,1.4-3.2,3.2V13h-2.1v2.7h2.1v8.5h3.2v-8.6h2.1
		l1.1-2.7L-92.3,13z"/>
</g>
<g>
	<path class="st1" d="M-123.4,219c0-0.4,0.2-0.6,0.6-0.6h6.7v2.4h-6.7c-0.4,0-0.6-0.2-0.6-0.6V219z M-123.4,226.3
		c0-0.4,0.2-0.6,0.6-0.6h6.7v2.4h-6.7c-0.4,0-0.6-0.2-0.6-0.6V226.3z M-123.4,211.7c0-0.4,0.2-0.6,0.6-0.6h6.7v2.4h-6.7
		c-0.4,0-0.6-0.2-0.6-0.6V211.7z"/>
	<path class="st2" d="M-116.1,211.1h-6.7c-0.4,0-0.6,0.2-0.6,0.6v1.2c0,0.4,0.2,0.6,0.6,0.6h6.7v4.9h-6.7c-0.4,0-0.6,0.2-0.6,0.6
		v1.2c0,0.4,0.2,0.6,0.6,0.6h6.7v4.9h-6.7c-0.4,0-0.6,0.2-0.6,0.6v1.2c0,0.4,0.2,0.6,0.6,0.6h6.7v2.7c0,0.7-0.2,1.2-0.7,1.7
		c-0.5,0.5-1.1,0.7-1.7,0.7h-14.6c-0.7,0-1.2-0.2-1.7-0.7c-0.5-0.5-0.7-1.1-0.7-1.7v-23c0-0.7,0.2-1.2,0.7-1.7
		c0.5-0.5,1.1-0.7,1.7-0.7h14.6c0.7,0,1.2,0.2,1.7,0.7c0.5,0.5,0.7,1.1,0.7,1.7V211.1z"/>
</g>
<g>
	<path class="st2" d="M-146.3,212.7v16.5c0,0.9-0.3,1.7-1,2.3c-0.7,0.7-1.4,1-2.3,1h-19.9c-0.9,0-1.7-0.3-2.3-1
		c-0.7-0.7-1-1.4-1-2.3v-16.5c0-0.9,0.3-1.7,1-2.3c0.7-0.7,1.4-1,2.3-1h1.3c-0.9,1.5-1.3,3.2-1.3,5c0,2.7,1,5.1,2.9,7
		c1.9,1.9,4.3,2.9,7,2.9c2.7,0,5.1-1,7-2.9c1.9-1.9,2.9-4.3,2.9-7c0-1.8-0.4-3.4-1.3-5h1.3c0.9,0,1.7,0.3,2.3,1
		C-146.6,211.1-146.3,211.8-146.3,212.7 M-159.5,218.9c-0.4,0-0.7-0.1-1-0.3c-0.3-0.2-0.6-0.4-0.8-0.7c-0.2-0.3-0.3-0.7-0.3-1
		c0-0.6,0.2-1.1,0.6-1.5c0.4-0.4,0.9-0.6,1.5-0.6l1.7-4c0.1-0.3,0.4-0.5,0.8-0.5c0.2,0,0.4,0.1,0.6,0.2c0.2,0.2,0.2,0.4,0.2,0.6
		c0,0.1,0,0.2-0.1,0.3l-1.8,4.1c0.4,0.4,0.6,0.8,0.6,1.4c0,0.6-0.2,1.1-0.6,1.5C-158.5,218.7-158.9,218.9-159.5,218.9"/>
	<path class="st1" d="M-153.7,220.2l-1.2,1.2c-0.8,0.8-2.4,1.2-4.6,1.2c-2.3,0-4.2-0.8-5.8-2.4c-1.6-1.6-2.4-3.6-2.4-5.8
		c0-2.3,0.8-4.2,2.4-5.8c1.6-1.6,3.6-2.4,5.8-2.4c2.3,0,4.2,0.8,5.8,2.4c1.6,1.6,2.4,3.6,2.4,5.8
		C-151.3,216.7-152.1,218.6-153.7,220.2 M-159.5,214.8c-0.6,0-1.1,0.2-1.5,0.6c-0.4,0.4-0.6,0.9-0.6,1.5c0,0.6,0.2,1.1,0.6,1.4
		c0.4,0.4,0.9,0.6,1.5,0.6c0.6,0,1.1-0.2,1.5-0.6c0.4-0.4,0.6-0.9,0.6-1.5c0-0.6-0.2-1-0.6-1.4l1.8-4.1c0-0.1,0.1-0.2,0.1-0.3
		c0-0.1,0-0.3-0.1-0.4c-0.1-0.1-0.2-0.2-0.3-0.3c-0.1-0.1-0.3-0.1-0.4-0.1c-0.4,0-0.6,0.2-0.8,0.5L-159.5,214.8z"/>
</g>
<g>
	<defs>
		<rect id="SVGID_1_" x="-139.8" y="49.2" width="27.9" height="17.1"/>
	</defs>
	<clipPath id="SVGID_2_">
		<use xlink:href="#SVGID_1_"  style="overflow:visible;"/>
	</clipPath>
	<g class="st3">
		<defs>
			<rect id="SVGID_3_" x="-140.4" y="49" width="29.1" height="17.3"/>
		</defs>
		<clipPath id="SVGID_4_">
			<use xlink:href="#SVGID_3_"  style="overflow:visible;"/>
		</clipPath>
		<g style="clip-path:url(#SVGID_4_);">
			
				<image style="overflow:visible;" width="168" height="100" xlink:href="2E8F0408.jpg"  transform="matrix(0.1731 0 0 0.1731 -140.3793 49.0219)">
			</image>
		</g>
	</g>
</g>
<g>
	<rect x="-108.1" y="48.8" class="st4" width="28.8" height="17.6"/>
	<rect x="-107.2" y="48.1" class="st4" width="26.8" height="19.1"/>
	<path class="st5" d="M-93.7,61.2c0.1-0.1,0.2-0.3,0.2-0.4c-0.1,0-0.2-0.1-0.3-0.1c0.5,0.1,0.6-0.5,1.1-0.3c0-0.1,0.1-0.1,0.2-0.1
		l0.1,0.2c0.2,0.1,0.1-0.3,0.4-0.2c0.1-0.1,0-0.3,0.1-0.4c0-0.1,0.1-0.2,0.1-0.4c0.1,0.1,0.1,0.2,0.2,0.1c0.1-0.1,0.2-0.2,0.2-0.3
		c0-0.2-0.1-0.4,0.1-0.5v-0.1c0.1-0.1,0.5,0.1,0.5-0.2c0-0.1,0.1,0,0.1-0.1c0.1,0,0.2,0,0.3,0c0.1-0.2-0.1-0.3-0.2-0.5
		c0.1-0.1,0.1-0.3,0-0.4l-0.1,0c0.1,0,0.3,0,0.5-0.1l0.2-0.1c0.1,0.1,0.2,0.1,0.4,0.1c0.1-0.1,0-0.2,0.1-0.3c0.1,0,0.2,0,0.3-0.1
		l0,0c0.1,0.2,0.4,0.1,0.5,0.2c0.2,0,0.2-0.2,0.3-0.3c0-0.3-0.3-0.4-0.2-0.7c-0.1-0.1-0.2-0.3-0.3-0.4c0,0,0-0.1,0-0.1
		c-0.1-0.1,0-0.3-0.2-0.3c0-0.1-0.2-0.1-0.2-0.2c0.1-0.2-0.1-0.3-0.1-0.5c-0.1-0.1-0.3,0.1-0.3-0.1c-0.1,0-0.2,0.1-0.3,0
		c0-0.1,0.1-0.2,0.1-0.3c0.2,0,0.2-0.2,0.3-0.3l0.2-0.2c-0.2-0.1-0.4,0-0.7-0.1c-0.1,0,0,0.1-0.1,0.1c-0.1,0.1-0.2,0.1-0.3,0.1
		c0-0.1-0.2-0.1-0.1-0.2c0,0,0-0.1,0-0.1c-0.2,0-0.1,0.1-0.3,0.1c-0.2-0.1,0-0.3-0.3-0.3c0-0.2-0.4-0.4-0.1-0.6c0,0,0-0.1,0-0.2
		c-0.2-0.1-0.5-0.1-0.7,0c-0.2,0-0.1,0.2-0.1,0.3c-0.1,0.1-0.2,0.2-0.2,0.3c-0.1,0-0.2,0.1-0.3,0.2c-0.3-0.3-0.6-0.5-1-0.5
		c-0.2-0.1-0.3-0.4-0.5-0.3c-0.1-0.2-0.4,0-0.4-0.2c-0.1,0-0.1-0.2-0.1-0.3c0-0.2,0-0.3,0.2-0.5c0.1-0.1-0.1-0.1-0.1-0.3
		c0,0,0-0.1,0-0.1c-0.1,0-0.1-0.1-0.1-0.1c0,0-0.1,0-0.1-0.1c0-0.1-0.2-0.1-0.3-0.2c-0.1,0-0.2,0-0.2,0.1c0-0.1-0.1-0.2-0.2-0.2
		c-0.1,0-0.1,0.1-0.2,0.2c0,0.2-0.1,0.2-0.1,0.4c0.1,0.1,0.3,0.2,0.3,0.4c-0.1,0.2-0.1,0.4-0.2,0.6c-0.1,0.1-0.2,0.2-0.2,0.4
		c0.1,0.1,0,0.3-0.1,0.5c0,0.1-0.1,0.2-0.1,0.4c-0.2,0.1-0.2,0.4-0.5,0.5c-0.2,0-0.2,0.3-0.4,0.2c0,0-0.1,0.1-0.1,0.1
		c-0.1-0.1-0.3,0-0.5,0c-0.1,0.2,0.1,0.5-0.2,0.6v0.1c0,0,0.1,0,0.1,0c0,0.1-0.2,0.2-0.1,0.3c-0.1,0-0.1,0.1-0.1,0.2
		c-0.1,0.3-0.6,0.3-0.7,0.6c0.1,0.1,0.1,0.1,0.1,0.2c-0.1,0.1-0.1,0.2-0.1,0.4c0.1,0,0.1,0.1,0.1,0.2c-0.1,0.1-0.2,0.1-0.3,0.1
		c-0.2,0-0.3,0.2-0.4,0.2c0,0,0,0.1,0,0.1c0.2,0.1,0,0.4,0.2,0.3c0.1,0.1,0.2,0.1,0.3,0.2c0.1,0,0.2,0,0.3,0
		c0.1-0.1,0.2-0.1,0.3-0.2c0.1,0,0.2,0.1,0.3,0c0,0.2,0.1,0.3,0.2,0.4c0,0.1,0.1,0.1,0.2,0.1c0.2,0,0.3,0,0.5,0.1c0.1,0,0.1,0,0.2,0
		c0.1,0,0.2,0,0.3-0.1c0,0.2,0.3,0,0.4,0.3c0.1,0.1-0.2,0.2-0.2,0.3c0,0.1,0.1,0.2,0.1,0.3c0.1,0,0.1,0.1,0.2,0
		c0.2,0.1,0,0.5,0.4,0.4c0,0,0-0.1,0-0.1c0.1,0,0.1,0.1,0.2,0.2c0,0.1,0,0.3,0.1,0.4c0.1,0,0.1,0,0.1,0.1c0,0.1-0.1,0.2-0.1,0.2
		c0,0-0.1,0-0.1,0c0,0.1-0.1,0.2-0.1,0.3c-0.1,0-0.1,0.1-0.1,0.1c0.1,0.1,0,0.3,0.2,0.2c0.1,0.1,0.2,0,0.3,0.1
		c0.2,0.1,0.5,0.1,0.6,0.3c0.1,0,0.1,0.1,0.2,0C-93.9,61.3-93.7,61.3-93.7,61.2"/>
	<polygon class="st6" points="-92.2,63.7 -92.5,64.5 -92.7,63.7 -93.6,63.7 -92.9,63.2 -93.2,62.5 -92.5,62.9 -91.8,62.5 
		-92.1,63.2 -91.4,63.7 	"/>
	<polygon class="st6" points="-89.6,63.3 -89.9,64.1 -90.1,63.3 -91,63.3 -90.3,62.8 -90.5,62 -89.9,62.5 -89.2,62 -89.4,62.8 
		-88.8,63.3 	"/>
	<polygon class="st6" points="-87.1,62.4 -87.4,63.2 -87.6,62.4 -88.4,62.4 -87.8,61.9 -88,61.1 -87.4,61.6 -86.7,61.1 -86.9,61.9 
		-86.3,62.4 	"/>
	<polygon class="st6" points="-94.9,63.7 -95.2,64.5 -95.4,63.7 -96.2,63.7 -95.6,63.2 -95.8,62.5 -95.2,62.9 -94.5,62.5 
		-94.7,63.2 -94.1,63.7 	"/>
	<polygon class="st6" points="-97.5,63.3 -97.8,64.1 -98,63.3 -98.9,63.3 -98.2,62.8 -98.5,62 -97.8,62.5 -97.1,62 -97.4,62.8 
		-96.7,63.3 	"/>
	<polygon class="st6" points="-100,62.4 -100.3,63.2 -100.5,62.4 -101.4,62.4 -100.7,61.9 -101,61.1 -100.3,61.6 -99.6,61.1 
		-99.9,61.9 -99.2,62.4 	"/>
	<rect x="-107.2" y="48.8" class="st7" width="26.8" height="17.6"/>
</g>
<g>
	<path class="st2" d="M-71.2,71.7c-0.4,0-0.7-0.1-1-0.4c-0.3-0.3-0.4-0.6-0.4-1v-5.6c0-0.8,0.3-1.4,0.8-2c0.5-0.5,1.2-0.8,2-0.8
		h19.6c0.8,0,1.4,0.3,2,0.8c0.5,0.5,0.8,1.2,0.8,2v5.6c0,0.4-0.1,0.7-0.4,1c-0.3,0.3-0.6,0.4-1,0.4H-71.2z M-69.8,59.1v-4.2
		c0-0.8,0.3-1.4,0.8-2c0.6-0.5,1.2-0.8,2-0.8h5.6v-2c-0.4-0.3-0.8-0.6-1-1c-0.3-0.4-0.4-0.9-0.4-1.4c0-0.3,0.1-0.7,0.2-1
		c0.1-0.3,0.3-0.6,0.6-0.9l2-2l2,2c0.3,0.3,0.5,0.6,0.6,0.9c0.1,0.3,0.2,0.7,0.2,1c0,0.6-0.1,1-0.4,1.4c-0.3,0.4-0.6,0.7-1,1v2h5.6
		c0.8,0,1.4,0.3,2,0.8c0.6,0.5,0.8,1.2,0.8,2v4.2H-69.8z"/>
	<path class="st1" d="M-69.8,59.1v-4.2c0-0.8,0.3-1.4,0.8-2c0.6-0.5,1.2-0.8,2-0.8h5.6v-2c-0.4-0.3-0.8-0.6-1-1
		c-0.3-0.4-0.4-0.9-0.4-1.4c0-0.3,0.1-0.7,0.2-1c0.1-0.3,0.3-0.6,0.6-0.9l2-2l2,2c0.3,0.3,0.5,0.6,0.6,0.9c0.1,0.3,0.2,0.7,0.2,1
		c0,0.6-0.1,1-0.4,1.4c-0.3,0.4-0.6,0.7-1,1v2h5.6c0.8,0,1.4,0.3,2,0.8c0.6,0.5,0.8,1.2,0.8,2v4.2H-69.8z"/>
</g>
<g>
	<g>
		<defs>
			<rect id="SVGID_5_" x="-139.9" y="125" width="28.1" height="25"/>
		</defs>
		<clipPath id="SVGID_6_">
			<use xlink:href="#SVGID_5_"  style="overflow:visible;"/>
		</clipPath>
		<path class="st8" d="M-121.1,130.9v0.3h-5.5c-0.2,0-0.4-0.1-0.6-0.2c-0.1-0.1-0.2-0.3-0.2-0.6V125h0.3c0.3,0,0.6,0.1,0.8,0.3
			l4.8,4.8C-121.3,130.3-121.1,130.6-121.1,130.9 M-125.8,141.9l7.9-7.9l3.3,3.3l-7.9,8h-3.4V141.9z M-112.1,133.1
			c0.2,0.3,0.3,0.6,0.3,0.9c0,0.3-0.1,0.6-0.3,0.9l-1.4,1.4l-3.3-3.3l1.4-1.4c0.2-0.2,0.5-0.3,0.9-0.3c0.3,0,0.6,0.1,0.9,0.3
			L-112.1,133.1z"/>
		<path class="st9" d="M-136.5,143.9c0,0,0,0-0.1,0.1c-0.1,0.1-0.1,0.2-0.1,0.5c0,0.2,0.1,0.4,0.2,0.6c0.1,0.1,0.3,0.2,0.6,0.2h0.6
			c0.5,0,0.9-0.1,1.3-0.4c0.4-0.3,0.6-0.6,0.7-1.1l0.5-1.5l0.8,2.4c0.1,0.3,0.3,0.5,0.7,0.5c0.4,0,0.6-0.1,0.7-0.4l0.4-0.7
			c0.1-0.2,0.3-0.3,0.5-0.3c0.2,0,0.4,0.1,0.5,0.3c0.4,0.8,1,1.2,1.9,1.2h4.9l1.3-1.3v4.8c0,0.2,0,0.3-0.1,0.5
			c-0.1,0.1-0.1,0.3-0.2,0.4c-0.1,0.1-0.2,0.2-0.4,0.2c-0.1,0.1-0.3,0.1-0.5,0.1h-16.4c-0.3,0-0.6-0.1-0.8-0.3
			c-0.2-0.2-0.3-0.5-0.3-0.8v-22.6c0-0.3,0.1-0.6,0.3-0.8c0.2-0.2,0.5-0.3,0.8-0.3h11.3v5.5c0,0.2,0.1,0.4,0.2,0.6
			c0.1,0.1,0.3,0.2,0.6,0.2h5.5v6l-4.7,4.6v1.8h-1.6c-0.2,0-0.4-0.1-0.4-0.3c-0.3-0.6-0.8-1-1.5-1.1c-0.7-0.1-1.3,0-1.7,0.4l-0.7-2
			c-0.2-0.6-0.6-0.8-1.1-0.8c-0.6,0-0.9,0.3-1.1,0.8l-0.9,2.6c-0.1,0.3-0.3,0.4-0.5,0.4h-0.6C-136.2,143.7-136.4,143.8-136.5,143.9"
			/>
	</g>
</g>
<g>
	<path class="st1" d="M-159.5,169.9c1.2,0,2.2-0.2,3.2-0.6c1-0.4,1.7-0.9,2.2-1.6l1.4,0.7c-0.2,0.2-0.4,0.4-0.6,0.6
		c-1.7,1.5-3.8,2.3-6.2,2.3s-4.5-0.8-6.2-2.3c-0.2-0.2-0.4-0.4-0.6-0.6l1.5-0.7c0.3,0.4,0.7,0.8,1.2,1.1c0.5,0.3,1.1,0.6,1.9,0.8
		C-161,169.8-160.3,169.9-159.5,169.9"/>
	<polygon class="st1" points="-173,171.8 -171.7,171.1 -168.4,177.7 -169.7,178.3 	"/>
	<polygon class="st1" points="-147.4,171.1 -146.1,171.8 -149.4,178.3 -150.6,177.7 	"/>
	<path class="st2" d="M-173.8,172.1l0.8-0.4l3.3,6.5l-0.8,0.4c-0.1,0-0.2,0-0.3,0c-0.3,0-0.5-0.1-0.6-0.4l-2.6-5.2
		c-0.1-0.1-0.1-0.2-0.1-0.3C-174.2,172.5-174,172.3-173.8,172.1 M-152.8,168.5l5.4,2.7l-3.2,6.5l-0.5-0.2c-0.1-0.1-0.2-0.1-0.3-0.1
		c-0.2,0-0.4,0.1-0.5,0.2c-0.1,0.2-0.2,0.3-0.2,0.5v11.6c0,0.4-0.1,0.7-0.4,1c-0.3,0.3-0.6,0.4-1,0.4h-11.7c-0.4,0-0.7-0.1-1-0.4
		c-0.3-0.3-0.4-0.6-0.4-1v-11.6c0-0.2-0.1-0.3-0.2-0.5c-0.1-0.2-0.3-0.2-0.5-0.2c-0.1,0-0.2,0-0.3,0.1l-0.5,0.2l-3.2-6.5l5.4-2.7
		c0.2,0.2,0.4,0.4,0.6,0.6c1.7,1.5,3.8,2.3,6.2,2.3c2.4,0,4.5-0.8,6.2-2.3C-153.1,168.9-152.9,168.7-152.8,168.5 M-145.3,172.2
		c0.3,0.1,0.4,0.3,0.4,0.6c0,0.1,0,0.2-0.1,0.3l-2.6,5.2c-0.1,0.3-0.3,0.4-0.6,0.4c-0.1,0-0.2,0-0.3,0h0l-0.8-0.4l3.3-6.5
		L-145.3,172.2z"/>
</g>
<g>
	<path class="st2" d="M-86.4,206.4c-0.2,0-0.4,0.1-0.6,0.2c-0.2,0.2-0.2,0.4-0.2,0.6v0.8h-13v-0.8c0-0.2-0.1-0.4-0.2-0.6
		c-0.2-0.2-0.4-0.2-0.6-0.2s-0.4,0.1-0.6,0.2c-0.2,0.2-0.2,0.4-0.2,0.6v0.8h-1.6c-0.9,0-1.7,0.3-2.3,1c-0.6,0.6-1,1.4-1,2.3v17.9
		c0,0.9,0.3,1.7,1,2.3c0.6,0.6,1.4,1,2.3,1H-84c0.9,0,1.7-0.3,2.3-1c0.6-0.6,1-1.4,1-2.3v-17.9c0-0.9-0.3-1.7-1-2.3
		c-0.6-0.6-1.4-1-2.3-1h-1.6v-0.8c0-0.2-0.1-0.4-0.2-0.6C-86,206.4-86.2,206.4-86.4,206.4 M-82.3,212.9v16.2c0,0.4-0.2,0.8-0.5,1.1
		c-0.3,0.3-0.7,0.5-1.1,0.5h-19.5c-0.4,0-0.8-0.2-1.1-0.5c-0.3-0.3-0.5-0.7-0.5-1.1v-16.2H-82.3z"/>
	<rect x="-101.3" y="216.1" class="st1" width="3.2" height="3.2"/>
	<rect x="-94.8" y="216.1" class="st1" width="3.3" height="3.2"/>
	<rect x="-88.3" y="216.1" class="st1" width="3.2" height="3.2"/>
	<rect x="-101.3" y="223.7" class="st1" width="3.2" height="3.3"/>
	<rect x="-94.8" y="223.7" class="st1" width="3.3" height="3.3"/>
	<rect x="-88.3" y="223.7" class="st1" width="3.2" height="3.3"/>
</g>
<g>
	<path class="st10" d="M-66,231.5l-0.5,0.5c-0.3,0.3-0.9,0.5-1.8,0.5c-0.9,0-1.7-0.3-2.3-1c-0.7-0.7-1-1.4-1-2.3v-1.7h6.7v1.7
		C-65,230-65.3,230.8-66,231.5 M-73,213.6c0.6-2.7,1.5-4.6,2.6-5.9c1.1-1.2,2.4-1.9,3.7-1.9c1.1,0,2,0.4,2.8,1.3
		c0.8,0.9,1.3,2,1.7,3.3c0.4,1.4,0.5,2.8,0.5,4.5c0,1.9-0.6,3.7-1.7,5.4c-0.4,0.7-0.7,1.1-0.9,1.4c-0.2,0.3-0.3,0.8-0.5,1.5
		c-0.2,0.7-0.3,1.6-0.3,2.6h-6.7l-0.8-3c-0.5-1.6-0.7-2.9-0.8-4.2C-73.4,216.8-73.3,215.2-73,213.6"/>
	<path class="st2" d="M-49.3,231.9l-0.5,0.5c-0.3,0.3-0.9,0.5-1.8,0.5c-0.9,0-1.7-0.3-2.3-1c-0.7-0.7-1-1.4-1-2.3v-1.7h6.7v1.7
		C-48.3,230.5-48.7,231.2-49.3,231.9 M-58.3,215.4c0-2.5,0.4-4.7,1.3-6.4c0.9-1.8,2.1-2.7,3.7-2.7c1.3,0,2.5,0.6,3.7,1.9
		c1.1,1.2,2,3.2,2.6,5.9c0.3,1.6,0.5,3.2,0.3,5c-0.1,1.2-0.3,2.6-0.8,4.2l-0.8,3H-55c0-1-0.1-1.8-0.3-2.6c-0.2-0.7-0.4-1.2-0.5-1.5
		c-0.2-0.3-0.4-0.7-0.9-1.4C-57.8,219.1-58.3,217.3-58.3,215.4"/>
</g>
<g>
	<defs>
		<rect id="SVGID_7_" x="-173.3" y="89.2" width="27.5" height="16.8"/>
	</defs>
	<clipPath id="SVGID_8_">
		<use xlink:href="#SVGID_7_"  style="overflow:visible;"/>
	</clipPath>
	<g class="st11">
		<defs>
			<rect id="SVGID_9_" x="-173.9" y="89" width="28.7" height="17.1"/>
		</defs>
		<clipPath id="SVGID_10_">
			<use xlink:href="#SVGID_9_"  style="overflow:visible;"/>
		</clipPath>
		<g style="clip-path:url(#SVGID_10_);">
			
				<image style="overflow:visible;" width="168" height="100" xlink:href="2E8F0409.jpg"  transform="matrix(0.1706 0 0 0.1706 -173.8734 89.0298)">
			</image>
		</g>
	</g>
</g>
<g>
	<rect x="-173.9" y="48.9" class="st4" width="28.8" height="17.6"/>
	<g>
		<defs>
			<rect id="SVGID_11_" x="-173" y="48.9" width="26.8" height="17.6"/>
		</defs>
		<clipPath id="SVGID_12_">
			<use xlink:href="#SVGID_11_"  style="overflow:visible;"/>
		</clipPath>
		<rect x="-173" y="48.2" class="st12" width="26.8" height="19.1"/>
		<path class="st13" d="M-159.5,61.3c0.1-0.1,0.2-0.3,0.2-0.4c-0.1,0-0.2-0.1-0.3-0.1c0.5,0.1,0.6-0.5,1.1-0.3
			c0-0.1,0.1-0.1,0.2-0.1l0.1,0.2c0.2,0.1,0.1-0.3,0.4-0.2c0.1-0.1,0-0.3,0.1-0.4c0-0.1,0.1-0.2,0.1-0.4c0.1,0.1,0.1,0.2,0.2,0.1
			c0.1-0.1,0.2-0.2,0.2-0.3c0-0.2-0.1-0.4,0.1-0.5v-0.1c0.1-0.1,0.5,0.1,0.5-0.2c0-0.1,0.1,0,0.1-0.1c0.1,0,0.2,0,0.3,0
			c0.1-0.2-0.1-0.3-0.2-0.5c0.1-0.1,0.1-0.3,0-0.4l-0.1,0c0.1,0,0.3,0,0.5-0.1l0.2-0.1c0.1,0.1,0.2,0.1,0.4,0.1
			c0.1-0.1,0-0.2,0.1-0.3c0.1,0,0.2,0,0.3-0.1l0,0c0.1,0.2,0.4,0.1,0.5,0.2c0.2,0,0.2-0.2,0.3-0.3c0-0.3-0.3-0.4-0.2-0.7
			c-0.1-0.1-0.2-0.3-0.3-0.4c0,0,0-0.1,0-0.1c-0.1-0.1,0-0.3-0.2-0.3c0-0.1-0.2-0.1-0.2-0.2c0.2-0.2-0.1-0.3-0.1-0.5
			c-0.1-0.1-0.3,0.1-0.3-0.1c-0.1,0-0.2,0.1-0.3,0c0-0.1,0.1-0.2,0.1-0.3c0.2,0,0.2-0.2,0.3-0.3l0.2-0.2c-0.2-0.1-0.4,0-0.7-0.1
			c-0.1,0,0,0.1-0.1,0.1c-0.1,0.1-0.2,0.1-0.3,0.1c0-0.1-0.1-0.1-0.1-0.2c0,0,0-0.1,0-0.1c-0.2,0-0.1,0.1-0.3,0.1
			c-0.2-0.1,0-0.3-0.3-0.3c0-0.2-0.4-0.4-0.1-0.6c0,0,0-0.1,0-0.2c-0.2-0.1-0.5-0.1-0.7,0c-0.2,0-0.1,0.2-0.1,0.3
			c-0.1,0.1-0.2,0.2-0.2,0.3c-0.1,0-0.2,0.1-0.3,0.2c-0.3-0.3-0.6-0.5-1-0.5c-0.2-0.1-0.3-0.4-0.5-0.3c-0.1-0.2-0.4,0-0.4-0.2
			c-0.1,0-0.1-0.2-0.1-0.3c0-0.2,0-0.3,0.2-0.5c0.1-0.1-0.1-0.1-0.1-0.3c0,0,0-0.1,0-0.1c-0.1,0-0.1-0.1-0.1-0.1c0,0-0.1,0-0.1-0.1
			c0-0.1-0.2-0.1-0.3-0.2c-0.1,0-0.2,0-0.2,0.1c0-0.1-0.1-0.2-0.2-0.2c-0.2,0-0.1,0.1-0.2,0.2c0,0.2-0.1,0.2-0.1,0.4
			c0.1,0.1,0.3,0.2,0.3,0.4c-0.1,0.2-0.1,0.4-0.2,0.6c-0.1,0.1-0.2,0.2-0.2,0.4c0.1,0.1,0,0.3-0.1,0.5c0,0.1-0.1,0.2-0.1,0.4
			c-0.2,0.1-0.2,0.4-0.5,0.5c-0.2,0-0.2,0.3-0.4,0.2c0,0-0.1,0.1-0.1,0.1c-0.1-0.1-0.3,0-0.5,0c-0.1,0.2,0.1,0.5-0.2,0.6v0.1
			c0,0,0.1,0,0.1,0c0,0.1-0.2,0.2-0.1,0.3c-0.1,0-0.1,0.1-0.1,0.2c-0.1,0.3-0.6,0.3-0.7,0.6c0.1,0.1,0.1,0.1,0.1,0.2
			c-0.1,0.1-0.1,0.2-0.1,0.4c0.1,0,0.1,0.1,0.1,0.2c-0.1,0.1-0.2,0.1-0.3,0.1c-0.2,0-0.3,0.2-0.4,0.2c0,0,0,0.1,0,0.1
			c0.2,0.1,0,0.4,0.2,0.3c0.1,0.1,0.2,0.1,0.3,0.2c0.1,0,0.2,0,0.3,0c0.1-0.1,0.2-0.1,0.3-0.2c0.1,0,0.2,0.1,0.3,0
			c0,0.2,0.1,0.3,0.2,0.4c0,0.1,0.1,0.1,0.2,0.1c0.2,0,0.3,0,0.5,0.1c0.1,0,0.1,0,0.2,0c0.1,0,0.2,0,0.3-0.1c0,0.2,0.3,0,0.4,0.3
			c0.1,0.1-0.2,0.2-0.2,0.3c0,0.1,0.1,0.2,0.1,0.3c0.1,0,0.1,0.1,0.2,0c0.2,0.1,0,0.5,0.4,0.4c0,0,0-0.1,0-0.1
			c0.1,0,0.1,0.1,0.2,0.2c0,0.1,0,0.3,0.1,0.4c0.1,0,0.1,0,0.1,0.1c0,0.1-0.1,0.2-0.1,0.2c0,0-0.1,0-0.1,0c0,0.1-0.1,0.2-0.1,0.3
			c-0.1,0-0.1,0.1-0.1,0.1c0.1,0.1,0,0.3,0.2,0.2c0.1,0.1,0.2,0,0.3,0.1c0.2,0.1,0.5,0.1,0.6,0.3c0.1,0,0.1,0.1,0.2,0
			C-159.7,61.3-159.5,61.4-159.5,61.3"/>
		<polygon class="st14" points="-158.1,63.8 -158.3,64.6 -158.6,63.8 -159.4,63.8 -158.7,63.3 -159,62.5 -158.3,63 -157.6,62.5 
			-157.9,63.3 -157.2,63.8 		"/>
		<polygon class="st14" points="-155.4,63.3 -155.7,64.1 -155.9,63.3 -156.8,63.3 -156.1,62.8 -156.4,62.1 -155.7,62.5 -155,62.1 
			-155.3,62.8 -154.6,63.3 		"/>
		<polygon class="st14" points="-152.9,62.4 -153.2,63.2 -153.4,62.4 -154.3,62.4 -153.6,61.9 -153.9,61.1 -153.2,61.6 -152.5,61.1 
			-152.8,61.9 -152.1,62.4 		"/>
		<polygon class="st14" points="-160.7,63.8 -161,64.6 -161.2,63.8 -162.1,63.8 -161.4,63.3 -161.7,62.5 -161,63 -160.3,62.5 
			-160.6,63.3 -159.9,63.8 		"/>
		<polygon class="st14" points="-163.3,63.3 -163.6,64.1 -163.9,63.3 -164.7,63.3 -164,62.8 -164.3,62.1 -163.6,62.5 -162.9,62.1 
			-163.2,62.8 -162.5,63.3 		"/>
		<polygon class="st14" points="-165.9,62.4 -166.1,63.2 -166.4,62.4 -167.2,62.4 -166.5,61.9 -166.8,61.1 -166.1,61.6 -165.4,61.1 
			-165.7,61.9 -165,62.4 		"/>
	</g>
</g>
<g>
	<path class="st15" d="M-144.7,15.7c0,8.2-6.6,14.8-14.8,14.8s-14.8-6.6-14.8-14.8c0-8.2,6.6-14.8,14.8-14.8S-144.7,7.5-144.7,15.7"
		/>
	<g>
		<defs>
			<rect id="SVGID_13_" x="-169.8" y="3.9" width="20.5" height="23.6"/>
		</defs>
		<clipPath id="SVGID_14_">
			<use xlink:href="#SVGID_13_"  style="overflow:visible;"/>
		</clipPath>
		<g style="clip-path:url(#SVGID_14_);">
			
				<image style="overflow:visible;" width="1779" height="2048" xlink:href="2E8F0408.png"  transform="matrix(1.153737e-02 0 0 1.153737e-02 -169.7919 3.8915)">
			</image>
		</g>
	</g>
</g>
<path class="st2" d="M28.5,15.6C28.5,15.6,28.4,15.5,28.5,15.6c0-0.3,0-0.4,0-0.6c0-7.4-6-13.5-13.5-13.5C7.5,1.5,1.5,7.6,1.5,15
	c0,7.4,6,13.5,13.5,13.5c7.1,0,12.8-5.4,13.4-12.4C28.5,15.9,28.5,15.8,28.5,15.6 M25.3,20.3C25.3,20.3,25.3,20.3,25.3,20.3h-2
	c-0.9,0-1.6,0-2.2,0.1c-0.3,0-0.6,0.1-0.9,0.2l-1.9-2.2c0-0.1,0.1-0.2,0.1-0.3l0.9-2.9l-0.5-0.2l0.5,0.2c0-0.1,0-0.3,0.1-0.4
	l3.3-1.4c0.2,0.2,0.4,0.4,0.6,0.6c0.5,0.4,1,0.8,1.8,1.2l1.4,0.9C26.4,17.7,25.9,19.1,25.3,20.3 M10,20.6c-0.3-0.1-0.6-0.1-0.8-0.2
	c-0.6-0.1-1.3-0.1-2.2-0.1H5l0,0.5h0v-0.5c-0.1,0-0.2,0-0.2,0c-0.7-1.3-1.1-2.6-1.3-4.1l1.5-1c0.7-0.5,1.3-0.9,1.8-1.2
	c0.2-0.2,0.4-0.4,0.6-0.6l3.2,1.4c0,0.1,0,0.3,0.1,0.4l0.5-0.2l-0.5,0.2l0.9,2.9c0,0.1,0.1,0.2,0.1,0.3L10,20.6z M14.4,12l-0.7-0.9
	l-2.3,1.8v0c-0.1,0.1-0.1,0.1-0.2,0.2L8,11.7c0-0.3,0-0.6-0.1-0.9c-0.1-0.6-0.3-1.3-0.5-2.1l-0.5-2c0,0,0-0.1,0-0.1
	c0.9-0.8,1.9-1.6,3-2.1l1.7,1.2c0.7,0.5,1.3,0.9,1.8,1.2c0.2,0.1,0.5,0.3,0.8,0.3v3.4c-0.1,0.1-0.3,0.1-0.4,0.2 M23.1,6.8l-0.5,2
	c-0.2,0.8-0.4,1.5-0.5,2.1c0,0.3-0.1,0.6,0,0.9l-3.2,1.3c-0.1-0.1-0.1-0.2-0.2-0.2l-2.3-1.8c-0.1-0.1-0.3-0.1-0.4-0.2V7.4
	c0.3-0.1,0.5-0.2,0.8-0.3c0.5-0.3,1.1-0.7,1.8-1.2v0l0,0l1.7-1.2c0,0,0.1-0.1,0.1-0.1C21.3,5.2,22.3,5.9,23.1,6.8
	C23.1,6.8,23.1,6.8,23.1,6.8 M12,14.8L12,14.8l-0.9,0.3L12,14.8z M18,14.8l0.8,0.3L18,14.8z M13.3,26.5l-0.7-2.1
	c-0.3-0.8-0.5-1.5-0.7-2c-0.1-0.2-0.2-0.5-0.4-0.7l1.6-2.1c0.2,0,0.3,0.1,0.5,0.1h2.8v-0.9v0v0.9c0.2,0,0.3,0,0.5-0.1l1.8,2.1
	c-0.1,0.2-0.3,0.4-0.4,0.7c-0.2,0.5-0.5,1.2-0.7,2l-0.7,2c-0.6,0.1-1.3,0.2-1.9,0.2C14.4,26.6,13.9,26.5,13.3,26.5"/>
<g>
	<path class="st2" d="M54.5,1.9c-0.2,0-0.4,0.1-0.6,0.2c-0.2,0.2-0.2,0.4-0.2,0.6v0.8H40.5V2.7c0-0.2-0.1-0.4-0.2-0.6
		c-0.2-0.2-0.4-0.2-0.6-0.2s-0.4,0.1-0.6,0.2c-0.2,0.2-0.2,0.4-0.2,0.6v0.8h-1.6c-0.9,0-1.7,0.3-2.3,1c-0.6,0.6-1,1.5-1,2.3v18.1
		c0,0.9,0.3,1.7,1,2.3c0.6,0.6,1.5,1,2.3,1H57c0.9,0,1.7-0.3,2.3-1c0.6-0.6,1-1.5,1-2.3V6.8c0-0.9-0.3-1.7-1-2.3
		c-0.6-0.6-1.5-1-2.3-1h-1.6V2.7c0-0.2-0.1-0.4-0.2-0.6C54.9,1.9,54.7,1.9,54.5,1.9 M58.6,8.4v16.4c0,0.4-0.2,0.9-0.5,1.2
		c-0.3,0.3-0.7,0.5-1.2,0.5H37.3c-0.4,0-0.9-0.2-1.2-0.5c-0.3-0.3-0.5-0.7-0.5-1.2V8.4H58.6z"/>
	<rect x="39.4" y="11.7" class="st1" width="3.3" height="3.3"/>
	<rect x="46" y="11.7" class="st1" width="3.3" height="3.3"/>
	<rect x="52.6" y="11.7" class="st1" width="3.3" height="3.3"/>
	<rect x="39.4" y="19.4" class="st1" width="3.3" height="3.3"/>
	<rect x="46" y="19.4" class="st1" width="3.3" height="3.3"/>
	<rect x="52.6" y="19.4" class="st1" width="3.3" height="3.3"/>
</g>
<g>
	<path class="st2" d="M-120.6,86.3c0,0.7-0.3,1.5-0.8,2c-0.5,0.5-1.2,0.8-2,0.8c-0.7,0-1.5-0.3-2-0.8c-0.5-0.5-0.8-1.2-0.8-2
		c0-0.7,0.3-1.5,0.8-2c0.5-0.5,1.2-0.8,2-0.8c0.7,0,1.5,0.3,2,0.8C-120.9,84.8-120.6,85.5-120.6,86.3 M-117.2,94.9l-3.6-3.6
		c-0.1-0.1-0.2-0.2-0.3-0.2c-0.1-0.1-0.2-0.1-0.4-0.1h-13.2c-0.2,0-0.5,0.1-0.7,0.3c-0.2,0.2-0.3,0.4-0.3,0.7c0,0.2,0.1,0.5,0.3,0.7
		c0.2,0.2,0.4,0.3,0.7,0.3h5l-6,11.8c0,0.1,0,0.3,0,0.4c0,0.2,0,0.5,0.1,0.7c0.1,0.2,0.4,0.4,0.6,0.4c0.2,0.1,0.5,0,0.7-0.1
		c0.2-0.1,0.4-0.3,0.4-0.6l1.9-3.2h3.7l-3.6,7.9c-0.1,0.1-0.1,0.3-0.1,0.5c0,0.2,0,0.5,0.2,0.7c0.1,0.2,0.4,0.3,0.6,0.4
		c0.2,0,0.5,0,0.7-0.1c0.2-0.1,0.4-0.3,0.4-0.6l8.8-17.5l2.7,2.8c0.2,0.2,0.4,0.2,0.6,0.2c0.2,0,0.5-0.1,0.6-0.3
		c0.2-0.2,0.3-0.4,0.3-0.6C-117,95.3-117,95-117.2,94.9"/>
	<path class="st2" d="M-119.6,102.9c2,0,3.6,1.6,3.6,3.6c0,2-1.6,3.6-3.6,3.6c-2,0-3.6-1.6-3.6-3.6
		C-123.2,104.5-121.6,102.9-119.6,102.9"/>
</g>
<g>
	<path class="st2" d="M-93.7,175.8c-4.2,0-7.5,3.3-7.5,7.4c0,4.1,3.4,7.4,7.5,7.4c4.2,0,7.5-3.3,7.5-7.4
		C-86.2,179.1-89.6,175.8-93.7,175.8 M-88.3,183.2c0,0.7-0.1,1.4-0.4,2c0,0,0,0,0,0c-0.1,0.1-0.2,0.1-0.2,0.2
		c-0.1-0.4-0.4-0.9-0.8-1.4c0.1-0.4,0.1-1.8,0-2.2c0.3-0.3,0.6-0.7,0.8-0.9c0.1,0,0.1,0.1,0.2,0.1
		C-88.5,181.7-88.3,182.4-88.3,183.2 M-98.4,184c0.3,0.2,1.1,0.5,1.6,0.6c0.1,0.2,0.2,0.6,0.5,1.1c0.2,0.4,0.5,0.7,0.7,0.9
		c-0.3,0.5-0.4,0.8-0.3,1.1c-0.3,0-0.5-0.1-0.8-0.2c-0.8-0.5-1.5-1.3-1.9-2.2C-98.6,185-98.6,184.5-98.4,184 M-95.7,178.3
		c0.1,0.2,0.2,0.5,0.3,0.7c-0.2,0.2-1,1.1-1.3,1.9c-0.4,0.1-1.2,0.2-1.6,0.7c-0.2,0-0.3-0.1-0.5-0.1
		C-98.3,180-97.1,178.8-95.7,178.3 M-89.1,180.7c-0.1,0.2-0.5,0.7-0.8,1c-0.4-0.3-1.5-0.8-1.8-0.9c-0.1-0.3-0.3-0.8-0.5-1.2
		c-0.2-0.3-0.4-0.6-0.6-0.7c0.2-0.2,0.5-0.5,0.8-0.7c1.2,0.4,2.2,1.2,2.8,2.2C-89.1,180.5-89.1,180.6-89.1,180.7 M-90.3,187.3
		c-0.3,0.2-1.1,0.6-2,0.5c-0.2-0.2-0.5-0.7-0.7-1c0,0,0-0.1-0.1-0.1c0.6-0.6,1-1.7,1.2-2.1c0.7,0,1.4-0.2,2-0.5
		c0.2,0.2,0.3,0.4,0.5,0.6c0.2,0.3,0.3,0.5,0.3,0.7c-0.2,0.4-0.5,1.1-0.9,1.6C-90.1,187.1-90.2,187.2-90.3,187.3 M-92.3,179.7
		c0.2,0.4,0.4,0.8,0.5,1.1c-0.1,0.1-0.2,0.3-0.3,0.4c-0.3,0.4-0.7,0.9-1,1.3c-0.4-0.1-1.6-0.3-2.4,0c-0.2-0.3-0.3-0.5-0.5-0.8
		c-0.1-0.2-0.2-0.3-0.3-0.5c-0.1-0.1-0.1-0.2-0.2-0.3c0.1-0.5,0.5-1,0.7-1.3c0.2-0.2,0.3-0.4,0.4-0.5c0.1-0.1,0.1-0.1,0.1-0.1
		c0.8-0.1,1.6-0.1,2.4,0C-92.7,179.2-92.5,179.4-92.3,179.7 M-95.6,182.7c0.5-0.1,1.1-0.1,1.6-0.1c0.2,0,0.4,0,0.7,0.1
		c0.1,0,0.2,0,0.2,0c0.1,0.2,0.2,0.4,0.4,0.6c0.2,0.3,0.4,0.6,0.7,1c0.1,0.1,0.1,0.2,0.1,0.3c0,0,0,0.1,0,0.1
		c-0.1,0.4-0.5,1.4-1.1,1.9c-0.9,0.1-1.7,0.1-2.3,0c-0.3-0.2-0.5-0.6-0.7-0.9c-0.2-0.3-0.3-0.6-0.4-0.8c0-0.1-0.1-0.2-0.1-0.3
		c0,0,0,0,0,0C-96.4,183.9-96,183.3-95.6,182.7 M-96.2,187.9c0.1,0,0.3,0.1,0.4,0.1c0.1,0.1,0.2,0.2,0.4,0.3
		C-95.7,188.1-96,188-96.2,187.9 M-99.1,183.2c0-0.6,0.1-1.1,0.3-1.6c0.2,0,0.3,0.1,0.5,0.1c-0.2,0.5-0.3,1.8-0.1,2.2
		c-0.2,0.4-0.2,0.8-0.3,1.2C-99,184.5-99.1,183.9-99.1,183.2"/>
	<path class="st2" d="M-79.1,187.6h-2.2v-17h-24.5v17h-2.5v-19.5h29.3V187.6z M-80.8,187.1h1.2v-18.5h-28.3v18.5h1.5v-17h25.5V187.1
		z"/>
	<polygon class="st2" points="-105.9,187.5 -106.2,187.1 -102.5,184.8 -102.5,173.3 -106.2,170.6 -105.9,170.2 -102,173.1 
		-102,185.1 	"/>
	<polygon class="st2" points="-81.2,187.5 -85.1,185.1 -85.1,173 -81.2,170.2 -80.9,170.6 -84.6,173.3 -84.6,184.8 -80.9,187.1 	"/>
	<rect x="-102.3" y="172.9" class="st2" width="17.4" height="0.5"/>
	<rect x="-106.1" y="178.9" class="st2" width="5.6" height="0.5"/>
	<rect x="-86.6" y="178.9" class="st2" width="5.6" height="0.5"/>
	<rect x="-96.8" y="173.2" class="st2" width="0.5" height="2.7"/>
	<rect x="-90.8" y="173.2" class="st2" width="0.5" height="2.7"/>
	<rect x="-102.3" y="184.7" class="st2" width="0.9" height="0.5"/>
	<rect x="-85.8" y="184.7" class="st2" width="0.9" height="0.5"/>
</g>
<g>
	<path class="st16" d="M-165.7,130.2c0-1.6,0.7-3,1.8-4.1c1.2-1.1,2.7-1.7,4.4-1.7c1.6,0,3.2,0.6,4.4,1.7c1.2,1.1,1.8,2.6,1.8,4.1
		c0,1.6-0.7,3-1.8,4.1c-1.2,1.1-2.7,1.7-4.4,1.7c-1.6,0-3.2-0.6-4.4-1.7C-165.1,133.2-165.7,131.7-165.7,130.2 M-165.7,138.9
		c-2,0-4,0.8-5.5,2.1c-1.4,1.4-2.3,3.2-2.3,5.2c0,1.2,0.5,2.3,1.4,3.1c0.9,0.8,2,1.3,3.3,1.3h18.5c1.2,0,2.4-0.5,3.3-1.3
		c0.9-0.8,1.4-1.9,1.4-3.1c0-1.9-0.8-3.8-2.3-5.2c-1.4-1.4-3.4-2.1-5.5-2.1H-165.7z"/>
</g>
<g>
	<defs>
		<rect id="SVGID_15_" x="-29.6" y="3.2" width="21.9" height="23.6"/>
	</defs>
	<clipPath id="SVGID_16_">
		<use xlink:href="#SVGID_15_"  style="overflow:visible;"/>
	</clipPath>
	<g class="st17">
		<defs>
			<rect id="SVGID_17_" x="-29.6" y="3.2" width="21.9" height="23.6"/>
		</defs>
		<clipPath id="SVGID_18_">
			<use xlink:href="#SVGID_17_"  style="overflow:visible;"/>
		</clipPath>
		<g style="clip-path:url(#SVGID_18_);">
			
				<image style="overflow:visible;" width="950" height="1024" xlink:href="2E8F0409.png"  transform="matrix(2.301777e-02 0 0 2.301777e-02 -29.6399 3.215)">
			</image>
		</g>
	</g>
</g>
<g>
	<defs>
		<rect id="SVGID_19_" x="-70.5" y="3.6" width="21.1" height="24.3"/>
	</defs>
	<clipPath id="SVGID_20_">
		<use xlink:href="#SVGID_19_"  style="overflow:visible;"/>
	</clipPath>
	<g class="st18">
		<defs>
			<rect id="SVGID_21_" x="-70.5" y="3.6" width="21.1" height="24.2"/>
		</defs>
		<clipPath id="SVGID_22_">
			<use xlink:href="#SVGID_21_"  style="overflow:visible;"/>
		</clipPath>
		<g style="clip-path:url(#SVGID_22_);">
			
				<image style="overflow:visible;" width="1779" height="2048" xlink:href="2E8F040B.png"  transform="matrix(1.184026e-02 0 0 1.184026e-02 -70.5319 3.5813)">
			</image>
		</g>
	</g>
</g>
</svg>
