<?xml version="1.0" encoding="utf-8"?>
<!-- Generator: Adobe Illustrator 23.0.5, SVG Export Plug-In . SVG Version: 6.00 Build 0)  -->
<svg version="1.1" id="Layer_1" xmlns="http://www.w3.org/2000/svg" xmlns:xlink="http://www.w3.org/1999/xlink" x="0px" y="0px"
	 width="30px" height="30px" viewBox="0 0 30 30" style="enable-background:new 0 0 30 30;" xml:space="preserve">
<style type="text/css">
	.st0{fill:#141619;}
	.st1{fill:#6FB95D;}
	.st2{fill:#033A4A;}
	.st3{clip-path:url(#SVGID_2_);}
	.st4{fill:#2A4DA1;}
	.st5{fill:#D1A750;}
	.st6{fill:#FFFFFF;}
	.st7{fill:none;}
	.st8{clip-path:url(#SVGID_6_);fill:#6FB95D;}
	.st9{clip-path:url(#SVGID_6_);fill:#033A4A;}
	.st10{fill:#D6D5D5;}
	.st11{clip-path:url(#SVGID_8_);}
	.st12{clip-path:url(#SVGID_12_);fill:#2A4DA1;}
	.st13{clip-path:url(#SVGID_12_);fill:#D1A750;}
	.st14{clip-path:url(#SVGID_12_);fill:#FFFFFF;}
	.st15{fill:#F7F7F7;}
	.st16{fill-rule:evenodd;clip-rule:evenodd;fill:#033A4A;}
	.st17{clip-path:url(#SVGID_16_);}
	.st18{clip-path:url(#SVGID_20_);}
</style>
<g>
	<path class="st0" d="M54.1-202.9H43.3c-4.9,0-8.9,4-8.9,8.9v10.7c0,4.9,4,8.9,8.9,8.9h10.7c4.9,0,8.9-4,8.9-8.9V-194
		C63.1-198.9,59.1-202.9,54.1-202.9 M60.4-183.3c0,3.5-2.8,6.3-6.3,6.3H43.3c-3.5,0-6.3-2.8-6.3-6.3V-194c0-3.5,2.8-6.3,6.3-6.3
		h10.7c3.5,0,6.3,2.8,6.3,6.3V-183.3z"/>
	<path class="st0" d="M48.7-195.8c-4,0-7.1,3.2-7.1,7.1c0,4,3.2,7.1,7.1,7.1c4,0,7.1-3.2,7.1-7.1C55.9-192.5,52.7-195.8,48.7-195.8
		 M48.7-184.1c-2.4,0-4.5-2-4.5-4.5c0-2.5,2-4.5,4.5-4.5c2.5,0,4.5,2,4.5,4.5C53.2-186.1,51.2-184.1,48.7-184.1"/>
	<path class="st0" d="M56.5-197.3c0.5,0,0.9,0.4,0.9,0.9s-0.4,0.9-0.9,0.9c-0.5,0-0.9-0.4-0.9-0.9C55.4-196.8,55.8-197.3,56.5-197.3
		"/>
</g>
<g>
	<path class="st0" d="M86.1-202.7H75.5c-4.9,0-8.8,3.9-8.8,8.8v10.6c0,4.9,3.9,8.8,8.8,8.8h10.6c4.9,0,8.8-3.9,8.8-8.8v-10.6
		C95-198.8,91.1-202.7,86.1-202.7 M92.3-183.4c0,3.4-2.8,6.2-6.2,6.2H75.5c-3.4,0-6.2-2.8-6.2-6.2v-10.6c0-3.4,2.8-6.2,6.2-6.2h10.6
		c3.4,0,6.2,2.8,6.2,6.2V-183.4z"/>
	<path class="st0" d="M82.2-191.4v-2.1c0-0.6,0.5-1.1,1.1-1.1h1.1v-2.6h-2.1c-1.7,0-3.2,1.4-3.2,3.2v2.7h-2.1v2.7h2.1v8.5h3.2v-8.6
		h2.1l1.1-2.7L82.2-191.4z"/>
</g>
<g>
	<path class="st1" d="M51.1,14.7c0-0.4,0.2-0.6,0.6-0.6h6.7v2.4h-6.7c-0.4,0-0.6-0.2-0.6-0.6V14.7z M51.1,22c0-0.4,0.2-0.6,0.6-0.6
		h6.7v2.4h-6.7c-0.4,0-0.6-0.2-0.6-0.6V22z M51.1,7.3c0-0.4,0.2-0.6,0.6-0.6h6.7v2.4h-6.7c-0.4,0-0.6-0.2-0.6-0.6V7.3z"/>
	<path class="st2" d="M58.5,6.7h-6.7c-0.4,0-0.6,0.2-0.6,0.6v1.2c0,0.4,0.2,0.6,0.6,0.6h6.7V14h-6.7c-0.4,0-0.6,0.2-0.6,0.6v1.2
		c0,0.4,0.2,0.6,0.6,0.6h6.7v4.9h-6.7c-0.4,0-0.6,0.2-0.6,0.6v1.2c0,0.4,0.2,0.6,0.6,0.6h6.7v2.7c0,0.7-0.2,1.2-0.7,1.7
		c-0.5,0.5-1.1,0.7-1.7,0.7H41.4c-0.7,0-1.2-0.2-1.7-0.7c-0.5-0.5-0.7-1.1-0.7-1.7v-23c0-0.7,0.2-1.2,0.7-1.7
		c0.5-0.5,1.1-0.7,1.7-0.7H56c0.7,0,1.2,0.2,1.7,0.7c0.5,0.5,0.7,1.1,0.7,1.7V6.7z"/>
</g>
<g>
	<path class="st2" d="M28.2,8.4v16.5c0,0.9-0.3,1.7-1,2.3c-0.7,0.7-1.4,1-2.3,1H5.1c-0.9,0-1.7-0.3-2.3-1c-0.7-0.7-1-1.4-1-2.3V8.4
		c0-0.9,0.3-1.7,1-2.3s1.4-1,2.3-1h1.3c-0.9,1.5-1.3,3.2-1.3,5c0,2.7,1,5.1,2.9,7C9.9,19,12.3,20,15,20c2.7,0,5.1-1,7-2.9
		c1.9-1.9,2.9-4.3,2.9-7c0-1.8-0.4-3.4-1.3-5h1.3c0.9,0,1.7,0.3,2.3,1C27.9,6.7,28.2,7.5,28.2,8.4 M15,14.6c-0.4,0-0.7-0.1-1-0.3
		c-0.3-0.2-0.6-0.4-0.8-0.7c-0.2-0.3-0.3-0.7-0.3-1c0-0.6,0.2-1.1,0.6-1.5c0.4-0.4,0.9-0.6,1.5-0.6l1.7-4c0.1-0.3,0.4-0.5,0.8-0.5
		c0.2,0,0.4,0.1,0.6,0.2c0.2,0.2,0.2,0.4,0.2,0.6c0,0.1,0,0.2-0.1,0.3l-1.8,4.1c0.4,0.4,0.6,0.8,0.6,1.4c0,0.6-0.2,1.1-0.6,1.5
		C16.1,14.4,15.6,14.6,15,14.6"/>
	<path class="st1" d="M20.8,15.9l-1.2,1.2c-0.8,0.8-2.4,1.2-4.6,1.2c-2.3,0-4.2-0.8-5.8-2.4S6.7,12.3,6.7,10c0-2.3,0.8-4.2,2.4-5.8
		s3.6-2.4,5.8-2.4c2.3,0,4.2,0.8,5.8,2.4s2.4,3.6,2.4,5.8C23.3,12.3,22.5,14.3,20.8,15.9 M15,10.5c-0.6,0-1.1,0.2-1.5,0.6
		c-0.4,0.4-0.6,0.9-0.6,1.5c0,0.6,0.2,1.1,0.6,1.4c0.4,0.4,0.9,0.6,1.5,0.6c0.6,0,1.1-0.2,1.5-0.6c0.4-0.4,0.6-0.9,0.6-1.5
		c0-0.6-0.2-1-0.6-1.4L18.3,7c0-0.1,0.1-0.2,0.1-0.3c0-0.1,0-0.3-0.1-0.4C18.1,6.2,18,6.1,17.9,6c-0.1-0.1-0.3-0.1-0.4-0.1
		c-0.4,0-0.6,0.2-0.8,0.5L15,10.5z"/>
</g>
<g>
	<defs>
		<rect id="SVGID_1_" x="34.8" y="-155.2" width="27.9" height="17.1"/>
	</defs>
	<clipPath id="SVGID_2_">
		<use xlink:href="#SVGID_1_"  style="overflow:visible;"/>
	</clipPath>
	<g class="st3">
		<defs>
			<rect id="SVGID_3_" x="34.2" y="-155.3" width="29.1" height="17.3"/>
		</defs>
		<clipPath id="SVGID_4_">
			<use xlink:href="#SVGID_3_"  style="overflow:visible;"/>
		</clipPath>
		<g style="clip-path:url(#SVGID_4_);">
			
				<image style="overflow:visible;" width="168" height="100" xlink:href="C511BA09.jpg"  transform="matrix(0.1731 0 0 0.1731 34.1501 -155.331)">
			</image>
		</g>
	</g>
</g>
<g>
	<rect x="66.4" y="-155.5" class="st4" width="28.8" height="17.6"/>
	<rect x="67.3" y="-156.2" class="st4" width="26.8" height="19.1"/>
	<path class="st5" d="M80.9-143.1c0.1-0.1,0.2-0.3,0.2-0.4c-0.1,0-0.2-0.1-0.3-0.1c0.5,0.1,0.6-0.5,1.1-0.3c0-0.1,0.1-0.1,0.2-0.1
		l0.1,0.2c0.2,0.1,0.1-0.3,0.4-0.2c0.1-0.1,0-0.3,0.1-0.4c0-0.1,0.1-0.2,0.1-0.4c0.1,0.1,0.1,0.2,0.2,0.1c0.1-0.1,0.2-0.2,0.2-0.3
		c0-0.2-0.1-0.4,0.1-0.5v-0.1c0.1-0.1,0.5,0.1,0.5-0.2c0-0.1,0.1,0,0.1-0.1c0.1,0,0.2,0,0.3,0c0.1-0.2-0.1-0.3-0.2-0.5
		c0.1-0.1,0.1-0.3,0-0.4l-0.1,0c0.1,0,0.3,0,0.5-0.1l0.2-0.1c0.1,0.1,0.2,0.1,0.4,0.1c0.1-0.1,0-0.2,0.1-0.3c0.1,0,0.2,0,0.3-0.1
		l0,0c0.1,0.2,0.4,0.1,0.5,0.2c0.2,0,0.2-0.2,0.3-0.3c0-0.3-0.3-0.4-0.2-0.7c-0.1-0.1-0.2-0.3-0.3-0.4c0,0,0-0.1,0-0.1
		c-0.1-0.1,0-0.3-0.2-0.3c0-0.1-0.2-0.1-0.2-0.2c0.1-0.2-0.1-0.3-0.1-0.5c-0.1-0.1-0.3,0.1-0.3-0.1c-0.1,0-0.2,0.1-0.3,0
		c0-0.1,0.1-0.2,0.1-0.3c0.2,0,0.2-0.2,0.3-0.3l0.2-0.2c-0.2-0.1-0.4,0-0.7-0.1c-0.1,0,0,0.1-0.1,0.1c-0.1,0.1-0.2,0.1-0.3,0.1
		c0-0.1-0.2-0.1-0.1-0.2c0,0,0-0.1,0-0.1c-0.2,0-0.1,0.1-0.3,0.1c-0.2-0.1,0-0.3-0.3-0.3c0-0.2-0.4-0.4-0.1-0.6c0,0,0-0.1,0-0.2
		c-0.2-0.1-0.5-0.1-0.7,0c-0.2,0-0.1,0.2-0.1,0.3c-0.1,0.1-0.2,0.2-0.2,0.3c-0.1,0-0.2,0.1-0.3,0.2c-0.3-0.3-0.6-0.5-1-0.5
		c-0.2-0.1-0.3-0.4-0.5-0.3c-0.1-0.2-0.4,0-0.4-0.2c-0.1,0-0.1-0.2-0.1-0.3c0-0.2,0-0.3,0.2-0.5c0.1-0.1-0.1-0.1-0.1-0.3
		c0,0,0-0.1,0-0.1c-0.1,0-0.1-0.1-0.1-0.1c0,0-0.1,0-0.1-0.1c0-0.1-0.2-0.1-0.3-0.2c-0.1,0-0.2,0-0.2,0.1c0-0.1-0.1-0.2-0.2-0.2
		c-0.1,0-0.1,0.1-0.2,0.2c0,0.2-0.1,0.2-0.1,0.4c0.1,0.1,0.3,0.2,0.3,0.4c-0.1,0.2-0.1,0.4-0.2,0.6c-0.1,0.1-0.2,0.2-0.2,0.4
		c0.1,0.1,0,0.3-0.1,0.5c0,0.1-0.1,0.2-0.1,0.4c-0.2,0.1-0.2,0.4-0.5,0.5c-0.2,0-0.2,0.3-0.4,0.2c0,0-0.1,0.1-0.1,0.1
		c-0.1-0.1-0.3,0-0.5,0c-0.1,0.2,0.1,0.5-0.2,0.6v0.1c0,0,0.1,0,0.1,0c0,0.1-0.2,0.2-0.1,0.3c-0.1,0-0.1,0.1-0.1,0.2
		c-0.1,0.3-0.6,0.3-0.7,0.6c0.1,0.1,0.1,0.1,0.1,0.2c-0.1,0.1-0.1,0.2-0.1,0.4c0.1,0,0.1,0.1,0.1,0.2c-0.1,0.1-0.2,0.1-0.3,0.1
		c-0.2,0-0.3,0.2-0.4,0.2c0,0,0,0.1,0,0.1c0.2,0.1,0,0.4,0.2,0.3c0.1,0.1,0.2,0.1,0.3,0.2c0.1,0,0.2,0,0.3,0
		c0.1-0.1,0.2-0.1,0.3-0.2c0.1,0,0.2,0.1,0.3,0c0,0.2,0.1,0.3,0.2,0.4c0,0.1,0.1,0.1,0.2,0.1c0.2,0,0.3,0,0.5,0.1c0.1,0,0.1,0,0.2,0
		c0.1,0,0.2,0,0.3-0.1c0,0.2,0.3,0,0.4,0.3c0.1,0.1-0.2,0.2-0.2,0.3c0,0.1,0.1,0.2,0.1,0.3c0.1,0,0.1,0.1,0.2,0
		c0.2,0.1,0,0.5,0.4,0.4c0,0,0-0.1,0-0.1c0.1,0,0.1,0.1,0.2,0.2c0,0.1,0,0.3,0.1,0.4c0.1,0,0.1,0,0.1,0.1c0,0.1-0.1,0.2-0.1,0.2
		c0,0-0.1,0-0.1,0c0,0.1-0.1,0.2-0.1,0.3c-0.1,0-0.1,0.1-0.1,0.1c0.1,0.1,0,0.3,0.2,0.2c0.1,0.1,0.2,0,0.3,0.1
		c0.2,0.1,0.5,0.1,0.6,0.3c0.1,0,0.1,0.1,0.2,0C80.7-143.1,80.9-143,80.9-143.1"/>
	<polygon class="st6" points="82.3,-140.6 82,-139.8 81.8,-140.6 81,-140.6 81.6,-141.1 81.4,-141.9 82,-141.4 82.7,-141.9 
		82.5,-141.1 83.1,-140.6 	"/>
	<polygon class="st6" points="84.9,-141.1 84.7,-140.3 84.4,-141.1 83.6,-141.1 84.3,-141.6 84,-142.4 84.7,-141.9 85.3,-142.4 
		85.1,-141.6 85.8,-141.1 	"/>
	<polygon class="st6" points="87.4,-142 87.2,-141.2 86.9,-142 86.1,-142 86.8,-142.5 86.5,-143.3 87.2,-142.8 87.8,-143.3 
		87.6,-142.5 88.3,-142 	"/>
	<polygon class="st6" points="79.6,-140.6 79.4,-139.8 79.1,-140.6 78.3,-140.6 79,-141.1 78.7,-141.9 79.4,-141.4 80,-141.9 
		79.8,-141.1 80.5,-140.6 	"/>
	<polygon class="st6" points="77,-141.1 76.8,-140.3 76.5,-141.1 75.7,-141.1 76.3,-141.6 76.1,-142.4 76.8,-141.9 77.4,-142.4 
		77.2,-141.6 77.8,-141.1 	"/>
	<polygon class="st6" points="74.5,-142 74.2,-141.2 74,-142 73.2,-142 73.8,-142.5 73.6,-143.3 74.2,-142.8 74.9,-143.3 
		74.7,-142.5 75.3,-142 	"/>
	<rect x="67.3" y="-155.5" class="st7" width="26.8" height="17.6"/>
</g>
<g>
	<path class="st2" d="M103.3-132.6c-0.4,0-0.7-0.1-1-0.4c-0.3-0.3-0.4-0.6-0.4-1v-5.6c0-0.8,0.3-1.4,0.8-2c0.5-0.5,1.2-0.8,2-0.8
		h19.6c0.8,0,1.4,0.3,2,0.8c0.5,0.5,0.8,1.2,0.8,2v5.6c0,0.4-0.1,0.7-0.4,1c-0.3,0.3-0.6,0.4-1,0.4H103.3z M104.7-145.2v-4.2
		c0-0.8,0.3-1.4,0.8-2c0.6-0.5,1.2-0.8,2-0.8h5.6v-2c-0.4-0.3-0.8-0.6-1-1c-0.3-0.4-0.4-0.9-0.4-1.4c0-0.3,0.1-0.7,0.2-1
		c0.1-0.3,0.3-0.6,0.6-0.9l2-2l2,2c0.3,0.3,0.5,0.6,0.6,0.9c0.1,0.3,0.2,0.7,0.2,1c0,0.6-0.1,1-0.4,1.4c-0.3,0.4-0.6,0.7-1,1v2h5.6
		c0.8,0,1.4,0.3,2,0.8c0.6,0.5,0.8,1.2,0.8,2v4.2H104.7z"/>
	<path class="st1" d="M104.7-145.2v-4.2c0-0.8,0.3-1.4,0.8-2c0.6-0.5,1.2-0.8,2-0.8h5.6v-2c-0.4-0.3-0.8-0.6-1-1
		c-0.3-0.4-0.4-0.9-0.4-1.4c0-0.3,0.1-0.7,0.2-1c0.1-0.3,0.3-0.6,0.6-0.9l2-2l2,2c0.3,0.3,0.5,0.6,0.6,0.9c0.1,0.3,0.2,0.7,0.2,1
		c0,0.6-0.1,1-0.4,1.4c-0.3,0.4-0.6,0.7-1,1v2h5.6c0.8,0,1.4,0.3,2,0.8c0.6,0.5,0.8,1.2,0.8,2v4.2H104.7z"/>
</g>
<g>
	<g>
		<defs>
			<rect id="SVGID_5_" x="34.7" y="-79.4" width="28.1" height="25"/>
		</defs>
		<clipPath id="SVGID_6_">
			<use xlink:href="#SVGID_5_"  style="overflow:visible;"/>
		</clipPath>
		<path class="st8" d="M53.4-73.4v0.3h-5.5c-0.2,0-0.4-0.1-0.6-0.2c-0.1-0.1-0.2-0.3-0.2-0.6v-5.5h0.3c0.3,0,0.6,0.1,0.8,0.3
			l4.8,4.8C53.3-74,53.4-73.7,53.4-73.4 M48.7-62.4l7.9-7.9L60-67l-7.9,8h-3.4V-62.4z M62.4-71.2c0.2,0.3,0.3,0.6,0.3,0.9
			c0,0.3-0.1,0.6-0.3,0.9L61-68.1l-3.3-3.3l1.4-1.4c0.2-0.2,0.5-0.3,0.9-0.3c0.3,0,0.6,0.1,0.9,0.3L62.4-71.2z"/>
		<path class="st9" d="M38-60.4c0,0,0,0-0.1,0.1c-0.1,0.1-0.1,0.2-0.1,0.5c0,0.2,0.1,0.4,0.2,0.6c0.1,0.1,0.3,0.2,0.6,0.2h0.6
			c0.5,0,0.9-0.1,1.3-0.4c0.4-0.3,0.6-0.6,0.7-1.1l0.5-1.5l0.8,2.4c0.1,0.3,0.3,0.5,0.7,0.5c0.4,0,0.6-0.1,0.7-0.4l0.4-0.7
			c0.1-0.2,0.3-0.3,0.5-0.3c0.2,0,0.4,0.1,0.5,0.3c0.4,0.8,1,1.2,1.9,1.2h4.9l1.3-1.3v4.8c0,0.2,0,0.3-0.1,0.5
			c-0.1,0.1-0.1,0.3-0.2,0.4c-0.1,0.1-0.2,0.2-0.4,0.2c-0.1,0.1-0.3,0.1-0.5,0.1H35.8c-0.3,0-0.6-0.1-0.8-0.3
			c-0.2-0.2-0.3-0.5-0.3-0.8v-22.6c0-0.3,0.1-0.6,0.3-0.8c0.2-0.2,0.5-0.3,0.8-0.3h11.3v5.5c0,0.2,0.1,0.4,0.2,0.6
			c0.1,0.1,0.3,0.2,0.6,0.2h5.5v6l-4.7,4.6v1.8h-1.6c-0.2,0-0.4-0.1-0.4-0.3c-0.3-0.6-0.8-1-1.5-1.1c-0.7-0.1-1.3,0-1.7,0.4l-0.7-2
			c-0.2-0.6-0.6-0.8-1.1-0.8s-0.9,0.3-1.1,0.8L39.7-61c-0.1,0.3-0.3,0.4-0.5,0.4h-0.6C38.3-60.6,38.1-60.6,38-60.4"/>
	</g>
</g>
<g>
	<path class="st1" d="M15-34.4c1.2,0,2.2-0.2,3.2-0.6c1-0.4,1.7-0.9,2.2-1.6l1.4,0.7c-0.2,0.2-0.4,0.4-0.6,0.6
		C19.5-33.7,17.4-33,15-33c-2.4,0-4.5-0.8-6.2-2.3c-0.2-0.2-0.4-0.4-0.6-0.6l1.5-0.7c0.3,0.4,0.7,0.8,1.2,1.1
		c0.5,0.3,1.1,0.6,1.9,0.8C13.5-34.5,14.2-34.4,15-34.4"/>
	<polygon class="st1" points="1.5,-32.6 2.9,-33.2 6.1,-26.7 4.8,-26 	"/>
	<polygon class="st1" points="27.1,-33.2 28.5,-32.6 25.2,-26 23.9,-26.7 	"/>
	<path class="st2" d="M0.8-32.2l0.8-0.4L4.8-26L4-25.6c-0.1,0-0.2,0-0.3,0c-0.3,0-0.5-0.1-0.6-0.4l-2.6-5.2
		c-0.1-0.1-0.1-0.2-0.1-0.3C0.4-31.8,0.5-32.1,0.8-32.2 M21.8-35.9l5.4,2.7l-3.2,6.5l-0.5-0.2C23.3-27,23.2-27,23.1-27
		c-0.2,0-0.4,0.1-0.5,0.2c-0.1,0.2-0.2,0.3-0.2,0.5v11.6c0,0.4-0.1,0.7-0.4,1c-0.3,0.3-0.6,0.4-1,0.4H9.1c-0.4,0-0.7-0.1-1-0.4
		c-0.3-0.3-0.4-0.6-0.4-1v-11.6c0-0.2-0.1-0.3-0.2-0.5C7.3-26.9,7.2-27,6.9-27c-0.1,0-0.2,0-0.3,0.1l-0.5,0.2l-3.2-6.5l5.4-2.7
		c0.2,0.2,0.4,0.4,0.6,0.6c1.7,1.5,3.8,2.3,6.2,2.3s4.5-0.8,6.2-2.3C21.4-35.5,21.6-35.7,21.8-35.9 M29.2-32.2
		c0.3,0.1,0.4,0.3,0.4,0.6c0,0.1,0,0.2-0.1,0.3L26.9-26c-0.1,0.3-0.3,0.4-0.6,0.4c-0.1,0-0.2,0-0.3,0h0L25.2-26l3.3-6.5L29.2-32.2z"
		/>
</g>
<g>
	<path class="st2" d="M88.1,2c-0.2,0-0.4,0.1-0.6,0.2c-0.2,0.2-0.2,0.4-0.2,0.6v0.8h-13V2.8c0-0.2-0.1-0.4-0.2-0.6
		C73.9,2.1,73.7,2,73.5,2s-0.4,0.1-0.6,0.2c-0.2,0.2-0.2,0.4-0.2,0.6v0.8h-1.6c-0.9,0-1.7,0.3-2.3,1c-0.6,0.6-1,1.4-1,2.3v17.9
		c0,0.9,0.3,1.7,1,2.3c0.6,0.6,1.4,1,2.3,1h19.5c0.9,0,1.7-0.3,2.3-1c0.6-0.6,1-1.4,1-2.3V6.9c0-0.9-0.3-1.7-1-2.3
		c-0.6-0.6-1.4-1-2.3-1h-1.6V2.8c0-0.2-0.1-0.4-0.2-0.6C88.6,2.1,88.4,2,88.1,2 M92.2,8.5v16.2c0,0.4-0.2,0.8-0.5,1.1
		c-0.3,0.3-0.7,0.5-1.1,0.5H71.1c-0.4,0-0.8-0.2-1.1-0.5c-0.3-0.3-0.5-0.7-0.5-1.1V8.5H92.2z"/>
	<rect x="73.2" y="11.8" class="st1" width="3.2" height="3.2"/>
	<rect x="79.7" y="11.8" class="st1" width="3.3" height="3.2"/>
	<rect x="86.2" y="11.8" class="st1" width="3.2" height="3.2"/>
	<rect x="73.2" y="19.3" class="st1" width="3.2" height="3.3"/>
	<rect x="79.7" y="19.3" class="st1" width="3.3" height="3.3"/>
	<rect x="86.2" y="19.3" class="st1" width="3.2" height="3.3"/>
</g>
<g>
	<path class="st10" d="M108.5,27.1l-0.5,0.5c-0.3,0.3-0.9,0.5-1.8,0.5c-0.9,0-1.7-0.3-2.3-1c-0.7-0.7-1-1.4-1-2.3v-1.7h6.7v1.7
		C109.5,25.7,109.2,26.4,108.5,27.1 M101.6,9.2c0.6-2.7,1.5-4.6,2.6-5.9c1.1-1.2,2.4-1.9,3.7-1.9c1.1,0,2,0.4,2.8,1.3
		c0.8,0.9,1.3,2,1.7,3.3c0.4,1.4,0.5,2.8,0.5,4.5c0,1.9-0.6,3.7-1.7,5.4c-0.4,0.7-0.7,1.1-0.9,1.4c-0.2,0.3-0.3,0.8-0.5,1.5
		c-0.2,0.7-0.3,1.6-0.3,2.6h-6.7l-0.8-3c-0.5-1.6-0.7-2.9-0.8-4.2C101.1,12.5,101.2,10.8,101.6,9.2"/>
	<path class="st2" d="M125.2,27.5l-0.5,0.5c-0.3,0.3-0.9,0.5-1.8,0.5c-0.9,0-1.7-0.3-2.3-1c-0.7-0.7-1-1.4-1-2.3v-1.7h6.7v1.7
		C126.2,26.1,125.9,26.9,125.2,27.5 M116.2,11c0-2.5,0.4-4.7,1.3-6.4c0.9-1.8,2.1-2.7,3.7-2.7c1.3,0,2.5,0.6,3.7,1.9
		c1.1,1.2,2,3.2,2.6,5.9c0.3,1.6,0.5,3.2,0.3,5c-0.1,1.2-0.3,2.6-0.8,4.2l-0.8,3h-6.7c0-1-0.1-1.8-0.3-2.6c-0.2-0.7-0.4-1.2-0.5-1.5
		c-0.2-0.3-0.4-0.7-0.9-1.4C116.7,14.8,116.2,12.9,116.2,11"/>
</g>
<g>
	<defs>
		<rect id="SVGID_7_" x="1.3" y="-115.2" width="27.5" height="16.8"/>
	</defs>
	<clipPath id="SVGID_8_">
		<use xlink:href="#SVGID_7_"  style="overflow:visible;"/>
	</clipPath>
	<g class="st11">
		<defs>
			<rect id="SVGID_9_" x="0.7" y="-115.3" width="28.7" height="17.1"/>
		</defs>
		<clipPath id="SVGID_10_">
			<use xlink:href="#SVGID_9_"  style="overflow:visible;"/>
		</clipPath>
		<g transform="matrix(1 0 0 1 0 7.629395e-06)" style="clip-path:url(#SVGID_10_);">
			
				<image style="overflow:visible;" width="168" height="100" xlink:href="C511BA0B.jpg"  transform="matrix(0.1706 0 0 0.1706 0.656 -115.3232)">
			</image>
		</g>
	</g>
</g>
<g>
	<rect x="0.6" y="-155" class="st4" width="28.8" height="17.6"/>
	<g>
		<defs>
			<rect id="SVGID_11_" x="1.5" y="-155" width="26.8" height="17.6"/>
		</defs>
		<clipPath id="SVGID_12_">
			<use xlink:href="#SVGID_11_"  style="overflow:visible;"/>
		</clipPath>
		<rect x="1.5" y="-155.7" class="st12" width="26.8" height="19.1"/>
		<path class="st13" d="M15-142.6c0.1-0.1,0.2-0.3,0.2-0.4c-0.1,0-0.2-0.1-0.3-0.1c0.5,0.1,0.6-0.5,1.1-0.3c0-0.1,0.1-0.1,0.2-0.1
			l0.1,0.2c0.2,0.1,0.1-0.3,0.4-0.2c0.1-0.1,0-0.3,0.1-0.4c0-0.1,0.1-0.2,0.1-0.4c0.1,0.1,0.1,0.2,0.2,0.1c0.1-0.1,0.2-0.2,0.2-0.3
			c0-0.2-0.1-0.4,0.1-0.5v-0.1c0.1-0.1,0.5,0.1,0.5-0.2c0-0.1,0.1,0,0.1-0.1c0.1,0,0.2,0,0.3,0c0.1-0.2-0.1-0.3-0.2-0.5
			c0.1-0.1,0.1-0.3,0-0.4l-0.1,0c0.1,0,0.3,0,0.5-0.1l0.2-0.1c0.1,0.1,0.2,0.1,0.4,0.1c0.1-0.1,0-0.2,0.1-0.3c0.1,0,0.2,0,0.3-0.1
			l0,0c0.1,0.2,0.4,0.1,0.5,0.2c0.2,0,0.2-0.2,0.3-0.3c0-0.3-0.3-0.4-0.2-0.7c-0.1-0.1-0.2-0.3-0.3-0.4c0,0,0-0.1,0-0.1
			c-0.1-0.1,0-0.3-0.2-0.3c0-0.1-0.2-0.1-0.2-0.2c0.2-0.2-0.1-0.3-0.1-0.5c-0.1-0.1-0.3,0.1-0.3-0.1c-0.1,0-0.2,0.1-0.3,0
			c0-0.1,0.1-0.2,0.1-0.3c0.2,0,0.2-0.2,0.3-0.3l0.2-0.2c-0.2-0.1-0.4,0-0.7-0.1c-0.1,0,0,0.1-0.1,0.1c-0.1,0.1-0.2,0.1-0.3,0.1
			c0-0.1-0.1-0.1-0.1-0.2c0,0,0-0.1,0-0.1c-0.2,0-0.1,0.1-0.3,0.1c-0.2-0.1,0-0.3-0.3-0.3c0-0.2-0.4-0.4-0.1-0.6c0,0,0-0.1,0-0.2
			c-0.2-0.1-0.5-0.1-0.7,0c-0.2,0-0.1,0.2-0.1,0.3c-0.1,0.1-0.2,0.2-0.2,0.3c-0.1,0-0.2,0.1-0.3,0.2c-0.3-0.3-0.6-0.5-1-0.5
			c-0.2-0.1-0.3-0.4-0.5-0.3c-0.1-0.2-0.4,0-0.4-0.2c-0.1,0-0.1-0.2-0.1-0.3c0-0.2,0-0.3,0.2-0.5c0.1-0.1-0.1-0.1-0.1-0.3
			c0,0,0-0.1,0-0.1c-0.1,0-0.1-0.1-0.1-0.1c0,0-0.1,0-0.1-0.1c0-0.1-0.2-0.1-0.3-0.2c-0.1,0-0.2,0-0.2,0.1c0-0.1-0.1-0.2-0.2-0.2
			c-0.2,0-0.1,0.1-0.2,0.2c0,0.2-0.1,0.2-0.1,0.4c0.1,0.1,0.3,0.2,0.3,0.4c-0.1,0.2-0.1,0.4-0.2,0.6c-0.1,0.1-0.2,0.2-0.2,0.4
			c0.1,0.1,0,0.3-0.1,0.5c0,0.1-0.1,0.2-0.1,0.4c-0.2,0.1-0.2,0.4-0.5,0.5c-0.2,0-0.2,0.3-0.4,0.2c0,0-0.1,0.1-0.1,0.1
			c-0.1-0.1-0.3,0-0.5,0c-0.1,0.2,0.1,0.5-0.2,0.6v0.1c0,0,0.1,0,0.1,0c0,0.1-0.2,0.2-0.1,0.3c-0.1,0-0.1,0.1-0.1,0.2
			c-0.1,0.3-0.6,0.3-0.7,0.6c0.1,0.1,0.1,0.1,0.1,0.2c-0.1,0.1-0.1,0.2-0.1,0.4c0.1,0,0.1,0.1,0.1,0.2c-0.1,0.1-0.2,0.1-0.3,0.1
			c-0.2,0-0.3,0.2-0.4,0.2c0,0,0,0.1,0,0.1c0.2,0.1,0,0.4,0.2,0.3c0.1,0.1,0.2,0.1,0.3,0.2c0.1,0,0.2,0,0.3,0
			c0.1-0.1,0.2-0.1,0.3-0.2c0.1,0,0.2,0.1,0.3,0c0,0.2,0.1,0.3,0.2,0.4c0,0.1,0.1,0.1,0.2,0.1c0.2,0,0.3,0,0.5,0.1
			c0.1,0,0.1,0,0.2,0c0.1,0,0.2,0,0.3-0.1c0,0.2,0.3,0,0.4,0.3c0.1,0.1-0.2,0.2-0.2,0.3c0,0.1,0.1,0.2,0.1,0.3c0.1,0,0.1,0.1,0.2,0
			c0.2,0.1,0,0.5,0.4,0.4c0,0,0-0.1,0-0.1c0.1,0,0.1,0.1,0.2,0.2c0,0.1,0,0.3,0.1,0.4c0.1,0,0.1,0,0.1,0.1c0,0.1-0.1,0.2-0.1,0.2
			c0,0-0.1,0-0.1,0c0,0.1-0.1,0.2-0.1,0.3c-0.1,0-0.1,0.1-0.1,0.1c0.1,0.1,0,0.3,0.2,0.2c0.1,0.1,0.2,0,0.3,0.1
			c0.2,0.1,0.5,0.1,0.6,0.3c0.1,0,0.1,0.1,0.2,0C14.9-142.6,15-142.5,15-142.6"/>
		<polygon class="st14" points="16.5,-140.1 16.2,-139.3 16,-140.1 15.1,-140.1 15.8,-140.6 15.5,-141.4 16.2,-140.9 16.9,-141.4 
			16.6,-140.6 17.3,-140.1 		"/>
		<polygon class="st14" points="19.1,-140.5 18.8,-139.8 18.6,-140.5 17.8,-140.5 18.4,-141 18.2,-141.8 18.8,-141.3 19.5,-141.8 
			19.3,-141 19.9,-140.5 		"/>
		<polygon class="st14" points="21.6,-141.5 21.4,-140.7 21.1,-141.5 20.3,-141.5 20.9,-141.9 20.7,-142.7 21.4,-142.2 22,-142.7 
			21.8,-141.9 22.4,-141.5 		"/>
		<polygon class="st14" points="13.8,-140.1 13.6,-139.3 13.3,-140.1 12.5,-140.1 13.1,-140.6 12.9,-141.4 13.6,-140.9 14.2,-141.4 
			14,-140.6 14.6,-140.1 		"/>
		<polygon class="st14" points="11.2,-140.5 10.9,-139.8 10.7,-140.5 9.8,-140.5 10.5,-141 10.3,-141.8 10.9,-141.3 11.6,-141.8 
			11.3,-141 12,-140.5 		"/>
		<polygon class="st14" points="8.7,-141.5 8.4,-140.7 8.2,-141.5 7.3,-141.5 8,-141.9 7.7,-142.7 8.4,-142.2 9.1,-142.7 
			8.8,-141.9 9.5,-141.5 		"/>
	</g>
</g>
<g>
	<path class="st15" d="M29.8-188.6c0,8.2-6.6,14.8-14.8,14.8s-14.8-6.6-14.8-14.8c0-8.2,6.6-14.8,14.8-14.8S29.8-196.8,29.8-188.6"
		/>
	<g>
		<defs>
			<rect id="SVGID_13_" x="4.7" y="-200.5" width="20.5" height="23.6"/>
		</defs>
		<clipPath id="SVGID_14_">
			<use xlink:href="#SVGID_13_"  style="overflow:visible;"/>
		</clipPath>
		<g style="clip-path:url(#SVGID_14_);">
			
				<image style="overflow:visible;" width="1779" height="2048" xlink:href="C511BA09.png"  transform="matrix(1.153737e-02 0 0 1.153737e-02 4.7375 -200.4614)">
			</image>
		</g>
	</g>
</g>
<path class="st2" d="M203-188.8C203-188.8,203-188.8,203-188.8c0-0.3,0-0.4,0-0.6c0-7.4-6-13.5-13.5-13.5c-7.4,0-13.5,6-13.5,13.5
	c0,7.4,6,13.5,13.5,13.5c7.1,0,12.8-5.4,13.4-12.4C203-188.4,203-188.6,203-188.8 M199.8-184C199.8-184,199.8-184,199.8-184h-2
	c-0.9,0-1.6,0-2.2,0.1c-0.3,0-0.6,0.1-0.9,0.2l-1.9-2.2c0-0.1,0.1-0.2,0.1-0.3l0.9-2.9l-0.5-0.2l0.5,0.2c0-0.1,0-0.3,0.1-0.4
	l3.3-1.4c0.2,0.2,0.4,0.4,0.6,0.6c0.5,0.4,1,0.8,1.8,1.2l1.4,0.9C200.9-186.7,200.5-185.3,199.8-184 M184.5-183.8
	c-0.3-0.1-0.6-0.1-0.8-0.2c-0.6-0.1-1.3-0.1-2.2-0.1h-2l0,0.5h0v-0.5c-0.1,0-0.2,0-0.2,0c-0.7-1.3-1.1-2.6-1.3-4.1l1.5-1
	c0.7-0.5,1.3-0.9,1.8-1.2c0.2-0.2,0.4-0.4,0.6-0.6l3.2,1.4c0,0.1,0,0.3,0.1,0.4l0.5-0.2l-0.5,0.2l0.9,2.9c0,0.1,0.1,0.2,0.1,0.3
	L184.5-183.8z M188.9-192.4l-0.7-0.9l-2.3,1.8v0c-0.1,0.1-0.1,0.1-0.2,0.2l-3.2-1.3c0-0.3,0-0.6-0.1-0.9c-0.1-0.6-0.3-1.3-0.5-2.1
	l-0.5-2c0,0,0-0.1,0-0.1c0.9-0.8,1.9-1.6,3-2.1l1.7,1.2c0.7,0.5,1.3,0.9,1.8,1.2c0.2,0.1,0.5,0.3,0.8,0.3v3.4
	c-0.1,0.1-0.3,0.1-0.4,0.2 M197.7-197.6l-0.5,2c-0.2,0.8-0.4,1.5-0.5,2.1c0,0.3-0.1,0.6,0,0.9l-3.2,1.3c-0.1-0.1-0.1-0.2-0.2-0.2
	l-2.3-1.8c-0.1-0.1-0.3-0.1-0.4-0.2v-3.4c0.3-0.1,0.5-0.2,0.8-0.3c0.5-0.3,1.1-0.7,1.8-1.2v0l0,0l1.7-1.2c0,0,0.1-0.1,0.1-0.1
	C195.8-199.1,196.8-198.4,197.7-197.6C197.7-197.6,197.7-197.6,197.7-197.6 M186.5-189.6L186.5-189.6l-0.9,0.3L186.5-189.6z
	 M192.5-189.6l0.8,0.3L192.5-189.6z M187.9-177.9l-0.7-2.1c-0.3-0.8-0.5-1.5-0.7-2c-0.1-0.2-0.2-0.5-0.4-0.7l1.6-2.1
	c0.2,0,0.3,0.1,0.5,0.1h2.8v-0.9v0v0.9c0.2,0,0.3,0,0.5-0.1l1.8,2.1c-0.1,0.2-0.3,0.4-0.4,0.7c-0.2,0.5-0.5,1.2-0.7,2l-0.7,2
	c-0.6,0.1-1.3,0.2-1.9,0.2C189-177.8,188.4-177.8,187.9-177.9"/>
<g>
	<path class="st2" d="M229-202.5c-0.2,0-0.4,0.1-0.6,0.2c-0.2,0.2-0.2,0.4-0.2,0.6v0.8h-13.1v-0.8c0-0.2-0.1-0.4-0.2-0.6
		c-0.2-0.2-0.4-0.2-0.6-0.2c-0.2,0-0.4,0.1-0.6,0.2c-0.2,0.2-0.2,0.4-0.2,0.6v0.8h-1.6c-0.9,0-1.7,0.3-2.3,1c-0.6,0.6-1,1.5-1,2.3
		v18.1c0,0.9,0.3,1.7,1,2.3c0.6,0.6,1.5,1,2.3,1h19.7c0.9,0,1.7-0.3,2.3-1c0.6-0.6,1-1.5,1-2.3v-18.1c0-0.9-0.3-1.7-1-2.3
		c-0.6-0.6-1.5-1-2.3-1h-1.6v-0.8c0-0.2-0.1-0.4-0.2-0.6C229.5-202.4,229.3-202.5,229-202.5 M233.2-195.9v16.4
		c0,0.4-0.2,0.9-0.5,1.2c-0.3,0.3-0.7,0.5-1.2,0.5h-19.7c-0.4,0-0.9-0.2-1.2-0.5c-0.3-0.3-0.5-0.7-0.5-1.2v-16.4H233.2z"/>
	<rect x="214" y="-192.6" class="st1" width="3.3" height="3.3"/>
	<rect x="220.6" y="-192.6" class="st1" width="3.3" height="3.3"/>
	<rect x="227.1" y="-192.6" class="st1" width="3.3" height="3.3"/>
	<rect x="214" y="-185" class="st1" width="3.3" height="3.3"/>
	<rect x="220.6" y="-185" class="st1" width="3.3" height="3.3"/>
	<rect x="227.1" y="-185" class="st1" width="3.3" height="3.3"/>
</g>
<g>
	<path class="st2" d="M53.9-118.1c0,0.7-0.3,1.5-0.8,2c-0.5,0.5-1.2,0.8-2,0.8c-0.7,0-1.5-0.3-2-0.8c-0.5-0.5-0.8-1.2-0.8-2
		c0-0.7,0.3-1.5,0.8-2c0.5-0.5,1.2-0.8,2-0.8c0.7,0,1.5,0.3,2,0.8C53.6-119.5,53.9-118.8,53.9-118.1 M57.3-109.5l-3.6-3.6
		c-0.1-0.1-0.2-0.2-0.3-0.2c-0.1-0.1-0.2-0.1-0.4-0.1H39.9c-0.2,0-0.5,0.1-0.7,0.3c-0.2,0.2-0.3,0.4-0.3,0.7c0,0.2,0.1,0.5,0.3,0.7
		c0.2,0.2,0.4,0.3,0.7,0.3h5l-6,11.8c0,0.1,0,0.3,0,0.4c0,0.2,0,0.5,0.1,0.7c0.1,0.2,0.4,0.4,0.6,0.4c0.2,0.1,0.5,0,0.7-0.1
		s0.4-0.3,0.4-0.6l1.9-3.2h3.7l-3.6,7.9c-0.1,0.1-0.1,0.3-0.1,0.5c0,0.2,0,0.5,0.2,0.7c0.1,0.2,0.4,0.3,0.6,0.4c0.2,0,0.5,0,0.7-0.1
		c0.2-0.1,0.4-0.3,0.4-0.6l8.8-17.5l2.7,2.8c0.2,0.2,0.4,0.2,0.6,0.2c0.2,0,0.5-0.1,0.6-0.3c0.2-0.2,0.3-0.4,0.3-0.6
		C57.6-109.1,57.5-109.3,57.3-109.5"/>
	<path class="st2" d="M54.9-101.5c2,0,3.6,1.6,3.6,3.6c0,2-1.6,3.6-3.6,3.6c-2,0-3.6-1.6-3.6-3.6C51.3-99.9,52.9-101.5,54.9-101.5"
		/>
</g>
<g>
	<path class="st2" d="M80.8-28.5c-4.2,0-7.5,3.3-7.5,7.4c0,4.1,3.4,7.4,7.5,7.4c4.2,0,7.5-3.3,7.5-7.4C88.3-25.2,85-28.5,80.8-28.5
		 M86.2-21.1c0,0.7-0.1,1.4-0.4,2c0,0,0,0,0,0c-0.1,0.1-0.2,0.1-0.2,0.2c-0.1-0.4-0.4-0.9-0.8-1.4c0.1-0.4,0.1-1.8,0-2.2
		c0.3-0.3,0.6-0.7,0.8-0.9c0.1,0,0.1,0.1,0.2,0.1C86-22.7,86.2-21.9,86.2-21.1 M76.1-20.3c0.3,0.2,1.1,0.5,1.6,0.6
		c0.1,0.2,0.2,0.6,0.5,1.1c0.2,0.4,0.5,0.7,0.7,0.9c-0.3,0.5-0.4,0.8-0.3,1.1c-0.3,0-0.5-0.1-0.8-0.2c-0.8-0.5-1.5-1.3-1.9-2.2
		C75.9-19.3,76-19.8,76.1-20.3 M78.9-26.1c0.1,0.2,0.2,0.5,0.3,0.7c-0.2,0.2-1,1.1-1.3,1.9c-0.4,0.1-1.2,0.2-1.6,0.7
		c-0.2,0-0.3-0.1-0.5-0.1C76.3-24.3,77.4-25.5,78.9-26.1 M85.5-23.6c-0.1,0.2-0.5,0.7-0.8,1c-0.4-0.3-1.5-0.8-1.8-0.9
		c-0.1-0.3-0.3-0.8-0.5-1.2c-0.2-0.3-0.4-0.6-0.6-0.7c0.2-0.2,0.5-0.5,0.8-0.7c1.2,0.4,2.2,1.2,2.8,2.2
		C85.4-23.8,85.4-23.7,85.5-23.6 M84.2-17c-0.3,0.2-1.1,0.6-2,0.5c-0.2-0.2-0.5-0.7-0.7-1c0,0,0-0.1-0.1-0.1c0.6-0.6,1-1.7,1.2-2.1
		c0.7,0,1.4-0.2,2-0.5c0.2,0.2,0.3,0.4,0.5,0.6c0.2,0.3,0.3,0.5,0.3,0.7c-0.2,0.4-0.5,1.1-0.9,1.6C84.4-17.2,84.3-17.1,84.2-17
		 M82.2-24.6c0.2,0.4,0.4,0.8,0.5,1.1c-0.1,0.1-0.2,0.3-0.3,0.4c-0.3,0.4-0.7,0.9-1,1.3c-0.4-0.1-1.6-0.3-2.4,0
		c-0.2-0.3-0.3-0.5-0.5-0.8c-0.1-0.2-0.2-0.3-0.3-0.5c-0.1-0.1-0.1-0.2-0.2-0.3c0.1-0.5,0.5-1,0.7-1.3c0.2-0.2,0.3-0.4,0.4-0.5
		c0.1-0.1,0.1-0.1,0.1-0.1c0.8-0.1,1.6-0.1,2.4,0C81.8-25.2,82-24.9,82.2-24.6 M78.9-21.6c0.5-0.1,1.1-0.1,1.6-0.1
		c0.2,0,0.4,0,0.7,0.1c0.1,0,0.2,0,0.2,0c0.1,0.2,0.2,0.4,0.4,0.6c0.2,0.3,0.4,0.6,0.7,1c0.1,0.1,0.1,0.2,0.1,0.3c0,0,0,0.1,0,0.1
		c-0.1,0.4-0.5,1.4-1.1,1.9c-0.9,0.1-1.7,0.1-2.3,0c-0.3-0.2-0.5-0.6-0.7-0.9C78.2-19,78-19.3,78-19.5c0-0.1-0.1-0.2-0.1-0.3
		c0,0,0,0,0,0C78.1-20.4,78.6-21.1,78.9-21.6 M78.3-16.5c0.1,0,0.3,0.1,0.4,0.1c0.1,0.1,0.2,0.2,0.4,0.3
		C78.8-16.2,78.5-16.4,78.3-16.5 M75.4-21.1c0-0.6,0.1-1.1,0.3-1.6c0.2,0,0.3,0.1,0.5,0.1c-0.2,0.5-0.3,1.8-0.1,2.2
		c-0.2,0.4-0.2,0.8-0.3,1.2C75.6-19.8,75.4-20.5,75.4-21.1"/>
	<path class="st2" d="M95.5-16.8h-2.2v-17H68.7v17h-2.5v-19.5h29.3V-16.8z M93.7-17.3H95v-18.5H66.7v18.5h1.5v-17h25.5V-17.3z"/>
	<polygon class="st2" points="68.6,-16.8 68.3,-17.2 72,-19.6 72,-31.1 68.3,-33.8 68.6,-34.2 72.5,-31.3 72.5,-19.3 	"/>
	<polygon class="st2" points="93.3,-16.8 89.4,-19.3 89.4,-31.3 93.3,-34.2 93.6,-33.8 89.9,-31 89.9,-19.6 93.6,-17.2 	"/>
	<rect x="72.3" y="-31.4" class="st2" width="17.4" height="0.5"/>
	<rect x="68.5" y="-25.5" class="st2" width="5.6" height="0.5"/>
	<rect x="87.9" y="-25.5" class="st2" width="5.6" height="0.5"/>
	<rect x="77.7" y="-31.2" class="st2" width="0.5" height="2.7"/>
	<rect x="83.7" y="-31.2" class="st2" width="0.5" height="2.7"/>
	<rect x="72.3" y="-19.7" class="st2" width="0.9" height="0.5"/>
	<rect x="88.7" y="-19.7" class="st2" width="0.9" height="0.5"/>
</g>
<g>
	<path class="st16" d="M8.8-74.2c0-1.6,0.7-3,1.8-4.1c1.2-1.1,2.7-1.7,4.4-1.7s3.2,0.6,4.4,1.7c1.2,1.1,1.8,2.6,1.8,4.1
		c0,1.6-0.7,3-1.8,4.1c-1.2,1.1-2.7,1.7-4.4,1.7s-3.2-0.6-4.4-1.7C9.5-71.1,8.8-72.6,8.8-74.2 M8.8-65.4c-2,0-4,0.8-5.5,2.1
		c-1.4,1.4-2.3,3.2-2.3,5.2c0,1.2,0.5,2.3,1.4,3.1c0.9,0.8,2,1.3,3.3,1.3h18.5c1.2,0,2.4-0.5,3.3-1.3c0.9-0.8,1.4-1.9,1.4-3.1
		c0-1.9-0.8-3.8-2.3-5.2c-1.4-1.4-3.4-2.1-5.5-2.1H8.8z"/>
</g>
<g>
	<defs>
		<rect id="SVGID_15_" x="144.9" y="-201.1" width="21.9" height="23.6"/>
	</defs>
	<clipPath id="SVGID_16_">
		<use xlink:href="#SVGID_15_"  style="overflow:visible;"/>
	</clipPath>
	<g class="st17">
		<defs>
			<rect id="SVGID_17_" x="144.9" y="-201.1" width="21.9" height="23.6"/>
		</defs>
		<clipPath id="SVGID_18_">
			<use xlink:href="#SVGID_17_"  style="overflow:visible;"/>
		</clipPath>
		<g style="clip-path:url(#SVGID_18_);">
			
				<image style="overflow:visible;" width="950" height="1024" xlink:href="C511BA0F.png"  transform="matrix(2.301777e-02 0 0 2.301777e-02 144.8895 -201.1379)">
			</image>
		</g>
	</g>
</g>
<g>
	<defs>
		<rect id="SVGID_19_" x="104" y="-200.8" width="21.1" height="24.3"/>
	</defs>
	<clipPath id="SVGID_20_">
		<use xlink:href="#SVGID_19_"  style="overflow:visible;"/>
	</clipPath>
	<g class="st18">
		<defs>
			<rect id="SVGID_21_" x="104" y="-200.8" width="21.1" height="24.2"/>
		</defs>
		<clipPath id="SVGID_22_">
			<use xlink:href="#SVGID_21_"  style="overflow:visible;"/>
		</clipPath>
		<g style="clip-path:url(#SVGID_22_);">
			
				<image style="overflow:visible;" width="1779" height="2048" xlink:href="C511BA0A.png"  transform="matrix(1.184026e-02 0 0 1.184026e-02 103.9975 -200.7716)">
			</image>
		</g>
	</g>
</g>
</svg>
