<?xml version="1.0" encoding="utf-8"?>
<!-- Generator: Adobe Illustrator 23.0.5, SVG Export Plug-In . SVG Version: 6.00 Build 0)  -->
<svg version="1.1" id="Layer_1" xmlns="http://www.w3.org/2000/svg" xmlns:xlink="http://www.w3.org/1999/xlink" x="0px" y="0px"
	 width="30px" height="30px" viewBox="0 0 30 30" style="enable-background:new 0 0 30 30;" xml:space="preserve">
<style type="text/css">
	.st0{fill:#141619;}
	.st1{fill:#6FB95D;}
	.st2{fill:#033A4A;}
	.st3{clip-path:url(#SVGID_2_);}
	.st4{fill:#2A4DA1;}
	.st5{fill:#D1A750;}
	.st6{fill:#FFFFFF;}
	.st7{fill:none;}
	.st8{clip-path:url(#SVGID_6_);fill:#6FB95D;}
	.st9{clip-path:url(#SVGID_6_);fill:#033A4A;}
	.st10{fill:#D6D5D5;}
	.st11{clip-path:url(#SVGID_8_);}
	.st12{clip-path:url(#SVGID_12_);fill:#2A4DA1;}
	.st13{clip-path:url(#SVGID_12_);fill:#D1A750;}
	.st14{clip-path:url(#SVGID_12_);fill:#FFFFFF;}
	.st15{fill:#F7F7F7;}
	.st16{fill-rule:evenodd;clip-rule:evenodd;fill:#033A4A;}
	.st17{clip-path:url(#SVGID_16_);}
	.st18{clip-path:url(#SVGID_20_);}
</style>
<g>
	<path class="st0" d="M20.4,0.7H9.6c-4.9,0-8.9,4-8.9,8.9v10.7c0,4.9,4,8.9,8.9,8.9h10.7c4.9,0,8.9-4,8.9-8.9V9.6
		C29.4,4.7,25.4,0.7,20.4,0.7 M26.7,20.4c0,3.5-2.8,6.3-6.3,6.3H9.6c-3.5,0-6.3-2.8-6.3-6.3V9.6c0-3.5,2.8-6.3,6.3-6.3h10.7
		c3.5,0,6.3,2.8,6.3,6.3V20.4z"/>
	<path class="st0" d="M15,7.9c-4,0-7.1,3.2-7.1,7.1c0,4,3.2,7.1,7.1,7.1c4,0,7.1-3.2,7.1-7.1C22.1,11.1,19,7.9,15,7.9 M15,19.5
		c-2.4,0-4.5-2-4.5-4.5c0-2.5,2-4.5,4.5-4.5c2.5,0,4.5,2,4.5,4.5C19.5,17.5,17.5,19.5,15,19.5"/>
	<path class="st0" d="M22.8,6.4c0.5,0,0.9,0.4,0.9,0.9s-0.4,0.9-0.9,0.9c-0.5,0-0.9-0.4-0.9-0.9C21.7,6.8,22.1,6.4,22.8,6.4"/>
</g>
<g>
	<path class="st0" d="M52.4,0.9H41.8C37,0.9,33,4.9,33,9.7v10.6c0,4.9,3.9,8.8,8.8,8.8h10.6c4.9,0,8.8-3.9,8.8-8.8V9.7
		C61.3,4.9,57.4,0.9,52.4,0.9 M58.6,20.3c0,3.4-2.8,6.2-6.2,6.2H41.8c-3.4,0-6.2-2.8-6.2-6.2V9.7c0-3.4,2.8-6.2,6.2-6.2h10.6
		c3.4,0,6.2,2.8,6.2,6.2V20.3z"/>
	<path class="st0" d="M48.5,12.3v-2.1c0-0.6,0.5-1.1,1.1-1.1h1.1V6.5h-2.1c-1.7,0-3.2,1.4-3.2,3.2v2.7h-2.1V15h2.1v8.5h3.2v-8.6h2.1
		l1.1-2.7L48.5,12.3z"/>
</g>
<g>
	<path class="st1" d="M17.4,218.3c0-0.4,0.2-0.6,0.6-0.6h6.7v2.4H18c-0.4,0-0.6-0.2-0.6-0.6V218.3z M17.4,225.6
		c0-0.4,0.2-0.6,0.6-0.6h6.7v2.4H18c-0.4,0-0.6-0.2-0.6-0.6V225.6z M17.4,211c0-0.4,0.2-0.6,0.6-0.6h6.7v2.4H18
		c-0.4,0-0.6-0.2-0.6-0.6V211z"/>
	<path class="st2" d="M24.8,210.4H18c-0.4,0-0.6,0.2-0.6,0.6v1.2c0,0.4,0.2,0.6,0.6,0.6h6.7v4.9H18c-0.4,0-0.6,0.2-0.6,0.6v1.2
		c0,0.4,0.2,0.6,0.6,0.6h6.7v4.9H18c-0.4,0-0.6,0.2-0.6,0.6v1.2c0,0.4,0.2,0.6,0.6,0.6h6.7v2.7c0,0.7-0.2,1.2-0.7,1.7
		c-0.5,0.5-1.1,0.7-1.7,0.7H7.7c-0.7,0-1.2-0.2-1.7-0.7c-0.5-0.5-0.7-1.1-0.7-1.7v-23c0-0.7,0.2-1.2,0.7-1.7
		c0.5-0.5,1.1-0.7,1.7-0.7h14.6c0.7,0,1.2,0.2,1.7,0.7c0.5,0.5,0.7,1.1,0.7,1.7V210.4z"/>
</g>
<g>
	<path class="st2" d="M-5.5,212v16.5c0,0.9-0.3,1.7-1,2.3c-0.7,0.7-1.4,1-2.3,1h-19.9c-0.9,0-1.7-0.3-2.3-1c-0.7-0.7-1-1.4-1-2.3
		V212c0-0.9,0.3-1.7,1-2.3c0.7-0.7,1.4-1,2.3-1h1.3c-0.9,1.5-1.3,3.2-1.3,5c0,2.7,1,5.1,2.9,7c1.9,1.9,4.3,2.9,7,2.9
		c2.7,0,5.1-1,7-2.9c1.9-1.9,2.9-4.3,2.9-7c0-1.8-0.4-3.4-1.3-5h1.3c0.9,0,1.7,0.3,2.3,1C-5.8,210.4-5.5,211.1-5.5,212 M-18.7,218.2
		c-0.4,0-0.7-0.1-1-0.3c-0.3-0.2-0.6-0.4-0.8-0.7c-0.2-0.3-0.3-0.7-0.3-1c0-0.6,0.2-1.1,0.6-1.5c0.4-0.4,0.9-0.6,1.5-0.6l1.7-4
		c0.1-0.3,0.4-0.5,0.8-0.5c0.2,0,0.4,0.1,0.6,0.2c0.2,0.2,0.2,0.4,0.2,0.6c0,0.1,0,0.2-0.1,0.3l-1.8,4.1c0.4,0.4,0.6,0.8,0.6,1.4
		c0,0.6-0.2,1.1-0.6,1.5C-17.6,218-18.1,218.2-18.7,218.2"/>
	<path class="st1" d="M-12.9,219.5l-1.2,1.2c-0.8,0.8-2.4,1.2-4.6,1.2c-2.3,0-4.2-0.8-5.8-2.4s-2.4-3.6-2.4-5.8
		c0-2.3,0.8-4.2,2.4-5.8s3.6-2.4,5.8-2.4c2.3,0,4.2,0.8,5.8,2.4s2.4,3.6,2.4,5.8C-10.4,216-11.2,217.9-12.9,219.5 M-18.7,214.1
		c-0.6,0-1.1,0.2-1.5,0.6c-0.4,0.4-0.6,0.9-0.6,1.5c0,0.6,0.2,1.1,0.6,1.4c0.4,0.4,0.9,0.6,1.5,0.6c0.6,0,1.1-0.2,1.5-0.6
		c0.4-0.4,0.6-0.9,0.6-1.5c0-0.6-0.2-1-0.6-1.4l1.8-4.1c0-0.1,0.1-0.2,0.1-0.3c0-0.1,0-0.3-0.1-0.4c-0.1-0.1-0.2-0.2-0.3-0.3
		c-0.1-0.1-0.3-0.1-0.4-0.1c-0.4,0-0.6,0.2-0.8,0.5L-18.7,214.1z"/>
</g>
<g>
	<defs>
		<rect id="SVGID_1_" x="1.1" y="48.5" width="27.9" height="17.1"/>
	</defs>
	<clipPath id="SVGID_2_">
		<use xlink:href="#SVGID_1_"  style="overflow:visible;"/>
	</clipPath>
	<g class="st3">
		<defs>
			<rect id="SVGID_3_" x="0.4" y="48.3" width="29.1" height="17.3"/>
		</defs>
		<clipPath id="SVGID_4_">
			<use xlink:href="#SVGID_3_"  style="overflow:visible;"/>
		</clipPath>
		<g style="clip-path:url(#SVGID_4_);">
			
				<image style="overflow:visible;" width="168" height="100" xlink:href="4655B2E4.jpg"  transform="matrix(0.1731 0 0 0.1731 0.4443 48.316)">
			</image>
		</g>
	</g>
</g>
<g>
	<rect x="32.7" y="48.1" class="st4" width="28.8" height="17.6"/>
	<rect x="33.6" y="47.4" class="st4" width="26.8" height="19.1"/>
	<path class="st5" d="M47.1,60.5c0.1-0.1,0.2-0.3,0.2-0.4c-0.1,0-0.2-0.1-0.3-0.1c0.5,0.1,0.6-0.5,1.1-0.3c0-0.1,0.1-0.1,0.2-0.1
		l0.1,0.2c0.2,0.1,0.1-0.3,0.4-0.2c0.1-0.1,0-0.3,0.1-0.4c0-0.1,0.1-0.2,0.1-0.4c0.1,0.1,0.1,0.2,0.2,0.1c0.1-0.1,0.2-0.2,0.2-0.3
		c0-0.2-0.1-0.4,0.1-0.5V58c0.1-0.1,0.5,0.1,0.5-0.2c0-0.1,0.1,0,0.1-0.1c0.1,0,0.2,0,0.3,0c0.1-0.2-0.1-0.3-0.2-0.5
		c0.1-0.1,0.1-0.3,0-0.4l-0.1,0c0.1,0,0.3,0,0.5-0.1l0.2-0.1c0.1,0.1,0.2,0.1,0.4,0.1c0.1-0.1,0-0.2,0.1-0.3c0.1,0,0.2,0,0.3-0.1
		l0,0c0.1,0.2,0.4,0.1,0.5,0.2c0.2,0,0.2-0.2,0.3-0.3c0-0.3-0.3-0.4-0.2-0.7c-0.1-0.1-0.2-0.3-0.3-0.4c0,0,0-0.1,0-0.1
		c-0.1-0.1,0-0.3-0.2-0.3c0-0.1-0.2-0.1-0.2-0.2c0.1-0.2-0.1-0.3-0.1-0.5c-0.1-0.1-0.3,0.1-0.3-0.1c-0.1,0-0.2,0.1-0.3,0
		c0-0.1,0.1-0.2,0.1-0.3c0.2,0,0.2-0.2,0.3-0.3l0.2-0.2c-0.2-0.1-0.4,0-0.7-0.1c-0.1,0,0,0.1-0.1,0.1c-0.1,0.1-0.2,0.1-0.3,0.1
		c0-0.1-0.2-0.1-0.1-0.2c0,0,0-0.1,0-0.1c-0.2,0-0.1,0.1-0.3,0.1c-0.2-0.1,0-0.3-0.3-0.3c0-0.2-0.4-0.4-0.1-0.6c0,0,0-0.1,0-0.2
		c-0.2-0.1-0.5-0.1-0.7,0c-0.2,0-0.1,0.2-0.1,0.3c-0.1,0.1-0.2,0.2-0.2,0.3c-0.1,0-0.2,0.1-0.3,0.2c-0.3-0.3-0.6-0.5-1-0.5
		c-0.2-0.1-0.3-0.4-0.5-0.3c-0.1-0.2-0.4,0-0.4-0.2c-0.1,0-0.1-0.2-0.1-0.3c0-0.2,0-0.3,0.2-0.5c0.1-0.1-0.1-0.1-0.1-0.3
		c0,0,0-0.1,0-0.1c-0.1,0-0.1-0.1-0.1-0.1c0,0-0.1,0-0.1-0.1c0-0.1-0.2-0.1-0.3-0.2c-0.1,0-0.2,0-0.2,0.1c0-0.1-0.1-0.2-0.2-0.2
		c-0.1,0-0.1,0.1-0.2,0.2c0,0.2-0.1,0.2-0.1,0.4c0.1,0.1,0.3,0.2,0.3,0.4c-0.1,0.2-0.1,0.4-0.2,0.6c-0.1,0.1-0.2,0.2-0.2,0.4
		c0.1,0.1,0,0.3-0.1,0.5c0,0.1-0.1,0.2-0.1,0.4c-0.2,0.1-0.2,0.4-0.5,0.5c-0.2,0-0.2,0.3-0.4,0.2c0,0-0.1,0.1-0.1,0.1
		c-0.1-0.1-0.3,0-0.5,0c-0.1,0.2,0.1,0.5-0.2,0.6v0.1c0,0,0.1,0,0.1,0c0,0.1-0.2,0.2-0.1,0.3c-0.1,0-0.1,0.1-0.1,0.2
		c-0.1,0.3-0.6,0.3-0.7,0.6c0.1,0.1,0.1,0.1,0.1,0.2c-0.1,0.1-0.1,0.2-0.1,0.4c0.1,0,0.1,0.1,0.1,0.2c-0.1,0.1-0.2,0.1-0.3,0.1
		c-0.2,0-0.3,0.2-0.4,0.2c0,0,0,0.1,0,0.1c0.2,0.1,0,0.4,0.2,0.3c0.1,0.1,0.2,0.1,0.3,0.2c0.1,0,0.2,0,0.3,0
		c0.1-0.1,0.2-0.1,0.3-0.2c0.1,0,0.2,0.1,0.3,0c0,0.2,0.1,0.3,0.2,0.4c0,0.1,0.1,0.1,0.2,0.1c0.2,0,0.3,0,0.5,0.1c0.1,0,0.1,0,0.2,0
		c0.1,0,0.2,0,0.3-0.1c0,0.2,0.3,0,0.4,0.3c0.1,0.1-0.2,0.2-0.2,0.3c0,0.1,0.1,0.2,0.1,0.3c0.1,0,0.1,0.1,0.2,0
		c0.2,0.1,0,0.5,0.4,0.4c0,0,0-0.1,0-0.1c0.1,0,0.1,0.1,0.2,0.2c0,0.1,0,0.3,0.1,0.4c0.1,0,0.1,0,0.1,0.1c0,0.1-0.1,0.2-0.1,0.2
		c0,0-0.1,0-0.1,0c0,0.1-0.1,0.2-0.1,0.3c-0.1,0-0.1,0.1-0.1,0.1c0.1,0.1,0,0.3,0.2,0.2c0.1,0.1,0.2,0,0.3,0.1
		c0.2,0.1,0.5,0.1,0.6,0.3c0.1,0,0.1,0.1,0.2,0C47,60.6,47.1,60.6,47.1,60.5"/>
	<polygon class="st6" points="48.6,63 48.3,63.8 48.1,63 47.2,63 47.9,62.5 47.7,61.8 48.3,62.2 49,61.8 48.8,62.5 49.4,63 	"/>
	<polygon class="st6" points="51.2,62.6 51,63.4 50.7,62.6 49.9,62.6 50.5,62.1 50.3,61.3 51,61.8 51.6,61.3 51.4,62.1 52.1,62.6 	
		"/>
	<polygon class="st6" points="53.7,61.7 53.5,62.5 53.2,61.7 52.4,61.7 53.1,61.2 52.8,60.4 53.5,60.9 54.1,60.4 53.9,61.2 
		54.6,61.7 	"/>
	<polygon class="st6" points="45.9,63 45.7,63.8 45.4,63 44.6,63 45.3,62.5 45,61.8 45.7,62.2 46.3,61.8 46.1,62.5 46.8,63 	"/>
	<polygon class="st6" points="43.3,62.6 43,63.4 42.8,62.6 42,62.6 42.6,62.1 42.4,61.3 43,61.8 43.7,61.3 43.5,62.1 44.1,62.6 	"/>
	<polygon class="st6" points="40.8,61.7 40.5,62.5 40.3,61.7 39.4,61.7 40.1,61.2 39.9,60.4 40.5,60.9 41.2,60.4 41,61.2 41.6,61.7 
			"/>
	<rect x="33.6" y="48.1" class="st7" width="26.8" height="17.6"/>
</g>
<g>
	<path class="st2" d="M69.6,71c-0.4,0-0.7-0.1-1-0.4c-0.3-0.3-0.4-0.6-0.4-1V64c0-0.8,0.3-1.4,0.8-2c0.5-0.5,1.2-0.8,2-0.8h19.6
		c0.8,0,1.4,0.3,2,0.8c0.5,0.5,0.8,1.2,0.8,2v5.6c0,0.4-0.1,0.7-0.4,1c-0.3,0.3-0.6,0.4-1,0.4H69.6z M71,58.4v-4.2
		c0-0.8,0.3-1.4,0.8-2c0.6-0.5,1.2-0.8,2-0.8h5.6v-2c-0.4-0.3-0.8-0.6-1-1C78.2,48,78,47.5,78,46.9c0-0.3,0.1-0.7,0.2-1
		c0.1-0.3,0.3-0.6,0.6-0.9l2-2l2,2c0.3,0.3,0.5,0.6,0.6,0.9c0.1,0.3,0.2,0.7,0.2,1c0,0.6-0.1,1-0.4,1.4c-0.3,0.4-0.6,0.7-1,1v2h5.6
		c0.8,0,1.4,0.3,2,0.8c0.6,0.5,0.8,1.2,0.8,2v4.2H71z"/>
	<path class="st1" d="M71,58.4v-4.2c0-0.8,0.3-1.4,0.8-2c0.6-0.5,1.2-0.8,2-0.8h5.6v-2c-0.4-0.3-0.8-0.6-1-1
		C78.2,48,78,47.5,78,46.9c0-0.3,0.1-0.7,0.2-1c0.1-0.3,0.3-0.6,0.6-0.9l2-2l2,2c0.3,0.3,0.5,0.6,0.6,0.9c0.1,0.3,0.2,0.7,0.2,1
		c0,0.6-0.1,1-0.4,1.4c-0.3,0.4-0.6,0.7-1,1v2h5.6c0.8,0,1.4,0.3,2,0.8c0.6,0.5,0.8,1.2,0.8,2v4.2H71z"/>
</g>
<g>
	<g>
		<defs>
			<rect id="SVGID_5_" x="1" y="124.3" width="28.1" height="25"/>
		</defs>
		<clipPath id="SVGID_6_">
			<use xlink:href="#SVGID_5_"  style="overflow:visible;"/>
		</clipPath>
		<path class="st8" d="M19.7,130.2v0.3h-5.5c-0.2,0-0.4-0.1-0.6-0.2c-0.1-0.1-0.2-0.3-0.2-0.6v-5.5h0.3c0.3,0,0.6,0.1,0.8,0.3
			l4.8,4.8C19.6,129.6,19.7,129.9,19.7,130.2 M15,141.2l7.9-7.9l3.3,3.3l-7.9,8H15V141.2z M28.7,132.4c0.2,0.3,0.3,0.6,0.3,0.9
			c0,0.3-0.1,0.6-0.3,0.9l-1.4,1.4l-3.3-3.3l1.4-1.4c0.2-0.2,0.5-0.3,0.9-0.3c0.3,0,0.6,0.1,0.9,0.3L28.7,132.4z"/>
		<path class="st9" d="M4.3,143.2c0,0,0,0-0.1,0.1c-0.1,0.1-0.1,0.2-0.1,0.5c0,0.2,0.1,0.4,0.2,0.6c0.1,0.1,0.3,0.2,0.6,0.2h0.6
			c0.5,0,0.9-0.1,1.3-0.4c0.4-0.3,0.6-0.6,0.7-1.1l0.5-1.5l0.8,2.4c0.1,0.3,0.3,0.5,0.7,0.5c0.4,0,0.6-0.1,0.7-0.4l0.4-0.7
			c0.1-0.2,0.3-0.3,0.5-0.3c0.2,0,0.4,0.1,0.5,0.3c0.4,0.8,1,1.2,1.9,1.2h4.9l1.3-1.3v4.8c0,0.2,0,0.3-0.1,0.5
			c-0.1,0.1-0.1,0.3-0.2,0.4c-0.1,0.1-0.2,0.2-0.4,0.2c-0.1,0.1-0.3,0.1-0.5,0.1H2.1c-0.3,0-0.6-0.1-0.8-0.3
			c-0.2-0.2-0.3-0.5-0.3-0.8v-22.6c0-0.3,0.1-0.6,0.3-0.8c0.2-0.2,0.5-0.3,0.8-0.3h11.3v5.5c0,0.2,0.1,0.4,0.2,0.6
			c0.1,0.1,0.3,0.2,0.6,0.2h5.5v6l-4.7,4.6v1.8h-1.6c-0.2,0-0.4-0.1-0.4-0.3c-0.3-0.6-0.8-1-1.5-1.1c-0.7-0.1-1.3,0-1.7,0.4l-0.7-2
			c-0.2-0.6-0.6-0.8-1.1-0.8S7,139.4,6.9,140L6,142.6c-0.1,0.3-0.3,0.4-0.5,0.4H4.9C4.6,143,4.4,143.1,4.3,143.2"/>
	</g>
</g>
<g>
	<path class="st1" d="M-18.7,169.2c1.2,0,2.2-0.2,3.2-0.6c1-0.4,1.7-0.9,2.2-1.6l1.4,0.7c-0.2,0.2-0.4,0.4-0.6,0.6
		c-1.7,1.5-3.8,2.3-6.2,2.3c-2.4,0-4.5-0.8-6.2-2.3c-0.2-0.2-0.4-0.4-0.6-0.6l1.5-0.7c0.3,0.4,0.7,0.8,1.2,1.1
		c0.5,0.3,1.1,0.6,1.9,0.8C-20.2,169.1-19.5,169.2-18.7,169.2"/>
	<polygon class="st1" points="-32.2,171.1 -30.8,170.4 -27.6,177 -28.9,177.6 	"/>
	<polygon class="st1" points="-6.6,170.4 -5.2,171.1 -8.5,177.6 -9.8,177 	"/>
	<path class="st2" d="M-32.9,171.4l0.8-0.4l3.3,6.5l-0.8,0.4c-0.1,0-0.2,0-0.3,0c-0.3,0-0.5-0.1-0.6-0.4l-2.6-5.2
		c-0.1-0.1-0.1-0.2-0.1-0.3C-33.4,171.8-33.2,171.6-32.9,171.4 M-11.9,167.8l5.4,2.7l-3.2,6.5l-0.5-0.2c-0.1-0.1-0.2-0.1-0.3-0.1
		c-0.2,0-0.4,0.1-0.5,0.2c-0.1,0.2-0.2,0.3-0.2,0.5V189c0,0.4-0.1,0.7-0.4,1c-0.3,0.3-0.6,0.4-1,0.4h-11.7c-0.4,0-0.7-0.1-1-0.4
		c-0.3-0.3-0.4-0.6-0.4-1v-11.6c0-0.2-0.1-0.3-0.2-0.5c-0.1-0.2-0.3-0.2-0.5-0.2c-0.1,0-0.2,0-0.3,0.1l-0.5,0.2l-3.2-6.5l5.4-2.7
		c0.2,0.2,0.4,0.4,0.6,0.6c1.7,1.5,3.8,2.3,6.2,2.3s4.5-0.8,6.2-2.3C-12.3,168.2-12.1,168-11.9,167.8 M-4.5,171.5
		c0.3,0.1,0.4,0.3,0.4,0.6c0,0.1,0,0.2-0.1,0.3l-2.6,5.2c-0.1,0.3-0.3,0.4-0.6,0.4c-0.1,0-0.2,0-0.3,0h0l-0.8-0.4l3.3-6.5
		L-4.5,171.5z"/>
</g>
<g>
	<path class="st2" d="M54.4,205.6c-0.2,0-0.4,0.1-0.6,0.2c-0.2,0.2-0.2,0.4-0.2,0.6v0.8h-13v-0.8c0-0.2-0.1-0.4-0.2-0.6
		c-0.2-0.2-0.4-0.2-0.6-0.2c-0.2,0-0.4,0.1-0.6,0.2c-0.2,0.2-0.2,0.4-0.2,0.6v0.8h-1.6c-0.9,0-1.7,0.3-2.3,1c-0.6,0.6-1,1.4-1,2.3
		v17.9c0,0.9,0.3,1.7,1,2.3c0.6,0.6,1.4,1,2.3,1h19.5c0.9,0,1.7-0.3,2.3-1c0.6-0.6,1-1.4,1-2.3v-17.9c0-0.9-0.3-1.7-1-2.3
		c-0.6-0.6-1.4-1-2.3-1h-1.6v-0.8c0-0.2-0.1-0.4-0.2-0.6C54.9,205.7,54.6,205.6,54.4,205.6 M58.5,212.1v16.2c0,0.4-0.2,0.8-0.5,1.1
		c-0.3,0.3-0.7,0.5-1.1,0.5H37.4c-0.4,0-0.8-0.2-1.1-0.5c-0.3-0.3-0.5-0.7-0.5-1.1v-16.2H58.5z"/>
	<rect x="39.5" y="215.4" class="st1" width="3.2" height="3.2"/>
	<rect x="46" y="215.4" class="st1" width="3.3" height="3.2"/>
	<rect x="52.5" y="215.4" class="st1" width="3.2" height="3.2"/>
	<rect x="39.5" y="223" class="st1" width="3.2" height="3.3"/>
	<rect x="46" y="223" class="st1" width="3.3" height="3.3"/>
	<rect x="52.5" y="223" class="st1" width="3.2" height="3.3"/>
</g>
<g>
	<path class="st10" d="M74.8,230.8l-0.5,0.5c-0.3,0.3-0.9,0.5-1.8,0.5c-0.9,0-1.7-0.3-2.3-1c-0.7-0.7-1-1.4-1-2.3v-1.7h6.7v1.7
		C75.8,229.3,75.5,230.1,74.8,230.8 M67.9,212.9c0.6-2.7,1.5-4.6,2.6-5.9c1.1-1.2,2.4-1.9,3.7-1.9c1.1,0,2,0.4,2.8,1.3
		c0.8,0.9,1.3,2,1.7,3.3c0.4,1.4,0.5,2.8,0.5,4.5c0,1.9-0.6,3.7-1.7,5.4c-0.4,0.7-0.7,1.1-0.9,1.4c-0.2,0.3-0.3,0.8-0.5,1.5
		c-0.2,0.7-0.3,1.6-0.3,2.6h-6.7l-0.8-3c-0.5-1.6-0.7-2.9-0.8-4.2C67.4,216.1,67.5,214.5,67.9,212.9"/>
	<path class="st2" d="M91.5,231.2l-0.5,0.5c-0.3,0.3-0.9,0.5-1.8,0.5c-0.9,0-1.7-0.3-2.3-1c-0.7-0.7-1-1.4-1-2.3v-1.7h6.7v1.7
		C92.5,229.8,92.1,230.5,91.5,231.2 M82.5,214.7c0-2.5,0.4-4.7,1.3-6.4c0.9-1.8,2.1-2.7,3.7-2.7c1.3,0,2.5,0.6,3.7,1.9
		c1.1,1.2,2,3.2,2.6,5.9c0.3,1.6,0.5,3.2,0.3,5c-0.1,1.2-0.3,2.6-0.8,4.2l-0.8,3h-6.7c0-1-0.1-1.8-0.3-2.6c-0.2-0.7-0.4-1.2-0.5-1.5
		c-0.2-0.3-0.4-0.7-0.9-1.4C83,218.4,82.5,216.6,82.5,214.7"/>
</g>
<g>
	<defs>
		<rect id="SVGID_7_" x="-32.5" y="88.5" width="27.5" height="16.8"/>
	</defs>
	<clipPath id="SVGID_8_">
		<use xlink:href="#SVGID_7_"  style="overflow:visible;"/>
	</clipPath>
	<g class="st11">
		<defs>
			<rect id="SVGID_9_" x="-33" y="88.3" width="28.7" height="17.1"/>
		</defs>
		<clipPath id="SVGID_10_">
			<use xlink:href="#SVGID_9_"  style="overflow:visible;"/>
		</clipPath>
		<g style="clip-path:url(#SVGID_10_);">
			
				<image style="overflow:visible;" width="168" height="100" xlink:href="4655B2E5.jpg"  transform="matrix(0.1706 0 0 0.1706 -33.0498 88.3239)">
			</image>
		</g>
	</g>
</g>
<g>
	<rect x="-33.1" y="48.2" class="st4" width="28.8" height="17.6"/>
	<g>
		<defs>
			<rect id="SVGID_11_" x="-32.2" y="48.2" width="26.8" height="17.6"/>
		</defs>
		<clipPath id="SVGID_12_">
			<use xlink:href="#SVGID_11_"  style="overflow:visible;"/>
		</clipPath>
		<rect x="-32.2" y="47.5" class="st12" width="26.8" height="19.1"/>
		<path class="st13" d="M-18.7,60.6c0.1-0.1,0.2-0.3,0.2-0.4c-0.1,0-0.2-0.1-0.3-0.1c0.5,0.1,0.6-0.5,1.1-0.3c0-0.1,0.1-0.1,0.2-0.1
			l0.1,0.2c0.2,0.1,0.1-0.3,0.4-0.2c0.1-0.1,0-0.3,0.1-0.4c0-0.1,0.1-0.2,0.1-0.4c0.1,0.1,0.1,0.2,0.2,0.1c0.1-0.1,0.2-0.2,0.2-0.3
			c0-0.2-0.1-0.4,0.1-0.5v-0.1c0.1-0.1,0.5,0.1,0.5-0.2c0-0.1,0.1,0,0.1-0.1c0.1,0,0.2,0,0.3,0c0.1-0.2-0.1-0.3-0.2-0.5
			c0.1-0.1,0.1-0.3,0-0.4l-0.1,0c0.1,0,0.3,0,0.5-0.1l0.2-0.1c0.1,0.1,0.2,0.1,0.4,0.1c0.1-0.1,0-0.2,0.1-0.3c0.1,0,0.2,0,0.3-0.1
			l0,0c0.1,0.2,0.4,0.1,0.5,0.2c0.2,0,0.2-0.2,0.3-0.3c0-0.3-0.3-0.4-0.2-0.7c-0.1-0.1-0.2-0.3-0.3-0.4c0,0,0-0.1,0-0.1
			c-0.1-0.1,0-0.3-0.2-0.3c0-0.1-0.2-0.1-0.2-0.2c0.2-0.2-0.1-0.3-0.1-0.5c-0.1-0.1-0.3,0.1-0.3-0.1c-0.1,0-0.2,0.1-0.3,0
			c0-0.1,0.1-0.2,0.1-0.3c0.2,0,0.2-0.2,0.3-0.3l0.2-0.2c-0.2-0.1-0.4,0-0.7-0.1c-0.1,0,0,0.1-0.1,0.1c-0.1,0.1-0.2,0.1-0.3,0.1
			c0-0.1-0.1-0.1-0.1-0.2c0,0,0-0.1,0-0.1c-0.2,0-0.1,0.1-0.3,0.1c-0.2-0.1,0-0.3-0.3-0.3c0-0.2-0.4-0.4-0.1-0.6c0,0,0-0.1,0-0.2
			c-0.2-0.1-0.5-0.1-0.7,0c-0.2,0-0.1,0.2-0.1,0.3c-0.1,0.1-0.2,0.2-0.2,0.3c-0.1,0-0.2,0.1-0.3,0.2c-0.3-0.3-0.6-0.5-1-0.5
			c-0.2-0.1-0.3-0.4-0.5-0.3c-0.1-0.2-0.4,0-0.4-0.2c-0.1,0-0.1-0.2-0.1-0.3c0-0.2,0-0.3,0.2-0.5c0.1-0.1-0.1-0.1-0.1-0.3
			c0,0,0-0.1,0-0.1c-0.1,0-0.1-0.1-0.1-0.1c0,0-0.1,0-0.1-0.1c0-0.1-0.2-0.1-0.3-0.2c-0.1,0-0.2,0-0.2,0.1c0-0.1-0.1-0.2-0.2-0.2
			c-0.2,0-0.1,0.1-0.2,0.2c0,0.2-0.1,0.2-0.1,0.4c0.1,0.1,0.3,0.2,0.3,0.4c-0.1,0.2-0.1,0.4-0.2,0.6c-0.1,0.1-0.2,0.2-0.2,0.4
			c0.1,0.1,0,0.3-0.1,0.5c0,0.1-0.1,0.2-0.1,0.4c-0.2,0.1-0.2,0.4-0.5,0.5c-0.2,0-0.2,0.3-0.4,0.2c0,0-0.1,0.1-0.1,0.1
			c-0.1-0.1-0.3,0-0.5,0c-0.1,0.2,0.1,0.5-0.2,0.6v0.1c0,0,0.1,0,0.1,0c0,0.1-0.2,0.2-0.1,0.3c-0.1,0-0.1,0.1-0.1,0.2
			c-0.1,0.3-0.6,0.3-0.7,0.6c0.1,0.1,0.1,0.1,0.1,0.2c-0.1,0.1-0.1,0.2-0.1,0.4c0.1,0,0.1,0.1,0.1,0.2c-0.1,0.1-0.2,0.1-0.3,0.1
			c-0.2,0-0.3,0.2-0.4,0.2c0,0,0,0.1,0,0.1c0.2,0.1,0,0.4,0.2,0.3c0.1,0.1,0.2,0.1,0.3,0.2c0.1,0,0.2,0,0.3,0
			c0.1-0.1,0.2-0.1,0.3-0.2c0.1,0,0.2,0.1,0.3,0c0,0.2,0.1,0.3,0.2,0.4c0,0.1,0.1,0.1,0.2,0.1c0.2,0,0.3,0,0.5,0.1
			c0.1,0,0.1,0,0.2,0c0.1,0,0.2,0,0.3-0.1c0,0.2,0.3,0,0.4,0.3c0.1,0.1-0.2,0.2-0.2,0.3c0,0.1,0.1,0.2,0.1,0.3c0.1,0,0.1,0.1,0.2,0
			c0.2,0.1,0,0.5,0.4,0.4c0,0,0-0.1,0-0.1c0.1,0,0.1,0.1,0.2,0.2c0,0.1,0,0.3,0.1,0.4c0.1,0,0.1,0,0.1,0.1c0,0.1-0.1,0.2-0.1,0.2
			c0,0-0.1,0-0.1,0c0,0.1-0.1,0.2-0.1,0.3c-0.1,0-0.1,0.1-0.1,0.1c0.1,0.1,0,0.3,0.2,0.2c0.1,0.1,0.2,0,0.3,0.1
			c0.2,0.1,0.5,0.1,0.6,0.3c0.1,0,0.1,0.1,0.2,0C-18.9,60.6-18.7,60.7-18.7,60.6"/>
		<polygon class="st14" points="-17.2,63.1 -17.5,63.9 -17.7,63.1 -18.6,63.1 -17.9,62.6 -18.2,61.8 -17.5,62.3 -16.8,61.8 
			-17.1,62.6 -16.4,63.1 		"/>
		<polygon class="st14" points="-14.6,62.6 -14.9,63.4 -15.1,62.6 -16,62.6 -15.3,62.1 -15.5,61.3 -14.9,61.8 -14.2,61.3 
			-14.4,62.1 -13.8,62.6 		"/>
		<polygon class="st14" points="-12.1,61.7 -12.4,62.5 -12.6,61.7 -13.4,61.7 -12.8,61.2 -13,60.4 -12.4,60.9 -11.7,60.4 
			-11.9,61.2 -11.3,61.7 		"/>
		<polygon class="st14" points="-19.9,63.1 -20.2,63.9 -20.4,63.1 -21.2,63.1 -20.6,62.6 -20.8,61.8 -20.2,62.3 -19.5,61.8 
			-19.7,62.6 -19.1,63.1 		"/>
		<polygon class="st14" points="-22.5,62.6 -22.8,63.4 -23,62.6 -23.9,62.6 -23.2,62.1 -23.5,61.3 -22.8,61.8 -22.1,61.3 
			-22.4,62.1 -21.7,62.6 		"/>
		<polygon class="st14" points="-25,61.7 -25.3,62.5 -25.5,61.7 -26.4,61.7 -25.7,61.2 -26,60.4 -25.3,60.9 -24.6,60.4 -24.9,61.2 
			-24.2,61.7 		"/>
	</g>
</g>
<g>
	<path class="st15" d="M-3.9,15c0,8.2-6.6,14.8-14.8,14.8S-33.5,23.2-33.5,15c0-8.2,6.6-14.8,14.8-14.8S-3.9,6.8-3.9,15"/>
	<g>
		<defs>
			<rect id="SVGID_13_" x="-29" y="3.2" width="20.5" height="23.6"/>
		</defs>
		<clipPath id="SVGID_14_">
			<use xlink:href="#SVGID_13_"  style="overflow:visible;"/>
		</clipPath>
		<g style="clip-path:url(#SVGID_14_);">
			
				<image style="overflow:visible;" width="1779" height="2048" xlink:href="4655B2E4.png"  transform="matrix(1.153737e-02 0 0 1.153737e-02 -28.9683 3.1856)">
			</image>
		</g>
	</g>
</g>
<path class="st2" d="M169.3,14.9C169.3,14.8,169.3,14.8,169.3,14.9c0-0.3,0-0.4,0-0.6c0-7.4-6-13.5-13.5-13.5
	c-7.4,0-13.5,6-13.5,13.5c0,7.4,6,13.5,13.5,13.5c7.1,0,12.8-5.4,13.4-12.4C169.3,15.2,169.3,15.1,169.3,14.9 M166.1,19.6
	C166.1,19.6,166.1,19.6,166.1,19.6h-2c-0.9,0-1.6,0-2.2,0.1c-0.3,0-0.6,0.1-0.9,0.2l-1.9-2.2c0-0.1,0.1-0.2,0.1-0.3l0.9-2.9
	l-0.5-0.2l0.5,0.2c0-0.1,0-0.3,0.1-0.4l3.3-1.4c0.2,0.2,0.4,0.4,0.6,0.6c0.5,0.4,1,0.8,1.8,1.2l1.4,0.9
	C167.2,17,166.7,18.4,166.1,19.6 M150.8,19.9c-0.3-0.1-0.6-0.1-0.8-0.2c-0.6-0.1-1.3-0.1-2.2-0.1h-2l0,0.5h0v-0.5
	c-0.1,0-0.2,0-0.2,0c-0.7-1.3-1.1-2.6-1.3-4.1l1.5-1c0.7-0.5,1.3-0.9,1.8-1.2c0.2-0.2,0.4-0.4,0.6-0.6l3.2,1.4c0,0.1,0,0.3,0.1,0.4
	l0.5-0.2l-0.5,0.2l0.9,2.9c0,0.1,0.1,0.2,0.1,0.3L150.8,19.9z M155.2,11.3l-0.7-0.9l-2.3,1.8v0c-0.1,0.1-0.1,0.1-0.2,0.2l-3.2-1.3
	c0-0.3,0-0.6-0.1-0.9c-0.1-0.6-0.3-1.3-0.5-2.1l-0.5-2c0,0,0-0.1,0-0.1c0.9-0.8,1.9-1.6,3-2.1l1.7,1.2c0.7,0.5,1.3,0.9,1.8,1.2
	c0.2,0.1,0.5,0.3,0.8,0.3v3.4c-0.1,0.1-0.3,0.1-0.4,0.2 M164,6.1l-0.5,2c-0.2,0.8-0.4,1.5-0.5,2.1c0,0.3-0.1,0.6,0,0.9l-3.2,1.3
	c-0.1-0.1-0.1-0.2-0.2-0.2l-2.3-1.8c-0.1-0.1-0.3-0.1-0.4-0.2V6.7c0.3-0.1,0.5-0.2,0.8-0.3c0.5-0.3,1.1-0.7,1.8-1.2v0l0,0l1.7-1.2
	C161,4,161,4,161,4C162.1,4.5,163.1,5.2,164,6.1C164,6.1,164,6.1,164,6.1 M152.8,14.1L152.8,14.1l-0.9,0.3L152.8,14.1z M158.8,14.1
	l0.8,0.3L158.8,14.1z M154.1,25.8l-0.7-2.1c-0.3-0.8-0.5-1.5-0.7-2c-0.1-0.2-0.2-0.5-0.4-0.7l1.6-2.1c0.2,0,0.3,0.1,0.5,0.1h2.8
	v-0.9v0V19c0.2,0,0.3,0,0.5-0.1l1.8,2.1c-0.1,0.2-0.3,0.4-0.4,0.7c-0.2,0.5-0.5,1.2-0.7,2l-0.7,2c-0.6,0.1-1.3,0.2-1.9,0.2
	C155.2,25.9,154.7,25.8,154.1,25.8"/>
<g>
	<path class="st2" d="M195.3,1.1c-0.2,0-0.4,0.1-0.6,0.2c-0.2,0.2-0.2,0.4-0.2,0.6v0.8h-13.1V2c0-0.2-0.1-0.4-0.2-0.6
		s-0.4-0.2-0.6-0.2c-0.2,0-0.4,0.1-0.6,0.2c-0.2,0.2-0.2,0.4-0.2,0.6v0.8h-1.6c-0.9,0-1.7,0.3-2.3,1c-0.6,0.6-1,1.5-1,2.3v18.1
		c0,0.9,0.3,1.7,1,2.3c0.6,0.6,1.5,1,2.3,1h19.7c0.9,0,1.7-0.3,2.3-1c0.6-0.6,1-1.5,1-2.3V6.1c0-0.9-0.3-1.7-1-2.3
		c-0.6-0.6-1.5-1-2.3-1h-1.6V2c0-0.2-0.1-0.4-0.2-0.6C195.8,1.2,195.6,1.1,195.3,1.1 M199.4,7.7v16.4c0,0.4-0.2,0.9-0.5,1.2
		c-0.3,0.3-0.7,0.5-1.2,0.5h-19.7c-0.4,0-0.9-0.2-1.2-0.5c-0.3-0.3-0.5-0.7-0.5-1.2V7.7H199.4z"/>
	<rect x="180.3" y="11" class="st1" width="3.3" height="3.3"/>
	<rect x="186.8" y="11" class="st1" width="3.3" height="3.3"/>
	<rect x="193.4" y="11" class="st1" width="3.3" height="3.3"/>
	<rect x="180.3" y="18.7" class="st1" width="3.3" height="3.3"/>
	<rect x="186.8" y="18.7" class="st1" width="3.3" height="3.3"/>
	<rect x="193.4" y="18.7" class="st1" width="3.3" height="3.3"/>
</g>
<g>
	<path class="st2" d="M20.2,85.6c0,0.7-0.3,1.5-0.8,2c-0.5,0.5-1.2,0.8-2,0.8c-0.7,0-1.5-0.3-2-0.8c-0.5-0.5-0.8-1.2-0.8-2
		c0-0.7,0.3-1.5,0.8-2c0.5-0.5,1.2-0.8,2-0.8c0.7,0,1.5,0.3,2,0.8C19.9,84.1,20.2,84.8,20.2,85.6 M23.6,94.2l-3.6-3.6
		c-0.1-0.1-0.2-0.2-0.3-0.2c-0.1-0.1-0.2-0.1-0.4-0.1H6.2c-0.2,0-0.5,0.1-0.7,0.3c-0.2,0.2-0.3,0.4-0.3,0.7c0,0.2,0.1,0.5,0.3,0.7
		c0.2,0.2,0.4,0.3,0.7,0.3h5l-6,11.8c0,0.1,0,0.3,0,0.4c0,0.2,0,0.5,0.1,0.7c0.1,0.2,0.4,0.4,0.6,0.4c0.2,0.1,0.5,0,0.7-0.1
		c0.2-0.1,0.4-0.3,0.4-0.6l1.9-3.2h3.7l-3.6,7.9C9,109.5,9,109.7,9,109.9c0,0.2,0,0.5,0.2,0.7c0.1,0.2,0.4,0.3,0.6,0.4
		c0.2,0,0.5,0,0.7-0.1c0.2-0.1,0.4-0.3,0.4-0.6l8.8-17.5l2.7,2.8c0.2,0.2,0.4,0.2,0.6,0.2c0.2,0,0.5-0.1,0.6-0.3
		c0.2-0.2,0.3-0.4,0.3-0.6C23.9,94.6,23.8,94.3,23.6,94.2"/>
	<path class="st2" d="M21.2,102.2c2,0,3.6,1.6,3.6,3.6c0,2-1.6,3.6-3.6,3.6c-2,0-3.6-1.6-3.6-3.6C17.6,103.8,19.2,102.2,21.2,102.2"
		/>
</g>
<g>
	<path class="st2" d="M47.1,175.1c-4.2,0-7.5,3.3-7.5,7.4c0,4.1,3.4,7.4,7.5,7.4s7.5-3.3,7.5-7.4C54.6,178.4,51.3,175.1,47.1,175.1
		 M52.5,182.5c0,0.7-0.1,1.4-0.4,2c0,0,0,0,0,0c-0.1,0.1-0.2,0.1-0.2,0.2c-0.1-0.4-0.4-0.9-0.8-1.4c0.1-0.4,0.1-1.8,0-2.2
		c0.3-0.3,0.6-0.7,0.8-0.9c0.1,0,0.1,0.1,0.2,0.1C52.3,181,52.5,181.7,52.5,182.5 M42.4,183.3c0.3,0.2,1.1,0.5,1.6,0.6
		c0.1,0.2,0.2,0.6,0.5,1.1c0.2,0.4,0.5,0.7,0.7,0.9c-0.3,0.5-0.4,0.8-0.3,1.1c-0.3,0-0.5-0.1-0.8-0.2c-0.8-0.5-1.5-1.3-1.9-2.2
		C42.2,184.3,42.2,183.8,42.4,183.3 M45.2,177.6c0.1,0.2,0.2,0.5,0.3,0.7c-0.2,0.2-1,1.1-1.3,1.9c-0.4,0.1-1.2,0.2-1.6,0.7
		c-0.2,0-0.3-0.1-0.5-0.1C42.6,179.3,43.7,178.1,45.2,177.6 M51.8,180c-0.1,0.2-0.5,0.7-0.8,1c-0.4-0.3-1.5-0.8-1.8-0.9
		c-0.1-0.3-0.3-0.8-0.5-1.2c-0.2-0.3-0.4-0.6-0.6-0.7c0.2-0.2,0.5-0.5,0.8-0.7c1.2,0.4,2.2,1.2,2.8,2.2
		C51.7,179.8,51.7,179.9,51.8,180 M50.5,186.6c-0.3,0.2-1.1,0.6-2,0.5c-0.2-0.2-0.5-0.7-0.7-1c0,0,0-0.1-0.1-0.1
		c0.6-0.6,1-1.7,1.2-2.1c0.7,0,1.4-0.2,2-0.5c0.2,0.2,0.3,0.4,0.5,0.6c0.2,0.3,0.3,0.5,0.3,0.7c-0.2,0.4-0.5,1.1-0.9,1.6
		C50.7,186.4,50.6,186.5,50.5,186.6 M48.5,179c0.2,0.4,0.4,0.8,0.5,1.1c-0.1,0.1-0.2,0.3-0.3,0.4c-0.3,0.4-0.7,0.9-1,1.3
		c-0.4-0.1-1.6-0.3-2.4,0c-0.2-0.3-0.3-0.5-0.5-0.8c-0.1-0.2-0.2-0.3-0.3-0.5c-0.1-0.1-0.1-0.2-0.2-0.3c0.1-0.5,0.5-1,0.7-1.3
		c0.2-0.2,0.3-0.4,0.4-0.5c0.1-0.1,0.1-0.1,0.1-0.1c0.8-0.1,1.6-0.1,2.4,0C48.1,178.5,48.3,178.7,48.5,179 M45.2,182
		c0.5-0.1,1.1-0.1,1.6-0.1c0.2,0,0.4,0,0.7,0.1c0.1,0,0.2,0,0.2,0c0.1,0.2,0.2,0.4,0.4,0.6c0.2,0.3,0.4,0.6,0.7,1
		c0.1,0.1,0.1,0.2,0.1,0.3c0,0,0,0.1,0,0.1c-0.1,0.4-0.5,1.4-1.1,1.9c-0.9,0.1-1.7,0.1-2.3,0c-0.3-0.2-0.5-0.6-0.7-0.9
		c-0.2-0.3-0.3-0.6-0.4-0.8c0-0.1-0.1-0.2-0.1-0.3c0,0,0,0,0,0C44.4,183.2,44.9,182.6,45.2,182 M44.6,187.2c0.1,0,0.3,0.1,0.4,0.1
		c0.1,0.1,0.2,0.2,0.4,0.3C45.1,187.4,44.8,187.3,44.6,187.2 M41.7,182.5c0-0.6,0.1-1.1,0.3-1.6c0.2,0,0.3,0.1,0.5,0.1
		c-0.2,0.5-0.3,1.8-0.1,2.2c-0.2,0.4-0.2,0.8-0.3,1.2C41.9,183.8,41.7,183.2,41.7,182.5"/>
	<path class="st2" d="M61.7,186.9h-2.2v-17H35v17h-2.5v-19.5h29.3V186.9z M60,186.4h1.2v-18.5H33v18.5h1.5v-17H60V186.4z"/>
	<polygon class="st2" points="34.9,186.8 34.6,186.4 38.3,184.1 38.3,172.6 34.6,169.9 34.9,169.5 38.8,172.3 38.8,184.4 	"/>
	<polygon class="st2" points="59.6,186.8 55.7,184.4 55.7,172.3 59.6,169.5 59.9,169.9 56.2,172.6 56.2,184.1 59.9,186.4 	"/>
	<rect x="38.6" y="172.2" class="st2" width="17.4" height="0.5"/>
	<rect x="34.7" y="178.2" class="st2" width="5.6" height="0.5"/>
	<rect x="54.2" y="178.2" class="st2" width="5.6" height="0.5"/>
	<rect x="44" y="172.5" class="st2" width="0.5" height="2.7"/>
	<rect x="50" y="172.5" class="st2" width="0.5" height="2.7"/>
	<rect x="38.6" y="184" class="st2" width="0.9" height="0.5"/>
	<rect x="55" y="184" class="st2" width="0.9" height="0.5"/>
</g>
<g>
	<path class="st16" d="M-24.9,129.5c0-1.6,0.7-3,1.8-4.1c1.2-1.1,2.7-1.7,4.4-1.7s3.2,0.6,4.4,1.7c1.2,1.1,1.8,2.6,1.8,4.1
		s-0.7,3-1.8,4.1c-1.2,1.1-2.7,1.7-4.4,1.7s-3.2-0.6-4.4-1.7C-24.2,132.5-24.9,131-24.9,129.5 M-24.9,138.2c-2,0-4,0.8-5.5,2.1
		c-1.4,1.4-2.3,3.2-2.3,5.2c0,1.2,0.5,2.3,1.4,3.1c0.9,0.8,2,1.3,3.3,1.3h18.5c1.2,0,2.4-0.5,3.3-1.3c0.9-0.8,1.4-1.9,1.4-3.1
		c0-1.9-0.8-3.8-2.3-5.2c-1.4-1.4-3.4-2.1-5.5-2.1H-24.9z"/>
</g>
<g>
	<defs>
		<rect id="SVGID_15_" x="111.2" y="2.5" width="21.9" height="23.6"/>
	</defs>
	<clipPath id="SVGID_16_">
		<use xlink:href="#SVGID_15_"  style="overflow:visible;"/>
	</clipPath>
	<g class="st17">
		<defs>
			<rect id="SVGID_17_" x="111.2" y="2.5" width="21.9" height="23.6"/>
		</defs>
		<clipPath id="SVGID_18_">
			<use xlink:href="#SVGID_17_"  style="overflow:visible;"/>
		</clipPath>
		<g style="clip-path:url(#SVGID_18_);">
			
				<image style="overflow:visible;" width="950" height="1024" xlink:href="4655B2EC.png"  transform="matrix(2.301777e-02 0 0 2.301777e-02 111.1837 2.5092)">
			</image>
		</g>
	</g>
</g>
<g>
	<defs>
		<rect id="SVGID_19_" x="70.3" y="2.9" width="21.1" height="24.3"/>
	</defs>
	<clipPath id="SVGID_20_">
		<use xlink:href="#SVGID_19_"  style="overflow:visible;"/>
	</clipPath>
	<g class="st18">
		<defs>
			<rect id="SVGID_21_" x="70.3" y="2.9" width="21.1" height="24.2"/>
		</defs>
		<clipPath id="SVGID_22_">
			<use xlink:href="#SVGID_21_"  style="overflow:visible;"/>
		</clipPath>
		<g style="clip-path:url(#SVGID_22_);">
			
				<image style="overflow:visible;" width="1779" height="2048" xlink:href="4655B2EF.png"  transform="matrix(1.184026e-02 0 0 1.184026e-02 70.2916 2.8754)">
			</image>
		</g>
	</g>
</g>
</svg>
