<?xml version="1.0" encoding="utf-8"?>
<!-- Generator: Adobe Illustrator 23.0.5, SVG Export Plug-In . SVG Version: 6.00 Build 0)  -->
<svg version="1.1" id="Layer_1" xmlns="http://www.w3.org/2000/svg" xmlns:xlink="http://www.w3.org/1999/xlink" x="0px" y="0px"
	 width="354.9px" height="144.1px" viewBox="0 0 354.9 144.1" style="enable-background:new 0 0 354.9 144.1;" xml:space="preserve"
	>
<style type="text/css">
	.st0{fill:#296331;}
	.st1{fill:#F494AD;}
	.st2{fill:#E97A92;}
	.st3{fill:#E5657B;}
	.st4{fill:#E15263;}
</style>
<g>
	<rect x="70.9" y="52.1" class="st0" width="212.8" height="2"/>
	<polygon class="st0" points="253.9,139.1 234.1,106.5 120.3,106.5 100.5,139.1 98.8,138 119.1,104.5 235.2,104.5 255.6,138 	"/>
	<polygon class="st0" points="144.1,139.7 142.4,138.7 149.7,125.6 204.8,125.6 212.1,138 210.3,139.1 203.6,127.6 150.8,127.6 	"/>
	<path class="st0" d="M177.7,65.6c-14.9,0-26.5-5.4-26.5-12.4c0-6.9,11.7-12.4,26.5-12.4s26.5,5.4,26.5,12.4
		C204.2,60.2,192.6,65.6,177.7,65.6z M177.7,42.9c-13.3,0-24.5,4.8-24.5,10.4c0,5.6,11.2,10.4,24.5,10.4s24.5-4.8,24.5-10.4
		C202.2,47.6,191,42.9,177.7,42.9z"/>
	<path class="st0" d="M201,106.3c-3.4-5.1-12.8-8.5-23.3-8.5c-10.4,0-19.7,3.3-23.2,8.3l-1.6-1.2c3.9-5.5,13.8-9.2,24.8-9.2
		c11.2,0,21.2,3.8,24.9,9.4L201,106.3z"/>
	<path class="st0" d="M177.5,13.8c-10,0-18.7-2.8-22-7.2l1.6-1.2c2.9,3.8,11.2,6.4,20.5,6.4c9.1,0,17.3-2.5,20.4-6.3l1.6,1.3
		C196,11,187.4,13.8,177.5,13.8z"/>
	<path class="st0" d="M352.1,139.6H2.8L107.6,4.5h139.6l0.3,0.4L352.1,139.6z M6.9,137.6H348L246.3,6.5H108.6L6.9,137.6z"/>
	<path class="st0" d="M17.2,139c-2.1-6.3-7.3-5.8-7.4-5.8l-0.2-2c0.1,0,6.9-0.7,9.5,7.1L17.2,139z"/>
	<path class="st0" d="M337.9,139l-1.9-0.6c2.6-7.8,9.4-7.1,9.5-7.1l-0.2,2l0.1-1l-0.1,1C345,133.2,340,132.8,337.9,139z"/>
</g>
<path class="st1" d="M-462.7,538.2c8.3,0,15,2.2,15,5c0,2.8-6.7,5-15,5c-8.3,0-15-2.2-15-5C-477.7,540.4-471,538.2-462.7,538.2"/>
<path class="st2" d="M-462.7,539.2c6.6,0,12,1.8,12,4c0,2.2-5.4,4-12,4c-6.6,0-12-1.8-12-4C-474.7,541-469.3,539.2-462.7,539.2"/>
<path class="st3" d="M-462.7,540.2c5,0,9,1.3,9,3s-4,3-9,3c-5,0-9-1.3-9-3S-467.7,540.2-462.7,540.2"/>
<path class="st4" d="M-462.7,541.2c3.3,0,6,0.9,6,2c0,1.1-2.7,2-6,2c-3.3,0-6-0.9-6-2C-468.7,542.1-466,541.2-462.7,541.2"/>
<g>
	<path class="st1" d="M-355.1,538.2c8.3,0,15,2.2,15,5c0,2.8-6.7,5-15,5c-8.3,0-15-2.2-15-5C-370.1,540.4-363.4,538.2-355.1,538.2"
		/>
	<path class="st2" d="M-355.1,539.2c6.6,0,12,1.8,12,4c0,2.2-5.4,4-12,4c-6.6,0-12-1.8-12-4C-367.1,541-361.8,539.2-355.1,539.2"/>
	<path class="st3" d="M-355.1,540.2c5,0,9,1.3,9,3s-4,3-9,3c-5,0-9-1.3-9-3S-360.1,540.2-355.1,540.2"/>
	<path class="st4" d="M-355.1,541.2c3.3,0,6,0.9,6,2c0,1.1-2.7,2-6,2c-3.3,0-6-0.9-6-2C-361.1,542.1-358.4,541.2-355.1,541.2"/>
</g>
<path class="st1" d="M-409.3,528.8c8.3,0,15,2.2,15,5c0,2.8-6.7,5-15,5c-8.3,0-15-2.2-15-5C-424.3,531-417.6,528.8-409.3,528.8"/>
<path class="st2" d="M-409.3,529.8c6.6,0,12,1.8,12,4c0,2.2-5.4,4-12,4c-6.6,0-12-1.8-12-4C-421.3,531.6-415.9,529.8-409.3,529.8"/>
<path class="st3" d="M-409.3,530.8c5,0,9,1.3,9,3c0,1.7-4,3-9,3c-5,0-9-1.3-9-3C-418.3,532.1-414.3,530.8-409.3,530.8"/>
<path class="st4" d="M-409.3,531.8c3.3,0,6,0.9,6,2c0,1.1-2.7,2-6,2c-3.3,0-6-0.9-6-2C-415.3,532.7-412.6,531.8-409.3,531.8"/>
</svg>
