<svg width="19" height="19" viewBox="0 0 19 19" fill="none" xmlns="http://www.w3.org/2000/svg">
<g clip-path="url(#clip0_362_27293)">
<path d="M17.317 0.71875H1.68805C1.15272 0.71875 0.71875 1.15272 0.71875 1.68805V17.317C0.71875 17.8524 1.15272 18.2863 1.68805 18.2863H17.317C17.8524 18.2863 18.2863 17.8524 18.2863 17.317V1.68805C18.2863 1.15272 17.8524 0.71875 17.317 0.71875Z" fill="#3D5A98"/>
<path d="M12.8386 18.2809V11.4781H15.1216L15.463 8.82696H12.8386V7.13478C12.8386 6.36736 13.0523 5.84337 14.1523 5.84337H15.5565V3.46837C14.8765 3.39763 14.1932 3.36394 13.5095 3.36743C11.4878 3.36743 10.0955 4.59947 10.0955 6.87204V8.82696H7.8125V11.4781H10.0955V18.2809H12.8386Z" fill="white"/>
</g>
<defs>
<clipPath id="clip0_362_27293">
<rect width="19" height="19" fill="white"/>
</clipPath>
</defs>
</svg>
