<svg xmlns="http://www.w3.org/2000/svg" width="17" height="17" fill="none"><g clip-path="url(#a)"><path fill="url(#b)" d="M12.795.414h-8.59a3.79 3.79 0 0 0-3.79 3.79v8.592a3.79 3.79 0 0 0 3.79 3.79h8.59a3.79 3.79 0 0 0 3.79-3.79V4.204a3.79 3.79 0 0 0-3.79-3.79"/><path fill="url(#c)" d="M12.795.414h-8.59a3.79 3.79 0 0 0-3.79 3.79v8.592a3.79 3.79 0 0 0 3.79 3.79h8.59a3.79 3.79 0 0 0 3.79-3.79V4.204a3.79 3.79 0 0 0-3.79-3.79"/><path fill="#fff" d="M8.5 2.183c-1.715 0-1.93.008-2.604.038-.672.031-1.131.138-1.533.294a3.1 3.1 0 0 0-1.119.728 3.1 3.1 0 0 0-.73 1.12c-.156.4-.262.86-.293 1.532-.03.674-.038.89-.038 2.605 0 1.716.008 1.93.039 2.604.03.673.137 1.132.293 1.533.161.416.377.768.729 1.12.35.35.703.567 1.118.729.402.156.861.262 1.534.293.674.03.889.038 2.604.038s1.93-.007 2.604-.038c.673-.03 1.132-.137 1.534-.293a3.1 3.1 0 0 0 1.119-.73c.35-.35.567-.703.729-1.119.155-.401.261-.86.293-1.533.03-.673.038-.888.038-2.604 0-1.715-.008-1.93-.038-2.605-.031-.672-.138-1.131-.293-1.533a3.1 3.1 0 0 0-.73-1.119 3.1 3.1 0 0 0-1.118-.728c-.403-.156-.862-.263-1.534-.294-.674-.03-.889-.038-2.605-.038zm-.566 1.139h.567c1.687 0 1.886.006 2.553.036.615.028.95.13 1.172.217.295.115.505.252.726.473.222.221.358.432.473.726.086.223.19.557.218 1.173.03.666.036.866.036 2.552s-.006 1.886-.036 2.551c-.029.616-.132.95-.218 1.173a1.95 1.95 0 0 1-.473.726c-.22.22-.43.358-.726.472-.222.087-.557.19-1.172.218-.666.03-.866.037-2.553.037s-1.887-.007-2.553-.037c-.616-.028-.95-.131-1.173-.218a1.96 1.96 0 0 1-.726-.472 1.96 1.96 0 0 1-.473-.726c-.086-.223-.19-.557-.217-1.173-.03-.666-.037-.866-.037-2.553s.006-1.886.037-2.552c.028-.616.13-.95.217-1.173.115-.294.252-.505.473-.726a2 2 0 0 1 .726-.473c.223-.087.557-.19 1.173-.217.583-.027.809-.035 1.986-.036zm3.939 1.048a.758.758 0 1 0 0 1.516.758.758 0 0 0 0-1.516M8.5 5.256a3.244 3.244 0 1 0 0 6.488 3.244 3.244 0 0 0 0-6.488m0 1.138a2.106 2.106 0 1 1 0 4.212 2.106 2.106 0 0 1 0-4.212"/></g><defs><radialGradient id="b" cx="0" cy="0" r="1" gradientTransform="matrix(0 -16.0271 14.9064 0 4.71 17.831)" gradientUnits="userSpaceOnUse"><stop stop-color="#FD5"/><stop offset=".1" stop-color="#FD5"/><stop offset=".5" stop-color="#FF543E"/><stop offset="1" stop-color="#C837AB"/></radialGradient><radialGradient id="c" cx="0" cy="0" r="1" gradientTransform="matrix(1.40612 7.02482 -28.95661 5.79609 -2.295 1.58)" gradientUnits="userSpaceOnUse"><stop stop-color="#3771C8"/><stop offset=".128" stop-color="#3771C8"/><stop offset="1" stop-color="#60F" stop-opacity="0"/></radialGradient><clipPath id="a"><path fill="#fff" d="M0 0h17v17H0z"/></clipPath></defs></svg>