<svg width="16" height="18" viewBox="0 0 16 18" fill="none" xmlns="http://www.w3.org/2000/svg">
<g clip-path="url(#clip0_362_27305)">
<path d="M11.8594 6.48185C13.0268 7.31016 14.4569 7.79753 16.0015 7.79753V4.84739C15.7092 4.84745 15.4176 4.81716 15.1316 4.75702V7.07921C13.5872 7.07921 12.1572 6.5919 10.9896 5.76365V11.7841C10.9896 14.7959 8.52987 17.2372 5.49587 17.2372C4.36381 17.2372 3.31156 16.8975 2.4375 16.3148C3.43512 17.3274 4.82638 17.9554 6.3655 17.9554C9.39975 17.9554 11.8596 15.5141 11.8596 12.5022V6.48185H11.8594ZM12.9326 3.50552C12.3359 2.85858 11.9442 2.02251 11.8594 1.09818V0.71875H11.0351C11.2426 1.89353 11.9504 2.89718 12.9326 3.50552ZM4.3565 14.0037C4.02318 13.57 3.843 13.0393 3.84381 12.4936C3.84381 11.1162 4.96887 9.9993 6.35694 9.9993C6.61558 9.99917 6.87269 10.0386 7.11925 10.1162V7.10006C6.83112 7.06089 6.54037 7.0442 6.24975 7.05034V9.39792C6.00308 9.32027 5.74583 9.28087 5.48706 9.2811C4.09906 9.2811 2.97406 10.3978 2.97406 11.7755C2.97406 12.7496 3.53637 13.5929 4.3565 14.0037Z" fill="#FF004F"/>
<path d="M10.9851 5.76359C12.1527 6.59184 13.5826 7.07914 15.1271 7.07914V4.75696C14.2649 4.57466 13.5018 4.12752 12.9279 3.50552C11.9458 2.89712 11.2381 1.89347 11.0306 0.71875H8.86538V12.5021C8.86044 13.8758 7.73731 14.9881 6.35225 14.9881C5.53613 14.9881 4.811 14.602 4.35181 14.0037C3.53181 13.5929 2.96944 12.7495 2.96944 11.7755C2.96944 10.398 4.09444 9.28116 5.48244 9.28116C5.74838 9.28116 6.00469 9.32225 6.24512 9.39798V7.05041C3.26437 7.11154 0.867188 9.529 0.867188 12.5022C0.867188 13.9864 1.46413 15.3318 2.433 16.3149C3.30706 16.8975 4.35925 17.2373 5.49137 17.2373C8.52544 17.2373 10.9851 14.7958 10.9851 11.7841L10.9851 5.76359Z" fill="black"/>
<path d="M15.1297 4.75634V4.12858C14.3522 4.12975 13.5902 3.91364 12.9306 3.50497C13.5144 4.13945 14.2833 4.57698 15.1297 4.75647M11.0331 0.718138C11.0133 0.605893 10.9982 0.492896 10.9876 0.379428V0H7.998V11.7835C7.99325 13.1571 6.87013 14.2693 5.485 14.2693C5.09233 14.2699 4.70502 14.1788 4.35437 14.0033C4.81356 14.6014 5.53869 14.9875 6.35481 14.9875C7.73981 14.9875 8.86306 13.8753 8.86794 12.5016V0.7182L11.0331 0.718138ZM6.24788 7.04979V6.38137C5.99806 6.34746 5.7462 6.3305 5.49406 6.3306C2.45969 6.3306 0 8.77202 0 11.7835C0 13.6716 0.966688 15.3355 2.43569 16.3143C1.46681 15.3312 0.869875 13.9857 0.869875 12.5016C0.869875 9.52845 3.267 7.11093 6.24788 7.04979Z" fill="#00F2EA"/>
</g>
<defs>
<clipPath id="clip0_362_27305">
<rect width="16" height="18" fill="white"/>
</clipPath>
</defs>
</svg>
