<svg width="19" height="16" viewBox="0 0 19 16" fill="none" xmlns="http://www.w3.org/2000/svg">
<g clip-path="url(#clip0_362_27316)">
<path d="M18.9908 3.70619C18.9063 5.49761 17.6144 7.95063 15.1159 11.064C12.5327 14.3162 10.3471 15.9422 8.5592 15.9422C7.45201 15.9422 6.5144 14.9521 5.74906 12.9713C5.23754 11.1557 4.7267 9.34012 4.2154 7.52452C3.64666 5.54482 3.03696 4.55368 2.38509 4.55368C2.24296 4.55368 1.74555 4.84341 0.893965 5.42048L0 4.305C0.930608 3.51356 1.85491 2.71521 2.77281 1.91002C4.0234 0.863208 4.96227 0.312751 5.58793 0.257074C7.06674 0.119531 7.97681 1.09854 8.31844 3.19433C8.6876 5.45542 8.94299 6.86184 9.0866 7.4123C9.51277 9.28818 9.98168 10.2249 10.4942 10.2249C10.8918 10.2249 11.4892 9.61664 12.2857 8.39993C13.0814 7.18285 13.5076 6.25693 13.5652 5.62088C13.6784 4.57062 13.252 4.04419 12.2857 4.04419C11.8308 4.04419 11.3619 4.14558 10.8795 4.34597C11.8132 1.38346 13.5972 -0.0553209 16.2307 0.0267599C18.1829 0.0822217 19.1032 1.3087 18.9908 3.70619Z" fill="#32B8E8"/>
</g>
<defs>
<clipPath id="clip0_362_27316">
<rect width="19" height="16" fill="white"/>
</clipPath>
</defs>
</svg>
