<svg width="22" height="15" viewBox="0 0 22 15" fill="none" xmlns="http://www.w3.org/2000/svg">
<g clip-path="url(#clip0_362_27311)">
<path d="M21.5141 2.33958C21.3879 1.88738 21.1418 1.47512 20.8002 1.14386C20.4586 0.812593 20.0335 0.573884 19.5671 0.4515C17.8599 0 10.9888 0 10.9888 0C10.9888 0 4.11745 0.0136666 2.41022 0.465167C1.94388 0.587558 1.51874 0.82628 1.17714 1.15756C0.835539 1.48884 0.589395 1.90111 0.46322 2.35333C-0.0531788 5.29483 -0.253499 9.777 0.477399 12.6008C0.603588 13.053 0.849737 13.4653 1.19134 13.7966C1.53294 14.1278 1.95807 14.3665 2.4244 14.4889C4.13163 14.9404 11.0029 14.9404 11.0029 14.9404C11.0029 14.9404 17.874 14.9404 19.5811 14.4889C20.0475 14.3665 20.4726 14.1278 20.8142 13.7966C21.1559 13.4653 21.402 13.053 21.5282 12.6008C22.0729 9.65517 22.2407 5.17575 21.5141 2.33958Z" fill="#FF0000"/>
<path d="M8.80469 10.6686L14.5047 7.46713L8.80469 4.26562V10.6686Z" fill="white"/>
</g>
<defs>
<clipPath id="clip0_362_27311">
<rect width="22" height="15" fill="white"/>
</clipPath>
</defs>
</svg>
