<svg width="31" height="31" viewBox="0 0 31 31" fill="none" xmlns="http://www.w3.org/2000/svg">
<path d="M27.1362 29.8867C27.1362 29.8867 26.9506 30.0723 26.5795 30.4434C26.2084 30.8145 25.5151 31 24.4994 31C23.4838 31 22.6049 30.6289 21.8627 29.8867C21.1205 29.1445 20.7494 28.2656 20.7494 27.25V25.375H28.2494V27.25C28.2494 28.2656 27.8783 29.1445 27.1362 29.8867ZM16.9994 11.2539C16.9994 8.40234 17.4877 5.98047 18.4643 3.98828C19.4408 1.99609 20.8276 1 22.6244 1C24.1088 1 25.4955 1.70312 26.7846 3.10938C28.0737 4.51562 29.0502 6.72266 29.7143 9.73047C30.1049 11.4883 30.2221 13.3828 30.0658 15.4141C29.9877 16.7813 29.6948 18.3438 29.1869 20.1016L28.2494 23.5H20.7494C20.7494 22.4063 20.642 21.4395 20.4272 20.5996C20.2123 19.7598 20.017 19.1934 19.8412 18.9004C19.6655 18.6074 19.3432 18.0898 18.8744 17.3477C17.6244 15.4727 16.9994 13.4414 16.9994 11.2539Z" fill="#023A4A"/>
<path d="M8.38672 29.3867C8.38672 29.3867 8.20117 29.5723 7.83008 29.9434C7.45898 30.3145 6.76563 30.5 5.75 30.5C4.73437 30.5 3.85547 30.1289 3.11328 29.3867C2.37109 28.6445 2 27.7656 2 26.75V24.875H9.5V26.75C9.5 27.7656 9.12891 28.6445 8.38672 29.3867ZM0.535156 9.23047C1.19922 6.22266 2.17578 4.01562 3.46484 2.60938C4.75391 1.20312 6.14062 0.5 7.625 0.5C8.83594 0.5 9.87109 0.988281 10.7305 1.96484C11.5898 2.94141 12.2246 4.19141 12.6348 5.71484C13.0449 7.23828 13.25 8.91797 13.25 10.7539C13.25 12.9414 12.625 14.9727 11.375 16.8477C10.9062 17.5898 10.584 18.1074 10.4082 18.4004C10.2324 18.6934 10.0371 19.2598 9.82227 20.0996C9.60742 20.9395 9.5 21.9063 9.5 23H2L1.0625 19.6016C0.554687 17.8438 0.261719 16.2813 0.183594 14.9141C0.0273437 12.9219 0.144531 11.0273 0.535156 9.23047Z" fill="#023A4A"/>
</svg>
