<svg width="31" height="31" viewBox="0 0 31 31" fill="none" xmlns="http://www.w3.org/2000/svg">
<path d="M27.019 29.8867C27.019 29.8867 26.8334 30.0723 26.4623 30.4434C26.0912 30.8145 25.3979 31 24.3823 31C23.3666 31 22.4877 30.6289 21.7455 29.8867C21.0033 29.1445 20.6323 28.2656 20.6323 27.25V25.375H28.1323V27.25C28.1323 28.2656 27.7612 29.1445 27.019 29.8867ZM16.8823 11.2539C16.8823 8.40234 17.3705 5.98047 18.3471 3.98828C19.3237 1.99609 20.7104 1 22.5073 1C23.9916 1 25.3783 1.70312 26.6674 3.10938C27.9565 4.51562 28.933 6.72266 29.5971 9.73047C29.9877 11.4883 30.1049 13.3828 29.9487 15.4141C29.8705 16.7813 29.5776 18.3438 29.0698 20.1016L28.1323 23.5H20.6323C20.6323 22.4063 20.5248 21.4395 20.31 20.5996C20.0951 19.7598 19.8998 19.1934 19.7241 18.9004C19.5483 18.6074 19.226 18.0898 18.7573 17.3477C17.5073 15.4727 16.8823 13.4414 16.8823 11.2539Z" fill="#D5D5D5"/>
<path d="M8.26953 29.3867C8.26953 29.3867 8.08398 29.5723 7.71289 29.9434C7.3418 30.3145 6.64844 30.5 5.63281 30.5C4.61719 30.5 3.73828 30.1289 2.99609 29.3867C2.25391 28.6445 1.88281 27.7656 1.88281 26.75V24.875H9.38281V26.75C9.38281 27.7656 9.01172 28.6445 8.26953 29.3867ZM0.417969 9.23047C1.08203 6.22266 2.05859 4.01562 3.34766 2.60938C4.63672 1.20312 6.02344 0.5 7.50781 0.5C8.71875 0.5 9.75391 0.988281 10.6133 1.96484C11.4727 2.94141 12.1074 4.19141 12.5176 5.71484C12.9277 7.23828 13.1328 8.91797 13.1328 10.7539C13.1328 12.9414 12.5078 14.9727 11.2578 16.8477C10.7891 17.5898 10.4668 18.1074 10.291 18.4004C10.1152 18.6934 9.91992 19.2598 9.70508 20.0996C9.49023 20.9395 9.38281 21.9063 9.38281 23H1.88281L0.945312 19.6016C0.4375 17.8438 0.144531 16.2813 0.0664062 14.9141C-0.0898438 12.9219 0.0273438 11.0273 0.417969 9.23047Z" fill="#023A4A"/>
</svg>
